%TF.GenerationSoftware,KiCad,Pcbnew,(6.0.7)*%
%TF.CreationDate,2022-08-22T17:26:44+09:00*%
%TF.ProjectId,LedRouletteShield,4c656452-6f75-46c6-9574-746553686965,rev?*%
%TF.SameCoordinates,Original*%
%TF.FileFunction,Legend,Bot*%
%TF.FilePolarity,Positive*%
%FSLAX46Y46*%
G04 Gerber Fmt 4.6, Leading zero omitted, Abs format (unit mm)*
G04 Created by KiCad (PCBNEW (6.0.7)) date 2022-08-22 17:26:44*
%MOMM*%
%LPD*%
G01*
G04 APERTURE LIST*
G04 APERTURE END LIST*
%TO.C,G\u002A\u002A\u002A*%
G36*
X176766954Y-53011680D02*
G01*
X176843676Y-53112414D01*
X176834042Y-53258936D01*
X176792964Y-53309879D01*
X176677499Y-53349007D01*
X176644107Y-53346950D01*
X176574142Y-53300409D01*
X176555520Y-53168865D01*
X176556913Y-53119550D01*
X176588427Y-53016224D01*
X176677499Y-52988723D01*
X176766954Y-53011680D01*
G37*
G36*
X164572195Y-55255508D02*
G01*
X164575283Y-55299144D01*
X164597841Y-55604366D01*
X164621781Y-55910116D01*
X164642412Y-56156217D01*
X164647314Y-56212047D01*
X164659228Y-56393065D01*
X164649291Y-56488315D01*
X164609358Y-56525297D01*
X164531287Y-56531513D01*
X164480209Y-56526004D01*
X164312991Y-56436776D01*
X164154484Y-56253993D01*
X164016334Y-55997847D01*
X163910185Y-55688529D01*
X163847682Y-55346229D01*
X163834800Y-55187921D01*
X163843884Y-54960744D01*
X163907215Y-54820660D01*
X164036276Y-54749749D01*
X164242550Y-54730094D01*
X164535283Y-54730094D01*
X164572195Y-55255508D01*
G37*
G36*
X182800996Y-52989210D02*
G01*
X182850727Y-53102027D01*
X182845549Y-53203301D01*
X182790679Y-53296261D01*
X182747579Y-53321708D01*
X182652247Y-53339668D01*
X182562642Y-53261821D01*
X182549904Y-53245378D01*
X182504356Y-53110957D01*
X182552967Y-53002975D01*
X182681165Y-52958700D01*
X182800996Y-52989210D01*
G37*
G36*
X175895000Y-56551529D02*
G01*
X175893859Y-56834453D01*
X175889708Y-57141435D01*
X175883059Y-57388532D01*
X175874484Y-57555675D01*
X175864553Y-57622796D01*
X175795546Y-57638909D01*
X175645876Y-57625655D01*
X175460133Y-57586792D01*
X175279206Y-57531132D01*
X175143984Y-57467489D01*
X175013777Y-57352113D01*
X174864341Y-57102720D01*
X174780296Y-56785149D01*
X174770400Y-56423870D01*
X174792389Y-56240589D01*
X174872872Y-55966943D01*
X175016723Y-55767223D01*
X175238749Y-55615885D01*
X175248077Y-55611240D01*
X175456629Y-55540185D01*
X175669823Y-55510802D01*
X175895000Y-55510709D01*
X175895000Y-56551529D01*
G37*
G36*
X178439413Y-56145684D02*
G01*
X178503629Y-56264705D01*
X178586484Y-56441329D01*
X178673970Y-56645399D01*
X178752082Y-56846761D01*
X178760532Y-56900236D01*
X178720558Y-56933491D01*
X178607066Y-56948401D01*
X178396813Y-56951844D01*
X178003508Y-56951844D01*
X178189164Y-56531513D01*
X178208597Y-56487961D01*
X178299161Y-56296709D01*
X178371321Y-56162531D01*
X178410915Y-56112207D01*
X178439413Y-56145684D01*
G37*
G36*
X184258758Y-52935978D02*
G01*
X184360835Y-53011177D01*
X184385927Y-53134109D01*
X184319328Y-53262673D01*
X184262607Y-53308683D01*
X184147579Y-53323202D01*
X184041152Y-53218488D01*
X184006790Y-53087605D01*
X184065736Y-52974879D01*
X184202661Y-52928676D01*
X184258758Y-52935978D01*
G37*
G36*
X160883180Y-69621820D02*
G01*
X160883180Y-55362290D01*
X163171508Y-55362290D01*
X163254761Y-55830185D01*
X163382388Y-56221830D01*
X163572690Y-56583607D01*
X163826856Y-56886155D01*
X163938528Y-56979726D01*
X164140987Y-57105114D01*
X164351713Y-57196943D01*
X164536675Y-57241414D01*
X164661839Y-57224726D01*
X164693100Y-57215082D01*
X164748962Y-57263286D01*
X164787039Y-57399081D01*
X164870255Y-57678026D01*
X164941662Y-57875544D01*
X165013179Y-58017041D01*
X165096724Y-58127918D01*
X165204217Y-58233578D01*
X165290319Y-58302622D01*
X165522228Y-58445448D01*
X165758443Y-58548030D01*
X165828199Y-58568156D01*
X165969497Y-58597480D01*
X166149170Y-58620170D01*
X166383559Y-58637284D01*
X166689007Y-58649878D01*
X167081857Y-58659010D01*
X167578452Y-58665736D01*
X167890097Y-58668425D01*
X168291697Y-58670006D01*
X168648214Y-58669284D01*
X168940899Y-58666384D01*
X169151003Y-58661430D01*
X169259776Y-58654548D01*
X169640969Y-58571137D01*
X170004631Y-58440041D01*
X170292306Y-58279235D01*
X170404205Y-58193430D01*
X170484509Y-58107068D01*
X170539331Y-57995454D01*
X170583621Y-57827497D01*
X170632329Y-57572107D01*
X170661957Y-57403121D01*
X170716347Y-57058278D01*
X170764752Y-56694477D01*
X170791617Y-56451483D01*
X173991447Y-56451483D01*
X174027770Y-56918129D01*
X174120493Y-57283694D01*
X174291950Y-57645680D01*
X174535777Y-57919594D01*
X174861848Y-58115900D01*
X175280041Y-58245064D01*
X175648476Y-58308809D01*
X176003734Y-58332016D01*
X176268834Y-58299948D01*
X176435426Y-58212837D01*
X176442697Y-58205439D01*
X176478182Y-58161317D01*
X176505344Y-58101989D01*
X176516699Y-58051027D01*
X176927272Y-58051027D01*
X176939608Y-58096226D01*
X177039564Y-58217152D01*
X177195455Y-58285386D01*
X177359828Y-58276221D01*
X177422390Y-58232186D01*
X177531186Y-58099938D01*
X177634792Y-57921083D01*
X177783330Y-57612364D01*
X179061190Y-57612364D01*
X179164424Y-57882677D01*
X179198100Y-57961164D01*
X179297180Y-58133023D01*
X179396108Y-58242961D01*
X179430321Y-58266823D01*
X179525155Y-58320449D01*
X179607792Y-58315939D01*
X179738026Y-58255484D01*
X179842272Y-58174661D01*
X179905518Y-58060053D01*
X179894622Y-58000882D01*
X179844559Y-57841865D01*
X179785274Y-57674334D01*
X180284979Y-57674334D01*
X180339603Y-57854617D01*
X180375774Y-57902117D01*
X180502013Y-58013522D01*
X180571089Y-58060053D01*
X180669840Y-58126574D01*
X180976009Y-58256615D01*
X181363150Y-58313989D01*
X181756273Y-58273974D01*
X182126179Y-58140041D01*
X182443668Y-57915662D01*
X182519548Y-57834998D01*
X182708922Y-57520232D01*
X182822103Y-57115987D01*
X182828051Y-57034721D01*
X183280816Y-57034721D01*
X183280945Y-57188117D01*
X183283153Y-57529930D01*
X183289455Y-57776501D01*
X183301603Y-57945986D01*
X183321347Y-58056544D01*
X183350438Y-58126332D01*
X183390627Y-58173506D01*
X183512548Y-58252700D01*
X183660462Y-58253319D01*
X183787894Y-58136266D01*
X183819026Y-58068893D01*
X183837888Y-57982876D01*
X184266028Y-57982876D01*
X184278901Y-58073948D01*
X184335538Y-58157093D01*
X184348752Y-58171345D01*
X184445658Y-58248941D01*
X184549678Y-58270795D01*
X184674927Y-58229737D01*
X184835515Y-58118598D01*
X185045557Y-57930209D01*
X185319166Y-57657399D01*
X185920469Y-57041915D01*
X185921683Y-57553968D01*
X185921688Y-57555976D01*
X185931896Y-57863213D01*
X185962505Y-58071222D01*
X186016372Y-58199476D01*
X186103329Y-58281386D01*
X186274996Y-58331122D01*
X186449407Y-58282754D01*
X186501101Y-58232094D01*
X186549981Y-58127833D01*
X186587078Y-57963898D01*
X186613684Y-57728229D01*
X186631089Y-57408765D01*
X186640585Y-56993446D01*
X186643464Y-56470211D01*
X186643202Y-56227066D01*
X186639787Y-55795999D01*
X186629869Y-55465457D01*
X186610276Y-55222172D01*
X186577837Y-55052875D01*
X186529380Y-54944296D01*
X186461732Y-54883169D01*
X186371721Y-54856222D01*
X186256176Y-54850189D01*
X186245010Y-54850232D01*
X186126733Y-54862648D01*
X186050362Y-54911520D01*
X186006924Y-55017721D01*
X185987443Y-55202123D01*
X185982943Y-55485597D01*
X185982822Y-55523486D01*
X185977375Y-55730232D01*
X185965451Y-55875920D01*
X185949281Y-55931040D01*
X185903607Y-55897615D01*
X185789345Y-55794463D01*
X185625614Y-55638263D01*
X185430609Y-55446031D01*
X185281578Y-55299186D01*
X185050754Y-55087225D01*
X184873295Y-54953925D01*
X184733458Y-54890690D01*
X184615500Y-54888930D01*
X184503680Y-54940049D01*
X184489975Y-54949245D01*
X184403004Y-55029206D01*
X184373356Y-55121915D01*
X184407459Y-55240849D01*
X184408891Y-55243028D01*
X184511738Y-55399484D01*
X184692619Y-55611296D01*
X184956527Y-55889762D01*
X185551388Y-56501489D01*
X185167010Y-56898446D01*
X184932606Y-57140521D01*
X184814162Y-57263517D01*
X184570985Y-57524199D01*
X184403970Y-57721793D01*
X184305017Y-57870088D01*
X184266028Y-57982876D01*
X183837888Y-57982876D01*
X183847493Y-57939071D01*
X183866888Y-57740858D01*
X183878774Y-57457046D01*
X183884714Y-57070426D01*
X183885341Y-56898446D01*
X183882592Y-56585374D01*
X183875258Y-56321448D01*
X183864132Y-56130310D01*
X183850007Y-56035604D01*
X183843916Y-56022040D01*
X183736381Y-55922753D01*
X183574224Y-55887457D01*
X183406503Y-55928047D01*
X183366198Y-55953651D01*
X183331702Y-55996456D01*
X183308002Y-56070522D01*
X183293082Y-56193615D01*
X183284922Y-56383502D01*
X183281907Y-56625697D01*
X183281506Y-56657948D01*
X183280816Y-57034721D01*
X182828051Y-57034721D01*
X182857988Y-56625697D01*
X182855032Y-56514758D01*
X182788300Y-56051929D01*
X182640676Y-55648608D01*
X182421065Y-55315784D01*
X182387209Y-55285683D01*
X183239079Y-55285683D01*
X183354224Y-55417233D01*
X183510907Y-55496092D01*
X183667300Y-55484752D01*
X183798351Y-55358131D01*
X183849270Y-55243028D01*
X183841828Y-55088465D01*
X183758711Y-54970162D01*
X183626401Y-54906842D01*
X183471385Y-54917229D01*
X183320146Y-55020047D01*
X183242642Y-55137243D01*
X183239079Y-55285683D01*
X182387209Y-55285683D01*
X182138371Y-55064446D01*
X181801497Y-54905585D01*
X181419350Y-54850189D01*
X181400990Y-54850317D01*
X181073880Y-54895845D01*
X180783306Y-55012861D01*
X180550038Y-55186171D01*
X180394845Y-55400580D01*
X180338499Y-55640894D01*
X180349999Y-55750566D01*
X180425703Y-55882895D01*
X180559954Y-55923310D01*
X180738448Y-55869930D01*
X180946879Y-55720875D01*
X181090939Y-55613323D01*
X181327035Y-55526673D01*
X181552375Y-55543264D01*
X181755779Y-55652749D01*
X181926071Y-55844783D01*
X182052072Y-56109019D01*
X182122604Y-56435111D01*
X182126490Y-56812713D01*
X182121929Y-56859855D01*
X182045864Y-57169211D01*
X181888285Y-57400914D01*
X181636915Y-57574059D01*
X181558523Y-57611822D01*
X181435259Y-57652848D01*
X181318633Y-57643736D01*
X181150130Y-57585911D01*
X181076499Y-57555563D01*
X180914330Y-57472571D01*
X180816255Y-57399038D01*
X180790589Y-57374693D01*
X180649157Y-57320590D01*
X180481298Y-57323078D01*
X180350508Y-57384184D01*
X180293870Y-57494841D01*
X180284979Y-57674334D01*
X179785274Y-57674334D01*
X179760799Y-57605173D01*
X179650588Y-57309057D01*
X179521177Y-56971767D01*
X179379813Y-56611552D01*
X179233744Y-56246662D01*
X179090218Y-55895348D01*
X178956485Y-55575859D01*
X178839792Y-55306446D01*
X178747388Y-55105358D01*
X178686521Y-54990845D01*
X178647451Y-54943368D01*
X178492190Y-54860348D01*
X178313725Y-54863224D01*
X178160504Y-54955272D01*
X178106868Y-55044453D01*
X178019363Y-55226179D01*
X177905940Y-55481381D01*
X177773922Y-55791673D01*
X177630634Y-56138671D01*
X177483400Y-56503989D01*
X177450464Y-56587613D01*
X177339544Y-56869240D01*
X177206389Y-57216041D01*
X177091261Y-57526006D01*
X177001482Y-57780749D01*
X176944378Y-57961884D01*
X176927272Y-58051027D01*
X176516699Y-58051027D01*
X176525289Y-58012473D01*
X176539125Y-57877783D01*
X176547959Y-57682936D01*
X176552898Y-57412948D01*
X176555049Y-57052835D01*
X176555520Y-56587613D01*
X176555329Y-56447101D01*
X176551459Y-55974920D01*
X176542918Y-55580072D01*
X176530114Y-55273238D01*
X176513459Y-55065099D01*
X176493360Y-54966336D01*
X176493252Y-54966134D01*
X176453747Y-54914283D01*
X176386536Y-54880653D01*
X176268533Y-54861485D01*
X176076652Y-54853022D01*
X175787805Y-54851508D01*
X175515580Y-54855658D01*
X175253496Y-54873076D01*
X175058986Y-54907485D01*
X174902887Y-54962542D01*
X174759678Y-55037517D01*
X174444941Y-55291049D01*
X174207208Y-55621910D01*
X174053652Y-56014066D01*
X173991447Y-56451483D01*
X170791617Y-56451483D01*
X170809304Y-56291509D01*
X170852137Y-55829166D01*
X170895382Y-55287238D01*
X170941173Y-54645516D01*
X170955279Y-54437469D01*
X170988476Y-53922584D01*
X171011486Y-53509874D01*
X171024260Y-53186400D01*
X171026749Y-52939226D01*
X171018904Y-52755414D01*
X171000676Y-52622027D01*
X170972016Y-52526127D01*
X170932874Y-52454776D01*
X170854483Y-52376658D01*
X170738423Y-52335101D01*
X170578114Y-52340625D01*
X170361889Y-52396301D01*
X170078081Y-52505200D01*
X169715022Y-52670396D01*
X169261044Y-52894959D01*
X168989295Y-53031513D01*
X168580249Y-53228287D01*
X168236942Y-53376109D01*
X167934838Y-53481775D01*
X167649400Y-53552080D01*
X167356092Y-53593822D01*
X167030377Y-53613796D01*
X166647719Y-53618799D01*
X166560828Y-53618637D01*
X166226093Y-53613840D01*
X165965654Y-53598978D01*
X165742003Y-53569452D01*
X165517634Y-53520662D01*
X165255042Y-53448010D01*
X165086283Y-53401026D01*
X164858951Y-53346227D01*
X164690810Y-53316300D01*
X164609534Y-53316868D01*
X164582491Y-53366994D01*
X164556222Y-53509756D01*
X164546064Y-53704530D01*
X164546064Y-54052965D01*
X164230816Y-54048742D01*
X164011737Y-54062153D01*
X163689168Y-54159858D01*
X163439958Y-54345847D01*
X163268009Y-54612998D01*
X163177225Y-54954187D01*
X163171508Y-55362290D01*
X160883180Y-55362290D01*
X160883180Y-52060673D01*
X164576307Y-52060673D01*
X164615219Y-52203096D01*
X164775220Y-52469387D01*
X165043748Y-52702946D01*
X165408078Y-52889350D01*
X165858459Y-53022172D01*
X165926136Y-53035329D01*
X166236896Y-53075482D01*
X166588204Y-53096643D01*
X166940357Y-53098344D01*
X167253650Y-53080114D01*
X167488381Y-53041483D01*
X167728141Y-52973556D01*
X167986104Y-52888717D01*
X168241551Y-52788133D01*
X168520915Y-52660389D01*
X168850628Y-52494074D01*
X169218771Y-52298180D01*
X173613203Y-52298180D01*
X173631434Y-52351651D01*
X173739443Y-52421652D01*
X173918351Y-52448298D01*
X173942731Y-52449501D01*
X173991218Y-52472388D01*
X174018621Y-52542988D01*
X174030780Y-52685410D01*
X174033534Y-52923765D01*
X174033593Y-52939226D01*
X174033717Y-52971858D01*
X174039759Y-53204913D01*
X174052628Y-53391259D01*
X174069982Y-53494214D01*
X174090295Y-53531512D01*
X174187552Y-53588059D01*
X174293739Y-53549165D01*
X174301715Y-53530543D01*
X174318128Y-53414241D01*
X174329511Y-53220355D01*
X174333771Y-52978715D01*
X174334301Y-52868629D01*
X175384598Y-52868629D01*
X175385018Y-53093779D01*
X175388989Y-53316432D01*
X175400579Y-53455220D01*
X175423847Y-53531163D01*
X175462851Y-53565288D01*
X175521649Y-53578615D01*
X175577199Y-53583565D01*
X175616358Y-53566970D01*
X175638982Y-53508726D01*
X175648482Y-53389230D01*
X175648266Y-53188879D01*
X175646824Y-53122384D01*
X176279408Y-53122384D01*
X176282557Y-53349659D01*
X176286446Y-53389230D01*
X176305699Y-53585124D01*
X176345130Y-53786127D01*
X176397146Y-53910016D01*
X176512569Y-53997516D01*
X176687530Y-54034637D01*
X176867164Y-54006446D01*
X177012636Y-53920123D01*
X177085110Y-53782847D01*
X177079472Y-53686083D01*
X177007044Y-53654460D01*
X176862896Y-53718767D01*
X176846897Y-53727877D01*
X176718120Y-53757049D01*
X176604445Y-53727824D01*
X176555520Y-53651128D01*
X176589373Y-53611283D01*
X176698986Y-53589196D01*
X176727359Y-53588156D01*
X176921518Y-53521731D01*
X177061918Y-53374656D01*
X177108869Y-53204676D01*
X177696419Y-53204676D01*
X177699007Y-53388344D01*
X177712792Y-53518982D01*
X177744679Y-53574130D01*
X177801501Y-53578066D01*
X177852191Y-53553466D01*
X177904577Y-53453942D01*
X177936608Y-53258415D01*
X177940375Y-53222387D01*
X177967840Y-53056897D01*
X178011866Y-52978500D01*
X178086726Y-52958700D01*
X178101201Y-52959095D01*
X178170234Y-52986266D01*
X178210691Y-53076541D01*
X178236844Y-53258415D01*
X178253406Y-53383109D01*
X178297620Y-53523978D01*
X178367733Y-53577254D01*
X178418922Y-53573513D01*
X178470906Y-53503372D01*
X178507645Y-53335995D01*
X178513550Y-53292360D01*
X178528383Y-53092039D01*
X179076651Y-53092039D01*
X179094493Y-53294616D01*
X179197601Y-53469101D01*
X179237552Y-53502765D01*
X179425841Y-53577395D01*
X179643963Y-53576963D01*
X179840005Y-53499051D01*
X179862403Y-53482015D01*
X179980899Y-53314564D01*
X180007602Y-53141836D01*
X180578688Y-53141836D01*
X180609795Y-53311915D01*
X180736904Y-53464743D01*
X180843017Y-53530356D01*
X181078523Y-53590229D01*
X181315566Y-53560299D01*
X181512150Y-53441807D01*
X181524992Y-53428720D01*
X181620432Y-53312618D01*
X181659539Y-53229757D01*
X181656626Y-53212136D01*
X182216260Y-53212136D01*
X182224969Y-53229757D01*
X182324418Y-53430980D01*
X182358880Y-53471662D01*
X182491783Y-53564027D01*
X182680343Y-53589196D01*
X182741185Y-53587513D01*
X182908710Y-53546332D01*
X183036268Y-53430980D01*
X183074758Y-53376284D01*
X183134753Y-53212136D01*
X183717442Y-53212136D01*
X183825600Y-53430980D01*
X183936328Y-53528572D01*
X184136944Y-53593496D01*
X184348962Y-53567751D01*
X184531342Y-53450220D01*
X184600982Y-53359212D01*
X184665226Y-53166076D01*
X184640709Y-52978411D01*
X184546340Y-52814895D01*
X184401030Y-52694202D01*
X184223686Y-52635009D01*
X184033218Y-52655993D01*
X183848536Y-52775828D01*
X183835389Y-52789427D01*
X183720996Y-52989976D01*
X183718084Y-53171989D01*
X183717442Y-53212136D01*
X183134753Y-53212136D01*
X183149426Y-53171989D01*
X183132864Y-52977052D01*
X183044094Y-52809559D01*
X182902136Y-52687602D01*
X182726013Y-52629268D01*
X182534745Y-52652647D01*
X182347353Y-52775828D01*
X182334207Y-52789427D01*
X182219814Y-52989976D01*
X182216260Y-53212136D01*
X181656626Y-53212136D01*
X181653414Y-53192700D01*
X181583183Y-53134423D01*
X181464994Y-53143625D01*
X181337366Y-53221316D01*
X181223916Y-53307207D01*
X181069426Y-53341851D01*
X180939606Y-53259701D01*
X180912224Y-53220883D01*
X180896060Y-53103012D01*
X180989765Y-53009862D01*
X181185998Y-52950641D01*
X181296130Y-52926881D01*
X181509355Y-52828804D01*
X181629481Y-52687084D01*
X181647513Y-52516800D01*
X181554456Y-52333029D01*
X181518183Y-52295674D01*
X181414067Y-52239103D01*
X185254827Y-52239103D01*
X185257763Y-52379009D01*
X185297699Y-52604457D01*
X185374630Y-52929805D01*
X185432790Y-53148957D01*
X185438424Y-53166076D01*
X185516572Y-53403540D01*
X185594730Y-53547555D01*
X185673007Y-53586276D01*
X185757147Y-53524975D01*
X185852891Y-53368926D01*
X185969749Y-53141145D01*
X186063353Y-53365170D01*
X186084872Y-53411991D01*
X186182729Y-53546569D01*
X186284813Y-53591682D01*
X186369457Y-53535287D01*
X186384998Y-53495186D01*
X186426602Y-53355133D01*
X186483188Y-53144109D01*
X186547139Y-52889779D01*
X186575941Y-52769997D01*
X186628712Y-52528343D01*
X186651028Y-52370595D01*
X186645115Y-52274053D01*
X186613199Y-52216015D01*
X186541188Y-52165157D01*
X186464032Y-52191553D01*
X186396441Y-52324508D01*
X186333073Y-52570787D01*
X186294380Y-52735165D01*
X186250241Y-52874940D01*
X186216993Y-52928676D01*
X186215068Y-52928501D01*
X186167232Y-52873096D01*
X186112036Y-52748534D01*
X186078277Y-52670439D01*
X185989381Y-52580171D01*
X185892886Y-52606872D01*
X185802004Y-52750460D01*
X185773408Y-52814989D01*
X185723754Y-52885688D01*
X185678339Y-52866035D01*
X185627733Y-52746927D01*
X185562508Y-52519260D01*
X185531076Y-52412611D01*
X185453417Y-52233439D01*
X185374910Y-52160928D01*
X185359974Y-52158491D01*
X185288895Y-52170383D01*
X185254827Y-52239103D01*
X181414067Y-52239103D01*
X181351634Y-52205180D01*
X181144935Y-52167689D01*
X180935617Y-52182014D01*
X180761210Y-52246968D01*
X180659247Y-52361362D01*
X180645656Y-52409404D01*
X180668165Y-52506849D01*
X180763038Y-52532757D01*
X180904989Y-52475394D01*
X180955314Y-52444403D01*
X181081869Y-52403616D01*
X181216361Y-52440642D01*
X181311157Y-52498901D01*
X181336899Y-52577763D01*
X181245330Y-52653948D01*
X181038048Y-52724909D01*
X180850720Y-52780498D01*
X180685092Y-52865431D01*
X180601664Y-52979297D01*
X180584517Y-53100599D01*
X180578688Y-53141836D01*
X180007602Y-53141836D01*
X180013977Y-53100599D01*
X179954221Y-52880288D01*
X179863840Y-52744687D01*
X179719743Y-52653800D01*
X179503393Y-52628440D01*
X179417094Y-52639122D01*
X179249714Y-52731956D01*
X179132312Y-52893707D01*
X179083928Y-53066109D01*
X179076651Y-53092039D01*
X178528383Y-53092039D01*
X178530303Y-53066109D01*
X178526874Y-52867037D01*
X178517468Y-52784448D01*
X178485434Y-52696850D01*
X178403609Y-52660857D01*
X178236844Y-52650189D01*
X178171871Y-52650531D01*
X177975624Y-52675513D01*
X177831525Y-52726632D01*
X177772136Y-52771920D01*
X177723787Y-52851886D01*
X177701690Y-52985022D01*
X177697035Y-53178997D01*
X177696419Y-53204676D01*
X177108869Y-53204676D01*
X177115962Y-53178997D01*
X177112785Y-53114171D01*
X177042328Y-52913000D01*
X176881903Y-52790141D01*
X176634798Y-52748534D01*
X176614765Y-52748590D01*
X176453139Y-52760559D01*
X176365555Y-52807903D01*
X176310443Y-52911510D01*
X176299954Y-52945951D01*
X176279408Y-53122384D01*
X175646824Y-53122384D01*
X175641743Y-52888072D01*
X175637054Y-52705706D01*
X175627614Y-52462416D01*
X175613520Y-52308014D01*
X175590909Y-52222494D01*
X175555921Y-52185853D01*
X175504693Y-52178085D01*
X175475332Y-52179645D01*
X175433245Y-52199175D01*
X175406662Y-52257521D01*
X175401604Y-52298180D01*
X175392049Y-52374999D01*
X175385872Y-52571930D01*
X175384598Y-52868629D01*
X174334301Y-52868629D01*
X174334642Y-52797840D01*
X174341539Y-52610522D01*
X174359571Y-52505111D01*
X174393716Y-52458680D01*
X174448954Y-52448298D01*
X174557647Y-52439329D01*
X174699940Y-52386194D01*
X174754102Y-52298180D01*
X174734047Y-52236929D01*
X174643402Y-52184794D01*
X174465188Y-52156553D01*
X174183653Y-52148061D01*
X173950899Y-52153339D01*
X173752787Y-52177193D01*
X173645474Y-52224091D01*
X173613203Y-52298180D01*
X169218771Y-52298180D01*
X169257122Y-52277773D01*
X169502966Y-52145570D01*
X169792316Y-51993714D01*
X170010773Y-51886945D01*
X170178572Y-51817175D01*
X170315953Y-51776317D01*
X170443153Y-51756284D01*
X170580411Y-51748990D01*
X170749984Y-51741940D01*
X170885841Y-51719646D01*
X170964700Y-51669790D01*
X171021883Y-51578752D01*
X171030793Y-51560157D01*
X171081376Y-51326246D01*
X171030840Y-51103187D01*
X170896469Y-50909051D01*
X170695546Y-50761911D01*
X170445355Y-50679837D01*
X170163179Y-50680902D01*
X169992060Y-50719747D01*
X169805984Y-50787907D01*
X169589078Y-50895246D01*
X169319510Y-51052609D01*
X168975444Y-51270841D01*
X168805929Y-51379534D01*
X168343678Y-51656741D01*
X167936150Y-51864144D01*
X167558055Y-52010383D01*
X167184105Y-52104094D01*
X166789010Y-52153916D01*
X166347482Y-52168488D01*
X166165232Y-52166889D01*
X165793565Y-52148902D01*
X165472080Y-52106557D01*
X165152326Y-52034419D01*
X164879395Y-51969221D01*
X164695588Y-51947758D01*
X164598827Y-51976901D01*
X164576307Y-52060673D01*
X160883180Y-52060673D01*
X160883180Y-51492286D01*
X164966395Y-51492286D01*
X164985323Y-51514612D01*
X165088557Y-51570936D01*
X165251620Y-51635745D01*
X165417565Y-51684651D01*
X165863395Y-51753051D01*
X166356936Y-51756734D01*
X166861372Y-51696783D01*
X167339892Y-51574282D01*
X167580377Y-51484864D01*
X167988886Y-51297945D01*
X168376983Y-51079598D01*
X168729201Y-50841739D01*
X169030074Y-50596283D01*
X169264133Y-50355144D01*
X169415911Y-50130237D01*
X169469941Y-49933477D01*
X169466837Y-49904825D01*
X169406812Y-49765710D01*
X169294418Y-49621456D01*
X169153787Y-49511383D01*
X168950921Y-49447979D01*
X168722351Y-49480763D01*
X168460901Y-49612455D01*
X168333430Y-49711097D01*
X168159394Y-49845772D01*
X167810653Y-50183433D01*
X167793203Y-50201530D01*
X167295889Y-50640543D01*
X166749489Y-50977814D01*
X166141232Y-51219801D01*
X165458349Y-51372963D01*
X165377356Y-51385962D01*
X165167523Y-51426055D01*
X165021297Y-51463737D01*
X164966395Y-51492286D01*
X160883180Y-51492286D01*
X160883180Y-50733422D01*
X164742924Y-50733422D01*
X164746896Y-50856113D01*
X164842353Y-50945003D01*
X164956504Y-50981921D01*
X165188917Y-50999525D01*
X165470982Y-50977508D01*
X165765760Y-50916991D01*
X166000410Y-50840035D01*
X166339113Y-50688945D01*
X166658889Y-50503943D01*
X166940717Y-50299343D01*
X167165574Y-50089459D01*
X167314438Y-49888606D01*
X167368286Y-49711097D01*
X167361919Y-49624746D01*
X167272374Y-49401330D01*
X167086390Y-49231480D01*
X166815842Y-49123490D01*
X166472605Y-49085650D01*
X166436572Y-49086493D01*
X166221870Y-49112024D01*
X165963830Y-49166088D01*
X165694830Y-49239142D01*
X165447248Y-49321639D01*
X165253463Y-49404035D01*
X165145850Y-49476785D01*
X165114679Y-49525647D01*
X165137363Y-49579067D01*
X165258918Y-49632384D01*
X165365099Y-49682181D01*
X165433802Y-49770801D01*
X165412237Y-49893608D01*
X165297450Y-50061805D01*
X165086490Y-50286596D01*
X165022713Y-50350820D01*
X164833756Y-50567976D01*
X164742924Y-50733422D01*
X160883180Y-50733422D01*
X160883180Y-39598180D01*
X190906820Y-39598180D01*
X190906820Y-69621820D01*
X160883180Y-69621820D01*
G37*
G36*
X179538227Y-52939301D02*
G01*
X179547862Y-52940542D01*
X179687148Y-53004527D01*
X179733466Y-53123194D01*
X179673448Y-53264396D01*
X179638011Y-53300642D01*
X179527557Y-53340330D01*
X179436766Y-53275854D01*
X179388623Y-53118951D01*
X179384095Y-52986940D01*
X179424611Y-52936526D01*
X179538227Y-52939301D01*
G37*
%TD*%
M02*
