%TF.GenerationSoftware,KiCad,Pcbnew,(6.0.7)*%
%TF.CreationDate,2022-08-22T17:26:44+09:00*%
%TF.ProjectId,LedRouletteShield,4c656452-6f75-46c6-9574-746553686965,rev?*%
%TF.SameCoordinates,Original*%
%TF.FileFunction,Legend,Top*%
%TF.FilePolarity,Positive*%
%FSLAX46Y46*%
G04 Gerber Fmt 4.6, Leading zero omitted, Abs format (unit mm)*
G04 Created by KiCad (PCBNEW (6.0.7)) date 2022-08-22 17:26:44*
%MOMM*%
%LPD*%
G01*
G04 APERTURE LIST*
%ADD10C,0.150000*%
%ADD11C,0.120000*%
%ADD12C,0.500000*%
G04 APERTURE END LIST*
D10*
X191038405Y-56000000D02*
G75*
G03*
X191038405Y-56000000I-13038405J0D01*
G01*
X184175714Y-46192380D02*
X183604285Y-46192380D01*
X183890000Y-46192380D02*
X183890000Y-45192380D01*
X183794761Y-45335238D01*
X183699523Y-45430476D01*
X183604285Y-45478095D01*
X178310476Y-67662380D02*
X178120000Y-67662380D01*
X178024761Y-67710000D01*
X177977142Y-67757619D01*
X177881904Y-67900476D01*
X177834285Y-68090952D01*
X177834285Y-68471904D01*
X177881904Y-68567142D01*
X177929523Y-68614761D01*
X178024761Y-68662380D01*
X178215238Y-68662380D01*
X178310476Y-68614761D01*
X178358095Y-68567142D01*
X178405714Y-68471904D01*
X178405714Y-68233809D01*
X178358095Y-68138571D01*
X178310476Y-68090952D01*
X178215238Y-68043333D01*
X178024761Y-68043333D01*
X177929523Y-68090952D01*
X177881904Y-68138571D01*
X177834285Y-68233809D01*
X167204761Y-62160952D02*
X167109523Y-62113333D01*
X167061904Y-62065714D01*
X167014285Y-61970476D01*
X167014285Y-61922857D01*
X167061904Y-61827619D01*
X167109523Y-61780000D01*
X167204761Y-61732380D01*
X167395238Y-61732380D01*
X167490476Y-61780000D01*
X167538095Y-61827619D01*
X167585714Y-61922857D01*
X167585714Y-61970476D01*
X167538095Y-62065714D01*
X167490476Y-62113333D01*
X167395238Y-62160952D01*
X167204761Y-62160952D01*
X167109523Y-62208571D01*
X167061904Y-62256190D01*
X167014285Y-62351428D01*
X167014285Y-62541904D01*
X167061904Y-62637142D01*
X167109523Y-62684761D01*
X167204761Y-62732380D01*
X167395238Y-62732380D01*
X167490476Y-62684761D01*
X167538095Y-62637142D01*
X167585714Y-62541904D01*
X167585714Y-62351428D01*
X167538095Y-62256190D01*
X167490476Y-62208571D01*
X167395238Y-62160952D01*
X165459523Y-56572380D02*
X165650000Y-56572380D01*
X165745238Y-56524761D01*
X165792857Y-56477142D01*
X165888095Y-56334285D01*
X165935714Y-56143809D01*
X165935714Y-55762857D01*
X165888095Y-55667619D01*
X165840476Y-55620000D01*
X165745238Y-55572380D01*
X165554761Y-55572380D01*
X165459523Y-55620000D01*
X165411904Y-55667619D01*
X165364285Y-55762857D01*
X165364285Y-56000952D01*
X165411904Y-56096190D01*
X165459523Y-56143809D01*
X165554761Y-56191428D01*
X165745238Y-56191428D01*
X165840476Y-56143809D01*
X165888095Y-56096190D01*
X165935714Y-56000952D01*
X167549523Y-50692380D02*
X166978095Y-50692380D01*
X167263809Y-50692380D02*
X167263809Y-49692380D01*
X167168571Y-49835238D01*
X167073333Y-49930476D01*
X166978095Y-49978095D01*
X168168571Y-49692380D02*
X168263809Y-49692380D01*
X168359047Y-49740000D01*
X168406666Y-49787619D01*
X168454285Y-49882857D01*
X168501904Y-50073333D01*
X168501904Y-50311428D01*
X168454285Y-50501904D01*
X168406666Y-50597142D01*
X168359047Y-50644761D01*
X168263809Y-50692380D01*
X168168571Y-50692380D01*
X168073333Y-50644761D01*
X168025714Y-50597142D01*
X167978095Y-50501904D01*
X167930476Y-50311428D01*
X167930476Y-50073333D01*
X167978095Y-49882857D01*
X168025714Y-49787619D01*
X168073333Y-49740000D01*
X168168571Y-49692380D01*
X171729523Y-46302380D02*
X171158095Y-46302380D01*
X171443809Y-46302380D02*
X171443809Y-45302380D01*
X171348571Y-45445238D01*
X171253333Y-45540476D01*
X171158095Y-45588095D01*
X172681904Y-46302380D02*
X172110476Y-46302380D01*
X172396190Y-46302380D02*
X172396190Y-45302380D01*
X172300952Y-45445238D01*
X172205714Y-45540476D01*
X172110476Y-45588095D01*
X171696666Y-66122380D02*
X172363333Y-66122380D01*
X171934761Y-67122380D01*
X184238095Y-65962380D02*
X183761904Y-65962380D01*
X183714285Y-66438571D01*
X183761904Y-66390952D01*
X183857142Y-66343333D01*
X184095238Y-66343333D01*
X184190476Y-66390952D01*
X184238095Y-66438571D01*
X184285714Y-66533809D01*
X184285714Y-66771904D01*
X184238095Y-66867142D01*
X184190476Y-66914761D01*
X184095238Y-66962380D01*
X183857142Y-66962380D01*
X183761904Y-66914761D01*
X183714285Y-66867142D01*
X177879523Y-44652380D02*
X177308095Y-44652380D01*
X177593809Y-44652380D02*
X177593809Y-43652380D01*
X177498571Y-43795238D01*
X177403333Y-43890476D01*
X177308095Y-43938095D01*
X178260476Y-43747619D02*
X178308095Y-43700000D01*
X178403333Y-43652380D01*
X178641428Y-43652380D01*
X178736666Y-43700000D01*
X178784285Y-43747619D01*
X178831904Y-43842857D01*
X178831904Y-43938095D01*
X178784285Y-44080952D01*
X178212857Y-44652380D01*
X178831904Y-44652380D01*
X188700476Y-61785714D02*
X188700476Y-62452380D01*
X188462380Y-61404761D02*
X188224285Y-62119047D01*
X188843333Y-62119047D01*
X187954285Y-49627619D02*
X188001904Y-49580000D01*
X188097142Y-49532380D01*
X188335238Y-49532380D01*
X188430476Y-49580000D01*
X188478095Y-49627619D01*
X188525714Y-49722857D01*
X188525714Y-49818095D01*
X188478095Y-49960952D01*
X187906666Y-50532380D01*
X188525714Y-50532380D01*
X189826666Y-55522380D02*
X190445714Y-55522380D01*
X190112380Y-55903333D01*
X190255238Y-55903333D01*
X190350476Y-55950952D01*
X190398095Y-55998571D01*
X190445714Y-56093809D01*
X190445714Y-56331904D01*
X190398095Y-56427142D01*
X190350476Y-56474761D01*
X190255238Y-56522380D01*
X189969523Y-56522380D01*
X189874285Y-56474761D01*
X189826666Y-56427142D01*
%TO.C,A1*%
X171370714Y-28741666D02*
X171846904Y-28741666D01*
X171275476Y-29027380D02*
X171608809Y-28027380D01*
X171942142Y-29027380D01*
X172799285Y-29027380D02*
X172227857Y-29027380D01*
X172513571Y-29027380D02*
X172513571Y-28027380D01*
X172418333Y-28170238D01*
X172323095Y-28265476D01*
X172227857Y-28313095D01*
%TO.C,R9*%
X156043333Y-73477380D02*
X155710000Y-73001190D01*
X155471904Y-73477380D02*
X155471904Y-72477380D01*
X155852857Y-72477380D01*
X155948095Y-72525000D01*
X155995714Y-72572619D01*
X156043333Y-72667857D01*
X156043333Y-72810714D01*
X155995714Y-72905952D01*
X155948095Y-72953571D01*
X155852857Y-73001190D01*
X155471904Y-73001190D01*
X156519523Y-73477380D02*
X156710000Y-73477380D01*
X156805238Y-73429761D01*
X156852857Y-73382142D01*
X156948095Y-73239285D01*
X156995714Y-73048809D01*
X156995714Y-72667857D01*
X156948095Y-72572619D01*
X156900476Y-72525000D01*
X156805238Y-72477380D01*
X156614761Y-72477380D01*
X156519523Y-72525000D01*
X156471904Y-72572619D01*
X156424285Y-72667857D01*
X156424285Y-72905952D01*
X156471904Y-73001190D01*
X156519523Y-73048809D01*
X156614761Y-73096428D01*
X156805238Y-73096428D01*
X156900476Y-73048809D01*
X156948095Y-73001190D01*
X156995714Y-72905952D01*
%TO.C,D10*%
X163217940Y-51459830D02*
X162717940Y-52325855D01*
X162511744Y-52206808D01*
X162411835Y-52094140D01*
X162376976Y-51964042D01*
X162383356Y-51857754D01*
X162437354Y-51668987D01*
X162508783Y-51545269D01*
X162645260Y-51404122D01*
X162734119Y-51345453D01*
X162864216Y-51310593D01*
X163011744Y-51340782D01*
X163217940Y-51459830D01*
X161898282Y-50697925D02*
X162393154Y-50983639D01*
X162145718Y-50840782D02*
X161645718Y-51706808D01*
X161799626Y-51630709D01*
X161929723Y-51595849D01*
X162036011Y-51602229D01*
X160862172Y-51254427D02*
X160779693Y-51206808D01*
X160721024Y-51117949D01*
X160703594Y-51052901D01*
X160709974Y-50946612D01*
X160763973Y-50757846D01*
X160883020Y-50551649D01*
X161019498Y-50410501D01*
X161108356Y-50351832D01*
X161173405Y-50334403D01*
X161279693Y-50340782D01*
X161362172Y-50388401D01*
X161420841Y-50477260D01*
X161438270Y-50542309D01*
X161431891Y-50648597D01*
X161377892Y-50837363D01*
X161258844Y-51043560D01*
X161122367Y-51184708D01*
X161033508Y-51243377D01*
X160968460Y-51260807D01*
X160862172Y-51254427D01*
%TO.C,S2*%
X200704761Y-58611904D02*
X200752380Y-58469047D01*
X200752380Y-58230952D01*
X200704761Y-58135714D01*
X200657142Y-58088095D01*
X200561904Y-58040476D01*
X200466666Y-58040476D01*
X200371428Y-58088095D01*
X200323809Y-58135714D01*
X200276190Y-58230952D01*
X200228571Y-58421428D01*
X200180952Y-58516666D01*
X200133333Y-58564285D01*
X200038095Y-58611904D01*
X199942857Y-58611904D01*
X199847619Y-58564285D01*
X199800000Y-58516666D01*
X199752380Y-58421428D01*
X199752380Y-58183333D01*
X199800000Y-58040476D01*
X199847619Y-57659523D02*
X199800000Y-57611904D01*
X199752380Y-57516666D01*
X199752380Y-57278571D01*
X199800000Y-57183333D01*
X199847619Y-57135714D01*
X199942857Y-57088095D01*
X200038095Y-57088095D01*
X200180952Y-57135714D01*
X200752380Y-57707142D01*
X200752380Y-57088095D01*
%TO.C,R4*%
X156043333Y-76652380D02*
X155710000Y-76176190D01*
X155471904Y-76652380D02*
X155471904Y-75652380D01*
X155852857Y-75652380D01*
X155948095Y-75700000D01*
X155995714Y-75747619D01*
X156043333Y-75842857D01*
X156043333Y-75985714D01*
X155995714Y-76080952D01*
X155948095Y-76128571D01*
X155852857Y-76176190D01*
X155471904Y-76176190D01*
X156900476Y-75985714D02*
X156900476Y-76652380D01*
X156662380Y-75604761D02*
X156424285Y-76319047D01*
X157043333Y-76319047D01*
%TO.C,R7*%
X196683333Y-65222380D02*
X196350000Y-64746190D01*
X196111904Y-65222380D02*
X196111904Y-64222380D01*
X196492857Y-64222380D01*
X196588095Y-64270000D01*
X196635714Y-64317619D01*
X196683333Y-64412857D01*
X196683333Y-64555714D01*
X196635714Y-64650952D01*
X196588095Y-64698571D01*
X196492857Y-64746190D01*
X196111904Y-64746190D01*
X197016666Y-64222380D02*
X197683333Y-64222380D01*
X197254761Y-65222380D01*
%TO.C,R11*%
X194937142Y-37917380D02*
X194603809Y-37441190D01*
X194365714Y-37917380D02*
X194365714Y-36917380D01*
X194746666Y-36917380D01*
X194841904Y-36965000D01*
X194889523Y-37012619D01*
X194937142Y-37107857D01*
X194937142Y-37250714D01*
X194889523Y-37345952D01*
X194841904Y-37393571D01*
X194746666Y-37441190D01*
X194365714Y-37441190D01*
X195889523Y-37917380D02*
X195318095Y-37917380D01*
X195603809Y-37917380D02*
X195603809Y-36917380D01*
X195508571Y-37060238D01*
X195413333Y-37155476D01*
X195318095Y-37203095D01*
X196841904Y-37917380D02*
X196270476Y-37917380D01*
X196556190Y-37917380D02*
X196556190Y-36917380D01*
X196460952Y-37060238D01*
X196365714Y-37155476D01*
X196270476Y-37203095D01*
%TO.C,D12*%
X174492380Y-40944285D02*
X173492380Y-40944285D01*
X173492380Y-40706190D01*
X173540000Y-40563333D01*
X173635238Y-40468095D01*
X173730476Y-40420476D01*
X173920952Y-40372857D01*
X174063809Y-40372857D01*
X174254285Y-40420476D01*
X174349523Y-40468095D01*
X174444761Y-40563333D01*
X174492380Y-40706190D01*
X174492380Y-40944285D01*
X174492380Y-39420476D02*
X174492380Y-39991904D01*
X174492380Y-39706190D02*
X173492380Y-39706190D01*
X173635238Y-39801428D01*
X173730476Y-39896666D01*
X173778095Y-39991904D01*
X173587619Y-39039523D02*
X173540000Y-38991904D01*
X173492380Y-38896666D01*
X173492380Y-38658571D01*
X173540000Y-38563333D01*
X173587619Y-38515714D01*
X173682857Y-38468095D01*
X173778095Y-38468095D01*
X173920952Y-38515714D01*
X174492380Y-39087142D01*
X174492380Y-38468095D01*
%TO.C,R1*%
X156268333Y-67127380D02*
X155935000Y-66651190D01*
X155696904Y-67127380D02*
X155696904Y-66127380D01*
X156077857Y-66127380D01*
X156173095Y-66175000D01*
X156220714Y-66222619D01*
X156268333Y-66317857D01*
X156268333Y-66460714D01*
X156220714Y-66555952D01*
X156173095Y-66603571D01*
X156077857Y-66651190D01*
X155696904Y-66651190D01*
X157220714Y-67127380D02*
X156649285Y-67127380D01*
X156935000Y-67127380D02*
X156935000Y-66127380D01*
X156839761Y-66270238D01*
X156744523Y-66365476D01*
X156649285Y-66413095D01*
%TO.C,S1*%
X144704761Y-58611904D02*
X144752380Y-58469047D01*
X144752380Y-58230952D01*
X144704761Y-58135714D01*
X144657142Y-58088095D01*
X144561904Y-58040476D01*
X144466666Y-58040476D01*
X144371428Y-58088095D01*
X144323809Y-58135714D01*
X144276190Y-58230952D01*
X144228571Y-58421428D01*
X144180952Y-58516666D01*
X144133333Y-58564285D01*
X144038095Y-58611904D01*
X143942857Y-58611904D01*
X143847619Y-58564285D01*
X143800000Y-58516666D01*
X143752380Y-58421428D01*
X143752380Y-58183333D01*
X143800000Y-58040476D01*
X144752380Y-57088095D02*
X144752380Y-57659523D01*
X144752380Y-57373809D02*
X143752380Y-57373809D01*
X143895238Y-57469047D01*
X143990476Y-57564285D01*
X144038095Y-57659523D01*
%TO.C,D4*%
X194995251Y-60662813D02*
X194495251Y-61528838D01*
X194289055Y-61409791D01*
X194189146Y-61297123D01*
X194154287Y-61167025D01*
X194160666Y-61060737D01*
X194214665Y-60871970D01*
X194286094Y-60748252D01*
X194422571Y-60607104D01*
X194511430Y-60548435D01*
X194641527Y-60513576D01*
X194789055Y-60543765D01*
X194995251Y-60662813D01*
X193424739Y-60525877D02*
X193758072Y-59948527D01*
X193440459Y-60974839D02*
X194003798Y-60475297D01*
X193467687Y-60165774D01*
%TO.C,D7*%
X173207186Y-72945251D02*
X172341161Y-72445251D01*
X172460208Y-72239055D01*
X172572876Y-72139146D01*
X172702974Y-72104287D01*
X172809262Y-72110666D01*
X172998029Y-72164665D01*
X173121747Y-72236094D01*
X173262895Y-72372571D01*
X173321564Y-72461430D01*
X173356423Y-72591527D01*
X173326234Y-72739055D01*
X173207186Y-72945251D01*
X172793542Y-71661704D02*
X173126875Y-71084354D01*
X173778615Y-71955508D01*
%TO.C,R10*%
X156202142Y-70302380D02*
X155868809Y-69826190D01*
X155630714Y-70302380D02*
X155630714Y-69302380D01*
X156011666Y-69302380D01*
X156106904Y-69350000D01*
X156154523Y-69397619D01*
X156202142Y-69492857D01*
X156202142Y-69635714D01*
X156154523Y-69730952D01*
X156106904Y-69778571D01*
X156011666Y-69826190D01*
X155630714Y-69826190D01*
X157154523Y-70302380D02*
X156583095Y-70302380D01*
X156868809Y-70302380D02*
X156868809Y-69302380D01*
X156773571Y-69445238D01*
X156678333Y-69540476D01*
X156583095Y-69588095D01*
X157773571Y-69302380D02*
X157868809Y-69302380D01*
X157964047Y-69350000D01*
X158011666Y-69397619D01*
X158059285Y-69492857D01*
X158106904Y-69683333D01*
X158106904Y-69921428D01*
X158059285Y-70111904D01*
X158011666Y-70207142D01*
X157964047Y-70254761D01*
X157868809Y-70302380D01*
X157773571Y-70302380D01*
X157678333Y-70254761D01*
X157630714Y-70207142D01*
X157583095Y-70111904D01*
X157535476Y-69921428D01*
X157535476Y-69683333D01*
X157583095Y-69492857D01*
X157630714Y-69397619D01*
X157678333Y-69350000D01*
X157773571Y-69302380D01*
%TO.C,D8*%
X165437129Y-68325282D02*
X164937129Y-67459256D01*
X165143325Y-67340208D01*
X165290853Y-67310019D01*
X165420950Y-67344879D01*
X165509809Y-67403548D01*
X165646286Y-67544696D01*
X165717715Y-67668413D01*
X165771713Y-67857180D01*
X165778093Y-67963468D01*
X165743234Y-68093566D01*
X165643325Y-68206234D01*
X165437129Y-68325282D01*
X166141158Y-67258981D02*
X166034870Y-67265361D01*
X165969821Y-67247931D01*
X165880962Y-67189262D01*
X165857153Y-67148023D01*
X165850773Y-67041735D01*
X165868203Y-66976686D01*
X165926872Y-66887828D01*
X166091829Y-66792589D01*
X166198117Y-66786210D01*
X166263166Y-66803639D01*
X166352025Y-66862309D01*
X166375834Y-66903548D01*
X166382214Y-67009836D01*
X166364784Y-67074885D01*
X166306115Y-67163743D01*
X166141158Y-67258981D01*
X166082489Y-67347840D01*
X166065059Y-67412888D01*
X166071439Y-67519177D01*
X166166677Y-67684134D01*
X166255535Y-67742803D01*
X166320584Y-67760233D01*
X166426872Y-67753853D01*
X166591829Y-67658615D01*
X166650498Y-67569756D01*
X166667928Y-67504708D01*
X166661548Y-67398420D01*
X166566310Y-67233462D01*
X166477452Y-67174793D01*
X166412403Y-67157363D01*
X166306115Y-67163743D01*
%TO.C,D1*%
X182728264Y-40815547D02*
X181862239Y-40315547D01*
X181981286Y-40109351D01*
X182093954Y-40009442D01*
X182224052Y-39974583D01*
X182330340Y-39980962D01*
X182519107Y-40034961D01*
X182642825Y-40106390D01*
X182783973Y-40242867D01*
X182842642Y-40331726D01*
X182877501Y-40461823D01*
X182847312Y-40609351D01*
X182728264Y-40815547D01*
X183490169Y-39495889D02*
X183204455Y-39990761D01*
X183347312Y-39743325D02*
X182481286Y-39243325D01*
X182557385Y-39397232D01*
X182592245Y-39527330D01*
X182585865Y-39633618D01*
%TO.C,R5*%
X156678333Y-39822380D02*
X156345000Y-39346190D01*
X156106904Y-39822380D02*
X156106904Y-38822380D01*
X156487857Y-38822380D01*
X156583095Y-38870000D01*
X156630714Y-38917619D01*
X156678333Y-39012857D01*
X156678333Y-39155714D01*
X156630714Y-39250952D01*
X156583095Y-39298571D01*
X156487857Y-39346190D01*
X156106904Y-39346190D01*
X157583095Y-38822380D02*
X157106904Y-38822380D01*
X157059285Y-39298571D01*
X157106904Y-39250952D01*
X157202142Y-39203333D01*
X157440238Y-39203333D01*
X157535476Y-39250952D01*
X157583095Y-39298571D01*
X157630714Y-39393809D01*
X157630714Y-39631904D01*
X157583095Y-39727142D01*
X157535476Y-39774761D01*
X157440238Y-39822380D01*
X157202142Y-39822380D01*
X157106904Y-39774761D01*
X157059285Y-39727142D01*
%TO.C,R12*%
X156837142Y-42997380D02*
X156503809Y-42521190D01*
X156265714Y-42997380D02*
X156265714Y-41997380D01*
X156646666Y-41997380D01*
X156741904Y-42045000D01*
X156789523Y-42092619D01*
X156837142Y-42187857D01*
X156837142Y-42330714D01*
X156789523Y-42425952D01*
X156741904Y-42473571D01*
X156646666Y-42521190D01*
X156265714Y-42521190D01*
X157789523Y-42997380D02*
X157218095Y-42997380D01*
X157503809Y-42997380D02*
X157503809Y-41997380D01*
X157408571Y-42140238D01*
X157313333Y-42235476D01*
X157218095Y-42283095D01*
X158170476Y-42092619D02*
X158218095Y-42045000D01*
X158313333Y-41997380D01*
X158551428Y-41997380D01*
X158646666Y-42045000D01*
X158694285Y-42092619D01*
X158741904Y-42187857D01*
X158741904Y-42283095D01*
X158694285Y-42425952D01*
X158122857Y-42997380D01*
X158741904Y-42997380D01*
%TO.C,D2*%
X189656833Y-45196360D02*
X189156833Y-44330334D01*
X189363029Y-44211286D01*
X189510557Y-44181097D01*
X189640654Y-44215957D01*
X189729513Y-44274626D01*
X189865990Y-44415774D01*
X189937419Y-44539491D01*
X189991417Y-44728258D01*
X189997797Y-44834546D01*
X189962938Y-44964644D01*
X189863029Y-45077312D01*
X189656833Y-45196360D01*
X190029238Y-43936622D02*
X190046668Y-43871573D01*
X190105337Y-43782715D01*
X190311533Y-43663667D01*
X190417821Y-43657288D01*
X190482870Y-43674717D01*
X190571729Y-43733387D01*
X190619348Y-43815865D01*
X190649537Y-43963393D01*
X190440380Y-44743979D01*
X190976491Y-44434455D01*
%TO.C,R6*%
X195413333Y-35377380D02*
X195080000Y-34901190D01*
X194841904Y-35377380D02*
X194841904Y-34377380D01*
X195222857Y-34377380D01*
X195318095Y-34425000D01*
X195365714Y-34472619D01*
X195413333Y-34567857D01*
X195413333Y-34710714D01*
X195365714Y-34805952D01*
X195318095Y-34853571D01*
X195222857Y-34901190D01*
X194841904Y-34901190D01*
X196270476Y-34377380D02*
X196080000Y-34377380D01*
X195984761Y-34425000D01*
X195937142Y-34472619D01*
X195841904Y-34615476D01*
X195794285Y-34805952D01*
X195794285Y-35186904D01*
X195841904Y-35282142D01*
X195889523Y-35329761D01*
X195984761Y-35377380D01*
X196175238Y-35377380D01*
X196270476Y-35329761D01*
X196318095Y-35282142D01*
X196365714Y-35186904D01*
X196365714Y-34948809D01*
X196318095Y-34853571D01*
X196270476Y-34805952D01*
X196175238Y-34758333D01*
X195984761Y-34758333D01*
X195889523Y-34805952D01*
X195841904Y-34853571D01*
X195794285Y-34948809D01*
%TO.C,D6*%
X182392380Y-73078095D02*
X181392380Y-73078095D01*
X181392380Y-72840000D01*
X181440000Y-72697142D01*
X181535238Y-72601904D01*
X181630476Y-72554285D01*
X181820952Y-72506666D01*
X181963809Y-72506666D01*
X182154285Y-72554285D01*
X182249523Y-72601904D01*
X182344761Y-72697142D01*
X182392380Y-72840000D01*
X182392380Y-73078095D01*
X181392380Y-71649523D02*
X181392380Y-71840000D01*
X181440000Y-71935238D01*
X181487619Y-71982857D01*
X181630476Y-72078095D01*
X181820952Y-72125714D01*
X182201904Y-72125714D01*
X182297142Y-72078095D01*
X182344761Y-72030476D01*
X182392380Y-71935238D01*
X182392380Y-71744761D01*
X182344761Y-71649523D01*
X182297142Y-71601904D01*
X182201904Y-71554285D01*
X181963809Y-71554285D01*
X181868571Y-71601904D01*
X181820952Y-71649523D01*
X181773333Y-71744761D01*
X181773333Y-71935238D01*
X181820952Y-72030476D01*
X181868571Y-72078095D01*
X181963809Y-72125714D01*
%TO.C,R13*%
X156837142Y-36647380D02*
X156503809Y-36171190D01*
X156265714Y-36647380D02*
X156265714Y-35647380D01*
X156646666Y-35647380D01*
X156741904Y-35695000D01*
X156789523Y-35742619D01*
X156837142Y-35837857D01*
X156837142Y-35980714D01*
X156789523Y-36075952D01*
X156741904Y-36123571D01*
X156646666Y-36171190D01*
X156265714Y-36171190D01*
X157789523Y-36647380D02*
X157218095Y-36647380D01*
X157503809Y-36647380D02*
X157503809Y-35647380D01*
X157408571Y-35790238D01*
X157313333Y-35885476D01*
X157218095Y-35933095D01*
X158122857Y-35647380D02*
X158741904Y-35647380D01*
X158408571Y-36028333D01*
X158551428Y-36028333D01*
X158646666Y-36075952D01*
X158694285Y-36123571D01*
X158741904Y-36218809D01*
X158741904Y-36456904D01*
X158694285Y-36552142D01*
X158646666Y-36599761D01*
X158551428Y-36647380D01*
X158265714Y-36647380D01*
X158170476Y-36599761D01*
X158122857Y-36552142D01*
%TO.C,D9*%
X160956904Y-60432380D02*
X160956904Y-59432380D01*
X161195000Y-59432380D01*
X161337857Y-59480000D01*
X161433095Y-59575238D01*
X161480714Y-59670476D01*
X161528333Y-59860952D01*
X161528333Y-60003809D01*
X161480714Y-60194285D01*
X161433095Y-60289523D01*
X161337857Y-60384761D01*
X161195000Y-60432380D01*
X160956904Y-60432380D01*
X162004523Y-60432380D02*
X162195000Y-60432380D01*
X162290238Y-60384761D01*
X162337857Y-60337142D01*
X162433095Y-60194285D01*
X162480714Y-60003809D01*
X162480714Y-59622857D01*
X162433095Y-59527619D01*
X162385476Y-59480000D01*
X162290238Y-59432380D01*
X162099761Y-59432380D01*
X162004523Y-59480000D01*
X161956904Y-59527619D01*
X161909285Y-59622857D01*
X161909285Y-59860952D01*
X161956904Y-59956190D01*
X162004523Y-60003809D01*
X162099761Y-60051428D01*
X162290238Y-60051428D01*
X162385476Y-60003809D01*
X162433095Y-59956190D01*
X162480714Y-59860952D01*
%TO.C,R14*%
X156837142Y-46172380D02*
X156503809Y-45696190D01*
X156265714Y-46172380D02*
X156265714Y-45172380D01*
X156646666Y-45172380D01*
X156741904Y-45220000D01*
X156789523Y-45267619D01*
X156837142Y-45362857D01*
X156837142Y-45505714D01*
X156789523Y-45600952D01*
X156741904Y-45648571D01*
X156646666Y-45696190D01*
X156265714Y-45696190D01*
X157789523Y-46172380D02*
X157218095Y-46172380D01*
X157503809Y-46172380D02*
X157503809Y-45172380D01*
X157408571Y-45315238D01*
X157313333Y-45410476D01*
X157218095Y-45458095D01*
X158646666Y-45505714D02*
X158646666Y-46172380D01*
X158408571Y-45124761D02*
X158170476Y-45839047D01*
X158789523Y-45839047D01*
%TO.C,D5*%
X190405282Y-68512870D02*
X189539256Y-69012870D01*
X189420208Y-68806674D01*
X189390019Y-68659146D01*
X189424879Y-68529049D01*
X189483548Y-68440190D01*
X189624696Y-68303713D01*
X189748413Y-68232284D01*
X189937180Y-68178286D01*
X190043468Y-68171906D01*
X190173566Y-68206765D01*
X190286234Y-68306674D01*
X190405282Y-68512870D01*
X188801161Y-67734452D02*
X189039256Y-68146845D01*
X189475459Y-67949989D01*
X189410410Y-67932559D01*
X189321552Y-67873890D01*
X189202504Y-67667694D01*
X189196124Y-67561405D01*
X189213554Y-67496357D01*
X189272223Y-67407498D01*
X189478420Y-67288451D01*
X189584708Y-67282071D01*
X189649756Y-67299501D01*
X189738615Y-67358170D01*
X189857662Y-67564366D01*
X189864042Y-67670654D01*
X189846612Y-67735703D01*
%TO.C,R3*%
X196683333Y-77287380D02*
X196350000Y-76811190D01*
X196111904Y-77287380D02*
X196111904Y-76287380D01*
X196492857Y-76287380D01*
X196588095Y-76335000D01*
X196635714Y-76382619D01*
X196683333Y-76477857D01*
X196683333Y-76620714D01*
X196635714Y-76715952D01*
X196588095Y-76763571D01*
X196492857Y-76811190D01*
X196111904Y-76811190D01*
X197016666Y-76287380D02*
X197635714Y-76287380D01*
X197302380Y-76668333D01*
X197445238Y-76668333D01*
X197540476Y-76715952D01*
X197588095Y-76763571D01*
X197635714Y-76858809D01*
X197635714Y-77096904D01*
X197588095Y-77192142D01*
X197540476Y-77239761D01*
X197445238Y-77287380D01*
X197159523Y-77287380D01*
X197064285Y-77239761D01*
X197016666Y-77192142D01*
%TO.C,R2*%
X196683333Y-69667380D02*
X196350000Y-69191190D01*
X196111904Y-69667380D02*
X196111904Y-68667380D01*
X196492857Y-68667380D01*
X196588095Y-68715000D01*
X196635714Y-68762619D01*
X196683333Y-68857857D01*
X196683333Y-69000714D01*
X196635714Y-69095952D01*
X196588095Y-69143571D01*
X196492857Y-69191190D01*
X196111904Y-69191190D01*
X197064285Y-68762619D02*
X197111904Y-68715000D01*
X197207142Y-68667380D01*
X197445238Y-68667380D01*
X197540476Y-68715000D01*
X197588095Y-68762619D01*
X197635714Y-68857857D01*
X197635714Y-68953095D01*
X197588095Y-69095952D01*
X197016666Y-69667380D01*
X197635714Y-69667380D01*
%TO.C,R8*%
X196683333Y-73477380D02*
X196350000Y-73001190D01*
X196111904Y-73477380D02*
X196111904Y-72477380D01*
X196492857Y-72477380D01*
X196588095Y-72525000D01*
X196635714Y-72572619D01*
X196683333Y-72667857D01*
X196683333Y-72810714D01*
X196635714Y-72905952D01*
X196588095Y-72953571D01*
X196492857Y-73001190D01*
X196111904Y-73001190D01*
X197254761Y-72905952D02*
X197159523Y-72858333D01*
X197111904Y-72810714D01*
X197064285Y-72715476D01*
X197064285Y-72667857D01*
X197111904Y-72572619D01*
X197159523Y-72525000D01*
X197254761Y-72477380D01*
X197445238Y-72477380D01*
X197540476Y-72525000D01*
X197588095Y-72572619D01*
X197635714Y-72667857D01*
X197635714Y-72715476D01*
X197588095Y-72810714D01*
X197540476Y-72858333D01*
X197445238Y-72905952D01*
X197254761Y-72905952D01*
X197159523Y-72953571D01*
X197111904Y-73001190D01*
X197064285Y-73096428D01*
X197064285Y-73286904D01*
X197111904Y-73382142D01*
X197159523Y-73429761D01*
X197254761Y-73477380D01*
X197445238Y-73477380D01*
X197540476Y-73429761D01*
X197588095Y-73382142D01*
X197635714Y-73286904D01*
X197635714Y-73096428D01*
X197588095Y-73001190D01*
X197540476Y-72953571D01*
X197445238Y-72905952D01*
%TO.C,D11*%
X167384455Y-44685559D02*
X166518429Y-45185559D01*
X166399382Y-44979363D01*
X166369192Y-44831835D01*
X166404052Y-44701738D01*
X166462721Y-44612879D01*
X166603869Y-44476402D01*
X166727587Y-44404973D01*
X166916353Y-44350975D01*
X167022642Y-44344595D01*
X167152739Y-44379454D01*
X167265407Y-44479363D01*
X167384455Y-44685559D01*
X166622550Y-43365902D02*
X166908264Y-43860773D01*
X166765407Y-43613337D02*
X165899382Y-44113337D01*
X166070719Y-44124387D01*
X166200816Y-44159247D01*
X166289675Y-44217916D01*
X166146360Y-42541115D02*
X166432074Y-43035987D01*
X166289217Y-42788551D02*
X165423191Y-43288551D01*
X165594528Y-43299601D01*
X165724626Y-43334461D01*
X165813484Y-43393130D01*
%TO.C,D3*%
X193541904Y-52532380D02*
X193541904Y-51532380D01*
X193780000Y-51532380D01*
X193922857Y-51580000D01*
X194018095Y-51675238D01*
X194065714Y-51770476D01*
X194113333Y-51960952D01*
X194113333Y-52103809D01*
X194065714Y-52294285D01*
X194018095Y-52389523D01*
X193922857Y-52484761D01*
X193780000Y-52532380D01*
X193541904Y-52532380D01*
X194446666Y-51532380D02*
X195065714Y-51532380D01*
X194732380Y-51913333D01*
X194875238Y-51913333D01*
X194970476Y-51960952D01*
X195018095Y-52008571D01*
X195065714Y-52103809D01*
X195065714Y-52341904D01*
X195018095Y-52437142D01*
X194970476Y-52484761D01*
X194875238Y-52532380D01*
X194589523Y-52532380D01*
X194494285Y-52484761D01*
X194446666Y-52437142D01*
D11*
%TO.C,R9*%
X145955000Y-71020000D02*
X145955000Y-71350000D01*
X152495000Y-73430000D02*
X152495000Y-73760000D01*
X145955000Y-73760000D02*
X145955000Y-73430000D01*
X152495000Y-71350000D02*
X152495000Y-71020000D01*
X152495000Y-73760000D02*
X145955000Y-73760000D01*
X152495000Y-71020000D02*
X145955000Y-71020000D01*
%TO.C,D10*%
X165364673Y-50433009D02*
X166909673Y-47756991D01*
X161330963Y-46319600D02*
G75*
G03*
X165364758Y-50432862I2589185J-1495400D01*
G01*
X166909588Y-47757138D02*
G75*
G03*
X161330501Y-46320400I-2989440J-57862D01*
G01*
X166420148Y-47815000D02*
G75*
G03*
X166420148Y-47815000I-2500000J0D01*
G01*
D12*
%TO.C,S2*%
X204850000Y-56050000D02*
X206350000Y-56050000D01*
X201700000Y-56050000D02*
X203200000Y-56050000D01*
X206500000Y-60650000D02*
X206500000Y-51450000D01*
X203200000Y-56050000D02*
X204800000Y-54750000D01*
X201500000Y-60650000D02*
X201500000Y-51450000D01*
D11*
%TO.C,R4*%
X152495000Y-76605000D02*
X152495000Y-76935000D01*
X152495000Y-74525000D02*
X152495000Y-74195000D01*
X145955000Y-76935000D02*
X145955000Y-76605000D01*
X152495000Y-74195000D02*
X145955000Y-74195000D01*
X152495000Y-76935000D02*
X145955000Y-76935000D01*
X145955000Y-74195000D02*
X145955000Y-74525000D01*
%TO.C,R7*%
X199930000Y-64670000D02*
X206470000Y-64670000D01*
X206470000Y-67410000D02*
X206470000Y-67080000D01*
X199930000Y-65000000D02*
X199930000Y-64670000D01*
X206470000Y-64670000D02*
X206470000Y-65000000D01*
X199930000Y-67410000D02*
X206470000Y-67410000D01*
X199930000Y-67080000D02*
X199930000Y-67410000D01*
%TO.C,R11*%
X199295000Y-40105000D02*
X205835000Y-40105000D01*
X205835000Y-40105000D02*
X205835000Y-39775000D01*
X199295000Y-37695000D02*
X199295000Y-37365000D01*
X205835000Y-37365000D02*
X205835000Y-37695000D01*
X199295000Y-39775000D02*
X199295000Y-40105000D01*
X199295000Y-37365000D02*
X205835000Y-37365000D01*
%TO.C,D12*%
X176455000Y-42290000D02*
X179545000Y-42290000D01*
X179544830Y-42290000D02*
G75*
G03*
X177999538Y-36740000I-1544830J2560000D01*
G01*
X178000462Y-36740000D02*
G75*
G03*
X176455170Y-42290000I-462J-2990000D01*
G01*
X180500000Y-39730000D02*
G75*
G03*
X180500000Y-39730000I-2500000J0D01*
G01*
%TO.C,R1*%
X152495000Y-65000000D02*
X152495000Y-64670000D01*
X145955000Y-67410000D02*
X145955000Y-67080000D01*
X152495000Y-67080000D02*
X152495000Y-67410000D01*
X152495000Y-67410000D02*
X145955000Y-67410000D01*
X152495000Y-64670000D02*
X145955000Y-64670000D01*
X145955000Y-64670000D02*
X145955000Y-65000000D01*
D12*
%TO.C,S1*%
X148850000Y-56050000D02*
X150350000Y-56050000D01*
X147200000Y-56050000D02*
X148800000Y-54750000D01*
X150500000Y-60650000D02*
X150500000Y-51450000D01*
X145500000Y-60650000D02*
X145500000Y-51450000D01*
X145700000Y-56050000D02*
X147200000Y-56050000D01*
D11*
%TO.C,D4*%
X190705327Y-61496991D02*
X189160327Y-64173009D01*
X189160412Y-64172862D02*
G75*
G03*
X194739499Y-65609600I2989440J57862D01*
G01*
X194739037Y-65610400D02*
G75*
G03*
X190705242Y-61497138I-2589185J1495400D01*
G01*
X194649852Y-64115000D02*
G75*
G03*
X194649852Y-64115000I-2500000J0D01*
G01*
%TO.C,D7*%
X172373009Y-68655327D02*
X169696991Y-67110327D01*
X169697138Y-67110412D02*
G75*
G03*
X168260400Y-72689499I57862J-2989440D01*
G01*
X168259600Y-72689037D02*
G75*
G03*
X172372862Y-68655242I1495400J2589185D01*
G01*
X172255000Y-70099852D02*
G75*
G03*
X172255000Y-70099852I-2500000J0D01*
G01*
%TO.C,R10*%
X152495000Y-67845000D02*
X145955000Y-67845000D01*
X145955000Y-67845000D02*
X145955000Y-68175000D01*
X152495000Y-70255000D02*
X152495000Y-70585000D01*
X145955000Y-70585000D02*
X145955000Y-70255000D01*
X152495000Y-70585000D02*
X145955000Y-70585000D01*
X152495000Y-68175000D02*
X152495000Y-67845000D01*
%TO.C,D8*%
X166859673Y-64193009D02*
X165314673Y-61516991D01*
X161280501Y-65629600D02*
G75*
G03*
X166859588Y-64192862I2589647J1494600D01*
G01*
X165314758Y-61517138D02*
G75*
G03*
X161280963Y-65630400I-1444610J-2617862D01*
G01*
X166370148Y-64135000D02*
G75*
G03*
X166370148Y-64135000I-2500000J0D01*
G01*
%TO.C,D1*%
X183516991Y-43374673D02*
X186193009Y-44919673D01*
X186192862Y-44919588D02*
G75*
G03*
X187629600Y-39340501I-57862J2989440D01*
G01*
X187630400Y-39340963D02*
G75*
G03*
X183517138Y-43374758I-1495400J-2589185D01*
G01*
X188635000Y-41930148D02*
G75*
G03*
X188635000Y-41930148I-2500000J0D01*
G01*
%TO.C,R5*%
X153130000Y-41375000D02*
X153130000Y-41045000D01*
X146590000Y-41375000D02*
X153130000Y-41375000D01*
X146590000Y-41045000D02*
X146590000Y-41375000D01*
X153130000Y-38635000D02*
X153130000Y-38965000D01*
X146590000Y-38635000D02*
X153130000Y-38635000D01*
X146590000Y-38965000D02*
X146590000Y-38635000D01*
%TO.C,G\u002A\u002A\u002A*%
G36*
X180726512Y-60074349D02*
G01*
X180846699Y-60126258D01*
X180905138Y-60251020D01*
X180920220Y-60314451D01*
X181058894Y-60595194D01*
X181322442Y-60857745D01*
X181666753Y-61073054D01*
X182047718Y-61212075D01*
X182339166Y-61248861D01*
X182445743Y-61258850D01*
X182477218Y-61314793D01*
X182436326Y-61457039D01*
X182365136Y-61631896D01*
X182269851Y-61822454D01*
X182162010Y-61890665D01*
X181976901Y-61875282D01*
X181962969Y-61872740D01*
X181604743Y-61774401D01*
X181226953Y-61620153D01*
X180898312Y-61441106D01*
X180731799Y-61315335D01*
X180540489Y-61135609D01*
X180179523Y-61394836D01*
X179932046Y-61541298D01*
X179611118Y-61690687D01*
X179275670Y-61819739D01*
X178984631Y-61905187D01*
X178832435Y-61926666D01*
X178759672Y-61856243D01*
X178663020Y-61681064D01*
X178636136Y-61619993D01*
X178554788Y-61420456D01*
X178510635Y-61302725D01*
X178508000Y-61292147D01*
X178582685Y-61267245D01*
X178770403Y-61229746D01*
X178862626Y-61214268D01*
X179289990Y-61094131D01*
X179658338Y-60893389D01*
X179936517Y-60637359D01*
X180093373Y-60351356D01*
X180116666Y-60195204D01*
X180163054Y-60108914D01*
X180323956Y-60069694D01*
X180490939Y-60064000D01*
X180726512Y-60074349D01*
G37*
G36*
X177389128Y-58053166D02*
G01*
X177365000Y-58921000D01*
X175989166Y-58944263D01*
X174613333Y-58967527D01*
X174613333Y-59386666D01*
X177492000Y-59386666D01*
X177492000Y-60064000D01*
X175957778Y-60064000D01*
X175984055Y-60381500D01*
X176010333Y-60699000D01*
X176967776Y-60722985D01*
X177925219Y-60746971D01*
X177899109Y-61061652D01*
X177873000Y-61376333D01*
X175623631Y-61398853D01*
X175022685Y-61402756D01*
X174477952Y-61402252D01*
X174012178Y-61397690D01*
X173648111Y-61389417D01*
X173408498Y-61377780D01*
X173316464Y-61363575D01*
X173276615Y-61246223D01*
X173258738Y-61040397D01*
X173258666Y-61026328D01*
X173258666Y-60746879D01*
X174211166Y-60722939D01*
X175163666Y-60699000D01*
X175189944Y-60381500D01*
X175216221Y-60064000D01*
X173766666Y-60064000D01*
X173766666Y-58286000D01*
X176560666Y-58286000D01*
X176560666Y-57866861D01*
X173809000Y-57820333D01*
X173756444Y-57185333D01*
X177413257Y-57185333D01*
X177389128Y-58053166D01*
G37*
G36*
X173872045Y-51155156D02*
G01*
X173889262Y-51126506D01*
X174140490Y-50882804D01*
X174517963Y-50694335D01*
X174985209Y-50569467D01*
X175505753Y-50516565D01*
X176043124Y-50543996D01*
X176265179Y-50581509D01*
X176686772Y-50722887D01*
X177036859Y-50943563D01*
X177285366Y-51216940D01*
X177402216Y-51516420D01*
X177407333Y-51591577D01*
X177344398Y-51980349D01*
X177149147Y-52291740D01*
X176811908Y-52535343D01*
X176323009Y-52720750D01*
X176248763Y-52740831D01*
X175861996Y-52826787D01*
X175542324Y-52851893D01*
X175199887Y-52818845D01*
X174979635Y-52778909D01*
X174474508Y-52624394D01*
X174091319Y-52390883D01*
X173843575Y-52090293D01*
X173744780Y-51734542D01*
X173743575Y-51688179D01*
X173748755Y-51648817D01*
X174541684Y-51648817D01*
X174591901Y-51795773D01*
X174761514Y-51993460D01*
X174969857Y-52099434D01*
X175256477Y-52148043D01*
X175603142Y-52152247D01*
X175951301Y-52117527D01*
X176242400Y-52049365D01*
X176406104Y-51964965D01*
X176529049Y-51773416D01*
X176560666Y-51622224D01*
X176481212Y-51435076D01*
X176255441Y-51292843D01*
X175902240Y-51203268D01*
X175467440Y-51174000D01*
X175145365Y-51188577D01*
X174927066Y-51243920D01*
X174748601Y-51357448D01*
X174726931Y-51375718D01*
X174576060Y-51525463D01*
X174541684Y-51648817D01*
X173748755Y-51648817D01*
X173780775Y-51405525D01*
X173872045Y-51155156D01*
G37*
G36*
X168019684Y-54247072D02*
G01*
X168333480Y-52965285D01*
X168693245Y-51975623D01*
X169211161Y-50940411D01*
X169875488Y-49951766D01*
X170665207Y-49030941D01*
X171559300Y-48199189D01*
X172536747Y-47477763D01*
X173576530Y-46887916D01*
X173851333Y-46760132D01*
X175067292Y-46309874D01*
X176316555Y-46019255D01*
X177583267Y-45887451D01*
X178851577Y-45913635D01*
X180105631Y-46096982D01*
X181329577Y-46436666D01*
X182507561Y-46931861D01*
X183080000Y-47240800D01*
X184156031Y-47964062D01*
X185124674Y-48812050D01*
X185975870Y-49771452D01*
X186699563Y-50828957D01*
X187285695Y-51971254D01*
X187724211Y-53185032D01*
X187810680Y-53502333D01*
X188048232Y-54762118D01*
X188123907Y-56016666D01*
X188044568Y-57253386D01*
X187817080Y-58459686D01*
X187448306Y-59622972D01*
X186945111Y-60730654D01*
X186314359Y-61770139D01*
X185562914Y-62728834D01*
X184697641Y-63594147D01*
X183725403Y-64353487D01*
X182653064Y-64994261D01*
X181487489Y-65503876D01*
X181217333Y-65597770D01*
X180228518Y-65866474D01*
X179181286Y-66044218D01*
X178131371Y-66125018D01*
X177134504Y-66102888D01*
X176814666Y-66070495D01*
X175545392Y-65830278D01*
X174331176Y-65437709D01*
X173184279Y-64902603D01*
X172116959Y-64234772D01*
X171141476Y-63444031D01*
X170270091Y-62540193D01*
X169515062Y-61533072D01*
X168888650Y-60432481D01*
X168445242Y-59370896D01*
X168086396Y-58100760D01*
X167895969Y-56819970D01*
X167883404Y-56091273D01*
X169458450Y-56091273D01*
X169553773Y-57250614D01*
X169730126Y-58117638D01*
X170104390Y-59242101D01*
X170627623Y-60297694D01*
X171288539Y-61270243D01*
X172075848Y-62145572D01*
X172978263Y-62909507D01*
X173984497Y-63547871D01*
X174105333Y-63612057D01*
X175119703Y-64048470D01*
X176207265Y-64346838D01*
X177338860Y-64504014D01*
X178485327Y-64516851D01*
X179617507Y-64382205D01*
X180148145Y-64264050D01*
X181256939Y-63891042D01*
X182303458Y-63366641D01*
X183271813Y-62702307D01*
X184146116Y-61909504D01*
X184910479Y-60999694D01*
X185148422Y-60656756D01*
X185615717Y-59867419D01*
X185976434Y-59063970D01*
X186263118Y-58173258D01*
X186278090Y-58117638D01*
X186413676Y-57432327D01*
X186491415Y-56646967D01*
X186510164Y-55821065D01*
X186468778Y-55014132D01*
X186366114Y-54285674D01*
X186352980Y-54222000D01*
X186028673Y-53095953D01*
X185555696Y-52035961D01*
X184946014Y-51054513D01*
X184211595Y-50164097D01*
X183364407Y-49377202D01*
X182416415Y-48706317D01*
X181379586Y-48163932D01*
X180265889Y-47762535D01*
X180126792Y-47724206D01*
X179777145Y-47636761D01*
X179465904Y-47576099D01*
X179147205Y-47537539D01*
X178775182Y-47516397D01*
X178303967Y-47507993D01*
X178000000Y-47507102D01*
X177457052Y-47510722D01*
X177037643Y-47524672D01*
X176696075Y-47553587D01*
X176386650Y-47602102D01*
X176063669Y-47674852D01*
X175882361Y-47721884D01*
X174747723Y-48106908D01*
X173702679Y-48625802D01*
X172754654Y-49266026D01*
X171911068Y-50015037D01*
X171179345Y-50860293D01*
X170566906Y-51789252D01*
X170081175Y-52789371D01*
X169729574Y-53848110D01*
X169519524Y-54952924D01*
X169458450Y-56091273D01*
X167883404Y-56091273D01*
X167873790Y-55533687D01*
X168019684Y-54247072D01*
G37*
G36*
X177915333Y-53798666D02*
G01*
X175968000Y-53798666D01*
X175968000Y-55407333D01*
X175121333Y-55407333D01*
X175121333Y-53798666D01*
X173258666Y-53798666D01*
X173258666Y-53121333D01*
X177915333Y-53121333D01*
X177915333Y-53798666D01*
G37*
G36*
X180731769Y-52111659D02*
G01*
X180842624Y-52154532D01*
X180876316Y-52269797D01*
X180878666Y-52401666D01*
X180878666Y-52698000D01*
X182826000Y-52698000D01*
X182826000Y-53375333D01*
X178169333Y-53375333D01*
X178169333Y-52698000D01*
X180116666Y-52698000D01*
X180116666Y-52401666D01*
X180124800Y-52219586D01*
X180179923Y-52133365D01*
X180328120Y-52107161D01*
X180497666Y-52105333D01*
X180731769Y-52111659D01*
G37*
G36*
X180715054Y-50422185D02*
G01*
X180831561Y-50482998D01*
X180902823Y-50639823D01*
X180940067Y-50772880D01*
X181088645Y-51123586D01*
X181338634Y-51394838D01*
X181715790Y-51609445D01*
X182007984Y-51718598D01*
X182543201Y-51893666D01*
X182430357Y-52168833D01*
X182304405Y-52375500D01*
X182138273Y-52443615D01*
X182121172Y-52444000D01*
X181780713Y-52389490D01*
X181388275Y-52245217D01*
X181012698Y-52040067D01*
X180823969Y-51899677D01*
X180495529Y-51618545D01*
X180171011Y-51899069D01*
X179842097Y-52125841D01*
X179452908Y-52310147D01*
X179072777Y-52422853D01*
X178874160Y-52444000D01*
X178702459Y-52385836D01*
X178573369Y-52191149D01*
X178563886Y-52168833D01*
X178449953Y-51893666D01*
X178905237Y-51753316D01*
X179422318Y-51539819D01*
X179787944Y-51262064D01*
X180009842Y-50913540D01*
X180051416Y-50787275D01*
X180121537Y-50557731D01*
X180204290Y-50448263D01*
X180352496Y-50414451D01*
X180497666Y-50412000D01*
X180715054Y-50422185D01*
G37*
G36*
X179185333Y-57016000D02*
G01*
X179436497Y-57022758D01*
X179561793Y-57057678D01*
X179604571Y-57142730D01*
X179608666Y-57230531D01*
X179608666Y-57445062D01*
X180518833Y-57421031D01*
X180920893Y-57408548D01*
X181184307Y-57391853D01*
X181339737Y-57363926D01*
X181417847Y-57317749D01*
X181449300Y-57246302D01*
X181456055Y-57206500D01*
X181496325Y-57086675D01*
X181603958Y-57030807D01*
X181827108Y-57016087D01*
X181858221Y-57016000D01*
X182233333Y-57016000D01*
X182233333Y-58963333D01*
X181549791Y-58963333D01*
X181210337Y-58967230D01*
X181008463Y-58983696D01*
X180912504Y-59019892D01*
X180890795Y-59082979D01*
X180894638Y-59111500D01*
X180926779Y-59177100D01*
X181012788Y-59222041D01*
X181181672Y-59251415D01*
X181462435Y-59270319D01*
X181874513Y-59283606D01*
X182826000Y-59307545D01*
X182826000Y-59894666D01*
X178169333Y-59894666D01*
X178169333Y-59307545D01*
X179120819Y-59283606D01*
X179539498Y-59270024D01*
X179817848Y-59250968D01*
X179984875Y-59221343D01*
X180069582Y-59176055D01*
X180100694Y-59111500D01*
X180096844Y-59037756D01*
X180029397Y-58993314D01*
X179866687Y-58971010D01*
X179577049Y-58963684D01*
X179445541Y-58963333D01*
X178762000Y-58963333D01*
X178762000Y-58156135D01*
X179608666Y-58156135D01*
X179633371Y-58213884D01*
X179725589Y-58251970D01*
X179912476Y-58274151D01*
X180221188Y-58284185D01*
X180547055Y-58286000D01*
X180975793Y-58281266D01*
X181255930Y-58265462D01*
X181407978Y-58236185D01*
X181452449Y-58191032D01*
X181450334Y-58180166D01*
X181363774Y-58125108D01*
X181138078Y-58085242D01*
X180761318Y-58058918D01*
X180511945Y-58050302D01*
X180105312Y-58042813D01*
X179839764Y-58048418D01*
X179687338Y-58070393D01*
X179620069Y-58112014D01*
X179608666Y-58156135D01*
X178762000Y-58156135D01*
X178762000Y-57016000D01*
X179185333Y-57016000D01*
G37*
G36*
X178833020Y-54157978D02*
G01*
X179050602Y-53908181D01*
X179421525Y-53715769D01*
X179569652Y-53666431D01*
X180060666Y-53569000D01*
X180586970Y-53548864D01*
X181103740Y-53600359D01*
X181566150Y-53717823D01*
X181929377Y-53895591D01*
X182031803Y-53977523D01*
X182214161Y-54244686D01*
X182242919Y-54537292D01*
X182125959Y-54829821D01*
X181871162Y-55096751D01*
X181641497Y-55241282D01*
X181411382Y-55310125D01*
X181063192Y-55356225D01*
X180646762Y-55378752D01*
X180211927Y-55376872D01*
X179808522Y-55349755D01*
X179486381Y-55296569D01*
X179421944Y-55278322D01*
X179061285Y-55109421D01*
X178847160Y-54872128D01*
X178764204Y-54547668D01*
X178762973Y-54505374D01*
X179551767Y-54505374D01*
X179646983Y-54637477D01*
X179841685Y-54737846D01*
X179932362Y-54759701D01*
X180227473Y-54785356D01*
X180571476Y-54777420D01*
X180911659Y-54741719D01*
X181195309Y-54684080D01*
X181369711Y-54610328D01*
X181381997Y-54599470D01*
X181467491Y-54484429D01*
X181415397Y-54394694D01*
X181363954Y-54354527D01*
X181134460Y-54255512D01*
X180806564Y-54199203D01*
X180433696Y-54184906D01*
X180069289Y-54211927D01*
X179766773Y-54279569D01*
X179588511Y-54377621D01*
X179551767Y-54505374D01*
X178762973Y-54505374D01*
X178762000Y-54471919D01*
X178833020Y-54157978D01*
G37*
%TO.C,R12*%
X153130000Y-44550000D02*
X153130000Y-44220000D01*
X146590000Y-44550000D02*
X153130000Y-44550000D01*
X146590000Y-41810000D02*
X153130000Y-41810000D01*
X146590000Y-42140000D02*
X146590000Y-41810000D01*
X146590000Y-44220000D02*
X146590000Y-44550000D01*
X153130000Y-41810000D02*
X153130000Y-42140000D01*
%TO.C,D2*%
X189060327Y-47806991D02*
X190605327Y-50483009D01*
X190605242Y-50482862D02*
G75*
G03*
X194639037Y-46369600I1444610J2617862D01*
G01*
X194639499Y-46370400D02*
G75*
G03*
X189060412Y-47807138I-2589647J-1494600D01*
G01*
X194549852Y-47865000D02*
G75*
G03*
X194549852Y-47865000I-2500000J0D01*
G01*
%TO.C,R6*%
X199295000Y-34190000D02*
X205835000Y-34190000D01*
X199295000Y-36930000D02*
X205835000Y-36930000D01*
X199295000Y-34520000D02*
X199295000Y-34190000D01*
X205835000Y-34190000D02*
X205835000Y-34520000D01*
X199295000Y-36600000D02*
X199295000Y-36930000D01*
X205835000Y-36930000D02*
X205835000Y-36600000D01*
%TO.C,D6*%
X179525000Y-69780000D02*
X176435000Y-69780000D01*
X177979538Y-75330000D02*
G75*
G03*
X179524830Y-69780000I462J2990000D01*
G01*
X176435170Y-69780000D02*
G75*
G03*
X177980462Y-75330000I1544830J-2560000D01*
G01*
X180480000Y-72340000D02*
G75*
G03*
X180480000Y-72340000I-2500000J0D01*
G01*
%TO.C,R13*%
X146590000Y-38200000D02*
X146590000Y-37870000D01*
X153130000Y-35790000D02*
X153130000Y-35460000D01*
X153130000Y-37870000D02*
X153130000Y-38200000D01*
X153130000Y-38200000D02*
X146590000Y-38200000D01*
X146590000Y-35460000D02*
X146590000Y-35790000D01*
X153130000Y-35460000D02*
X146590000Y-35460000D01*
%TO.C,D9*%
X164255000Y-57565000D02*
X164255000Y-54475000D01*
X164255000Y-54475170D02*
G75*
G03*
X158705000Y-56020462I-2560000J-1544830D01*
G01*
X158705000Y-56019538D02*
G75*
G03*
X164255000Y-57564830I2990000J-462D01*
G01*
X164195000Y-56020000D02*
G75*
G03*
X164195000Y-56020000I-2500000J0D01*
G01*
%TO.C,R14*%
X146590000Y-44985000D02*
X153130000Y-44985000D01*
X153130000Y-44985000D02*
X153130000Y-45315000D01*
X146590000Y-47395000D02*
X146590000Y-47725000D01*
X153130000Y-47725000D02*
X153130000Y-47395000D01*
X146590000Y-47725000D02*
X153130000Y-47725000D01*
X146590000Y-45315000D02*
X146590000Y-44985000D01*
%TO.C,D5*%
X186273009Y-67090327D02*
X183596991Y-68635327D01*
X183597138Y-68635242D02*
G75*
G03*
X187710400Y-72669037I2617862J-1444610D01*
G01*
X187709600Y-72669499D02*
G75*
G03*
X186272862Y-67090412I-1494600J2589647D01*
G01*
X188715000Y-70079852D02*
G75*
G03*
X188715000Y-70079852I-2500000J0D01*
G01*
%TO.C,R3*%
X199930000Y-76100000D02*
X199930000Y-76430000D01*
X206470000Y-76100000D02*
X199930000Y-76100000D01*
X206470000Y-78840000D02*
X199930000Y-78840000D01*
X199930000Y-78840000D02*
X199930000Y-78510000D01*
X206470000Y-76430000D02*
X206470000Y-76100000D01*
X206470000Y-78510000D02*
X206470000Y-78840000D01*
%TO.C,R2*%
X199930000Y-70890000D02*
X199930000Y-71220000D01*
X206470000Y-68480000D02*
X206470000Y-68810000D01*
X199930000Y-68480000D02*
X206470000Y-68480000D01*
X199930000Y-71220000D02*
X206470000Y-71220000D01*
X206470000Y-71220000D02*
X206470000Y-70890000D01*
X199930000Y-68810000D02*
X199930000Y-68480000D01*
%TO.C,R8*%
X206470000Y-75030000D02*
X206470000Y-74700000D01*
X199930000Y-72290000D02*
X206470000Y-72290000D01*
X206470000Y-72290000D02*
X206470000Y-72620000D01*
X199930000Y-72620000D02*
X199930000Y-72290000D01*
X199930000Y-75030000D02*
X206470000Y-75030000D01*
X199930000Y-74700000D02*
X199930000Y-75030000D01*
%TO.C,D11*%
X169756991Y-44869673D02*
X172433009Y-43324673D01*
X168320400Y-39290501D02*
G75*
G03*
X169757138Y-44869588I1494600J-2589647D01*
G01*
X172432862Y-43324758D02*
G75*
G03*
X168319600Y-39290963I-2617862J1444610D01*
G01*
X172315000Y-41880148D02*
G75*
G03*
X172315000Y-41880148I-2500000J0D01*
G01*
%TO.C,D3*%
X191720000Y-54495000D02*
X191720000Y-57585000D01*
X191720000Y-57584830D02*
G75*
G03*
X197270000Y-56039538I2560000J1544830D01*
G01*
X197270000Y-56040462D02*
G75*
G03*
X191720000Y-54495170I-2990000J462D01*
G01*
X196780000Y-56040000D02*
G75*
G03*
X196780000Y-56040000I-2500000J0D01*
G01*
%TD*%
M02*
