%TF.GenerationSoftware,KiCad,Pcbnew,(6.0.7)*%
%TF.CreationDate,2022-08-22T17:26:44+09:00*%
%TF.ProjectId,LedRouletteShield,4c656452-6f75-46c6-9574-746553686965,rev?*%
%TF.SameCoordinates,Original*%
%TF.FileFunction,Soldermask,Bot*%
%TF.FilePolarity,Negative*%
%FSLAX46Y46*%
G04 Gerber Fmt 4.6, Leading zero omitted, Abs format (unit mm)*
G04 Created by KiCad (PCBNEW (6.0.7)) date 2022-08-22 17:26:44*
%MOMM*%
%LPD*%
G01*
G04 APERTURE LIST*
G04 Aperture macros list*
%AMRotRect*
0 Rectangle, with rotation*
0 The origin of the aperture is its center*
0 $1 length*
0 $2 width*
0 $3 Rotation angle, in degrees counterclockwise*
0 Add horizontal line*
21,1,$1,$2,0,0,$3*%
G04 Aperture macros list end*
%ADD10R,1.600000X1.600000*%
%ADD11O,1.600000X1.600000*%
%ADD12C,1.600000*%
%ADD13RotRect,1.800000X1.800000X150.000000*%
%ADD14C,1.800000*%
%ADD15R,2.500000X2.500000*%
%ADD16C,2.500000*%
%ADD17R,1.800000X1.800000*%
%ADD18RotRect,1.800000X1.800000X330.000000*%
%ADD19RotRect,1.800000X1.800000X240.000000*%
%ADD20RotRect,1.800000X1.800000X210.000000*%
%ADD21RotRect,1.800000X1.800000X60.000000*%
%ADD22RotRect,1.800000X1.800000X30.000000*%
%ADD23RotRect,1.800000X1.800000X300.000000*%
%ADD24RotRect,1.800000X1.800000X120.000000*%
G04 APERTURE END LIST*
D10*
%TO.C,A1*%
X170815000Y-32385000D03*
D11*
X173355000Y-32385000D03*
X175895000Y-32385000D03*
X178435000Y-32385000D03*
X180975000Y-32385000D03*
X183515000Y-32385000D03*
X186055000Y-32385000D03*
X188595000Y-32385000D03*
X193675000Y-32385000D03*
X196215000Y-32385000D03*
X198755000Y-32385000D03*
X201295000Y-32385000D03*
X203835000Y-32385000D03*
X206375000Y-32385000D03*
X206375000Y-80645000D03*
X203835000Y-80645000D03*
X201295000Y-80645000D03*
X198755000Y-80645000D03*
X196215000Y-80645000D03*
X193675000Y-80645000D03*
X191135000Y-80645000D03*
X188595000Y-80645000D03*
X184535000Y-80645000D03*
X181995000Y-80645000D03*
X179455000Y-80645000D03*
X176915000Y-80645000D03*
X174375000Y-80645000D03*
X171835000Y-80645000D03*
X169295000Y-80645000D03*
X166755000Y-80645000D03*
X164215000Y-80645000D03*
X161675000Y-80645000D03*
%TD*%
D12*
%TO.C,R9*%
X153035000Y-72390000D03*
D11*
X145415000Y-72390000D03*
%TD*%
D13*
%TO.C,D10*%
X165020000Y-48450000D03*
D14*
X162820295Y-47180000D03*
%TD*%
D15*
%TO.C,S2*%
X201500000Y-62250000D03*
D16*
X206500000Y-62250000D03*
X201500000Y-49750000D03*
X206500000Y-49750000D03*
%TD*%
D12*
%TO.C,R4*%
X153035000Y-75565000D03*
D11*
X145415000Y-75565000D03*
%TD*%
D12*
%TO.C,R7*%
X199390000Y-66040000D03*
D11*
X207010000Y-66040000D03*
%TD*%
D12*
%TO.C,R11*%
X198755000Y-38735000D03*
D11*
X206375000Y-38735000D03*
%TD*%
D17*
%TO.C,D12*%
X178000000Y-41000000D03*
D14*
X178000000Y-38460000D03*
%TD*%
D12*
%TO.C,R1*%
X153035000Y-66040000D03*
D11*
X145415000Y-66040000D03*
%TD*%
D15*
%TO.C,S1*%
X145500000Y-62250000D03*
D16*
X150500000Y-62250000D03*
X145500000Y-49750000D03*
X150500000Y-49750000D03*
%TD*%
D18*
%TO.C,D4*%
X191050000Y-63480000D03*
D14*
X193249705Y-64750000D03*
%TD*%
D19*
%TO.C,D7*%
X170390000Y-69000000D03*
D14*
X169120000Y-71199705D03*
%TD*%
D12*
%TO.C,R10*%
X153035000Y-69215000D03*
D11*
X145415000Y-69215000D03*
%TD*%
D20*
%TO.C,D8*%
X164970000Y-63500000D03*
D14*
X162770295Y-64770000D03*
%TD*%
D21*
%TO.C,D1*%
X185500000Y-43030000D03*
D14*
X186770000Y-40830295D03*
%TD*%
D12*
%TO.C,R5*%
X146050000Y-40005000D03*
D11*
X153670000Y-40005000D03*
%TD*%
D12*
%TO.C,R12*%
X146050000Y-43180000D03*
D11*
X153670000Y-43180000D03*
%TD*%
D22*
%TO.C,D2*%
X190950000Y-48500000D03*
D14*
X193149705Y-47230000D03*
%TD*%
D12*
%TO.C,R6*%
X198755000Y-35560000D03*
D11*
X206375000Y-35560000D03*
%TD*%
D17*
%TO.C,D6*%
X177980000Y-71070000D03*
D14*
X177980000Y-73610000D03*
%TD*%
D12*
%TO.C,R13*%
X153670000Y-36830000D03*
D11*
X146050000Y-36830000D03*
%TD*%
D17*
%TO.C,D9*%
X162965000Y-56020000D03*
D14*
X160425000Y-56020000D03*
%TD*%
D12*
%TO.C,R14*%
X146050000Y-46355000D03*
D11*
X153670000Y-46355000D03*
%TD*%
D23*
%TO.C,D5*%
X185580000Y-68980000D03*
D14*
X186850000Y-71179705D03*
%TD*%
D12*
%TO.C,R3*%
X207010000Y-77470000D03*
D11*
X199390000Y-77470000D03*
%TD*%
D12*
%TO.C,R2*%
X199390000Y-69850000D03*
D11*
X207010000Y-69850000D03*
%TD*%
D12*
%TO.C,R8*%
X199390000Y-73660000D03*
D11*
X207010000Y-73660000D03*
%TD*%
D24*
%TO.C,D11*%
X170450000Y-42980000D03*
D14*
X169180000Y-40780295D03*
%TD*%
D17*
%TO.C,D3*%
X193010000Y-56040000D03*
D14*
X195550000Y-56040000D03*
%TD*%
M02*
