%TF.GenerationSoftware,KiCad,Pcbnew,(6.0.7)*%
%TF.CreationDate,2022-08-22T17:26:44+09:00*%
%TF.ProjectId,LedRouletteShield,4c656452-6f75-46c6-9574-746553686965,rev?*%
%TF.SameCoordinates,Original*%
%TF.FileFunction,Copper,L1,Top*%
%TF.FilePolarity,Positive*%
%FSLAX46Y46*%
G04 Gerber Fmt 4.6, Leading zero omitted, Abs format (unit mm)*
G04 Created by KiCad (PCBNEW (6.0.7)) date 2022-08-22 17:26:44*
%MOMM*%
%LPD*%
G01*
G04 APERTURE LIST*
G04 Aperture macros list*
%AMRotRect*
0 Rectangle, with rotation*
0 The origin of the aperture is its center*
0 $1 length*
0 $2 width*
0 $3 Rotation angle, in degrees counterclockwise*
0 Add horizontal line*
21,1,$1,$2,0,0,$3*%
G04 Aperture macros list end*
%TA.AperFunction,ComponentPad*%
%ADD10R,1.600000X1.600000*%
%TD*%
%TA.AperFunction,ComponentPad*%
%ADD11O,1.600000X1.600000*%
%TD*%
%TA.AperFunction,ComponentPad*%
%ADD12C,1.600000*%
%TD*%
%TA.AperFunction,ComponentPad*%
%ADD13RotRect,1.800000X1.800000X150.000000*%
%TD*%
%TA.AperFunction,ComponentPad*%
%ADD14C,1.800000*%
%TD*%
%TA.AperFunction,ComponentPad*%
%ADD15R,2.500000X2.500000*%
%TD*%
%TA.AperFunction,ComponentPad*%
%ADD16C,2.500000*%
%TD*%
%TA.AperFunction,ComponentPad*%
%ADD17R,1.800000X1.800000*%
%TD*%
%TA.AperFunction,ComponentPad*%
%ADD18RotRect,1.800000X1.800000X330.000000*%
%TD*%
%TA.AperFunction,ComponentPad*%
%ADD19RotRect,1.800000X1.800000X240.000000*%
%TD*%
%TA.AperFunction,ComponentPad*%
%ADD20RotRect,1.800000X1.800000X210.000000*%
%TD*%
%TA.AperFunction,ComponentPad*%
%ADD21RotRect,1.800000X1.800000X60.000000*%
%TD*%
%TA.AperFunction,ComponentPad*%
%ADD22RotRect,1.800000X1.800000X30.000000*%
%TD*%
%TA.AperFunction,ComponentPad*%
%ADD23RotRect,1.800000X1.800000X300.000000*%
%TD*%
%TA.AperFunction,ComponentPad*%
%ADD24RotRect,1.800000X1.800000X120.000000*%
%TD*%
%TA.AperFunction,ViaPad*%
%ADD25C,0.800000*%
%TD*%
%TA.AperFunction,Conductor*%
%ADD26C,0.250000*%
%TD*%
G04 APERTURE END LIST*
D10*
%TO.P,A1,1,NC*%
%TO.N,unconnected-(A1-Pad1)*%
X170815000Y-32385000D03*
D11*
%TO.P,A1,2,IOREF*%
%TO.N,unconnected-(A1-Pad2)*%
X173355000Y-32385000D03*
%TO.P,A1,3,~{RESET}*%
%TO.N,unconnected-(A1-Pad3)*%
X175895000Y-32385000D03*
%TO.P,A1,4,3V3*%
%TO.N,unconnected-(A1-Pad4)*%
X178435000Y-32385000D03*
%TO.P,A1,5,+5V*%
%TO.N,+5V*%
X180975000Y-32385000D03*
%TO.P,A1,6,GND*%
%TO.N,GND*%
X183515000Y-32385000D03*
%TO.P,A1,7,GND*%
X186055000Y-32385000D03*
%TO.P,A1,8,VIN*%
%TO.N,unconnected-(A1-Pad8)*%
X188595000Y-32385000D03*
%TO.P,A1,9,A0*%
%TO.N,unconnected-(A1-Pad9)*%
X193675000Y-32385000D03*
%TO.P,A1,10,A1*%
%TO.N,unconnected-(A1-Pad10)*%
X196215000Y-32385000D03*
%TO.P,A1,11,A2*%
%TO.N,A2*%
X198755000Y-32385000D03*
%TO.P,A1,12,A3*%
%TO.N,A3*%
X201295000Y-32385000D03*
%TO.P,A1,13,SDA/A4*%
%TO.N,unconnected-(A1-Pad13)*%
X203835000Y-32385000D03*
%TO.P,A1,14,SCL/A5*%
%TO.N,unconnected-(A1-Pad14)*%
X206375000Y-32385000D03*
%TO.P,A1,15,D0/RX*%
%TO.N,unconnected-(A1-Pad15)*%
X206375000Y-80645000D03*
%TO.P,A1,16,D1/TX*%
%TO.N,unconnected-(A1-Pad16)*%
X203835000Y-80645000D03*
%TO.P,A1,17,D2*%
%TO.N,S01*%
X201295000Y-80645000D03*
%TO.P,A1,18,D3*%
%TO.N,S02*%
X198755000Y-80645000D03*
%TO.P,A1,19,D4*%
%TO.N,S03*%
X196215000Y-80645000D03*
%TO.P,A1,20,D5*%
%TO.N,S04*%
X193675000Y-80645000D03*
%TO.P,A1,21,D6*%
%TO.N,S05*%
X191135000Y-80645000D03*
%TO.P,A1,22,D7*%
%TO.N,S06*%
X188595000Y-80645000D03*
%TO.P,A1,23,D8*%
%TO.N,S07*%
X184535000Y-80645000D03*
%TO.P,A1,24,D9*%
%TO.N,S08*%
X181995000Y-80645000D03*
%TO.P,A1,25,D10*%
%TO.N,S09*%
X179455000Y-80645000D03*
%TO.P,A1,26,D11*%
%TO.N,S10*%
X176915000Y-80645000D03*
%TO.P,A1,27,D12*%
%TO.N,S11*%
X174375000Y-80645000D03*
%TO.P,A1,28,D13*%
%TO.N,S12*%
X171835000Y-80645000D03*
%TO.P,A1,29,GND*%
%TO.N,GND*%
X169295000Y-80645000D03*
%TO.P,A1,30,AREF*%
%TO.N,unconnected-(A1-Pad30)*%
X166755000Y-80645000D03*
%TO.P,A1,31,SDA/A4*%
%TO.N,unconnected-(A1-Pad31)*%
X164215000Y-80645000D03*
%TO.P,A1,32,SCL/A5*%
%TO.N,unconnected-(A1-Pad32)*%
X161675000Y-80645000D03*
%TD*%
D12*
%TO.P,R9,1*%
%TO.N,Net-(D7-Pad2)*%
X153035000Y-72390000D03*
D11*
%TO.P,R9,2*%
%TO.N,S07*%
X145415000Y-72390000D03*
%TD*%
D13*
%TO.P,D10,1,K*%
%TO.N,GND*%
X165020000Y-48450000D03*
D14*
%TO.P,D10,2,A*%
%TO.N,Net-(D10-Pad2)*%
X162820295Y-47180000D03*
%TD*%
D15*
%TO.P,S2,1*%
%TO.N,Net-(R2-Pad2)*%
X201500000Y-62250000D03*
D16*
%TO.P,S2,2*%
%TO.N,GND*%
X206500000Y-62250000D03*
%TO.P,S2,3*%
%TO.N,A3*%
X201500000Y-49750000D03*
%TO.P,S2,4*%
%TO.N,unconnected-(S2-Pad4)*%
X206500000Y-49750000D03*
%TD*%
D12*
%TO.P,R4,1*%
%TO.N,Net-(D2-Pad2)*%
X153035000Y-75565000D03*
D11*
%TO.P,R4,2*%
%TO.N,S02*%
X145415000Y-75565000D03*
%TD*%
D12*
%TO.P,R7,1*%
%TO.N,Net-(D5-Pad2)*%
X199390000Y-66040000D03*
D11*
%TO.P,R7,2*%
%TO.N,S05*%
X207010000Y-66040000D03*
%TD*%
D12*
%TO.P,R11,1*%
%TO.N,Net-(D9-Pad2)*%
X198755000Y-38735000D03*
D11*
%TO.P,R11,2*%
%TO.N,S09*%
X206375000Y-38735000D03*
%TD*%
D17*
%TO.P,D12,1,K*%
%TO.N,GND*%
X178000000Y-41000000D03*
D14*
%TO.P,D12,2,A*%
%TO.N,Net-(D12-Pad2)*%
X178000000Y-38460000D03*
%TD*%
D12*
%TO.P,R1,1*%
%TO.N,+5V*%
X153035000Y-66040000D03*
D11*
%TO.P,R1,2*%
%TO.N,Net-(R1-Pad2)*%
X145415000Y-66040000D03*
%TD*%
D15*
%TO.P,S1,1*%
%TO.N,Net-(R1-Pad2)*%
X145500000Y-62250000D03*
D16*
%TO.P,S1,2*%
%TO.N,GND*%
X150500000Y-62250000D03*
%TO.P,S1,3*%
%TO.N,A2*%
X145500000Y-49750000D03*
%TO.P,S1,4*%
%TO.N,unconnected-(S1-Pad4)*%
X150500000Y-49750000D03*
%TD*%
D18*
%TO.P,D4,1,K*%
%TO.N,GND*%
X191050000Y-63480000D03*
D14*
%TO.P,D4,2,A*%
%TO.N,Net-(D4-Pad2)*%
X193249705Y-64750000D03*
%TD*%
D19*
%TO.P,D7,1,K*%
%TO.N,GND*%
X170390000Y-69000000D03*
D14*
%TO.P,D7,2,A*%
%TO.N,Net-(D7-Pad2)*%
X169120000Y-71199705D03*
%TD*%
D12*
%TO.P,R10,1*%
%TO.N,Net-(D8-Pad2)*%
X153035000Y-69215000D03*
D11*
%TO.P,R10,2*%
%TO.N,S08*%
X145415000Y-69215000D03*
%TD*%
D20*
%TO.P,D8,1,K*%
%TO.N,GND*%
X164970000Y-63500000D03*
D14*
%TO.P,D8,2,A*%
%TO.N,Net-(D8-Pad2)*%
X162770295Y-64770000D03*
%TD*%
D21*
%TO.P,D1,1,K*%
%TO.N,GND*%
X185500000Y-43030000D03*
D14*
%TO.P,D1,2,A*%
%TO.N,Net-(D1-Pad2)*%
X186770000Y-40830295D03*
%TD*%
D12*
%TO.P,R5,1*%
%TO.N,Net-(D3-Pad2)*%
X146050000Y-40005000D03*
D11*
%TO.P,R5,2*%
%TO.N,S03*%
X153670000Y-40005000D03*
%TD*%
D12*
%TO.P,R12,1*%
%TO.N,Net-(D10-Pad2)*%
X146050000Y-43180000D03*
D11*
%TO.P,R12,2*%
%TO.N,S10*%
X153670000Y-43180000D03*
%TD*%
D22*
%TO.P,D2,1,K*%
%TO.N,GND*%
X190950000Y-48500000D03*
D14*
%TO.P,D2,2,A*%
%TO.N,Net-(D2-Pad2)*%
X193149705Y-47230000D03*
%TD*%
D12*
%TO.P,R6,1*%
%TO.N,Net-(D4-Pad2)*%
X198755000Y-35560000D03*
D11*
%TO.P,R6,2*%
%TO.N,S04*%
X206375000Y-35560000D03*
%TD*%
D17*
%TO.P,D6,1,K*%
%TO.N,GND*%
X177980000Y-71070000D03*
D14*
%TO.P,D6,2,A*%
%TO.N,Net-(D6-Pad2)*%
X177980000Y-73610000D03*
%TD*%
D12*
%TO.P,R13,1*%
%TO.N,Net-(D11-Pad2)*%
X153670000Y-36830000D03*
D11*
%TO.P,R13,2*%
%TO.N,S11*%
X146050000Y-36830000D03*
%TD*%
D17*
%TO.P,D9,1,K*%
%TO.N,GND*%
X162965000Y-56020000D03*
D14*
%TO.P,D9,2,A*%
%TO.N,Net-(D9-Pad2)*%
X160425000Y-56020000D03*
%TD*%
D12*
%TO.P,R14,1*%
%TO.N,Net-(D12-Pad2)*%
X146050000Y-46355000D03*
D11*
%TO.P,R14,2*%
%TO.N,S12*%
X153670000Y-46355000D03*
%TD*%
D23*
%TO.P,D5,1,K*%
%TO.N,GND*%
X185580000Y-68980000D03*
D14*
%TO.P,D5,2,A*%
%TO.N,Net-(D5-Pad2)*%
X186850000Y-71179705D03*
%TD*%
D12*
%TO.P,R3,1*%
%TO.N,Net-(D1-Pad2)*%
X207010000Y-77470000D03*
D11*
%TO.P,R3,2*%
%TO.N,S01*%
X199390000Y-77470000D03*
%TD*%
D12*
%TO.P,R2,1*%
%TO.N,+5V*%
X199390000Y-69850000D03*
D11*
%TO.P,R2,2*%
%TO.N,Net-(R2-Pad2)*%
X207010000Y-69850000D03*
%TD*%
D12*
%TO.P,R8,1*%
%TO.N,Net-(D6-Pad2)*%
X199390000Y-73660000D03*
D11*
%TO.P,R8,2*%
%TO.N,S06*%
X207010000Y-73660000D03*
%TD*%
D24*
%TO.P,D11,1,K*%
%TO.N,GND*%
X170450000Y-42980000D03*
D14*
%TO.P,D11,2,A*%
%TO.N,Net-(D11-Pad2)*%
X169180000Y-40780295D03*
%TD*%
D17*
%TO.P,D3,1,K*%
%TO.N,GND*%
X193010000Y-56040000D03*
D14*
%TO.P,D3,2,A*%
%TO.N,Net-(D3-Pad2)*%
X195550000Y-56040000D03*
%TD*%
D25*
%TO.N,+5V*%
X153035000Y-33565500D03*
X184150000Y-71755000D03*
X158750000Y-64135000D03*
%TO.N,A2*%
X148590000Y-34290000D03*
%TO.N,S03*%
X203200000Y-40005000D03*
%TO.N,S05*%
X193675000Y-68580000D03*
%TO.N,S06*%
X189230000Y-74930000D03*
%TO.N,S07*%
X184150000Y-76110500D03*
%TO.N,S08*%
X181610000Y-75475500D03*
%TO.N,Net-(D1-Pad2)*%
X202759800Y-43374800D03*
%TO.N,Net-(D2-Pad2)*%
X187325000Y-74930000D03*
%TO.N,Net-(D3-Pad2)*%
X195580000Y-35560000D03*
%TO.N,Net-(D9-Pad2)*%
X161925000Y-40550500D03*
%TO.N,Net-(D12-Pad2)*%
X158115000Y-44450000D03*
X162560000Y-38735000D03*
%TD*%
D26*
%TO.N,+5V*%
X168276396Y-74930000D02*
X158750000Y-65403604D01*
X183610000Y-72295000D02*
X177260000Y-72295000D01*
X152235001Y-34454999D02*
X153035000Y-33655000D01*
X152235001Y-65240001D02*
X152235001Y-34454999D01*
X153035000Y-66040000D02*
X152235001Y-65240001D01*
X174625000Y-74930000D02*
X168276396Y-74930000D01*
X177260000Y-72295000D02*
X174625000Y-74930000D01*
X153035000Y-33655000D02*
X153035000Y-33565500D01*
X184150000Y-71755000D02*
X183610000Y-72295000D01*
X158750000Y-65403604D02*
X158750000Y-64135000D01*
%TO.N,A2*%
X148590000Y-34290000D02*
X148590000Y-46660000D01*
X148590000Y-46660000D02*
X145500000Y-49750000D01*
%TO.N,A3*%
X207645000Y-34290000D02*
X208280000Y-34925000D01*
X208280000Y-42970000D02*
X201500000Y-49750000D01*
X203200000Y-34290000D02*
X207645000Y-34290000D01*
X201295000Y-32385000D02*
X203200000Y-34290000D01*
X208280000Y-34925000D02*
X208280000Y-42970000D01*
%TO.N,S01*%
X201295000Y-80645000D02*
X201295000Y-79375000D01*
X201295000Y-79375000D02*
X199390000Y-77470000D01*
%TO.N,S03*%
X196215000Y-80645000D02*
X197936399Y-78923601D01*
X197936399Y-78923601D02*
X197936399Y-45268601D01*
X197936399Y-45268601D02*
X203200000Y-40005000D01*
%TO.N,S04*%
X195358050Y-63278051D02*
X195358050Y-78961950D01*
X206375000Y-35560000D02*
X197225000Y-44710000D01*
X197225000Y-61411101D02*
X195358050Y-63278051D01*
X195358050Y-78961950D02*
X193675000Y-80645000D01*
X197225000Y-44710000D02*
X197225000Y-61411101D01*
%TO.N,S05*%
X193675000Y-68580000D02*
X191135000Y-71120000D01*
X191135000Y-71120000D02*
X191135000Y-80645000D01*
%TO.N,S06*%
X188595000Y-75565000D02*
X188595000Y-80645000D01*
X189230000Y-74930000D02*
X188595000Y-75565000D01*
%TO.N,S07*%
X184150000Y-76110500D02*
X184535000Y-76495500D01*
X184535000Y-76495500D02*
X184535000Y-80645000D01*
%TO.N,S08*%
X181610000Y-75475500D02*
X181995000Y-75860500D01*
X181995000Y-75860500D02*
X181995000Y-80645000D01*
%TO.N,S09*%
X199465991Y-64845991D02*
X199925000Y-64845991D01*
X206375000Y-38735000D02*
X198386399Y-46723601D01*
X198755000Y-64135000D02*
X199465991Y-64845991D01*
X180725000Y-81915000D02*
X179455000Y-80645000D01*
X198755000Y-55880000D02*
X198755000Y-64135000D01*
X202565000Y-67485991D02*
X202565000Y-81915000D01*
X199925000Y-64845991D02*
X202565000Y-67485991D01*
X198386399Y-55511399D02*
X198755000Y-55880000D01*
X202565000Y-81915000D02*
X180725000Y-81915000D01*
X198386399Y-46723601D02*
X198386399Y-55511399D01*
%TO.N,S10*%
X156210000Y-45720000D02*
X156210000Y-64135000D01*
X175895000Y-79625000D02*
X176915000Y-80645000D01*
X170815000Y-78740000D02*
X175260000Y-78740000D01*
X153670000Y-43180000D02*
X156210000Y-45720000D01*
X156210000Y-64135000D02*
X170815000Y-78740000D01*
X175895000Y-79375000D02*
X175895000Y-79625000D01*
X175260000Y-78740000D02*
X175895000Y-79375000D01*
%TO.N,S11*%
X149847613Y-33007613D02*
X149847613Y-48175000D01*
X146685000Y-32385000D02*
X149225000Y-32385000D01*
X172470000Y-82550000D02*
X174375000Y-80645000D01*
X146050000Y-33020000D02*
X146685000Y-32385000D01*
X147955000Y-50067613D02*
X147955000Y-78740000D01*
X151765000Y-82550000D02*
X172470000Y-82550000D01*
X149847613Y-48175000D02*
X147955000Y-50067613D01*
X149225000Y-32385000D02*
X149847613Y-33007613D01*
X147955000Y-78740000D02*
X151765000Y-82550000D01*
X146050000Y-36830000D02*
X146050000Y-33020000D01*
%TO.N,S12*%
X171835000Y-80645000D02*
X154305000Y-63115000D01*
X154305000Y-63115000D02*
X154305000Y-62865000D01*
X153670000Y-62230000D02*
X153670000Y-46355000D01*
X154305000Y-62865000D02*
X153670000Y-62230000D01*
%TO.N,Net-(D1-Pad2)*%
X207010000Y-77470000D02*
X203200000Y-73660000D01*
X199390000Y-59055000D02*
X199390000Y-46744600D01*
X203200000Y-67310000D02*
X199390000Y-63500000D01*
X203200000Y-73660000D02*
X203200000Y-67310000D01*
X199390000Y-63500000D02*
X199390000Y-59055000D01*
X199390000Y-46744600D02*
X202759800Y-43374800D01*
%TO.N,Net-(D2-Pad2)*%
X191770000Y-54830000D02*
X191770000Y-60741534D01*
X189495577Y-72759423D02*
X187325000Y-74930000D01*
X191770000Y-60741534D02*
X189495577Y-63015957D01*
X193149705Y-47230000D02*
X193149705Y-53450295D01*
X189495577Y-63015957D02*
X189495577Y-72759423D01*
X193149705Y-53450295D02*
X191770000Y-54830000D01*
%TO.N,Net-(D3-Pad2)*%
X195550000Y-35590000D02*
X195580000Y-35560000D01*
X195550000Y-56040000D02*
X195550000Y-35590000D01*
%TO.N,Net-(D4-Pad2)*%
X198755000Y-35560000D02*
X196775000Y-37540000D01*
X196775000Y-37540000D02*
X196775000Y-61224705D01*
X196775000Y-61224705D02*
X193249705Y-64750000D01*
%TO.N,Net-(D9-Pad2)*%
X160425000Y-42050500D02*
X160425000Y-56020000D01*
X161925000Y-40550500D02*
X160425000Y-42050500D01*
%TO.N,Net-(D12-Pad2)*%
X158115000Y-44450000D02*
X158115000Y-43180000D01*
X158115000Y-43180000D02*
X162560000Y-38735000D01*
%TO.N,Net-(R1-Pad2)*%
X145415000Y-62335000D02*
X145500000Y-62250000D01*
X145415000Y-66040000D02*
X145415000Y-62335000D01*
%TO.N,Net-(R2-Pad2)*%
X207010000Y-69850000D02*
X207010000Y-67760000D01*
X207010000Y-67760000D02*
X201500000Y-62250000D01*
%TD*%
%TA.AperFunction,Conductor*%
%TO.N,+5V*%
G36*
X182187121Y-30500002D02*
G01*
X182233614Y-30553658D01*
X182245000Y-30606000D01*
X182245000Y-31518699D01*
X182224998Y-31586820D01*
X182171342Y-31633313D01*
X182101068Y-31643417D01*
X182036488Y-31613923D01*
X182015787Y-31590970D01*
X181983972Y-31545533D01*
X181976916Y-31537125D01*
X181822875Y-31383084D01*
X181814467Y-31376028D01*
X181636007Y-31251069D01*
X181626511Y-31245586D01*
X181429053Y-31153510D01*
X181418761Y-31149764D01*
X181246497Y-31103606D01*
X181232401Y-31103942D01*
X181229000Y-31111884D01*
X181229000Y-33652967D01*
X181232973Y-33666498D01*
X181241522Y-33667727D01*
X181418761Y-33620236D01*
X181429053Y-33616490D01*
X181626511Y-33524414D01*
X181636007Y-33518931D01*
X181814467Y-33393972D01*
X181822875Y-33386916D01*
X181976916Y-33232875D01*
X181983972Y-33224467D01*
X182015787Y-33179030D01*
X182071244Y-33134702D01*
X182141863Y-33127393D01*
X182205224Y-33159424D01*
X182241209Y-33220625D01*
X182245000Y-33251301D01*
X182245000Y-36704000D01*
X182224998Y-36772121D01*
X182171342Y-36818614D01*
X182119000Y-36830000D01*
X165735000Y-36830000D01*
X163683232Y-38881768D01*
X163620920Y-38915794D01*
X163550105Y-38910729D01*
X163493269Y-38868182D01*
X163468458Y-38801662D01*
X163468827Y-38779504D01*
X163472814Y-38741567D01*
X163472814Y-38741565D01*
X163473504Y-38735000D01*
X163453542Y-38545072D01*
X163394527Y-38363444D01*
X163299040Y-38198056D01*
X163171253Y-38056134D01*
X163016752Y-37943882D01*
X163010724Y-37941198D01*
X163010722Y-37941197D01*
X162848319Y-37868891D01*
X162848318Y-37868891D01*
X162842288Y-37866206D01*
X162748887Y-37846353D01*
X162661944Y-37827872D01*
X162661939Y-37827872D01*
X162655487Y-37826500D01*
X162464513Y-37826500D01*
X162458061Y-37827872D01*
X162458056Y-37827872D01*
X162371113Y-37846353D01*
X162277712Y-37866206D01*
X162271682Y-37868891D01*
X162271681Y-37868891D01*
X162109278Y-37941197D01*
X162109276Y-37941198D01*
X162103248Y-37943882D01*
X161948747Y-38056134D01*
X161820960Y-38198056D01*
X161725473Y-38363444D01*
X161666458Y-38545072D01*
X161651018Y-38691981D01*
X161649093Y-38710292D01*
X161622080Y-38775949D01*
X161612878Y-38786217D01*
X157722747Y-42676348D01*
X157714461Y-42683888D01*
X157707982Y-42688000D01*
X157702557Y-42693777D01*
X157661357Y-42737651D01*
X157658602Y-42740493D01*
X157638865Y-42760230D01*
X157636385Y-42763427D01*
X157628682Y-42772447D01*
X157598414Y-42804679D01*
X157594595Y-42811625D01*
X157594593Y-42811628D01*
X157588652Y-42822434D01*
X157577801Y-42838953D01*
X157565386Y-42854959D01*
X157562241Y-42862228D01*
X157562238Y-42862232D01*
X157547826Y-42895537D01*
X157542609Y-42906187D01*
X157521305Y-42944940D01*
X157519334Y-42952615D01*
X157519334Y-42952616D01*
X157516267Y-42964562D01*
X157509863Y-42983266D01*
X157501819Y-43001855D01*
X157500580Y-43009678D01*
X157500577Y-43009688D01*
X157494901Y-43045524D01*
X157492495Y-43057144D01*
X157481500Y-43099970D01*
X157481500Y-43120224D01*
X157479949Y-43139934D01*
X157476780Y-43159943D01*
X157477526Y-43167835D01*
X157480941Y-43203961D01*
X157481500Y-43215819D01*
X157481500Y-43747476D01*
X157461498Y-43815597D01*
X157449142Y-43831779D01*
X157375960Y-43913056D01*
X157280473Y-44078444D01*
X157221458Y-44260072D01*
X157220768Y-44266633D01*
X157220768Y-44266635D01*
X157202186Y-44443435D01*
X157201496Y-44450000D01*
X157221458Y-44639928D01*
X157280473Y-44821556D01*
X157375960Y-44986944D01*
X157380378Y-44991851D01*
X157380379Y-44991852D01*
X157391706Y-45004432D01*
X157422423Y-45068440D01*
X157413658Y-45138893D01*
X157387164Y-45177836D01*
X157014786Y-45550214D01*
X156952474Y-45584240D01*
X156881659Y-45579175D01*
X156824823Y-45536628D01*
X156804695Y-45496275D01*
X156796018Y-45466406D01*
X156791985Y-45459587D01*
X156791983Y-45459582D01*
X156785707Y-45448971D01*
X156777010Y-45431221D01*
X156769552Y-45412383D01*
X156743571Y-45376623D01*
X156737053Y-45366701D01*
X156718578Y-45335460D01*
X156718574Y-45335455D01*
X156714542Y-45328637D01*
X156700218Y-45314313D01*
X156687376Y-45299278D01*
X156675472Y-45282893D01*
X156641406Y-45254711D01*
X156632627Y-45246722D01*
X154979152Y-43593247D01*
X154945126Y-43530935D01*
X154946540Y-43471541D01*
X154963543Y-43408087D01*
X154983498Y-43180000D01*
X154963543Y-42951913D01*
X154928849Y-42822434D01*
X154905707Y-42736067D01*
X154905706Y-42736065D01*
X154904284Y-42730757D01*
X154878913Y-42676348D01*
X154809849Y-42528238D01*
X154809846Y-42528233D01*
X154807523Y-42523251D01*
X154676198Y-42335700D01*
X154514300Y-42173802D01*
X154509792Y-42170645D01*
X154509789Y-42170643D01*
X154431611Y-42115902D01*
X154326749Y-42042477D01*
X154321767Y-42040154D01*
X154321762Y-42040151D01*
X154124225Y-41948039D01*
X154124224Y-41948039D01*
X154119243Y-41945716D01*
X154113935Y-41944294D01*
X154113933Y-41944293D01*
X153903402Y-41887881D01*
X153903400Y-41887881D01*
X153898087Y-41886457D01*
X153670000Y-41866502D01*
X153441913Y-41886457D01*
X153436600Y-41887881D01*
X153436598Y-41887881D01*
X153226067Y-41944293D01*
X153226065Y-41944294D01*
X153220757Y-41945716D01*
X153215776Y-41948039D01*
X153215775Y-41948039D01*
X153018238Y-42040151D01*
X153018233Y-42040154D01*
X153013251Y-42042477D01*
X152908389Y-42115902D01*
X152830211Y-42170643D01*
X152830208Y-42170645D01*
X152825700Y-42173802D01*
X152663802Y-42335700D01*
X152532477Y-42523251D01*
X152530154Y-42528233D01*
X152530151Y-42528238D01*
X152461087Y-42676348D01*
X152435716Y-42730757D01*
X152434294Y-42736065D01*
X152434293Y-42736067D01*
X152411151Y-42822434D01*
X152376457Y-42951913D01*
X152356502Y-43180000D01*
X152376457Y-43408087D01*
X152377880Y-43413398D01*
X152377881Y-43413402D01*
X152421534Y-43576314D01*
X152435716Y-43629243D01*
X152438039Y-43634224D01*
X152438039Y-43634225D01*
X152530151Y-43831762D01*
X152530154Y-43831767D01*
X152532477Y-43836749D01*
X152663802Y-44024300D01*
X152825700Y-44186198D01*
X152830208Y-44189355D01*
X152830211Y-44189357D01*
X152908389Y-44244098D01*
X153013251Y-44317523D01*
X153018233Y-44319846D01*
X153018238Y-44319849D01*
X153215775Y-44411961D01*
X153220757Y-44414284D01*
X153226065Y-44415706D01*
X153226067Y-44415707D01*
X153436598Y-44472119D01*
X153436600Y-44472119D01*
X153441913Y-44473543D01*
X153670000Y-44493498D01*
X153898087Y-44473543D01*
X153903398Y-44472120D01*
X153903409Y-44472118D01*
X153961541Y-44456541D01*
X154032517Y-44458230D01*
X154083248Y-44489152D01*
X155539595Y-45945499D01*
X155573621Y-46007811D01*
X155576500Y-46034594D01*
X155576500Y-63186405D01*
X155556498Y-63254526D01*
X155502842Y-63301019D01*
X155432568Y-63311123D01*
X155367988Y-63281629D01*
X155361405Y-63275500D01*
X154973697Y-62887792D01*
X154939671Y-62825480D01*
X154936854Y-62802655D01*
X154935923Y-62773036D01*
X154935674Y-62765111D01*
X154933461Y-62757493D01*
X154930021Y-62745652D01*
X154926012Y-62726293D01*
X154925846Y-62724983D01*
X154923474Y-62706203D01*
X154920558Y-62698837D01*
X154920556Y-62698831D01*
X154907200Y-62665098D01*
X154903355Y-62653868D01*
X154893230Y-62619017D01*
X154893230Y-62619016D01*
X154891019Y-62611407D01*
X154880705Y-62593966D01*
X154872008Y-62576213D01*
X154867472Y-62564758D01*
X154864552Y-62557383D01*
X154838563Y-62521612D01*
X154832047Y-62511692D01*
X154813578Y-62480463D01*
X154809542Y-62473638D01*
X154795221Y-62459317D01*
X154782380Y-62444283D01*
X154775132Y-62434307D01*
X154770472Y-62427893D01*
X154736407Y-62399712D01*
X154727626Y-62391722D01*
X154340404Y-62004499D01*
X154306379Y-61942187D01*
X154303500Y-61915404D01*
X154303500Y-47574394D01*
X154323502Y-47506273D01*
X154357229Y-47471181D01*
X154509789Y-47364357D01*
X154509792Y-47364355D01*
X154514300Y-47361198D01*
X154676198Y-47199300D01*
X154807523Y-47011749D01*
X154809846Y-47006767D01*
X154809849Y-47006762D01*
X154901961Y-46809225D01*
X154901961Y-46809224D01*
X154904284Y-46804243D01*
X154917175Y-46756136D01*
X154962119Y-46588402D01*
X154962119Y-46588400D01*
X154963543Y-46583087D01*
X154983498Y-46355000D01*
X154963543Y-46126913D01*
X154938806Y-46034594D01*
X154905707Y-45911067D01*
X154905706Y-45911065D01*
X154904284Y-45905757D01*
X154861293Y-45813562D01*
X154809849Y-45703238D01*
X154809846Y-45703233D01*
X154807523Y-45698251D01*
X154676198Y-45510700D01*
X154514300Y-45348802D01*
X154509792Y-45345645D01*
X154509789Y-45345643D01*
X154379926Y-45254712D01*
X154326749Y-45217477D01*
X154321767Y-45215154D01*
X154321762Y-45215151D01*
X154124225Y-45123039D01*
X154124224Y-45123039D01*
X154119243Y-45120716D01*
X154113935Y-45119294D01*
X154113933Y-45119293D01*
X153903402Y-45062881D01*
X153903400Y-45062881D01*
X153898087Y-45061457D01*
X153670000Y-45041502D01*
X153441913Y-45061457D01*
X153436600Y-45062881D01*
X153436598Y-45062881D01*
X153226067Y-45119293D01*
X153226065Y-45119294D01*
X153220757Y-45120716D01*
X153215776Y-45123039D01*
X153215775Y-45123039D01*
X153018238Y-45215151D01*
X153018233Y-45215154D01*
X153013251Y-45217477D01*
X152960074Y-45254712D01*
X152830211Y-45345643D01*
X152830208Y-45345645D01*
X152825700Y-45348802D01*
X152663802Y-45510700D01*
X152532477Y-45698251D01*
X152530154Y-45703233D01*
X152530151Y-45703238D01*
X152478707Y-45813562D01*
X152435716Y-45905757D01*
X152434294Y-45911065D01*
X152434293Y-45911067D01*
X152401194Y-46034594D01*
X152376457Y-46126913D01*
X152356502Y-46355000D01*
X152376457Y-46583087D01*
X152377881Y-46588400D01*
X152377881Y-46588402D01*
X152422826Y-46756136D01*
X152435716Y-46804243D01*
X152438039Y-46809224D01*
X152438039Y-46809225D01*
X152530151Y-47006762D01*
X152530154Y-47006767D01*
X152532477Y-47011749D01*
X152663802Y-47199300D01*
X152825700Y-47361198D01*
X152830208Y-47364355D01*
X152830211Y-47364357D01*
X152982771Y-47471181D01*
X153027099Y-47526638D01*
X153036500Y-47574394D01*
X153036500Y-62151233D01*
X153035973Y-62162416D01*
X153034298Y-62169909D01*
X153034547Y-62177835D01*
X153034547Y-62177836D01*
X153036438Y-62237986D01*
X153036500Y-62241945D01*
X153036500Y-62269856D01*
X153036997Y-62273790D01*
X153036997Y-62273791D01*
X153037005Y-62273856D01*
X153037938Y-62285693D01*
X153039327Y-62329889D01*
X153044978Y-62349339D01*
X153048987Y-62368700D01*
X153051526Y-62388797D01*
X153054445Y-62396168D01*
X153054445Y-62396170D01*
X153067804Y-62429912D01*
X153071649Y-62441142D01*
X153079460Y-62468029D01*
X153083982Y-62483593D01*
X153088015Y-62490412D01*
X153088017Y-62490417D01*
X153094293Y-62501028D01*
X153102988Y-62518776D01*
X153110448Y-62537617D01*
X153115110Y-62544033D01*
X153115110Y-62544034D01*
X153136436Y-62573387D01*
X153142952Y-62583307D01*
X153159571Y-62611407D01*
X153165458Y-62621362D01*
X153179779Y-62635683D01*
X153192619Y-62650716D01*
X153204528Y-62667107D01*
X153210634Y-62672158D01*
X153238605Y-62695298D01*
X153247384Y-62703288D01*
X153636304Y-63092208D01*
X153670330Y-63154520D01*
X153673147Y-63177341D01*
X153674327Y-63214889D01*
X153679978Y-63234339D01*
X153683987Y-63253700D01*
X153686526Y-63273797D01*
X153689445Y-63281168D01*
X153689445Y-63281170D01*
X153702804Y-63314912D01*
X153706649Y-63326142D01*
X153718982Y-63368593D01*
X153723015Y-63375412D01*
X153723017Y-63375417D01*
X153729293Y-63386028D01*
X153737988Y-63403776D01*
X153745448Y-63422617D01*
X153750110Y-63429033D01*
X153750110Y-63429034D01*
X153771436Y-63458387D01*
X153777952Y-63468307D01*
X153800458Y-63506362D01*
X153814779Y-63520683D01*
X153827619Y-63535716D01*
X153839528Y-63552107D01*
X153845634Y-63557158D01*
X153873605Y-63580298D01*
X153882384Y-63588288D01*
X159983095Y-69688999D01*
X160017121Y-69751311D01*
X160020000Y-69778094D01*
X160020000Y-74242810D01*
X159999998Y-74310931D01*
X159983095Y-74331905D01*
X156881905Y-77433095D01*
X156819593Y-77467121D01*
X156792810Y-77470000D01*
X148714500Y-77470000D01*
X148646379Y-77449998D01*
X148599886Y-77396342D01*
X148588500Y-77344000D01*
X148588500Y-75565000D01*
X151721502Y-75565000D01*
X151741457Y-75793087D01*
X151800716Y-76014243D01*
X151803039Y-76019224D01*
X151803039Y-76019225D01*
X151895151Y-76216762D01*
X151895154Y-76216767D01*
X151897477Y-76221749D01*
X152028802Y-76409300D01*
X152190700Y-76571198D01*
X152195208Y-76574355D01*
X152195211Y-76574357D01*
X152273389Y-76629098D01*
X152378251Y-76702523D01*
X152383233Y-76704846D01*
X152383238Y-76704849D01*
X152580775Y-76796961D01*
X152585757Y-76799284D01*
X152591065Y-76800706D01*
X152591067Y-76800707D01*
X152801598Y-76857119D01*
X152801600Y-76857119D01*
X152806913Y-76858543D01*
X153035000Y-76878498D01*
X153263087Y-76858543D01*
X153268400Y-76857119D01*
X153268402Y-76857119D01*
X153478933Y-76800707D01*
X153478935Y-76800706D01*
X153484243Y-76799284D01*
X153489225Y-76796961D01*
X153686762Y-76704849D01*
X153686767Y-76704846D01*
X153691749Y-76702523D01*
X153796611Y-76629098D01*
X153874789Y-76574357D01*
X153874792Y-76574355D01*
X153879300Y-76571198D01*
X154041198Y-76409300D01*
X154172523Y-76221749D01*
X154174846Y-76216767D01*
X154174849Y-76216762D01*
X154266961Y-76019225D01*
X154266961Y-76019224D01*
X154269284Y-76014243D01*
X154328543Y-75793087D01*
X154348498Y-75565000D01*
X154328543Y-75336913D01*
X154269284Y-75115757D01*
X154225505Y-75021872D01*
X154174849Y-74913238D01*
X154174846Y-74913233D01*
X154172523Y-74908251D01*
X154041198Y-74720700D01*
X153879300Y-74558802D01*
X153874792Y-74555645D01*
X153874789Y-74555643D01*
X153716373Y-74444719D01*
X153691749Y-74427477D01*
X153686767Y-74425154D01*
X153686762Y-74425151D01*
X153489225Y-74333039D01*
X153489224Y-74333039D01*
X153484243Y-74330716D01*
X153478935Y-74329294D01*
X153478933Y-74329293D01*
X153268402Y-74272881D01*
X153268400Y-74272881D01*
X153263087Y-74271457D01*
X153035000Y-74251502D01*
X152806913Y-74271457D01*
X152801600Y-74272881D01*
X152801598Y-74272881D01*
X152591067Y-74329293D01*
X152591065Y-74329294D01*
X152585757Y-74330716D01*
X152580776Y-74333039D01*
X152580775Y-74333039D01*
X152383238Y-74425151D01*
X152383233Y-74425154D01*
X152378251Y-74427477D01*
X152353627Y-74444719D01*
X152195211Y-74555643D01*
X152195208Y-74555645D01*
X152190700Y-74558802D01*
X152028802Y-74720700D01*
X151897477Y-74908251D01*
X151895154Y-74913233D01*
X151895151Y-74913238D01*
X151844495Y-75021872D01*
X151800716Y-75115757D01*
X151741457Y-75336913D01*
X151721502Y-75565000D01*
X148588500Y-75565000D01*
X148588500Y-72390000D01*
X151721502Y-72390000D01*
X151741457Y-72618087D01*
X151742881Y-72623400D01*
X151742881Y-72623402D01*
X151776178Y-72747665D01*
X151800716Y-72839243D01*
X151803039Y-72844224D01*
X151803039Y-72844225D01*
X151895151Y-73041762D01*
X151895154Y-73041767D01*
X151897477Y-73046749D01*
X152028802Y-73234300D01*
X152190700Y-73396198D01*
X152195208Y-73399355D01*
X152195211Y-73399357D01*
X152273389Y-73454098D01*
X152378251Y-73527523D01*
X152383233Y-73529846D01*
X152383238Y-73529849D01*
X152580775Y-73621961D01*
X152585757Y-73624284D01*
X152591065Y-73625706D01*
X152591067Y-73625707D01*
X152801598Y-73682119D01*
X152801600Y-73682119D01*
X152806913Y-73683543D01*
X153035000Y-73703498D01*
X153263087Y-73683543D01*
X153268400Y-73682119D01*
X153268402Y-73682119D01*
X153478933Y-73625707D01*
X153478935Y-73625706D01*
X153484243Y-73624284D01*
X153489225Y-73621961D01*
X153686762Y-73529849D01*
X153686767Y-73529846D01*
X153691749Y-73527523D01*
X153796611Y-73454098D01*
X153874789Y-73399357D01*
X153874792Y-73399355D01*
X153879300Y-73396198D01*
X154041198Y-73234300D01*
X154172523Y-73046749D01*
X154174846Y-73041767D01*
X154174849Y-73041762D01*
X154266961Y-72844225D01*
X154266961Y-72844224D01*
X154269284Y-72839243D01*
X154293823Y-72747665D01*
X154327119Y-72623402D01*
X154327119Y-72623400D01*
X154328543Y-72618087D01*
X154348498Y-72390000D01*
X154328543Y-72161913D01*
X154269284Y-71940757D01*
X154220875Y-71836942D01*
X154174849Y-71738238D01*
X154174846Y-71738233D01*
X154172523Y-71733251D01*
X154041198Y-71545700D01*
X153879300Y-71383802D01*
X153874792Y-71380645D01*
X153874789Y-71380643D01*
X153714983Y-71268746D01*
X153691749Y-71252477D01*
X153686767Y-71250154D01*
X153686762Y-71250151D01*
X153489225Y-71158039D01*
X153489224Y-71158039D01*
X153484243Y-71155716D01*
X153478935Y-71154294D01*
X153478933Y-71154293D01*
X153268402Y-71097881D01*
X153268400Y-71097881D01*
X153263087Y-71096457D01*
X153035000Y-71076502D01*
X152806913Y-71096457D01*
X152801600Y-71097881D01*
X152801598Y-71097881D01*
X152591067Y-71154293D01*
X152591065Y-71154294D01*
X152585757Y-71155716D01*
X152580776Y-71158039D01*
X152580775Y-71158039D01*
X152383238Y-71250151D01*
X152383233Y-71250154D01*
X152378251Y-71252477D01*
X152355017Y-71268746D01*
X152195211Y-71380643D01*
X152195208Y-71380645D01*
X152190700Y-71383802D01*
X152028802Y-71545700D01*
X151897477Y-71733251D01*
X151895154Y-71738233D01*
X151895151Y-71738238D01*
X151849125Y-71836942D01*
X151800716Y-71940757D01*
X151741457Y-72161913D01*
X151721502Y-72390000D01*
X148588500Y-72390000D01*
X148588500Y-69215000D01*
X151721502Y-69215000D01*
X151741457Y-69443087D01*
X151800716Y-69664243D01*
X151803039Y-69669224D01*
X151803039Y-69669225D01*
X151895151Y-69866762D01*
X151895154Y-69866767D01*
X151897477Y-69871749D01*
X152028802Y-70059300D01*
X152190700Y-70221198D01*
X152195208Y-70224355D01*
X152195211Y-70224357D01*
X152273389Y-70279098D01*
X152378251Y-70352523D01*
X152383233Y-70354846D01*
X152383238Y-70354849D01*
X152580775Y-70446961D01*
X152585757Y-70449284D01*
X152591065Y-70450706D01*
X152591067Y-70450707D01*
X152801598Y-70507119D01*
X152801600Y-70507119D01*
X152806913Y-70508543D01*
X153035000Y-70528498D01*
X153263087Y-70508543D01*
X153268400Y-70507119D01*
X153268402Y-70507119D01*
X153478933Y-70450707D01*
X153478935Y-70450706D01*
X153484243Y-70449284D01*
X153489225Y-70446961D01*
X153686762Y-70354849D01*
X153686767Y-70354846D01*
X153691749Y-70352523D01*
X153796611Y-70279098D01*
X153874789Y-70224357D01*
X153874792Y-70224355D01*
X153879300Y-70221198D01*
X154041198Y-70059300D01*
X154172523Y-69871749D01*
X154174846Y-69866767D01*
X154174849Y-69866762D01*
X154266961Y-69669225D01*
X154266961Y-69669224D01*
X154269284Y-69664243D01*
X154328543Y-69443087D01*
X154348498Y-69215000D01*
X154328543Y-68986913D01*
X154327119Y-68981598D01*
X154270707Y-68771067D01*
X154270706Y-68771065D01*
X154269284Y-68765757D01*
X154230336Y-68682232D01*
X154174849Y-68563238D01*
X154174846Y-68563233D01*
X154172523Y-68558251D01*
X154041198Y-68370700D01*
X153879300Y-68208802D01*
X153874792Y-68205645D01*
X153874789Y-68205643D01*
X153796611Y-68150902D01*
X153691749Y-68077477D01*
X153686767Y-68075154D01*
X153686762Y-68075151D01*
X153489225Y-67983039D01*
X153489224Y-67983039D01*
X153484243Y-67980716D01*
X153478935Y-67979294D01*
X153478933Y-67979293D01*
X153268402Y-67922881D01*
X153268400Y-67922881D01*
X153263087Y-67921457D01*
X153035000Y-67901502D01*
X152806913Y-67921457D01*
X152801600Y-67922881D01*
X152801598Y-67922881D01*
X152591067Y-67979293D01*
X152591065Y-67979294D01*
X152585757Y-67980716D01*
X152580776Y-67983039D01*
X152580775Y-67983039D01*
X152383238Y-68075151D01*
X152383233Y-68075154D01*
X152378251Y-68077477D01*
X152273389Y-68150902D01*
X152195211Y-68205643D01*
X152195208Y-68205645D01*
X152190700Y-68208802D01*
X152028802Y-68370700D01*
X151897477Y-68558251D01*
X151895154Y-68563233D01*
X151895151Y-68563238D01*
X151839664Y-68682232D01*
X151800716Y-68765757D01*
X151799294Y-68771065D01*
X151799293Y-68771067D01*
X151742881Y-68981598D01*
X151741457Y-68986913D01*
X151721502Y-69215000D01*
X148588500Y-69215000D01*
X148588500Y-67126062D01*
X152313493Y-67126062D01*
X152322789Y-67138077D01*
X152373994Y-67173931D01*
X152383489Y-67179414D01*
X152580947Y-67271490D01*
X152591239Y-67275236D01*
X152801688Y-67331625D01*
X152812481Y-67333528D01*
X153029525Y-67352517D01*
X153040475Y-67352517D01*
X153257519Y-67333528D01*
X153268312Y-67331625D01*
X153478761Y-67275236D01*
X153489053Y-67271490D01*
X153686511Y-67179414D01*
X153696006Y-67173931D01*
X153748048Y-67137491D01*
X153756424Y-67127012D01*
X153749356Y-67113566D01*
X153047812Y-66412022D01*
X153033868Y-66404408D01*
X153032035Y-66404539D01*
X153025420Y-66408790D01*
X152319923Y-67114287D01*
X152313493Y-67126062D01*
X148588500Y-67126062D01*
X148588500Y-66045475D01*
X151722483Y-66045475D01*
X151741472Y-66262519D01*
X151743375Y-66273312D01*
X151799764Y-66483761D01*
X151803510Y-66494053D01*
X151895586Y-66691511D01*
X151901069Y-66701006D01*
X151937509Y-66753048D01*
X151947988Y-66761424D01*
X151961434Y-66754356D01*
X152662978Y-66052812D01*
X152669356Y-66041132D01*
X153399408Y-66041132D01*
X153399539Y-66042965D01*
X153403790Y-66049580D01*
X154109287Y-66755077D01*
X154121062Y-66761507D01*
X154133077Y-66752211D01*
X154168931Y-66701006D01*
X154174414Y-66691511D01*
X154266490Y-66494053D01*
X154270236Y-66483761D01*
X154326625Y-66273312D01*
X154328528Y-66262519D01*
X154347517Y-66045475D01*
X154347517Y-66034525D01*
X154328528Y-65817481D01*
X154326625Y-65806688D01*
X154270236Y-65596239D01*
X154266490Y-65585947D01*
X154174414Y-65388489D01*
X154168931Y-65378994D01*
X154132491Y-65326952D01*
X154122012Y-65318576D01*
X154108566Y-65325644D01*
X153407022Y-66027188D01*
X153399408Y-66041132D01*
X152669356Y-66041132D01*
X152670592Y-66038868D01*
X152670461Y-66037035D01*
X152666210Y-66030420D01*
X151960713Y-65324923D01*
X151948938Y-65318493D01*
X151936923Y-65327789D01*
X151901069Y-65378994D01*
X151895586Y-65388489D01*
X151803510Y-65585947D01*
X151799764Y-65596239D01*
X151743375Y-65806688D01*
X151741472Y-65817481D01*
X151722483Y-66034525D01*
X151722483Y-66045475D01*
X148588500Y-66045475D01*
X148588500Y-64952988D01*
X152313576Y-64952988D01*
X152320644Y-64966434D01*
X153022188Y-65667978D01*
X153036132Y-65675592D01*
X153037965Y-65675461D01*
X153044580Y-65671210D01*
X153750077Y-64965713D01*
X153756507Y-64953938D01*
X153747211Y-64941923D01*
X153696006Y-64906069D01*
X153686511Y-64900586D01*
X153489053Y-64808510D01*
X153478761Y-64804764D01*
X153268312Y-64748375D01*
X153257519Y-64746472D01*
X153040475Y-64727483D01*
X153029525Y-64727483D01*
X152812481Y-64746472D01*
X152801688Y-64748375D01*
X152591239Y-64804764D01*
X152580947Y-64808510D01*
X152383489Y-64900586D01*
X152373994Y-64906069D01*
X152321952Y-64942509D01*
X152313576Y-64952988D01*
X148588500Y-64952988D01*
X148588500Y-62854030D01*
X148608502Y-62785909D01*
X148662158Y-62739416D01*
X148732432Y-62729312D01*
X148797012Y-62758806D01*
X148833088Y-62811451D01*
X148889026Y-62967252D01*
X148891242Y-62971376D01*
X148989829Y-63154856D01*
X149012737Y-63197491D01*
X149015532Y-63201234D01*
X149015534Y-63201237D01*
X149166330Y-63403177D01*
X149166335Y-63403183D01*
X149169122Y-63406915D01*
X149172431Y-63410195D01*
X149172436Y-63410201D01*
X149318716Y-63555209D01*
X149354743Y-63590923D01*
X149358505Y-63593681D01*
X149358508Y-63593684D01*
X149555736Y-63738297D01*
X149565524Y-63745474D01*
X149569667Y-63747654D01*
X149569669Y-63747655D01*
X149792684Y-63864989D01*
X149792689Y-63864991D01*
X149796834Y-63867172D01*
X150043590Y-63953344D01*
X150048183Y-63954216D01*
X150295785Y-64001224D01*
X150295788Y-64001224D01*
X150300374Y-64002095D01*
X150430958Y-64007226D01*
X150556875Y-64012174D01*
X150556881Y-64012174D01*
X150561543Y-64012357D01*
X150650651Y-64002598D01*
X150816707Y-63984412D01*
X150816712Y-63984411D01*
X150821360Y-63983902D01*
X150934116Y-63954216D01*
X151069594Y-63918548D01*
X151069596Y-63918547D01*
X151074117Y-63917357D01*
X151314262Y-63814182D01*
X151536519Y-63676646D01*
X151540082Y-63673629D01*
X151540087Y-63673626D01*
X151732439Y-63510787D01*
X151732440Y-63510786D01*
X151736005Y-63507768D01*
X151827194Y-63403787D01*
X151905257Y-63314774D01*
X151905261Y-63314769D01*
X151908339Y-63311259D01*
X152049733Y-63091437D01*
X152157083Y-62853129D01*
X152214170Y-62650717D01*
X152226760Y-62606076D01*
X152226761Y-62606073D01*
X152228030Y-62601572D01*
X152244305Y-62473638D01*
X152260616Y-62345421D01*
X152260616Y-62345417D01*
X152261014Y-62342291D01*
X152263431Y-62250000D01*
X152244061Y-61989348D01*
X152240734Y-61974642D01*
X152187408Y-61738980D01*
X152186377Y-61734423D01*
X152091647Y-61490823D01*
X151961951Y-61263902D01*
X151800138Y-61058643D01*
X151609763Y-60879557D01*
X151395009Y-60730576D01*
X151390816Y-60728508D01*
X151164781Y-60617040D01*
X151164778Y-60617039D01*
X151160593Y-60614975D01*
X151114449Y-60600204D01*
X150916123Y-60536720D01*
X150911665Y-60535293D01*
X150653693Y-60493279D01*
X150539942Y-60491790D01*
X150397022Y-60489919D01*
X150397019Y-60489919D01*
X150392345Y-60489858D01*
X150133362Y-60525104D01*
X149882433Y-60598243D01*
X149878180Y-60600203D01*
X149878179Y-60600204D01*
X149841659Y-60617040D01*
X149645072Y-60707668D01*
X149606067Y-60733241D01*
X149430404Y-60848410D01*
X149430399Y-60848414D01*
X149426491Y-60850976D01*
X149231494Y-61025018D01*
X149064363Y-61225970D01*
X148928771Y-61449419D01*
X148926962Y-61453733D01*
X148830697Y-61683301D01*
X148785909Y-61738387D01*
X148718448Y-61760514D01*
X148649734Y-61742656D01*
X148601583Y-61690484D01*
X148588500Y-61634576D01*
X148588500Y-50382208D01*
X148608502Y-50314087D01*
X148625405Y-50293113D01*
X148632849Y-50285669D01*
X148695161Y-50251643D01*
X148765976Y-50256708D01*
X148822812Y-50299255D01*
X148840532Y-50332186D01*
X148889026Y-50467252D01*
X148891242Y-50471376D01*
X148955753Y-50591437D01*
X149012737Y-50697491D01*
X149015532Y-50701234D01*
X149015534Y-50701237D01*
X149166330Y-50903177D01*
X149166335Y-50903183D01*
X149169122Y-50906915D01*
X149172431Y-50910195D01*
X149172436Y-50910201D01*
X149351426Y-51087635D01*
X149354743Y-51090923D01*
X149358505Y-51093681D01*
X149358508Y-51093684D01*
X149561750Y-51242707D01*
X149565524Y-51245474D01*
X149569667Y-51247654D01*
X149569669Y-51247655D01*
X149792684Y-51364989D01*
X149792689Y-51364991D01*
X149796834Y-51367172D01*
X150043590Y-51453344D01*
X150048183Y-51454216D01*
X150295785Y-51501224D01*
X150295788Y-51501224D01*
X150300374Y-51502095D01*
X150430959Y-51507226D01*
X150556875Y-51512174D01*
X150556881Y-51512174D01*
X150561543Y-51512357D01*
X150640977Y-51503657D01*
X150816707Y-51484412D01*
X150816712Y-51484411D01*
X150821360Y-51483902D01*
X150934116Y-51454216D01*
X151069594Y-51418548D01*
X151069596Y-51418547D01*
X151074117Y-51417357D01*
X151314262Y-51314182D01*
X151536519Y-51176646D01*
X151540082Y-51173629D01*
X151540087Y-51173626D01*
X151732439Y-51010787D01*
X151732440Y-51010786D01*
X151736005Y-51007768D01*
X151827729Y-50903177D01*
X151905257Y-50814774D01*
X151905261Y-50814769D01*
X151908339Y-50811259D01*
X152049733Y-50591437D01*
X152157083Y-50353129D01*
X152194275Y-50221256D01*
X152226760Y-50106076D01*
X152226761Y-50106073D01*
X152228030Y-50101572D01*
X152239106Y-50014507D01*
X152260616Y-49845421D01*
X152260616Y-49845417D01*
X152261014Y-49842291D01*
X152263431Y-49750000D01*
X152259436Y-49696244D01*
X152244407Y-49494000D01*
X152244406Y-49493996D01*
X152244061Y-49489348D01*
X152240625Y-49474160D01*
X152187408Y-49238980D01*
X152186377Y-49234423D01*
X152113226Y-49046314D01*
X152093340Y-48995176D01*
X152093339Y-48995173D01*
X152091647Y-48990823D01*
X151961951Y-48763902D01*
X151800138Y-48558643D01*
X151609763Y-48379557D01*
X151395009Y-48230576D01*
X151390816Y-48228508D01*
X151164781Y-48117040D01*
X151164778Y-48117039D01*
X151160593Y-48114975D01*
X151146901Y-48110592D01*
X150916123Y-48036720D01*
X150911665Y-48035293D01*
X150653693Y-47993279D01*
X150605464Y-47992648D01*
X150537611Y-47971757D01*
X150491824Y-47917497D01*
X150481113Y-47866659D01*
X150481113Y-40005000D01*
X152356502Y-40005000D01*
X152376457Y-40233087D01*
X152435716Y-40454243D01*
X152438039Y-40459224D01*
X152438039Y-40459225D01*
X152530151Y-40656762D01*
X152530154Y-40656767D01*
X152532477Y-40661749D01*
X152663802Y-40849300D01*
X152825700Y-41011198D01*
X152830208Y-41014355D01*
X152830211Y-41014357D01*
X152908389Y-41069098D01*
X153013251Y-41142523D01*
X153018233Y-41144846D01*
X153018238Y-41144849D01*
X153215775Y-41236961D01*
X153220757Y-41239284D01*
X153226065Y-41240706D01*
X153226067Y-41240707D01*
X153436598Y-41297119D01*
X153436600Y-41297119D01*
X153441913Y-41298543D01*
X153670000Y-41318498D01*
X153898087Y-41298543D01*
X153903400Y-41297119D01*
X153903402Y-41297119D01*
X154113933Y-41240707D01*
X154113935Y-41240706D01*
X154119243Y-41239284D01*
X154124225Y-41236961D01*
X154321762Y-41144849D01*
X154321767Y-41144846D01*
X154326749Y-41142523D01*
X154431611Y-41069098D01*
X154509789Y-41014357D01*
X154509792Y-41014355D01*
X154514300Y-41011198D01*
X154676198Y-40849300D01*
X154807523Y-40661749D01*
X154809846Y-40656767D01*
X154809849Y-40656762D01*
X154901961Y-40459225D01*
X154901961Y-40459224D01*
X154904284Y-40454243D01*
X154963543Y-40233087D01*
X154983498Y-40005000D01*
X154963543Y-39776913D01*
X154952778Y-39736739D01*
X154905707Y-39561067D01*
X154905706Y-39561065D01*
X154904284Y-39555757D01*
X154901961Y-39550775D01*
X154809849Y-39353238D01*
X154809846Y-39353233D01*
X154807523Y-39348251D01*
X154676198Y-39160700D01*
X154514300Y-38998802D01*
X154509792Y-38995645D01*
X154509789Y-38995643D01*
X154408797Y-38924928D01*
X154326749Y-38867477D01*
X154321767Y-38865154D01*
X154321762Y-38865151D01*
X154124225Y-38773039D01*
X154124224Y-38773039D01*
X154119243Y-38770716D01*
X154113935Y-38769294D01*
X154113933Y-38769293D01*
X153903402Y-38712881D01*
X153903400Y-38712881D01*
X153898087Y-38711457D01*
X153670000Y-38691502D01*
X153441913Y-38711457D01*
X153436600Y-38712881D01*
X153436598Y-38712881D01*
X153226067Y-38769293D01*
X153226065Y-38769294D01*
X153220757Y-38770716D01*
X153215776Y-38773039D01*
X153215775Y-38773039D01*
X153018238Y-38865151D01*
X153018233Y-38865154D01*
X153013251Y-38867477D01*
X152931203Y-38924928D01*
X152830211Y-38995643D01*
X152830208Y-38995645D01*
X152825700Y-38998802D01*
X152663802Y-39160700D01*
X152532477Y-39348251D01*
X152530154Y-39353233D01*
X152530151Y-39353238D01*
X152438039Y-39550775D01*
X152435716Y-39555757D01*
X152434294Y-39561065D01*
X152434293Y-39561067D01*
X152387222Y-39736739D01*
X152376457Y-39776913D01*
X152356502Y-40005000D01*
X150481113Y-40005000D01*
X150481113Y-36830000D01*
X152356502Y-36830000D01*
X152376457Y-37058087D01*
X152377881Y-37063400D01*
X152377881Y-37063402D01*
X152431646Y-37264052D01*
X152435716Y-37279243D01*
X152438039Y-37284224D01*
X152438039Y-37284225D01*
X152530151Y-37481762D01*
X152530154Y-37481767D01*
X152532477Y-37486749D01*
X152663802Y-37674300D01*
X152825700Y-37836198D01*
X152830208Y-37839355D01*
X152830211Y-37839357D01*
X152872390Y-37868891D01*
X153013251Y-37967523D01*
X153018233Y-37969846D01*
X153018238Y-37969849D01*
X153194952Y-38052251D01*
X153220757Y-38064284D01*
X153226065Y-38065706D01*
X153226067Y-38065707D01*
X153436598Y-38122119D01*
X153436600Y-38122119D01*
X153441913Y-38123543D01*
X153670000Y-38143498D01*
X153898087Y-38123543D01*
X153903400Y-38122119D01*
X153903402Y-38122119D01*
X154113933Y-38065707D01*
X154113935Y-38065706D01*
X154119243Y-38064284D01*
X154145048Y-38052251D01*
X154321762Y-37969849D01*
X154321767Y-37969846D01*
X154326749Y-37967523D01*
X154467610Y-37868891D01*
X154509789Y-37839357D01*
X154509792Y-37839355D01*
X154514300Y-37836198D01*
X154676198Y-37674300D01*
X154807523Y-37486749D01*
X154809846Y-37481767D01*
X154809849Y-37481762D01*
X154901961Y-37284225D01*
X154901961Y-37284224D01*
X154904284Y-37279243D01*
X154908355Y-37264052D01*
X154962119Y-37063402D01*
X154962119Y-37063400D01*
X154963543Y-37058087D01*
X154983498Y-36830000D01*
X154963543Y-36601913D01*
X154904284Y-36380757D01*
X154901961Y-36375775D01*
X154809849Y-36178238D01*
X154809846Y-36178233D01*
X154807523Y-36173251D01*
X154676198Y-35985700D01*
X154514300Y-35823802D01*
X154509792Y-35820645D01*
X154509789Y-35820643D01*
X154357228Y-35713819D01*
X154326749Y-35692477D01*
X154321767Y-35690154D01*
X154321762Y-35690151D01*
X154124225Y-35598039D01*
X154124224Y-35598039D01*
X154119243Y-35595716D01*
X154113935Y-35594294D01*
X154113933Y-35594293D01*
X153903402Y-35537881D01*
X153903400Y-35537881D01*
X153898087Y-35536457D01*
X153670000Y-35516502D01*
X153441913Y-35536457D01*
X153436600Y-35537881D01*
X153436598Y-35537881D01*
X153226067Y-35594293D01*
X153226065Y-35594294D01*
X153220757Y-35595716D01*
X153215776Y-35598039D01*
X153215775Y-35598039D01*
X153018238Y-35690151D01*
X153018233Y-35690154D01*
X153013251Y-35692477D01*
X152982772Y-35713819D01*
X152830211Y-35820643D01*
X152830208Y-35820645D01*
X152825700Y-35823802D01*
X152663802Y-35985700D01*
X152532477Y-36173251D01*
X152530154Y-36178233D01*
X152530151Y-36178238D01*
X152438039Y-36375775D01*
X152435716Y-36380757D01*
X152376457Y-36601913D01*
X152356502Y-36830000D01*
X150481113Y-36830000D01*
X150481113Y-33233134D01*
X169506500Y-33233134D01*
X169513255Y-33295316D01*
X169564385Y-33431705D01*
X169651739Y-33548261D01*
X169768295Y-33635615D01*
X169904684Y-33686745D01*
X169966866Y-33693500D01*
X171663134Y-33693500D01*
X171725316Y-33686745D01*
X171861705Y-33635615D01*
X171978261Y-33548261D01*
X172065615Y-33431705D01*
X172116745Y-33295316D01*
X172117917Y-33284526D01*
X172118803Y-33282394D01*
X172119425Y-33279778D01*
X172119848Y-33279879D01*
X172145155Y-33218965D01*
X172203517Y-33178537D01*
X172274471Y-33176078D01*
X172335490Y-33212371D01*
X172342489Y-33221031D01*
X172345643Y-33224789D01*
X172348802Y-33229300D01*
X172510700Y-33391198D01*
X172515208Y-33394355D01*
X172515211Y-33394357D01*
X172556542Y-33423297D01*
X172698251Y-33522523D01*
X172703233Y-33524846D01*
X172703238Y-33524849D01*
X172879952Y-33607251D01*
X172905757Y-33619284D01*
X172911065Y-33620706D01*
X172911067Y-33620707D01*
X173121598Y-33677119D01*
X173121600Y-33677119D01*
X173126913Y-33678543D01*
X173355000Y-33698498D01*
X173583087Y-33678543D01*
X173588400Y-33677119D01*
X173588402Y-33677119D01*
X173798933Y-33620707D01*
X173798935Y-33620706D01*
X173804243Y-33619284D01*
X173830048Y-33607251D01*
X174006762Y-33524849D01*
X174006767Y-33524846D01*
X174011749Y-33522523D01*
X174153458Y-33423297D01*
X174194789Y-33394357D01*
X174194792Y-33394355D01*
X174199300Y-33391198D01*
X174361198Y-33229300D01*
X174367273Y-33220625D01*
X174461271Y-33086381D01*
X174492523Y-33041749D01*
X174494846Y-33036767D01*
X174494849Y-33036762D01*
X174510805Y-33002543D01*
X174557722Y-32949258D01*
X174625999Y-32929797D01*
X174693959Y-32950339D01*
X174739195Y-33002543D01*
X174755151Y-33036762D01*
X174755154Y-33036767D01*
X174757477Y-33041749D01*
X174788729Y-33086381D01*
X174882728Y-33220625D01*
X174888802Y-33229300D01*
X175050700Y-33391198D01*
X175055208Y-33394355D01*
X175055211Y-33394357D01*
X175096542Y-33423297D01*
X175238251Y-33522523D01*
X175243233Y-33524846D01*
X175243238Y-33524849D01*
X175419952Y-33607251D01*
X175445757Y-33619284D01*
X175451065Y-33620706D01*
X175451067Y-33620707D01*
X175661598Y-33677119D01*
X175661600Y-33677119D01*
X175666913Y-33678543D01*
X175895000Y-33698498D01*
X176123087Y-33678543D01*
X176128400Y-33677119D01*
X176128402Y-33677119D01*
X176338933Y-33620707D01*
X176338935Y-33620706D01*
X176344243Y-33619284D01*
X176370048Y-33607251D01*
X176546762Y-33524849D01*
X176546767Y-33524846D01*
X176551749Y-33522523D01*
X176693458Y-33423297D01*
X176734789Y-33394357D01*
X176734792Y-33394355D01*
X176739300Y-33391198D01*
X176901198Y-33229300D01*
X176907273Y-33220625D01*
X177001271Y-33086381D01*
X177032523Y-33041749D01*
X177034846Y-33036767D01*
X177034849Y-33036762D01*
X177050805Y-33002543D01*
X177097722Y-32949258D01*
X177165999Y-32929797D01*
X177233959Y-32950339D01*
X177279195Y-33002543D01*
X177295151Y-33036762D01*
X177295154Y-33036767D01*
X177297477Y-33041749D01*
X177328729Y-33086381D01*
X177422728Y-33220625D01*
X177428802Y-33229300D01*
X177590700Y-33391198D01*
X177595208Y-33394355D01*
X177595211Y-33394357D01*
X177636542Y-33423297D01*
X177778251Y-33522523D01*
X177783233Y-33524846D01*
X177783238Y-33524849D01*
X177959952Y-33607251D01*
X177985757Y-33619284D01*
X177991065Y-33620706D01*
X177991067Y-33620707D01*
X178201598Y-33677119D01*
X178201600Y-33677119D01*
X178206913Y-33678543D01*
X178435000Y-33698498D01*
X178663087Y-33678543D01*
X178668400Y-33677119D01*
X178668402Y-33677119D01*
X178878933Y-33620707D01*
X178878935Y-33620706D01*
X178884243Y-33619284D01*
X178910048Y-33607251D01*
X179086762Y-33524849D01*
X179086767Y-33524846D01*
X179091749Y-33522523D01*
X179233458Y-33423297D01*
X179274789Y-33394357D01*
X179274792Y-33394355D01*
X179279300Y-33391198D01*
X179441198Y-33229300D01*
X179447273Y-33220625D01*
X179541271Y-33086381D01*
X179572523Y-33041749D01*
X179574846Y-33036767D01*
X179574849Y-33036762D01*
X179591081Y-33001951D01*
X179637998Y-32948666D01*
X179706275Y-32929205D01*
X179774235Y-32949747D01*
X179819471Y-33001951D01*
X179835586Y-33036511D01*
X179841069Y-33046007D01*
X179966028Y-33224467D01*
X179973084Y-33232875D01*
X180127125Y-33386916D01*
X180135533Y-33393972D01*
X180313993Y-33518931D01*
X180323489Y-33524414D01*
X180520947Y-33616490D01*
X180531239Y-33620236D01*
X180703503Y-33666394D01*
X180717599Y-33666058D01*
X180721000Y-33658116D01*
X180721000Y-31117033D01*
X180717027Y-31103502D01*
X180708478Y-31102273D01*
X180531239Y-31149764D01*
X180520947Y-31153510D01*
X180323489Y-31245586D01*
X180313993Y-31251069D01*
X180135533Y-31376028D01*
X180127125Y-31383084D01*
X179973084Y-31537125D01*
X179966028Y-31545533D01*
X179841069Y-31723993D01*
X179835586Y-31733489D01*
X179819471Y-31768049D01*
X179772554Y-31821334D01*
X179704277Y-31840795D01*
X179636317Y-31820253D01*
X179591081Y-31768049D01*
X179574849Y-31733238D01*
X179574846Y-31733233D01*
X179572523Y-31728251D01*
X179441198Y-31540700D01*
X179279300Y-31378802D01*
X179274792Y-31375645D01*
X179274789Y-31375643D01*
X179196611Y-31320902D01*
X179091749Y-31247477D01*
X179086767Y-31245154D01*
X179086762Y-31245151D01*
X178889225Y-31153039D01*
X178889224Y-31153039D01*
X178884243Y-31150716D01*
X178878935Y-31149294D01*
X178878933Y-31149293D01*
X178668402Y-31092881D01*
X178668400Y-31092881D01*
X178663087Y-31091457D01*
X178435000Y-31071502D01*
X178206913Y-31091457D01*
X178201600Y-31092881D01*
X178201598Y-31092881D01*
X177991067Y-31149293D01*
X177991065Y-31149294D01*
X177985757Y-31150716D01*
X177980776Y-31153039D01*
X177980775Y-31153039D01*
X177783238Y-31245151D01*
X177783233Y-31245154D01*
X177778251Y-31247477D01*
X177673389Y-31320902D01*
X177595211Y-31375643D01*
X177595208Y-31375645D01*
X177590700Y-31378802D01*
X177428802Y-31540700D01*
X177297477Y-31728251D01*
X177295154Y-31733233D01*
X177295151Y-31733238D01*
X177279195Y-31767457D01*
X177232278Y-31820742D01*
X177164001Y-31840203D01*
X177096041Y-31819661D01*
X177050805Y-31767457D01*
X177034849Y-31733238D01*
X177034846Y-31733233D01*
X177032523Y-31728251D01*
X176901198Y-31540700D01*
X176739300Y-31378802D01*
X176734792Y-31375645D01*
X176734789Y-31375643D01*
X176656611Y-31320902D01*
X176551749Y-31247477D01*
X176546767Y-31245154D01*
X176546762Y-31245151D01*
X176349225Y-31153039D01*
X176349224Y-31153039D01*
X176344243Y-31150716D01*
X176338935Y-31149294D01*
X176338933Y-31149293D01*
X176128402Y-31092881D01*
X176128400Y-31092881D01*
X176123087Y-31091457D01*
X175895000Y-31071502D01*
X175666913Y-31091457D01*
X175661600Y-31092881D01*
X175661598Y-31092881D01*
X175451067Y-31149293D01*
X175451065Y-31149294D01*
X175445757Y-31150716D01*
X175440776Y-31153039D01*
X175440775Y-31153039D01*
X175243238Y-31245151D01*
X175243233Y-31245154D01*
X175238251Y-31247477D01*
X175133389Y-31320902D01*
X175055211Y-31375643D01*
X175055208Y-31375645D01*
X175050700Y-31378802D01*
X174888802Y-31540700D01*
X174757477Y-31728251D01*
X174755154Y-31733233D01*
X174755151Y-31733238D01*
X174739195Y-31767457D01*
X174692278Y-31820742D01*
X174624001Y-31840203D01*
X174556041Y-31819661D01*
X174510805Y-31767457D01*
X174494849Y-31733238D01*
X174494846Y-31733233D01*
X174492523Y-31728251D01*
X174361198Y-31540700D01*
X174199300Y-31378802D01*
X174194792Y-31375645D01*
X174194789Y-31375643D01*
X174116611Y-31320902D01*
X174011749Y-31247477D01*
X174006767Y-31245154D01*
X174006762Y-31245151D01*
X173809225Y-31153039D01*
X173809224Y-31153039D01*
X173804243Y-31150716D01*
X173798935Y-31149294D01*
X173798933Y-31149293D01*
X173588402Y-31092881D01*
X173588400Y-31092881D01*
X173583087Y-31091457D01*
X173355000Y-31071502D01*
X173126913Y-31091457D01*
X173121600Y-31092881D01*
X173121598Y-31092881D01*
X172911067Y-31149293D01*
X172911065Y-31149294D01*
X172905757Y-31150716D01*
X172900776Y-31153039D01*
X172900775Y-31153039D01*
X172703238Y-31245151D01*
X172703233Y-31245154D01*
X172698251Y-31247477D01*
X172593389Y-31320902D01*
X172515211Y-31375643D01*
X172515208Y-31375645D01*
X172510700Y-31378802D01*
X172348802Y-31540700D01*
X172345643Y-31545211D01*
X172342108Y-31549424D01*
X172340974Y-31548473D01*
X172290929Y-31588471D01*
X172220310Y-31595776D01*
X172156951Y-31563742D01*
X172120970Y-31502538D01*
X172117918Y-31485483D01*
X172116745Y-31474684D01*
X172065615Y-31338295D01*
X171978261Y-31221739D01*
X171861705Y-31134385D01*
X171725316Y-31083255D01*
X171663134Y-31076500D01*
X169966866Y-31076500D01*
X169904684Y-31083255D01*
X169768295Y-31134385D01*
X169651739Y-31221739D01*
X169564385Y-31338295D01*
X169513255Y-31474684D01*
X169506500Y-31536866D01*
X169506500Y-33233134D01*
X150481113Y-33233134D01*
X150481113Y-33086381D01*
X150481640Y-33075198D01*
X150483315Y-33067705D01*
X150482942Y-33055819D01*
X150481175Y-32999615D01*
X150481113Y-32995657D01*
X150481113Y-32967757D01*
X150480609Y-32963766D01*
X150479676Y-32951924D01*
X150479627Y-32950339D01*
X150478287Y-32907724D01*
X150476075Y-32900110D01*
X150476074Y-32900105D01*
X150472636Y-32888272D01*
X150468625Y-32868908D01*
X150467080Y-32856677D01*
X150466087Y-32848816D01*
X150463170Y-32841449D01*
X150463169Y-32841444D01*
X150449811Y-32807705D01*
X150445967Y-32796478D01*
X150435843Y-32761635D01*
X150433631Y-32754020D01*
X150423320Y-32736585D01*
X150414625Y-32718837D01*
X150407165Y-32699996D01*
X150398958Y-32688699D01*
X150381177Y-32664226D01*
X150374661Y-32654306D01*
X150356193Y-32623078D01*
X150356191Y-32623075D01*
X150352155Y-32616251D01*
X150337834Y-32601930D01*
X150324993Y-32586896D01*
X150317745Y-32576920D01*
X150313085Y-32570506D01*
X150279020Y-32542325D01*
X150270239Y-32534335D01*
X149728647Y-31992742D01*
X149721113Y-31984463D01*
X149717000Y-31977982D01*
X149667348Y-31931356D01*
X149664507Y-31928602D01*
X149644770Y-31908865D01*
X149641573Y-31906385D01*
X149632551Y-31898680D01*
X149628397Y-31894779D01*
X149600321Y-31868414D01*
X149593375Y-31864595D01*
X149593372Y-31864593D01*
X149582566Y-31858652D01*
X149566047Y-31847801D01*
X149565583Y-31847441D01*
X149550041Y-31835386D01*
X149542772Y-31832241D01*
X149542768Y-31832238D01*
X149509463Y-31817826D01*
X149498813Y-31812609D01*
X149460060Y-31791305D01*
X149440437Y-31786267D01*
X149421734Y-31779863D01*
X149410420Y-31774967D01*
X149410419Y-31774967D01*
X149403145Y-31771819D01*
X149395322Y-31770580D01*
X149395312Y-31770577D01*
X149359476Y-31764901D01*
X149347856Y-31762495D01*
X149312711Y-31753472D01*
X149312710Y-31753472D01*
X149305030Y-31751500D01*
X149284776Y-31751500D01*
X149265065Y-31749949D01*
X149252886Y-31748020D01*
X149245057Y-31746780D01*
X149215786Y-31749547D01*
X149201039Y-31750941D01*
X149189181Y-31751500D01*
X146763768Y-31751500D01*
X146752585Y-31750973D01*
X146745092Y-31749298D01*
X146737166Y-31749547D01*
X146737165Y-31749547D01*
X146677002Y-31751438D01*
X146673044Y-31751500D01*
X146645144Y-31751500D01*
X146641154Y-31752004D01*
X146629320Y-31752936D01*
X146585111Y-31754326D01*
X146577495Y-31756539D01*
X146577493Y-31756539D01*
X146565652Y-31759979D01*
X146546293Y-31763988D01*
X146544983Y-31764154D01*
X146526203Y-31766526D01*
X146518837Y-31769442D01*
X146518831Y-31769444D01*
X146485098Y-31782800D01*
X146473868Y-31786645D01*
X146457828Y-31791305D01*
X146431407Y-31798981D01*
X146424584Y-31803016D01*
X146413966Y-31809295D01*
X146396213Y-31817992D01*
X146391998Y-31819661D01*
X146377383Y-31825448D01*
X146357021Y-31840242D01*
X146341612Y-31851437D01*
X146331695Y-31857951D01*
X146293638Y-31880458D01*
X146279317Y-31894779D01*
X146264284Y-31907619D01*
X146247893Y-31919528D01*
X146221516Y-31951413D01*
X146219712Y-31953593D01*
X146211722Y-31962374D01*
X145657742Y-32516353D01*
X145649463Y-32523887D01*
X145642982Y-32528000D01*
X145607812Y-32565453D01*
X145596357Y-32577651D01*
X145593602Y-32580493D01*
X145573865Y-32600230D01*
X145571385Y-32603427D01*
X145563682Y-32612447D01*
X145533414Y-32644679D01*
X145529595Y-32651625D01*
X145529593Y-32651628D01*
X145523652Y-32662434D01*
X145512801Y-32678953D01*
X145500386Y-32694959D01*
X145497241Y-32702228D01*
X145497238Y-32702232D01*
X145482826Y-32735537D01*
X145477609Y-32746187D01*
X145456305Y-32784940D01*
X145454334Y-32792615D01*
X145454334Y-32792616D01*
X145451267Y-32804562D01*
X145444863Y-32823266D01*
X145436819Y-32841855D01*
X145435580Y-32849678D01*
X145435577Y-32849688D01*
X145429901Y-32885524D01*
X145427495Y-32897144D01*
X145416500Y-32939970D01*
X145416500Y-32960224D01*
X145414949Y-32979934D01*
X145411780Y-32999943D01*
X145412526Y-33007835D01*
X145415941Y-33043961D01*
X145416500Y-33055819D01*
X145416500Y-35610606D01*
X145396498Y-35678727D01*
X145362771Y-35713819D01*
X145210211Y-35820643D01*
X145210208Y-35820645D01*
X145205700Y-35823802D01*
X145043802Y-35985700D01*
X144912477Y-36173251D01*
X144910154Y-36178233D01*
X144910151Y-36178238D01*
X144818039Y-36375775D01*
X144815716Y-36380757D01*
X144756457Y-36601913D01*
X144736502Y-36830000D01*
X144756457Y-37058087D01*
X144757881Y-37063400D01*
X144757881Y-37063402D01*
X144811646Y-37264052D01*
X144815716Y-37279243D01*
X144818039Y-37284224D01*
X144818039Y-37284225D01*
X144910151Y-37481762D01*
X144910154Y-37481767D01*
X144912477Y-37486749D01*
X145043802Y-37674300D01*
X145205700Y-37836198D01*
X145210208Y-37839355D01*
X145210211Y-37839357D01*
X145252390Y-37868891D01*
X145393251Y-37967523D01*
X145398233Y-37969846D01*
X145398238Y-37969849D01*
X145574952Y-38052251D01*
X145600757Y-38064284D01*
X145606065Y-38065706D01*
X145606067Y-38065707D01*
X145816598Y-38122119D01*
X145816600Y-38122119D01*
X145821913Y-38123543D01*
X146050000Y-38143498D01*
X146278087Y-38123543D01*
X146283400Y-38122119D01*
X146283402Y-38122119D01*
X146493933Y-38065707D01*
X146493935Y-38065706D01*
X146499243Y-38064284D01*
X146525048Y-38052251D01*
X146701762Y-37969849D01*
X146701767Y-37969846D01*
X146706749Y-37967523D01*
X146847610Y-37868891D01*
X146889789Y-37839357D01*
X146889792Y-37839355D01*
X146894300Y-37836198D01*
X147056198Y-37674300D01*
X147187523Y-37486749D01*
X147189846Y-37481767D01*
X147189849Y-37481762D01*
X147281961Y-37284225D01*
X147281961Y-37284224D01*
X147284284Y-37279243D01*
X147288355Y-37264052D01*
X147342119Y-37063402D01*
X147342119Y-37063400D01*
X147343543Y-37058087D01*
X147363498Y-36830000D01*
X147343543Y-36601913D01*
X147284284Y-36380757D01*
X147281961Y-36375775D01*
X147189849Y-36178238D01*
X147189846Y-36178233D01*
X147187523Y-36173251D01*
X147056198Y-35985700D01*
X146894300Y-35823802D01*
X146889792Y-35820645D01*
X146889789Y-35820643D01*
X146737229Y-35713819D01*
X146692901Y-35658362D01*
X146683500Y-35610606D01*
X146683500Y-33334594D01*
X146703502Y-33266473D01*
X146720405Y-33245499D01*
X146910499Y-33055405D01*
X146972811Y-33021379D01*
X146999594Y-33018500D01*
X148910405Y-33018500D01*
X148978526Y-33038502D01*
X148999501Y-33055405D01*
X149177209Y-33233114D01*
X149211234Y-33295426D01*
X149214113Y-33322209D01*
X149214113Y-33379373D01*
X149194111Y-33447494D01*
X149140455Y-33493987D01*
X149070181Y-33504091D01*
X149036867Y-33494481D01*
X148872288Y-33421206D01*
X148778887Y-33401353D01*
X148691944Y-33382872D01*
X148691939Y-33382872D01*
X148685487Y-33381500D01*
X148494513Y-33381500D01*
X148488061Y-33382872D01*
X148488056Y-33382872D01*
X148401113Y-33401353D01*
X148307712Y-33421206D01*
X148301682Y-33423891D01*
X148301681Y-33423891D01*
X148139278Y-33496197D01*
X148139276Y-33496198D01*
X148133248Y-33498882D01*
X147978747Y-33611134D01*
X147974326Y-33616044D01*
X147974325Y-33616045D01*
X147904917Y-33693131D01*
X147850960Y-33753056D01*
X147755473Y-33918444D01*
X147696458Y-34100072D01*
X147676496Y-34290000D01*
X147696458Y-34479928D01*
X147755473Y-34661556D01*
X147850960Y-34826944D01*
X147924137Y-34908215D01*
X147954853Y-34972221D01*
X147956500Y-34992524D01*
X147956500Y-46345406D01*
X147936498Y-46413527D01*
X147919595Y-46434501D01*
X147519588Y-46834508D01*
X147457276Y-46868534D01*
X147386461Y-46863469D01*
X147329625Y-46820922D01*
X147304814Y-46754402D01*
X147308786Y-46712802D01*
X147342119Y-46588402D01*
X147342119Y-46588400D01*
X147343543Y-46583087D01*
X147363498Y-46355000D01*
X147343543Y-46126913D01*
X147318806Y-46034594D01*
X147285707Y-45911067D01*
X147285706Y-45911065D01*
X147284284Y-45905757D01*
X147241293Y-45813562D01*
X147189849Y-45703238D01*
X147189846Y-45703233D01*
X147187523Y-45698251D01*
X147056198Y-45510700D01*
X146894300Y-45348802D01*
X146889792Y-45345645D01*
X146889789Y-45345643D01*
X146759926Y-45254712D01*
X146706749Y-45217477D01*
X146701767Y-45215154D01*
X146701762Y-45215151D01*
X146504225Y-45123039D01*
X146504224Y-45123039D01*
X146499243Y-45120716D01*
X146493935Y-45119294D01*
X146493933Y-45119293D01*
X146283402Y-45062881D01*
X146283400Y-45062881D01*
X146278087Y-45061457D01*
X146050000Y-45041502D01*
X145821913Y-45061457D01*
X145816600Y-45062881D01*
X145816598Y-45062881D01*
X145606067Y-45119293D01*
X145606065Y-45119294D01*
X145600757Y-45120716D01*
X145595776Y-45123039D01*
X145595775Y-45123039D01*
X145398238Y-45215151D01*
X145398233Y-45215154D01*
X145393251Y-45217477D01*
X145340074Y-45254712D01*
X145210211Y-45345643D01*
X145210208Y-45345645D01*
X145205700Y-45348802D01*
X145043802Y-45510700D01*
X144912477Y-45698251D01*
X144910154Y-45703233D01*
X144910151Y-45703238D01*
X144858707Y-45813562D01*
X144815716Y-45905757D01*
X144814294Y-45911065D01*
X144814293Y-45911067D01*
X144781194Y-46034594D01*
X144756457Y-46126913D01*
X144736502Y-46355000D01*
X144756457Y-46583087D01*
X144757881Y-46588400D01*
X144757881Y-46588402D01*
X144802826Y-46756136D01*
X144815716Y-46804243D01*
X144818039Y-46809224D01*
X144818039Y-46809225D01*
X144910151Y-47006762D01*
X144910154Y-47006767D01*
X144912477Y-47011749D01*
X145043802Y-47199300D01*
X145205700Y-47361198D01*
X145210208Y-47364355D01*
X145210211Y-47364357D01*
X145288389Y-47419098D01*
X145393251Y-47492523D01*
X145398233Y-47494846D01*
X145398238Y-47494849D01*
X145568825Y-47574394D01*
X145600757Y-47589284D01*
X145606065Y-47590706D01*
X145606067Y-47590707D01*
X145816598Y-47647119D01*
X145816600Y-47647119D01*
X145821913Y-47648543D01*
X146050000Y-47668498D01*
X146278087Y-47648543D01*
X146283400Y-47647119D01*
X146283402Y-47647119D01*
X146407801Y-47613786D01*
X146478777Y-47615476D01*
X146537573Y-47655270D01*
X146565521Y-47720534D01*
X146553748Y-47790548D01*
X146529507Y-47824588D01*
X146274410Y-48079685D01*
X146212098Y-48113711D01*
X146146903Y-48110592D01*
X145916127Y-48036721D01*
X145916123Y-48036720D01*
X145911665Y-48035293D01*
X145653693Y-47993279D01*
X145539942Y-47991790D01*
X145397022Y-47989919D01*
X145397019Y-47989919D01*
X145392345Y-47989858D01*
X145133362Y-48025104D01*
X144882433Y-48098243D01*
X144878180Y-48100203D01*
X144878179Y-48100204D01*
X144841659Y-48117040D01*
X144645072Y-48207668D01*
X144606067Y-48233241D01*
X144430404Y-48348410D01*
X144430399Y-48348414D01*
X144426491Y-48350976D01*
X144231494Y-48525018D01*
X144064363Y-48725970D01*
X143928771Y-48949419D01*
X143827697Y-49190455D01*
X143763359Y-49443783D01*
X143762890Y-49448437D01*
X143762890Y-49448439D01*
X143761366Y-49463575D01*
X143734640Y-49529349D01*
X143676596Y-49570233D01*
X143605664Y-49573246D01*
X143544363Y-49537431D01*
X143512156Y-49474160D01*
X143510000Y-49450952D01*
X143510000Y-43180000D01*
X144736502Y-43180000D01*
X144756457Y-43408087D01*
X144757880Y-43413398D01*
X144757881Y-43413402D01*
X144801534Y-43576314D01*
X144815716Y-43629243D01*
X144818039Y-43634224D01*
X144818039Y-43634225D01*
X144910151Y-43831762D01*
X144910154Y-43831767D01*
X144912477Y-43836749D01*
X145043802Y-44024300D01*
X145205700Y-44186198D01*
X145210208Y-44189355D01*
X145210211Y-44189357D01*
X145288389Y-44244098D01*
X145393251Y-44317523D01*
X145398233Y-44319846D01*
X145398238Y-44319849D01*
X145595775Y-44411961D01*
X145600757Y-44414284D01*
X145606065Y-44415706D01*
X145606067Y-44415707D01*
X145816598Y-44472119D01*
X145816600Y-44472119D01*
X145821913Y-44473543D01*
X146050000Y-44493498D01*
X146278087Y-44473543D01*
X146283400Y-44472119D01*
X146283402Y-44472119D01*
X146493933Y-44415707D01*
X146493935Y-44415706D01*
X146499243Y-44414284D01*
X146504225Y-44411961D01*
X146701762Y-44319849D01*
X146701767Y-44319846D01*
X146706749Y-44317523D01*
X146811611Y-44244098D01*
X146889789Y-44189357D01*
X146889792Y-44189355D01*
X146894300Y-44186198D01*
X147056198Y-44024300D01*
X147187523Y-43836749D01*
X147189846Y-43831767D01*
X147189849Y-43831762D01*
X147281961Y-43634225D01*
X147281961Y-43634224D01*
X147284284Y-43629243D01*
X147298467Y-43576314D01*
X147342119Y-43413402D01*
X147342120Y-43413398D01*
X147343543Y-43408087D01*
X147363498Y-43180000D01*
X147343543Y-42951913D01*
X147308849Y-42822434D01*
X147285707Y-42736067D01*
X147285706Y-42736065D01*
X147284284Y-42730757D01*
X147258913Y-42676348D01*
X147189849Y-42528238D01*
X147189846Y-42528233D01*
X147187523Y-42523251D01*
X147056198Y-42335700D01*
X146894300Y-42173802D01*
X146889792Y-42170645D01*
X146889789Y-42170643D01*
X146811611Y-42115902D01*
X146706749Y-42042477D01*
X146701767Y-42040154D01*
X146701762Y-42040151D01*
X146504225Y-41948039D01*
X146504224Y-41948039D01*
X146499243Y-41945716D01*
X146493935Y-41944294D01*
X146493933Y-41944293D01*
X146283402Y-41887881D01*
X146283400Y-41887881D01*
X146278087Y-41886457D01*
X146050000Y-41866502D01*
X145821913Y-41886457D01*
X145816600Y-41887881D01*
X145816598Y-41887881D01*
X145606067Y-41944293D01*
X145606065Y-41944294D01*
X145600757Y-41945716D01*
X145595776Y-41948039D01*
X145595775Y-41948039D01*
X145398238Y-42040151D01*
X145398233Y-42040154D01*
X145393251Y-42042477D01*
X145288389Y-42115902D01*
X145210211Y-42170643D01*
X145210208Y-42170645D01*
X145205700Y-42173802D01*
X145043802Y-42335700D01*
X144912477Y-42523251D01*
X144910154Y-42528233D01*
X144910151Y-42528238D01*
X144841087Y-42676348D01*
X144815716Y-42730757D01*
X144814294Y-42736065D01*
X144814293Y-42736067D01*
X144791151Y-42822434D01*
X144756457Y-42951913D01*
X144736502Y-43180000D01*
X143510000Y-43180000D01*
X143510000Y-40005000D01*
X144736502Y-40005000D01*
X144756457Y-40233087D01*
X144815716Y-40454243D01*
X144818039Y-40459224D01*
X144818039Y-40459225D01*
X144910151Y-40656762D01*
X144910154Y-40656767D01*
X144912477Y-40661749D01*
X145043802Y-40849300D01*
X145205700Y-41011198D01*
X145210208Y-41014355D01*
X145210211Y-41014357D01*
X145288389Y-41069098D01*
X145393251Y-41142523D01*
X145398233Y-41144846D01*
X145398238Y-41144849D01*
X145595775Y-41236961D01*
X145600757Y-41239284D01*
X145606065Y-41240706D01*
X145606067Y-41240707D01*
X145816598Y-41297119D01*
X145816600Y-41297119D01*
X145821913Y-41298543D01*
X146050000Y-41318498D01*
X146278087Y-41298543D01*
X146283400Y-41297119D01*
X146283402Y-41297119D01*
X146493933Y-41240707D01*
X146493935Y-41240706D01*
X146499243Y-41239284D01*
X146504225Y-41236961D01*
X146701762Y-41144849D01*
X146701767Y-41144846D01*
X146706749Y-41142523D01*
X146811611Y-41069098D01*
X146889789Y-41014357D01*
X146889792Y-41014355D01*
X146894300Y-41011198D01*
X147056198Y-40849300D01*
X147187523Y-40661749D01*
X147189846Y-40656767D01*
X147189849Y-40656762D01*
X147281961Y-40459225D01*
X147281961Y-40459224D01*
X147284284Y-40454243D01*
X147343543Y-40233087D01*
X147363498Y-40005000D01*
X147343543Y-39776913D01*
X147332778Y-39736739D01*
X147285707Y-39561067D01*
X147285706Y-39561065D01*
X147284284Y-39555757D01*
X147281961Y-39550775D01*
X147189849Y-39353238D01*
X147189846Y-39353233D01*
X147187523Y-39348251D01*
X147056198Y-39160700D01*
X146894300Y-38998802D01*
X146889792Y-38995645D01*
X146889789Y-38995643D01*
X146788797Y-38924928D01*
X146706749Y-38867477D01*
X146701767Y-38865154D01*
X146701762Y-38865151D01*
X146504225Y-38773039D01*
X146504224Y-38773039D01*
X146499243Y-38770716D01*
X146493935Y-38769294D01*
X146493933Y-38769293D01*
X146283402Y-38712881D01*
X146283400Y-38712881D01*
X146278087Y-38711457D01*
X146050000Y-38691502D01*
X145821913Y-38711457D01*
X145816600Y-38712881D01*
X145816598Y-38712881D01*
X145606067Y-38769293D01*
X145606065Y-38769294D01*
X145600757Y-38770716D01*
X145595776Y-38773039D01*
X145595775Y-38773039D01*
X145398238Y-38865151D01*
X145398233Y-38865154D01*
X145393251Y-38867477D01*
X145311203Y-38924928D01*
X145210211Y-38995643D01*
X145210208Y-38995645D01*
X145205700Y-38998802D01*
X145043802Y-39160700D01*
X144912477Y-39348251D01*
X144910154Y-39353233D01*
X144910151Y-39353238D01*
X144818039Y-39550775D01*
X144815716Y-39555757D01*
X144814294Y-39561065D01*
X144814293Y-39561067D01*
X144767222Y-39736739D01*
X144756457Y-39776913D01*
X144736502Y-40005000D01*
X143510000Y-40005000D01*
X143510000Y-30606000D01*
X143530002Y-30537879D01*
X143583658Y-30491386D01*
X143636000Y-30480000D01*
X182119000Y-30480000D01*
X182187121Y-30500002D01*
G37*
%TD.AperFunction*%
%TA.AperFunction,Conductor*%
G36*
X157052012Y-59897466D02*
G01*
X157058595Y-59903595D01*
X159983095Y-62828095D01*
X160017121Y-62890407D01*
X160020000Y-62917190D01*
X160020000Y-66744905D01*
X159999998Y-66813026D01*
X159946342Y-66859519D01*
X159876068Y-66869623D01*
X159811488Y-66840129D01*
X159804905Y-66834000D01*
X156880405Y-63909500D01*
X156846379Y-63847188D01*
X156843500Y-63820405D01*
X156843500Y-59992690D01*
X156863502Y-59924569D01*
X156917158Y-59878076D01*
X156987432Y-59867972D01*
X157052012Y-59897466D01*
G37*
%TD.AperFunction*%
%TD*%
M02*
