M48
; DRILL file {KiCad (6.0.7)} date Mon Aug 22 17:27:21 2022
; FORMAT={-:-/ absolute / metric / decimal}
; #@! TF.CreationDate,2022-08-22T17:27:21+09:00
; #@! TF.GenerationSoftware,Kicad,Pcbnew,(6.0.7)
; #@! TF.FileFunction,Plated,1,2,PTH
FMAT,2
METRIC
; #@! TA.AperFunction,Plated,PTH,ViaDrill
T1C0.400
; #@! TA.AperFunction,Plated,PTH,ComponentDrill
T2C0.800
; #@! TA.AperFunction,Plated,PTH,ComponentDrill
T3C0.900
; #@! TA.AperFunction,Plated,PTH,ComponentDrill
T4C1.000
; #@! TA.AperFunction,Plated,PTH,ComponentDrill
T5C1.500
%
G90
G05
T1
X148.59Y-34.29
X153.035Y-33.566
X158.115Y-44.45
X158.75Y-64.135
X161.925Y-40.55
X162.56Y-38.735
X181.61Y-75.475
X184.15Y-71.755
X184.15Y-76.111
X187.325Y-74.93
X189.23Y-74.93
X193.675Y-68.58
X195.58Y-35.56
X202.76Y-43.375
X203.2Y-40.005
T2
X145.415Y-66.04
X145.415Y-69.215
X145.415Y-72.39
X145.415Y-75.565
X146.05Y-36.83
X146.05Y-40.005
X146.05Y-43.18
X146.05Y-46.355
X153.035Y-66.04
X153.035Y-69.215
X153.035Y-72.39
X153.035Y-75.565
X153.67Y-36.83
X153.67Y-40.005
X153.67Y-43.18
X153.67Y-46.355
X198.755Y-35.56
X198.755Y-38.735
X199.39Y-66.04
X199.39Y-69.85
X199.39Y-73.66
X199.39Y-77.47
X206.375Y-35.56
X206.375Y-38.735
X207.01Y-66.04
X207.01Y-69.85
X207.01Y-73.66
X207.01Y-77.47
T3
X160.425Y-56.02
X162.77Y-64.77
X162.82Y-47.18
X162.965Y-56.02
X164.97Y-63.5
X165.02Y-48.45
X169.12Y-71.2
X169.18Y-40.78
X170.39Y-69.0
X170.45Y-42.98
X177.98Y-71.07
X177.98Y-73.61
X178.0Y-38.46
X178.0Y-41.0
X185.5Y-43.03
X185.58Y-68.98
X186.77Y-40.83
X186.85Y-71.18
X190.95Y-48.5
X191.05Y-63.48
X193.01Y-56.04
X193.15Y-47.23
X193.25Y-64.75
X195.55Y-56.04
T4
X161.675Y-80.645
X164.215Y-80.645
X166.755Y-80.645
X169.295Y-80.645
X170.815Y-32.385
X171.835Y-80.645
X173.355Y-32.385
X174.375Y-80.645
X175.895Y-32.385
X176.915Y-80.645
X178.435Y-32.385
X179.455Y-80.645
X180.975Y-32.385
X181.995Y-80.645
X183.515Y-32.385
X184.535Y-80.645
X186.055Y-32.385
X188.595Y-32.385
X188.595Y-80.645
X191.135Y-80.645
X193.675Y-32.385
X193.675Y-80.645
X196.215Y-32.385
X196.215Y-80.645
X198.755Y-32.385
X198.755Y-80.645
X201.295Y-32.385
X201.295Y-80.645
X203.835Y-32.385
X203.835Y-80.645
X206.375Y-32.385
X206.375Y-80.645
T5
X145.5Y-49.75
X145.5Y-62.25
X150.5Y-49.75
X150.5Y-62.25
X201.5Y-49.75
X201.5Y-62.25
X206.5Y-49.75
X206.5Y-62.25
T0
M30
