%TF.GenerationSoftware,KiCad,Pcbnew,(6.0.7)*%
%TF.CreationDate,2022-09-05T15:15:59+09:00*%
%TF.ProjectId,IC555Demo,49433535-3544-4656-9d6f-2e6b69636164,rev?*%
%TF.SameCoordinates,Original*%
%TF.FileFunction,Copper,L1,Top*%
%TF.FilePolarity,Positive*%
%FSLAX46Y46*%
G04 Gerber Fmt 4.6, Leading zero omitted, Abs format (unit mm)*
G04 Created by KiCad (PCBNEW (6.0.7)) date 2022-09-05 15:15:59*
%MOMM*%
%LPD*%
G01*
G04 APERTURE LIST*
%ADD10C,0.300000*%
%TA.AperFunction,NonConductor*%
%ADD11C,0.300000*%
%TD*%
%TA.AperFunction,ComponentPad*%
%ADD12R,1.524000X1.524000*%
%TD*%
%TA.AperFunction,ComponentPad*%
%ADD13C,1.524000*%
%TD*%
%TA.AperFunction,ComponentPad*%
%ADD14R,1.800000X1.800000*%
%TD*%
%TA.AperFunction,ComponentPad*%
%ADD15C,1.800000*%
%TD*%
%TA.AperFunction,ViaPad*%
%ADD16C,0.800000*%
%TD*%
%TA.AperFunction,Conductor*%
%ADD17C,0.250000*%
%TD*%
G04 APERTURE END LIST*
D10*
D11*
X153044285Y-58463571D02*
X153044285Y-56963571D01*
X153544285Y-58035000D01*
X154044285Y-56963571D01*
X154044285Y-58463571D01*
X154615714Y-57463571D02*
X154972857Y-58463571D01*
X155330000Y-57463571D02*
X154972857Y-58463571D01*
X154830000Y-58820714D01*
X154758571Y-58892142D01*
X154615714Y-58963571D01*
X157044285Y-58463571D02*
X157044285Y-56963571D01*
X157615714Y-56963571D01*
X157758571Y-57035000D01*
X157830000Y-57106428D01*
X157901428Y-57249285D01*
X157901428Y-57463571D01*
X157830000Y-57606428D01*
X157758571Y-57677857D01*
X157615714Y-57749285D01*
X157044285Y-57749285D01*
X159401428Y-58320714D02*
X159330000Y-58392142D01*
X159115714Y-58463571D01*
X158972857Y-58463571D01*
X158758571Y-58392142D01*
X158615714Y-58249285D01*
X158544285Y-58106428D01*
X158472857Y-57820714D01*
X158472857Y-57606428D01*
X158544285Y-57320714D01*
X158615714Y-57177857D01*
X158758571Y-57035000D01*
X158972857Y-56963571D01*
X159115714Y-56963571D01*
X159330000Y-57035000D01*
X159401428Y-57106428D01*
X160544285Y-57677857D02*
X160758571Y-57749285D01*
X160830000Y-57820714D01*
X160901428Y-57963571D01*
X160901428Y-58177857D01*
X160830000Y-58320714D01*
X160758571Y-58392142D01*
X160615714Y-58463571D01*
X160044285Y-58463571D01*
X160044285Y-56963571D01*
X160544285Y-56963571D01*
X160687142Y-57035000D01*
X160758571Y-57106428D01*
X160830000Y-57249285D01*
X160830000Y-57392142D01*
X160758571Y-57535000D01*
X160687142Y-57606428D01*
X160544285Y-57677857D01*
X160044285Y-57677857D01*
X162687142Y-58463571D02*
X162687142Y-56963571D01*
X163258571Y-56963571D01*
X163401428Y-57035000D01*
X163472857Y-57106428D01*
X163544285Y-57249285D01*
X163544285Y-57463571D01*
X163472857Y-57606428D01*
X163401428Y-57677857D01*
X163258571Y-57749285D01*
X162687142Y-57749285D01*
X164187142Y-58463571D02*
X164187142Y-57463571D01*
X164187142Y-57749285D02*
X164258571Y-57606428D01*
X164330000Y-57535000D01*
X164472857Y-57463571D01*
X164615714Y-57463571D01*
X165330000Y-58463571D02*
X165187142Y-58392142D01*
X165115714Y-58320714D01*
X165044285Y-58177857D01*
X165044285Y-57749285D01*
X165115714Y-57606428D01*
X165187142Y-57535000D01*
X165330000Y-57463571D01*
X165544285Y-57463571D01*
X165687142Y-57535000D01*
X165758571Y-57606428D01*
X165830000Y-57749285D01*
X165830000Y-58177857D01*
X165758571Y-58320714D01*
X165687142Y-58392142D01*
X165544285Y-58463571D01*
X165330000Y-58463571D01*
X166472857Y-57463571D02*
X166472857Y-58749285D01*
X166401428Y-58892142D01*
X166258571Y-58963571D01*
X166187142Y-58963571D01*
X166472857Y-56963571D02*
X166401428Y-57035000D01*
X166472857Y-57106428D01*
X166544285Y-57035000D01*
X166472857Y-56963571D01*
X166472857Y-57106428D01*
X167758571Y-58392142D02*
X167615714Y-58463571D01*
X167330000Y-58463571D01*
X167187142Y-58392142D01*
X167115714Y-58249285D01*
X167115714Y-57677857D01*
X167187142Y-57535000D01*
X167330000Y-57463571D01*
X167615714Y-57463571D01*
X167758571Y-57535000D01*
X167830000Y-57677857D01*
X167830000Y-57820714D01*
X167115714Y-57963571D01*
X169115714Y-58392142D02*
X168972857Y-58463571D01*
X168687142Y-58463571D01*
X168544285Y-58392142D01*
X168472857Y-58320714D01*
X168401428Y-58177857D01*
X168401428Y-57749285D01*
X168472857Y-57606428D01*
X168544285Y-57535000D01*
X168687142Y-57463571D01*
X168972857Y-57463571D01*
X169115714Y-57535000D01*
X169544285Y-57463571D02*
X170115714Y-57463571D01*
X169758571Y-56963571D02*
X169758571Y-58249285D01*
X169830000Y-58392142D01*
X169972857Y-58463571D01*
X170115714Y-58463571D01*
X172544285Y-58463571D02*
X171687142Y-58463571D01*
X172115714Y-58463571D02*
X172115714Y-56963571D01*
X171972857Y-57177857D01*
X171830000Y-57320714D01*
X171687142Y-57392142D01*
X173187142Y-58320714D02*
X173258571Y-58392142D01*
X173187142Y-58463571D01*
X173115714Y-58392142D01*
X173187142Y-58320714D01*
X173187142Y-58463571D01*
X174187142Y-56963571D02*
X174330000Y-56963571D01*
X174472857Y-57035000D01*
X174544285Y-57106428D01*
X174615714Y-57249285D01*
X174687142Y-57535000D01*
X174687142Y-57892142D01*
X174615714Y-58177857D01*
X174544285Y-58320714D01*
X174472857Y-58392142D01*
X174330000Y-58463571D01*
X174187142Y-58463571D01*
X174044285Y-58392142D01*
X173972857Y-58320714D01*
X173901428Y-58177857D01*
X173830000Y-57892142D01*
X173830000Y-57535000D01*
X173901428Y-57249285D01*
X173972857Y-57106428D01*
X174044285Y-57035000D01*
X174187142Y-56963571D01*
D12*
%TO.P,U1,1,GND*%
%TO.N,GND*%
X151130000Y-66675000D03*
D13*
%TO.P,U1,2,TRIGGER*%
%TO.N,Net-(C2-Pad1)*%
X151130000Y-69215000D03*
%TO.P,U1,3,OUTPUT*%
%TO.N,Net-(D1-Pad2)*%
X151130000Y-71755000D03*
%TO.P,U1,4,RESET*%
%TO.N,+5V*%
X151130000Y-74295000D03*
%TO.P,U1,5,CONTROL_VOLTAGE*%
%TO.N,Net-(C1-Pad1)*%
X158750000Y-74295000D03*
%TO.P,U1,6,THRESHOLD*%
%TO.N,Net-(C2-Pad1)*%
X158750000Y-71755000D03*
%TO.P,U1,7,DISCHARGE*%
%TO.N,Net-(R1-Pad2)*%
X158750000Y-69215000D03*
%TO.P,U1,8,VCC*%
%TO.N,+5V*%
X158750000Y-66675000D03*
%TD*%
%TO.P,R2,1*%
%TO.N,Net-(R1-Pad2)*%
X147320000Y-66675000D03*
%TO.P,R2,2*%
%TO.N,Net-(C2-Pad1)*%
X147320000Y-74295000D03*
%TD*%
D12*
%TO.P,C2,1*%
%TO.N,Net-(C2-Pad1)*%
X148225000Y-79375000D03*
D13*
%TO.P,C2,2*%
%TO.N,GND*%
X150225000Y-79375000D03*
%TD*%
D14*
%TO.P,D1,1*%
%TO.N,GND*%
X166365000Y-74295000D03*
D15*
%TO.P,D1,2*%
%TO.N,Net-(D1-Pad2)*%
X168905000Y-74295000D03*
%TD*%
D13*
%TO.P,R1,1*%
%TO.N,+5V*%
X161925000Y-76835000D03*
%TO.P,R1,2*%
%TO.N,Net-(R1-Pad2)*%
X161925000Y-69215000D03*
%TD*%
%TO.P,C1,1*%
%TO.N,Net-(C1-Pad1)*%
X157480000Y-79375000D03*
%TO.P,C1,2*%
%TO.N,GND*%
X154940000Y-79375000D03*
%TD*%
D14*
%TO.P,D2,1*%
%TO.N,Net-(D1-Pad2)*%
X166370000Y-67310000D03*
D15*
%TO.P,D2,2*%
%TO.N,+5V*%
X168910000Y-67310000D03*
%TD*%
D12*
%TO.P,J1,1*%
%TO.N,+5V*%
X153670000Y-62230000D03*
D13*
%TO.P,J1,2*%
%TO.N,GND*%
X156170000Y-62230000D03*
%TD*%
D16*
%TO.N,Net-(C2-Pad1)*%
X156210000Y-69215000D03*
X156210000Y-71755000D03*
X148590000Y-69215000D03*
%TO.N,Net-(D1-Pad2)*%
X153670000Y-67945000D03*
X153670000Y-71755000D03*
%TO.N,+5V*%
X154940000Y-76835000D03*
X154940000Y-66040000D03*
X154940000Y-74295000D03*
%TO.N,Net-(R1-Pad2)*%
X147320000Y-70485000D03*
%TD*%
D17*
%TO.N,Net-(C2-Pad1)*%
X148590000Y-69215000D02*
X151130000Y-69215000D01*
X156210000Y-71755000D02*
X158750000Y-71755000D01*
X151130000Y-69215000D02*
X156210000Y-69215000D01*
%TO.N,Net-(D1-Pad2)*%
X161290000Y-67310000D02*
X166370000Y-67310000D01*
X160655000Y-67945000D02*
X161290000Y-67310000D01*
X153670000Y-67945000D02*
X160655000Y-67945000D01*
X153670000Y-71755000D02*
X151130000Y-71755000D01*
%TO.N,+5V*%
X161925000Y-76835000D02*
X154940000Y-76835000D01*
X155575000Y-66675000D02*
X158750000Y-66675000D01*
X167513001Y-65913001D02*
X159511999Y-65913001D01*
X151130000Y-74295000D02*
X154940000Y-74295000D01*
X168910000Y-67310000D02*
X167513001Y-65913001D01*
X159511999Y-65913001D02*
X158750000Y-66675000D01*
X154940000Y-66040000D02*
X155575000Y-66675000D01*
%TO.N,Net-(R1-Pad2)*%
X147503000Y-70302000D02*
X147320000Y-70485000D01*
X158750000Y-69215000D02*
X157663000Y-70302000D01*
X161925000Y-69215000D02*
X158750000Y-69215000D01*
X157663000Y-70302000D02*
X147503000Y-70302000D01*
%TD*%
%TA.AperFunction,Conductor*%
%TO.N,GND*%
G36*
X146065931Y-56535002D02*
G01*
X146086905Y-56551905D01*
X149225000Y-59690000D01*
X151947895Y-59690000D01*
X152016016Y-59710002D01*
X152028643Y-59719455D01*
X152028643Y-59726000D01*
X173229000Y-59726000D01*
X173297121Y-59746002D01*
X173343614Y-59799658D01*
X173355000Y-59852000D01*
X173355000Y-78687810D01*
X173334998Y-78755931D01*
X173318095Y-78776905D01*
X171486905Y-80608095D01*
X171424593Y-80642121D01*
X171397810Y-80645000D01*
X161925000Y-80645000D01*
X161917782Y-80655827D01*
X161917781Y-80655828D01*
X159422405Y-84398892D01*
X159367976Y-84444477D01*
X159317567Y-84455000D01*
X148081000Y-84455000D01*
X148012879Y-84434998D01*
X147966386Y-84381342D01*
X147955000Y-84329000D01*
X147955000Y-80771500D01*
X147975002Y-80703379D01*
X148028658Y-80656886D01*
X148081000Y-80645500D01*
X149035134Y-80645500D01*
X149097316Y-80638745D01*
X149233705Y-80587615D01*
X149350261Y-80500261D01*
X149369198Y-80474993D01*
X149426057Y-80432480D01*
X149496875Y-80427455D01*
X149542295Y-80447347D01*
X149583072Y-80475900D01*
X149592561Y-80481379D01*
X149783993Y-80570645D01*
X149794285Y-80574391D01*
X149998309Y-80629059D01*
X150009104Y-80630962D01*
X150219525Y-80649372D01*
X150230475Y-80649372D01*
X150440896Y-80630962D01*
X150451691Y-80629059D01*
X150655715Y-80574391D01*
X150666007Y-80570645D01*
X150857445Y-80481376D01*
X150866931Y-80475898D01*
X150910764Y-80445207D01*
X150919139Y-80434729D01*
X150918639Y-80433777D01*
X154245777Y-80433777D01*
X154255074Y-80445793D01*
X154298069Y-80475898D01*
X154307555Y-80481376D01*
X154498993Y-80570645D01*
X154509285Y-80574391D01*
X154713309Y-80629059D01*
X154724104Y-80630962D01*
X154934525Y-80649372D01*
X154945475Y-80649372D01*
X155155896Y-80630962D01*
X155166691Y-80629059D01*
X155370715Y-80574391D01*
X155381007Y-80570645D01*
X155572445Y-80481376D01*
X155581931Y-80475898D01*
X155625764Y-80445207D01*
X155634139Y-80434729D01*
X155627071Y-80421281D01*
X154952812Y-79747022D01*
X154938868Y-79739408D01*
X154937035Y-79739539D01*
X154930420Y-79743790D01*
X154252207Y-80422003D01*
X154245777Y-80433777D01*
X150918639Y-80433777D01*
X150912071Y-80421281D01*
X149954885Y-79464095D01*
X149920859Y-79401783D01*
X149922694Y-79376132D01*
X150589408Y-79376132D01*
X150589539Y-79377965D01*
X150593790Y-79384580D01*
X151272003Y-80062793D01*
X151283777Y-80069223D01*
X151295793Y-80059926D01*
X151325897Y-80016932D01*
X151331377Y-80007441D01*
X151420645Y-79816007D01*
X151424391Y-79805715D01*
X151479059Y-79601691D01*
X151480962Y-79590896D01*
X151499372Y-79380475D01*
X153665628Y-79380475D01*
X153684038Y-79590896D01*
X153685941Y-79601691D01*
X153740609Y-79805715D01*
X153744355Y-79816007D01*
X153833623Y-80007441D01*
X153839103Y-80016932D01*
X153869794Y-80060765D01*
X153880271Y-80069140D01*
X153893718Y-80062072D01*
X154567978Y-79387812D01*
X154574356Y-79376132D01*
X155304408Y-79376132D01*
X155304539Y-79377965D01*
X155308790Y-79384580D01*
X155987003Y-80062793D01*
X155998777Y-80069223D01*
X156010793Y-80059926D01*
X156040897Y-80016932D01*
X156046377Y-80007441D01*
X156095529Y-79902035D01*
X156142447Y-79848750D01*
X156210724Y-79829289D01*
X156278684Y-79849831D01*
X156323919Y-79902035D01*
X156373186Y-80007689D01*
X156373189Y-80007694D01*
X156375512Y-80012676D01*
X156378668Y-80017183D01*
X156378669Y-80017185D01*
X156415107Y-80069223D01*
X156503023Y-80194781D01*
X156660219Y-80351977D01*
X156664727Y-80355134D01*
X156664730Y-80355136D01*
X156705531Y-80383705D01*
X156842323Y-80479488D01*
X156847305Y-80481811D01*
X156847310Y-80481814D01*
X157037810Y-80570645D01*
X157043804Y-80573440D01*
X157049112Y-80574862D01*
X157049114Y-80574863D01*
X157096705Y-80587615D01*
X157258537Y-80630978D01*
X157480000Y-80650353D01*
X157701463Y-80630978D01*
X157863295Y-80587615D01*
X157910886Y-80574863D01*
X157910888Y-80574862D01*
X157916196Y-80573440D01*
X157922190Y-80570645D01*
X158112690Y-80481814D01*
X158112695Y-80481811D01*
X158117677Y-80479488D01*
X158254469Y-80383705D01*
X158295270Y-80355136D01*
X158295273Y-80355134D01*
X158299781Y-80351977D01*
X158456977Y-80194781D01*
X158544894Y-80069223D01*
X158581331Y-80017185D01*
X158581332Y-80017183D01*
X158584488Y-80012676D01*
X158586811Y-80007694D01*
X158586814Y-80007689D01*
X158676117Y-79816178D01*
X158676118Y-79816177D01*
X158678440Y-79811196D01*
X158735978Y-79596463D01*
X158755353Y-79375000D01*
X158735978Y-79153537D01*
X158678440Y-78938804D01*
X158593165Y-78755931D01*
X158586814Y-78742311D01*
X158586811Y-78742306D01*
X158584488Y-78737324D01*
X158581331Y-78732815D01*
X158460136Y-78559730D01*
X158460134Y-78559727D01*
X158456977Y-78555219D01*
X158299781Y-78398023D01*
X158295273Y-78394866D01*
X158295270Y-78394864D01*
X158219505Y-78341813D01*
X158117677Y-78270512D01*
X158112695Y-78268189D01*
X158112690Y-78268186D01*
X157921178Y-78178883D01*
X157921177Y-78178882D01*
X157916196Y-78176560D01*
X157910888Y-78175138D01*
X157910886Y-78175137D01*
X157845051Y-78157497D01*
X157701463Y-78119022D01*
X157480000Y-78099647D01*
X157258537Y-78119022D01*
X157114949Y-78157497D01*
X157049114Y-78175137D01*
X157049112Y-78175138D01*
X157043804Y-78176560D01*
X157038823Y-78178882D01*
X157038822Y-78178883D01*
X156847311Y-78268186D01*
X156847306Y-78268189D01*
X156842324Y-78270512D01*
X156837817Y-78273668D01*
X156837815Y-78273669D01*
X156664730Y-78394864D01*
X156664727Y-78394866D01*
X156660219Y-78398023D01*
X156503023Y-78555219D01*
X156499866Y-78559727D01*
X156499864Y-78559730D01*
X156378669Y-78732815D01*
X156375512Y-78737324D01*
X156373189Y-78742306D01*
X156373186Y-78742311D01*
X156323919Y-78847965D01*
X156277001Y-78901250D01*
X156208724Y-78920711D01*
X156140764Y-78900169D01*
X156095529Y-78847965D01*
X156046377Y-78742559D01*
X156040897Y-78733068D01*
X156010206Y-78689235D01*
X155999729Y-78680860D01*
X155986282Y-78687928D01*
X155312022Y-79362188D01*
X155304408Y-79376132D01*
X154574356Y-79376132D01*
X154575592Y-79373868D01*
X154575461Y-79372035D01*
X154571210Y-79365420D01*
X153892997Y-78687207D01*
X153881223Y-78680777D01*
X153869207Y-78690074D01*
X153839103Y-78733068D01*
X153833623Y-78742559D01*
X153744355Y-78933993D01*
X153740609Y-78944285D01*
X153685941Y-79148309D01*
X153684038Y-79159104D01*
X153665628Y-79369525D01*
X153665628Y-79380475D01*
X151499372Y-79380475D01*
X151499372Y-79369525D01*
X151480962Y-79159104D01*
X151479059Y-79148309D01*
X151424391Y-78944285D01*
X151420645Y-78933993D01*
X151331377Y-78742559D01*
X151325897Y-78733068D01*
X151295206Y-78689235D01*
X151284729Y-78680860D01*
X151271282Y-78687928D01*
X150597022Y-79362188D01*
X150589408Y-79376132D01*
X149922694Y-79376132D01*
X149925924Y-79330968D01*
X149954885Y-79285905D01*
X150912793Y-78327997D01*
X150919223Y-78316223D01*
X150918486Y-78315271D01*
X154245860Y-78315271D01*
X154252928Y-78328718D01*
X154927188Y-79002978D01*
X154941132Y-79010592D01*
X154942965Y-79010461D01*
X154949580Y-79006210D01*
X155627793Y-78327997D01*
X155634223Y-78316223D01*
X155624926Y-78304207D01*
X155581931Y-78274102D01*
X155572445Y-78268624D01*
X155381007Y-78179355D01*
X155370715Y-78175609D01*
X155166691Y-78120941D01*
X155155896Y-78119038D01*
X154945475Y-78100628D01*
X154934525Y-78100628D01*
X154724104Y-78119038D01*
X154713309Y-78120941D01*
X154509285Y-78175609D01*
X154498993Y-78179355D01*
X154307559Y-78268623D01*
X154298068Y-78274103D01*
X154254235Y-78304794D01*
X154245860Y-78315271D01*
X150918486Y-78315271D01*
X150909926Y-78304207D01*
X150866931Y-78274102D01*
X150857445Y-78268624D01*
X150666007Y-78179355D01*
X150655715Y-78175609D01*
X150451691Y-78120941D01*
X150440896Y-78119038D01*
X150230475Y-78100628D01*
X150219525Y-78100628D01*
X150009104Y-78119038D01*
X149998309Y-78120941D01*
X149794285Y-78175609D01*
X149783993Y-78179355D01*
X149592556Y-78268624D01*
X149583072Y-78274101D01*
X149542292Y-78302654D01*
X149475018Y-78325341D01*
X149406158Y-78308055D01*
X149369199Y-78275008D01*
X149350261Y-78249739D01*
X149233705Y-78162385D01*
X149097316Y-78111255D01*
X149035134Y-78104500D01*
X148081000Y-78104500D01*
X148012879Y-78084498D01*
X147966386Y-78030842D01*
X147955000Y-77978500D01*
X147955000Y-76835000D01*
X154026496Y-76835000D01*
X154046458Y-77024928D01*
X154105473Y-77206556D01*
X154200960Y-77371944D01*
X154328747Y-77513866D01*
X154483248Y-77626118D01*
X154489276Y-77628802D01*
X154489278Y-77628803D01*
X154547626Y-77654781D01*
X154657712Y-77703794D01*
X154751113Y-77723647D01*
X154838056Y-77742128D01*
X154838061Y-77742128D01*
X154844513Y-77743500D01*
X155035487Y-77743500D01*
X155041939Y-77742128D01*
X155041944Y-77742128D01*
X155128887Y-77723647D01*
X155222288Y-77703794D01*
X155332374Y-77654781D01*
X155390722Y-77628803D01*
X155390724Y-77628802D01*
X155396752Y-77626118D01*
X155551253Y-77513866D01*
X155555668Y-77508963D01*
X155560580Y-77504540D01*
X155561705Y-77505789D01*
X155615014Y-77472949D01*
X155648200Y-77468500D01*
X160751996Y-77468500D01*
X160820117Y-77488502D01*
X160855209Y-77522229D01*
X160948023Y-77654781D01*
X161105219Y-77811977D01*
X161109727Y-77815134D01*
X161109730Y-77815136D01*
X161185495Y-77868187D01*
X161287323Y-77939488D01*
X161292305Y-77941811D01*
X161292310Y-77941814D01*
X161483822Y-78031117D01*
X161488804Y-78033440D01*
X161494112Y-78034862D01*
X161494114Y-78034863D01*
X161559949Y-78052503D01*
X161703537Y-78090978D01*
X161925000Y-78110353D01*
X162146463Y-78090978D01*
X162290051Y-78052503D01*
X162355886Y-78034863D01*
X162355888Y-78034862D01*
X162361196Y-78033440D01*
X162366178Y-78031117D01*
X162557690Y-77941814D01*
X162557695Y-77941811D01*
X162562677Y-77939488D01*
X162664505Y-77868187D01*
X162740270Y-77815136D01*
X162740273Y-77815134D01*
X162744781Y-77811977D01*
X162901977Y-77654781D01*
X162997931Y-77517745D01*
X163026331Y-77477185D01*
X163026332Y-77477183D01*
X163029488Y-77472676D01*
X163031811Y-77467694D01*
X163031814Y-77467689D01*
X163121117Y-77276178D01*
X163121118Y-77276177D01*
X163123440Y-77271196D01*
X163180978Y-77056463D01*
X163200353Y-76835000D01*
X163180978Y-76613537D01*
X163123440Y-76398804D01*
X163079127Y-76303774D01*
X163031814Y-76202311D01*
X163031811Y-76202306D01*
X163029488Y-76197324D01*
X163026331Y-76192815D01*
X162905136Y-76019730D01*
X162905134Y-76019727D01*
X162901977Y-76015219D01*
X162744781Y-75858023D01*
X162740273Y-75854866D01*
X162740270Y-75854864D01*
X162664505Y-75801813D01*
X162562677Y-75730512D01*
X162557695Y-75728189D01*
X162557690Y-75728186D01*
X162366178Y-75638883D01*
X162366177Y-75638882D01*
X162361196Y-75636560D01*
X162355888Y-75635138D01*
X162355886Y-75635137D01*
X162290051Y-75617497D01*
X162146463Y-75579022D01*
X161925000Y-75559647D01*
X161703537Y-75579022D01*
X161559949Y-75617497D01*
X161494114Y-75635137D01*
X161494112Y-75635138D01*
X161488804Y-75636560D01*
X161483823Y-75638882D01*
X161483822Y-75638883D01*
X161292311Y-75728186D01*
X161292306Y-75728189D01*
X161287324Y-75730512D01*
X161282817Y-75733668D01*
X161282815Y-75733669D01*
X161109730Y-75854864D01*
X161109727Y-75854866D01*
X161105219Y-75858023D01*
X160948023Y-76015219D01*
X160944866Y-76019727D01*
X160944864Y-76019730D01*
X160855209Y-76147771D01*
X160799752Y-76192099D01*
X160751996Y-76201500D01*
X155648200Y-76201500D01*
X155580079Y-76181498D01*
X155560853Y-76165157D01*
X155560580Y-76165460D01*
X155555668Y-76161037D01*
X155551253Y-76156134D01*
X155396752Y-76043882D01*
X155390724Y-76041198D01*
X155390722Y-76041197D01*
X155228319Y-75968891D01*
X155228318Y-75968891D01*
X155222288Y-75966206D01*
X155128888Y-75946353D01*
X155041944Y-75927872D01*
X155041939Y-75927872D01*
X155035487Y-75926500D01*
X154844513Y-75926500D01*
X154838061Y-75927872D01*
X154838056Y-75927872D01*
X154751112Y-75946353D01*
X154657712Y-75966206D01*
X154651682Y-75968891D01*
X154651681Y-75968891D01*
X154489278Y-76041197D01*
X154489276Y-76041198D01*
X154483248Y-76043882D01*
X154328747Y-76156134D01*
X154200960Y-76298056D01*
X154105473Y-76463444D01*
X154046458Y-76645072D01*
X154026496Y-76835000D01*
X147955000Y-76835000D01*
X147955000Y-75466954D01*
X147975002Y-75398833D01*
X148008729Y-75363741D01*
X148135270Y-75275136D01*
X148135273Y-75275134D01*
X148139781Y-75271977D01*
X148296977Y-75114781D01*
X148392931Y-74977745D01*
X148421331Y-74937185D01*
X148421332Y-74937183D01*
X148424488Y-74932676D01*
X148426811Y-74927694D01*
X148426814Y-74927689D01*
X148516117Y-74736178D01*
X148516118Y-74736177D01*
X148518440Y-74731196D01*
X148575978Y-74516463D01*
X148595353Y-74295000D01*
X148575978Y-74073537D01*
X148518440Y-73858804D01*
X148516117Y-73853822D01*
X148426814Y-73662311D01*
X148426811Y-73662306D01*
X148424488Y-73657324D01*
X148395647Y-73616134D01*
X148300136Y-73479730D01*
X148300134Y-73479727D01*
X148296977Y-73475219D01*
X148139781Y-73318023D01*
X148135273Y-73314866D01*
X148135270Y-73314864D01*
X148008729Y-73226259D01*
X147964401Y-73170802D01*
X147955000Y-73123046D01*
X147955000Y-71755000D01*
X147944173Y-71747782D01*
X147944172Y-71747781D01*
X147643281Y-71547187D01*
X147597696Y-71492758D01*
X147588774Y-71422324D01*
X147619349Y-71358248D01*
X147661925Y-71327242D01*
X147770719Y-71278805D01*
X147770726Y-71278801D01*
X147776752Y-71276118D01*
X147931253Y-71163866D01*
X147969400Y-71121500D01*
X148054619Y-71026854D01*
X148059040Y-71021944D01*
X148062339Y-71016229D01*
X148062344Y-71016223D01*
X148072576Y-70998500D01*
X148123959Y-70949507D01*
X148181695Y-70935500D01*
X149912803Y-70935500D01*
X149980924Y-70955502D01*
X150027417Y-71009158D01*
X150037521Y-71079432D01*
X150024560Y-71116880D01*
X150025512Y-71117324D01*
X149931560Y-71318804D01*
X149874022Y-71533537D01*
X149854647Y-71755000D01*
X149874022Y-71976463D01*
X149931560Y-72191196D01*
X149933882Y-72196177D01*
X149933883Y-72196178D01*
X150023186Y-72387689D01*
X150023189Y-72387694D01*
X150025512Y-72392676D01*
X150028668Y-72397183D01*
X150028669Y-72397185D01*
X150057070Y-72437745D01*
X150153023Y-72574781D01*
X150310219Y-72731977D01*
X150314727Y-72735134D01*
X150314730Y-72735136D01*
X150390495Y-72788187D01*
X150492323Y-72859488D01*
X150497305Y-72861811D01*
X150497310Y-72861814D01*
X150602373Y-72910805D01*
X150655658Y-72957722D01*
X150675119Y-73025999D01*
X150654577Y-73093959D01*
X150602373Y-73139195D01*
X150497311Y-73188186D01*
X150497306Y-73188189D01*
X150492324Y-73190512D01*
X150487817Y-73193668D01*
X150487815Y-73193669D01*
X150314730Y-73314864D01*
X150314727Y-73314866D01*
X150310219Y-73318023D01*
X150153023Y-73475219D01*
X150149866Y-73479727D01*
X150149864Y-73479730D01*
X150054353Y-73616134D01*
X150025512Y-73657324D01*
X150023189Y-73662306D01*
X150023186Y-73662311D01*
X149933883Y-73853822D01*
X149931560Y-73858804D01*
X149874022Y-74073537D01*
X149854647Y-74295000D01*
X149874022Y-74516463D01*
X149931560Y-74731196D01*
X149933882Y-74736177D01*
X149933883Y-74736178D01*
X150023186Y-74927689D01*
X150023189Y-74927694D01*
X150025512Y-74932676D01*
X150028668Y-74937183D01*
X150028669Y-74937185D01*
X150057070Y-74977745D01*
X150153023Y-75114781D01*
X150310219Y-75271977D01*
X150314727Y-75275134D01*
X150314730Y-75275136D01*
X150342208Y-75294376D01*
X150492323Y-75399488D01*
X150497305Y-75401811D01*
X150497310Y-75401814D01*
X150688822Y-75491117D01*
X150693804Y-75493440D01*
X150699112Y-75494862D01*
X150699114Y-75494863D01*
X150740652Y-75505993D01*
X150908537Y-75550978D01*
X151130000Y-75570353D01*
X151351463Y-75550978D01*
X151519348Y-75505993D01*
X151560886Y-75494863D01*
X151560888Y-75494862D01*
X151566196Y-75493440D01*
X151571178Y-75491117D01*
X151762690Y-75401814D01*
X151762695Y-75401811D01*
X151767677Y-75399488D01*
X151917792Y-75294376D01*
X151945270Y-75275136D01*
X151945273Y-75275134D01*
X151949781Y-75271977D01*
X152106977Y-75114781D01*
X152199791Y-74982229D01*
X152255248Y-74937901D01*
X152303004Y-74928500D01*
X154231800Y-74928500D01*
X154299921Y-74948502D01*
X154319147Y-74964843D01*
X154319420Y-74964540D01*
X154324332Y-74968963D01*
X154328747Y-74973866D01*
X154483248Y-75086118D01*
X154489276Y-75088802D01*
X154489278Y-75088803D01*
X154651681Y-75161109D01*
X154657712Y-75163794D01*
X154751113Y-75183647D01*
X154838056Y-75202128D01*
X154838061Y-75202128D01*
X154844513Y-75203500D01*
X155035487Y-75203500D01*
X155041939Y-75202128D01*
X155041944Y-75202128D01*
X155128887Y-75183647D01*
X155222288Y-75163794D01*
X155228319Y-75161109D01*
X155390722Y-75088803D01*
X155390724Y-75088802D01*
X155396752Y-75086118D01*
X155551253Y-74973866D01*
X155679040Y-74831944D01*
X155774527Y-74666556D01*
X155833542Y-74484928D01*
X155853504Y-74295000D01*
X155833542Y-74105072D01*
X155774527Y-73923444D01*
X155679040Y-73758056D01*
X155551253Y-73616134D01*
X155396752Y-73503882D01*
X155390724Y-73501198D01*
X155390722Y-73501197D01*
X155228319Y-73428891D01*
X155228318Y-73428891D01*
X155222288Y-73426206D01*
X155125176Y-73405564D01*
X155041944Y-73387872D01*
X155041939Y-73387872D01*
X155035487Y-73386500D01*
X154844513Y-73386500D01*
X154838061Y-73387872D01*
X154838056Y-73387872D01*
X154754824Y-73405564D01*
X154657712Y-73426206D01*
X154651682Y-73428891D01*
X154651681Y-73428891D01*
X154489278Y-73501197D01*
X154489276Y-73501198D01*
X154483248Y-73503882D01*
X154328747Y-73616134D01*
X154324332Y-73621037D01*
X154319420Y-73625460D01*
X154318295Y-73624211D01*
X154264986Y-73657051D01*
X154231800Y-73661500D01*
X152303004Y-73661500D01*
X152234883Y-73641498D01*
X152199791Y-73607771D01*
X152110136Y-73479730D01*
X152110134Y-73479727D01*
X152106977Y-73475219D01*
X151949781Y-73318023D01*
X151945273Y-73314866D01*
X151945270Y-73314864D01*
X151818729Y-73226259D01*
X151767677Y-73190512D01*
X151762695Y-73188189D01*
X151762690Y-73188186D01*
X151657627Y-73139195D01*
X151604342Y-73092278D01*
X151584881Y-73024001D01*
X151605423Y-72956041D01*
X151657627Y-72910805D01*
X151762690Y-72861814D01*
X151762695Y-72861811D01*
X151767677Y-72859488D01*
X151869505Y-72788187D01*
X151945270Y-72735136D01*
X151945273Y-72735134D01*
X151949781Y-72731977D01*
X152106977Y-72574781D01*
X152199791Y-72442229D01*
X152255248Y-72397901D01*
X152303004Y-72388500D01*
X152961800Y-72388500D01*
X153029921Y-72408502D01*
X153049147Y-72424843D01*
X153049420Y-72424540D01*
X153054332Y-72428963D01*
X153058747Y-72433866D01*
X153213248Y-72546118D01*
X153219276Y-72548802D01*
X153219278Y-72548803D01*
X153277626Y-72574781D01*
X153387712Y-72623794D01*
X153481113Y-72643647D01*
X153568056Y-72662128D01*
X153568061Y-72662128D01*
X153574513Y-72663500D01*
X153765487Y-72663500D01*
X153771939Y-72662128D01*
X153771944Y-72662128D01*
X153858887Y-72643647D01*
X153952288Y-72623794D01*
X154062374Y-72574781D01*
X154120722Y-72548803D01*
X154120724Y-72548802D01*
X154126752Y-72546118D01*
X154281253Y-72433866D01*
X154409040Y-72291944D01*
X154504527Y-72126556D01*
X154563542Y-71944928D01*
X154583504Y-71755000D01*
X154563542Y-71565072D01*
X154504527Y-71383444D01*
X154409040Y-71218056D01*
X154343987Y-71145808D01*
X154313272Y-71081803D01*
X154322035Y-71011350D01*
X154367498Y-70956818D01*
X154437625Y-70935500D01*
X155442375Y-70935500D01*
X155510496Y-70955502D01*
X155556989Y-71009158D01*
X155567093Y-71079432D01*
X155536012Y-71145808D01*
X155470960Y-71218056D01*
X155375473Y-71383444D01*
X155316458Y-71565072D01*
X155296496Y-71755000D01*
X155316458Y-71944928D01*
X155375473Y-72126556D01*
X155470960Y-72291944D01*
X155598747Y-72433866D01*
X155753248Y-72546118D01*
X155759276Y-72548802D01*
X155759278Y-72548803D01*
X155817626Y-72574781D01*
X155927712Y-72623794D01*
X156021113Y-72643647D01*
X156108056Y-72662128D01*
X156108061Y-72662128D01*
X156114513Y-72663500D01*
X156305487Y-72663500D01*
X156311939Y-72662128D01*
X156311944Y-72662128D01*
X156398887Y-72643647D01*
X156492288Y-72623794D01*
X156602374Y-72574781D01*
X156660722Y-72548803D01*
X156660724Y-72548802D01*
X156666752Y-72546118D01*
X156821253Y-72433866D01*
X156825668Y-72428963D01*
X156830580Y-72424540D01*
X156831705Y-72425789D01*
X156885014Y-72392949D01*
X156918200Y-72388500D01*
X157576996Y-72388500D01*
X157645117Y-72408502D01*
X157680209Y-72442229D01*
X157773023Y-72574781D01*
X157930219Y-72731977D01*
X157934727Y-72735134D01*
X157934730Y-72735136D01*
X158010495Y-72788187D01*
X158112323Y-72859488D01*
X158117305Y-72861811D01*
X158117310Y-72861814D01*
X158222373Y-72910805D01*
X158275658Y-72957722D01*
X158295119Y-73025999D01*
X158274577Y-73093959D01*
X158222373Y-73139195D01*
X158117311Y-73188186D01*
X158117306Y-73188189D01*
X158112324Y-73190512D01*
X158107817Y-73193668D01*
X158107815Y-73193669D01*
X157934730Y-73314864D01*
X157934727Y-73314866D01*
X157930219Y-73318023D01*
X157773023Y-73475219D01*
X157769866Y-73479727D01*
X157769864Y-73479730D01*
X157674353Y-73616134D01*
X157645512Y-73657324D01*
X157643189Y-73662306D01*
X157643186Y-73662311D01*
X157553883Y-73853822D01*
X157551560Y-73858804D01*
X157494022Y-74073537D01*
X157474647Y-74295000D01*
X157494022Y-74516463D01*
X157551560Y-74731196D01*
X157553882Y-74736177D01*
X157553883Y-74736178D01*
X157643186Y-74927689D01*
X157643189Y-74927694D01*
X157645512Y-74932676D01*
X157648668Y-74937183D01*
X157648669Y-74937185D01*
X157677070Y-74977745D01*
X157773023Y-75114781D01*
X157930219Y-75271977D01*
X157934727Y-75275134D01*
X157934730Y-75275136D01*
X157962208Y-75294376D01*
X158112323Y-75399488D01*
X158117305Y-75401811D01*
X158117310Y-75401814D01*
X158308822Y-75491117D01*
X158313804Y-75493440D01*
X158319112Y-75494862D01*
X158319114Y-75494863D01*
X158360652Y-75505993D01*
X158528537Y-75550978D01*
X158750000Y-75570353D01*
X158971463Y-75550978D01*
X159139348Y-75505993D01*
X159180886Y-75494863D01*
X159180888Y-75494862D01*
X159186196Y-75493440D01*
X159191178Y-75491117D01*
X159382690Y-75401814D01*
X159382695Y-75401811D01*
X159387677Y-75399488D01*
X159537792Y-75294376D01*
X159565270Y-75275136D01*
X159565273Y-75275134D01*
X159569781Y-75271977D01*
X159602089Y-75239669D01*
X164957001Y-75239669D01*
X164957371Y-75246490D01*
X164962895Y-75297352D01*
X164966521Y-75312604D01*
X165011676Y-75433054D01*
X165020214Y-75448649D01*
X165096715Y-75550724D01*
X165109276Y-75563285D01*
X165211351Y-75639786D01*
X165226946Y-75648324D01*
X165347394Y-75693478D01*
X165362649Y-75697105D01*
X165413514Y-75702631D01*
X165420328Y-75703000D01*
X166092885Y-75703000D01*
X166108124Y-75698525D01*
X166109329Y-75697135D01*
X166111000Y-75689452D01*
X166111000Y-75684884D01*
X166619000Y-75684884D01*
X166623475Y-75700123D01*
X166624865Y-75701328D01*
X166632548Y-75702999D01*
X167309669Y-75702999D01*
X167316490Y-75702629D01*
X167367352Y-75697105D01*
X167382604Y-75693479D01*
X167503054Y-75648324D01*
X167518649Y-75639786D01*
X167620724Y-75563285D01*
X167633285Y-75550724D01*
X167709786Y-75448649D01*
X167718324Y-75433054D01*
X167739773Y-75375840D01*
X167782415Y-75319075D01*
X167848977Y-75294376D01*
X167918325Y-75309584D01*
X167938240Y-75323126D01*
X168094349Y-75452730D01*
X168294322Y-75569584D01*
X168299147Y-75571426D01*
X168299148Y-75571427D01*
X168373665Y-75599883D01*
X168510694Y-75652209D01*
X168515760Y-75653240D01*
X168515761Y-75653240D01*
X168568846Y-75664040D01*
X168737656Y-75698385D01*
X168868324Y-75703176D01*
X168963949Y-75706683D01*
X168963953Y-75706683D01*
X168969113Y-75706872D01*
X168974233Y-75706216D01*
X168974235Y-75706216D01*
X169073668Y-75693478D01*
X169198847Y-75677442D01*
X169203795Y-75675957D01*
X169203802Y-75675956D01*
X169415747Y-75612369D01*
X169420690Y-75610886D01*
X169485733Y-75579022D01*
X169624049Y-75511262D01*
X169624052Y-75511260D01*
X169628684Y-75508991D01*
X169817243Y-75374494D01*
X169981303Y-75211005D01*
X170116458Y-75022917D01*
X170138782Y-74977749D01*
X170216784Y-74819922D01*
X170216785Y-74819920D01*
X170219078Y-74815280D01*
X170286408Y-74593671D01*
X170316640Y-74364041D01*
X170318327Y-74295000D01*
X170300570Y-74079016D01*
X170299773Y-74069318D01*
X170299772Y-74069312D01*
X170299349Y-74064167D01*
X170264002Y-73923444D01*
X170244184Y-73844544D01*
X170244183Y-73844540D01*
X170242925Y-73839533D01*
X170165514Y-73661500D01*
X170152630Y-73631868D01*
X170152628Y-73631865D01*
X170150570Y-73627131D01*
X170024764Y-73432665D01*
X170017639Y-73424834D01*
X169920448Y-73318023D01*
X169868887Y-73261358D01*
X169864836Y-73258159D01*
X169864832Y-73258155D01*
X169691177Y-73121011D01*
X169691172Y-73121008D01*
X169687123Y-73117810D01*
X169682607Y-73115317D01*
X169682604Y-73115315D01*
X169488879Y-73008373D01*
X169488875Y-73008371D01*
X169484355Y-73005876D01*
X169479486Y-73004152D01*
X169479482Y-73004150D01*
X169270903Y-72930288D01*
X169270899Y-72930287D01*
X169266028Y-72928562D01*
X169260935Y-72927655D01*
X169260932Y-72927654D01*
X169043095Y-72888851D01*
X169043089Y-72888850D01*
X169038006Y-72887945D01*
X168960644Y-72887000D01*
X168811581Y-72885179D01*
X168811579Y-72885179D01*
X168806411Y-72885116D01*
X168577464Y-72920150D01*
X168357314Y-72992106D01*
X168352726Y-72994494D01*
X168352722Y-72994496D01*
X168156659Y-73096560D01*
X168151872Y-73099052D01*
X168147739Y-73102155D01*
X168147736Y-73102157D01*
X167982448Y-73226259D01*
X167966655Y-73238117D01*
X167963083Y-73241855D01*
X167948787Y-73256815D01*
X167887263Y-73292245D01*
X167816351Y-73288788D01*
X167758564Y-73247543D01*
X167739711Y-73213994D01*
X167718324Y-73156946D01*
X167709786Y-73141351D01*
X167633285Y-73039276D01*
X167620724Y-73026715D01*
X167518649Y-72950214D01*
X167503054Y-72941676D01*
X167382606Y-72896522D01*
X167367351Y-72892895D01*
X167316486Y-72887369D01*
X167309672Y-72887000D01*
X166637115Y-72887000D01*
X166621876Y-72891475D01*
X166620671Y-72892865D01*
X166619000Y-72900548D01*
X166619000Y-75684884D01*
X166111000Y-75684884D01*
X166111000Y-74567115D01*
X166106525Y-74551876D01*
X166105135Y-74550671D01*
X166097452Y-74549000D01*
X164975116Y-74549000D01*
X164959877Y-74553475D01*
X164958672Y-74554865D01*
X164957001Y-74562548D01*
X164957001Y-75239669D01*
X159602089Y-75239669D01*
X159726977Y-75114781D01*
X159822931Y-74977745D01*
X159851331Y-74937185D01*
X159851332Y-74937183D01*
X159854488Y-74932676D01*
X159856811Y-74927694D01*
X159856814Y-74927689D01*
X159946117Y-74736178D01*
X159946118Y-74736177D01*
X159948440Y-74731196D01*
X160005978Y-74516463D01*
X160025353Y-74295000D01*
X160005978Y-74073537D01*
X159992406Y-74022885D01*
X164957000Y-74022885D01*
X164961475Y-74038124D01*
X164962865Y-74039329D01*
X164970548Y-74041000D01*
X166092885Y-74041000D01*
X166108124Y-74036525D01*
X166109329Y-74035135D01*
X166111000Y-74027452D01*
X166111000Y-72905116D01*
X166106525Y-72889877D01*
X166105135Y-72888672D01*
X166097452Y-72887001D01*
X165420331Y-72887001D01*
X165413510Y-72887371D01*
X165362648Y-72892895D01*
X165347396Y-72896521D01*
X165226946Y-72941676D01*
X165211351Y-72950214D01*
X165109276Y-73026715D01*
X165096715Y-73039276D01*
X165020214Y-73141351D01*
X165011676Y-73156946D01*
X164966522Y-73277394D01*
X164962895Y-73292649D01*
X164957369Y-73343514D01*
X164957000Y-73350328D01*
X164957000Y-74022885D01*
X159992406Y-74022885D01*
X159948440Y-73858804D01*
X159946117Y-73853822D01*
X159856814Y-73662311D01*
X159856811Y-73662306D01*
X159854488Y-73657324D01*
X159825647Y-73616134D01*
X159730136Y-73479730D01*
X159730134Y-73479727D01*
X159726977Y-73475219D01*
X159569781Y-73318023D01*
X159565273Y-73314866D01*
X159565270Y-73314864D01*
X159438729Y-73226259D01*
X159387677Y-73190512D01*
X159382695Y-73188189D01*
X159382690Y-73188186D01*
X159277627Y-73139195D01*
X159224342Y-73092278D01*
X159204881Y-73024001D01*
X159225423Y-72956041D01*
X159277627Y-72910805D01*
X159382690Y-72861814D01*
X159382695Y-72861811D01*
X159387677Y-72859488D01*
X159489505Y-72788187D01*
X159565270Y-72735136D01*
X159565273Y-72735134D01*
X159569781Y-72731977D01*
X159726977Y-72574781D01*
X159822931Y-72437745D01*
X159851331Y-72397185D01*
X159851332Y-72397183D01*
X159854488Y-72392676D01*
X159856811Y-72387694D01*
X159856814Y-72387689D01*
X159946117Y-72196178D01*
X159946118Y-72196177D01*
X159948440Y-72191196D01*
X160005978Y-71976463D01*
X160025353Y-71755000D01*
X160005978Y-71533537D01*
X159948440Y-71318804D01*
X159928535Y-71276118D01*
X159856814Y-71122311D01*
X159856811Y-71122306D01*
X159854488Y-71117324D01*
X159825647Y-71076134D01*
X159730136Y-70939730D01*
X159730134Y-70939727D01*
X159726977Y-70935219D01*
X159569781Y-70778023D01*
X159565273Y-70774866D01*
X159565270Y-70774864D01*
X159489505Y-70721813D01*
X159387677Y-70650512D01*
X159382695Y-70648189D01*
X159382690Y-70648186D01*
X159277627Y-70599195D01*
X159224342Y-70552278D01*
X159204881Y-70484001D01*
X159225423Y-70416041D01*
X159277627Y-70370805D01*
X159382690Y-70321814D01*
X159382695Y-70321811D01*
X159387677Y-70319488D01*
X159489505Y-70248187D01*
X159565270Y-70195136D01*
X159565273Y-70195134D01*
X159569781Y-70191977D01*
X159726977Y-70034781D01*
X159787703Y-69948056D01*
X159819791Y-69902229D01*
X159875248Y-69857901D01*
X159923004Y-69848500D01*
X160751996Y-69848500D01*
X160820117Y-69868502D01*
X160855209Y-69902229D01*
X160887298Y-69948056D01*
X160948023Y-70034781D01*
X161105219Y-70191977D01*
X161109727Y-70195134D01*
X161109730Y-70195136D01*
X161185495Y-70248187D01*
X161287323Y-70319488D01*
X161292305Y-70321811D01*
X161292310Y-70321814D01*
X161483822Y-70411117D01*
X161488804Y-70413440D01*
X161494112Y-70414862D01*
X161494114Y-70414863D01*
X161559949Y-70432503D01*
X161703537Y-70470978D01*
X161925000Y-70490353D01*
X162146463Y-70470978D01*
X162290051Y-70432503D01*
X162355886Y-70414863D01*
X162355888Y-70414862D01*
X162361196Y-70413440D01*
X162366178Y-70411117D01*
X162557690Y-70321814D01*
X162557695Y-70321811D01*
X162562677Y-70319488D01*
X162664505Y-70248187D01*
X162740270Y-70195136D01*
X162740273Y-70195134D01*
X162744781Y-70191977D01*
X162901977Y-70034781D01*
X162962703Y-69948056D01*
X163026331Y-69857185D01*
X163026332Y-69857183D01*
X163029488Y-69852676D01*
X163031811Y-69847694D01*
X163031814Y-69847689D01*
X163121117Y-69656178D01*
X163121118Y-69656177D01*
X163123440Y-69651196D01*
X163180978Y-69436463D01*
X163200353Y-69215000D01*
X163180978Y-68993537D01*
X163123440Y-68778804D01*
X163090876Y-68708971D01*
X163031814Y-68582311D01*
X163031811Y-68582306D01*
X163029488Y-68577324D01*
X163026092Y-68572474D01*
X162905136Y-68399730D01*
X162905134Y-68399727D01*
X162901977Y-68395219D01*
X162744781Y-68238023D01*
X162740273Y-68234866D01*
X162740270Y-68234864D01*
X162651509Y-68172713D01*
X162607181Y-68117256D01*
X162599872Y-68046636D01*
X162631903Y-67983276D01*
X162693104Y-67947291D01*
X162723780Y-67943500D01*
X164835500Y-67943500D01*
X164903621Y-67963502D01*
X164950114Y-68017158D01*
X164961500Y-68069500D01*
X164961500Y-68258134D01*
X164968255Y-68320316D01*
X165019385Y-68456705D01*
X165106739Y-68573261D01*
X165223295Y-68660615D01*
X165359684Y-68711745D01*
X165421866Y-68718500D01*
X167318134Y-68718500D01*
X167380316Y-68711745D01*
X167516705Y-68660615D01*
X167633261Y-68573261D01*
X167720615Y-68456705D01*
X167745180Y-68391178D01*
X167787822Y-68334414D01*
X167854383Y-68309714D01*
X167923732Y-68324921D01*
X167943647Y-68338464D01*
X168043300Y-68421197D01*
X168099349Y-68467730D01*
X168299322Y-68584584D01*
X168515694Y-68667209D01*
X168520760Y-68668240D01*
X168520761Y-68668240D01*
X168544885Y-68673148D01*
X168742656Y-68713385D01*
X168872089Y-68718131D01*
X168968949Y-68721683D01*
X168968953Y-68721683D01*
X168974113Y-68721872D01*
X168979233Y-68721216D01*
X168979235Y-68721216D01*
X169053166Y-68711745D01*
X169203847Y-68692442D01*
X169208795Y-68690957D01*
X169208802Y-68690956D01*
X169420747Y-68627369D01*
X169425690Y-68625886D01*
X169506236Y-68586427D01*
X169629049Y-68526262D01*
X169629052Y-68526260D01*
X169633684Y-68523991D01*
X169822243Y-68389494D01*
X169986303Y-68226005D01*
X170121458Y-68037917D01*
X170130977Y-68018658D01*
X170221784Y-67834922D01*
X170221785Y-67834920D01*
X170224078Y-67830280D01*
X170291408Y-67608671D01*
X170321640Y-67379041D01*
X170321722Y-67375691D01*
X170323245Y-67313365D01*
X170323245Y-67313361D01*
X170323327Y-67310000D01*
X170310769Y-67157251D01*
X170304773Y-67084318D01*
X170304772Y-67084312D01*
X170304349Y-67079167D01*
X170267352Y-66931876D01*
X170249184Y-66859544D01*
X170249183Y-66859540D01*
X170247925Y-66854533D01*
X170243575Y-66844528D01*
X170157630Y-66646868D01*
X170157628Y-66646865D01*
X170155570Y-66642131D01*
X170029764Y-66447665D01*
X169996908Y-66411556D01*
X169980134Y-66393122D01*
X169873887Y-66276358D01*
X169869836Y-66273159D01*
X169869832Y-66273155D01*
X169696177Y-66136011D01*
X169696172Y-66136008D01*
X169692123Y-66132810D01*
X169687607Y-66130317D01*
X169687604Y-66130315D01*
X169493879Y-66023373D01*
X169493875Y-66023371D01*
X169489355Y-66020876D01*
X169484486Y-66019152D01*
X169484482Y-66019150D01*
X169275903Y-65945288D01*
X169275899Y-65945287D01*
X169271028Y-65943562D01*
X169265935Y-65942655D01*
X169265932Y-65942654D01*
X169048095Y-65903851D01*
X169048089Y-65903850D01*
X169043006Y-65902945D01*
X168970096Y-65902054D01*
X168816581Y-65900179D01*
X168816579Y-65900179D01*
X168811411Y-65900116D01*
X168582464Y-65935150D01*
X168541885Y-65948413D01*
X168470922Y-65950563D01*
X168413647Y-65917742D01*
X168016653Y-65520748D01*
X168009113Y-65512462D01*
X168005001Y-65505983D01*
X167955349Y-65459357D01*
X167952508Y-65456603D01*
X167932771Y-65436866D01*
X167929574Y-65434386D01*
X167920552Y-65426681D01*
X167916756Y-65423116D01*
X167888322Y-65396415D01*
X167881376Y-65392596D01*
X167881373Y-65392594D01*
X167870567Y-65386653D01*
X167854048Y-65375802D01*
X167853584Y-65375442D01*
X167838042Y-65363387D01*
X167830773Y-65360242D01*
X167830769Y-65360239D01*
X167797464Y-65345827D01*
X167786814Y-65340610D01*
X167748061Y-65319306D01*
X167728438Y-65314268D01*
X167709735Y-65307864D01*
X167698421Y-65302968D01*
X167698420Y-65302968D01*
X167691146Y-65299820D01*
X167683323Y-65298581D01*
X167683313Y-65298578D01*
X167647477Y-65292902D01*
X167635857Y-65290496D01*
X167600712Y-65281473D01*
X167600711Y-65281473D01*
X167593031Y-65279501D01*
X167572777Y-65279501D01*
X167553066Y-65277950D01*
X167550535Y-65277549D01*
X167533058Y-65274781D01*
X167525166Y-65275527D01*
X167489040Y-65278942D01*
X167477182Y-65279501D01*
X159590762Y-65279501D01*
X159579578Y-65278974D01*
X159572090Y-65277300D01*
X159564167Y-65277549D01*
X159504032Y-65279439D01*
X159500074Y-65279501D01*
X159472143Y-65279501D01*
X159468228Y-65279996D01*
X159468224Y-65279996D01*
X159468166Y-65280004D01*
X159468137Y-65280007D01*
X159456295Y-65280940D01*
X159412109Y-65282328D01*
X159394743Y-65287373D01*
X159392657Y-65287979D01*
X159373305Y-65291987D01*
X159366234Y-65292881D01*
X159353202Y-65294527D01*
X159345833Y-65297444D01*
X159345831Y-65297445D01*
X159312096Y-65310801D01*
X159300868Y-65314646D01*
X159258406Y-65326983D01*
X159251584Y-65331017D01*
X159251578Y-65331020D01*
X159240967Y-65337295D01*
X159223217Y-65345991D01*
X159211755Y-65350529D01*
X159211750Y-65350532D01*
X159204382Y-65353449D01*
X159187045Y-65366045D01*
X159168624Y-65379428D01*
X159158706Y-65385944D01*
X159127460Y-65404423D01*
X159127458Y-65404424D01*
X159120636Y-65408459D01*
X159119959Y-65409136D01*
X159056764Y-65433953D01*
X159013003Y-65430153D01*
X159011675Y-65429797D01*
X158971463Y-65419022D01*
X158750000Y-65399647D01*
X158528537Y-65419022D01*
X158388284Y-65456603D01*
X158319114Y-65475137D01*
X158319112Y-65475138D01*
X158313804Y-65476560D01*
X158308823Y-65478882D01*
X158308822Y-65478883D01*
X158117311Y-65568186D01*
X158117306Y-65568189D01*
X158112324Y-65570512D01*
X158107817Y-65573668D01*
X158107815Y-65573669D01*
X157934730Y-65694864D01*
X157934727Y-65694866D01*
X157930219Y-65698023D01*
X157773023Y-65855219D01*
X157769866Y-65859727D01*
X157769864Y-65859730D01*
X157680209Y-65987771D01*
X157624752Y-66032099D01*
X157576996Y-66041500D01*
X155967113Y-66041500D01*
X155898992Y-66021498D01*
X155852499Y-65967842D01*
X155841803Y-65928671D01*
X155834232Y-65856634D01*
X155834231Y-65856631D01*
X155833542Y-65850072D01*
X155774527Y-65668444D01*
X155679040Y-65503056D01*
X155616820Y-65433953D01*
X155555675Y-65366045D01*
X155555674Y-65366044D01*
X155551253Y-65361134D01*
X155442444Y-65282079D01*
X155402094Y-65252763D01*
X155402093Y-65252762D01*
X155396752Y-65248882D01*
X155390724Y-65246198D01*
X155390722Y-65246197D01*
X155228319Y-65173891D01*
X155228318Y-65173891D01*
X155222288Y-65171206D01*
X155128887Y-65151353D01*
X155041944Y-65132872D01*
X155041939Y-65132872D01*
X155035487Y-65131500D01*
X154844513Y-65131500D01*
X154838061Y-65132872D01*
X154838056Y-65132872D01*
X154751113Y-65151353D01*
X154657712Y-65171206D01*
X154651682Y-65173891D01*
X154651681Y-65173891D01*
X154489278Y-65246197D01*
X154489276Y-65246198D01*
X154483248Y-65248882D01*
X154477907Y-65252762D01*
X154477906Y-65252763D01*
X154437556Y-65282079D01*
X154328747Y-65361134D01*
X154324326Y-65366044D01*
X154324325Y-65366045D01*
X154263181Y-65433953D01*
X154200960Y-65503056D01*
X154105473Y-65668444D01*
X154046458Y-65850072D01*
X154045768Y-65856633D01*
X154045768Y-65856635D01*
X154036122Y-65948413D01*
X154026496Y-66040000D01*
X154046458Y-66229928D01*
X154105473Y-66411556D01*
X154108776Y-66417278D01*
X154108777Y-66417279D01*
X154126643Y-66448224D01*
X154200960Y-66576944D01*
X154205378Y-66581851D01*
X154205379Y-66581852D01*
X154303146Y-66690433D01*
X154328747Y-66718866D01*
X154483248Y-66831118D01*
X154489276Y-66833802D01*
X154489278Y-66833803D01*
X154630016Y-66896463D01*
X154657712Y-66908794D01*
X154751112Y-66928647D01*
X154838056Y-66947128D01*
X154838061Y-66947128D01*
X154844513Y-66948500D01*
X154900406Y-66948500D01*
X154968527Y-66968502D01*
X154989501Y-66985405D01*
X155071343Y-67067247D01*
X155078887Y-67075537D01*
X155083000Y-67082018D01*
X155088777Y-67087443D01*
X155095386Y-67093649D01*
X155131352Y-67154862D01*
X155128515Y-67225802D01*
X155087775Y-67283946D01*
X155022067Y-67310835D01*
X155009134Y-67311500D01*
X154378200Y-67311500D01*
X154310079Y-67291498D01*
X154290853Y-67275157D01*
X154290580Y-67275460D01*
X154285668Y-67271037D01*
X154281253Y-67266134D01*
X154126752Y-67153882D01*
X154120724Y-67151198D01*
X154120722Y-67151197D01*
X153958319Y-67078891D01*
X153958318Y-67078891D01*
X153952288Y-67076206D01*
X153858887Y-67056353D01*
X153771944Y-67037872D01*
X153771939Y-67037872D01*
X153765487Y-67036500D01*
X153574513Y-67036500D01*
X153568061Y-67037872D01*
X153568056Y-67037872D01*
X153481113Y-67056353D01*
X153387712Y-67076206D01*
X153381682Y-67078891D01*
X153381681Y-67078891D01*
X153219278Y-67151197D01*
X153219276Y-67151198D01*
X153213248Y-67153882D01*
X153058747Y-67266134D01*
X153054326Y-67271044D01*
X153054325Y-67271045D01*
X152954098Y-67382359D01*
X152930960Y-67408056D01*
X152835473Y-67573444D01*
X152776458Y-67755072D01*
X152775768Y-67761633D01*
X152775768Y-67761635D01*
X152764261Y-67871117D01*
X152756496Y-67945000D01*
X152757186Y-67951565D01*
X152774601Y-68117256D01*
X152776458Y-68134928D01*
X152835473Y-68316556D01*
X152838776Y-68322278D01*
X152838777Y-68322279D01*
X152879319Y-68392500D01*
X152896057Y-68461496D01*
X152872836Y-68528587D01*
X152817029Y-68572474D01*
X152770200Y-68581500D01*
X152303004Y-68581500D01*
X152234883Y-68561498D01*
X152199791Y-68527771D01*
X152110136Y-68399730D01*
X152110134Y-68399727D01*
X152106977Y-68395219D01*
X151949781Y-68238023D01*
X151945273Y-68234866D01*
X151945270Y-68234864D01*
X151858650Y-68174212D01*
X151814322Y-68118755D01*
X151807013Y-68048135D01*
X151839044Y-67984775D01*
X151900245Y-67948790D01*
X151930921Y-67944999D01*
X151936669Y-67944999D01*
X151943490Y-67944629D01*
X151994352Y-67939105D01*
X152009604Y-67935479D01*
X152130054Y-67890324D01*
X152145649Y-67881786D01*
X152247724Y-67805285D01*
X152260285Y-67792724D01*
X152336786Y-67690649D01*
X152345324Y-67675054D01*
X152390478Y-67554606D01*
X152394105Y-67539351D01*
X152399631Y-67488486D01*
X152400000Y-67481672D01*
X152400000Y-66947115D01*
X152395525Y-66931876D01*
X152394135Y-66930671D01*
X152386452Y-66929000D01*
X149878116Y-66929000D01*
X149862877Y-66933475D01*
X149861672Y-66934865D01*
X149860001Y-66942548D01*
X149860001Y-67481669D01*
X149860371Y-67488490D01*
X149865895Y-67539352D01*
X149869521Y-67554604D01*
X149914676Y-67675054D01*
X149923214Y-67690649D01*
X149999715Y-67792724D01*
X150012276Y-67805285D01*
X150114351Y-67881786D01*
X150129946Y-67890324D01*
X150250394Y-67935478D01*
X150265649Y-67939105D01*
X150316514Y-67944631D01*
X150323328Y-67945000D01*
X150329078Y-67945000D01*
X150397199Y-67965002D01*
X150443692Y-68018658D01*
X150453796Y-68088932D01*
X150424302Y-68153512D01*
X150401349Y-68174213D01*
X150314730Y-68234864D01*
X150314727Y-68234866D01*
X150310219Y-68238023D01*
X150153023Y-68395219D01*
X150149866Y-68399727D01*
X150149864Y-68399730D01*
X150060209Y-68527771D01*
X150004752Y-68572099D01*
X149956996Y-68581500D01*
X149298200Y-68581500D01*
X149230079Y-68561498D01*
X149210853Y-68545157D01*
X149210580Y-68545460D01*
X149205668Y-68541037D01*
X149201253Y-68536134D01*
X149110696Y-68470340D01*
X149052094Y-68427763D01*
X149052093Y-68427762D01*
X149046752Y-68423882D01*
X149040724Y-68421198D01*
X149040722Y-68421197D01*
X148878319Y-68348891D01*
X148878318Y-68348891D01*
X148872288Y-68346206D01*
X148759721Y-68322279D01*
X148691944Y-68307872D01*
X148691939Y-68307872D01*
X148685487Y-68306500D01*
X148494513Y-68306500D01*
X148488061Y-68307872D01*
X148488056Y-68307872D01*
X148420279Y-68322279D01*
X148307712Y-68346206D01*
X148301682Y-68348891D01*
X148301681Y-68348891D01*
X148139278Y-68421197D01*
X148139276Y-68421198D01*
X148133248Y-68423882D01*
X147978747Y-68536134D01*
X147974326Y-68541044D01*
X147974325Y-68541045D01*
X147860727Y-68667209D01*
X147850960Y-68678056D01*
X147755473Y-68843444D01*
X147696458Y-69025072D01*
X147676496Y-69215000D01*
X147696458Y-69404928D01*
X147698498Y-69411206D01*
X147709746Y-69445824D01*
X147711774Y-69516791D01*
X147675111Y-69577589D01*
X147611399Y-69608915D01*
X147563716Y-69608007D01*
X147421944Y-69577872D01*
X147421939Y-69577872D01*
X147415487Y-69576500D01*
X147224513Y-69576500D01*
X147218061Y-69577872D01*
X147218056Y-69577872D01*
X147138221Y-69594842D01*
X147037712Y-69616206D01*
X147031682Y-69618891D01*
X147031681Y-69618891D01*
X146869278Y-69691197D01*
X146869276Y-69691198D01*
X146863248Y-69693882D01*
X146708747Y-69806134D01*
X146704326Y-69811044D01*
X146704325Y-69811045D01*
X146662781Y-69857185D01*
X146580960Y-69948056D01*
X146485473Y-70113444D01*
X146426458Y-70295072D01*
X146425768Y-70301633D01*
X146425768Y-70301635D01*
X146423892Y-70319488D01*
X146406496Y-70485000D01*
X146406886Y-70488712D01*
X146387184Y-70555812D01*
X146333528Y-70602305D01*
X146263254Y-70612409D01*
X146211294Y-70592529D01*
X144201108Y-69252405D01*
X144155523Y-69197976D01*
X144145000Y-69147567D01*
X144145000Y-66675000D01*
X146044647Y-66675000D01*
X146064022Y-66896463D01*
X146121560Y-67111196D01*
X146123882Y-67116177D01*
X146123883Y-67116178D01*
X146213186Y-67307689D01*
X146213189Y-67307694D01*
X146215512Y-67312676D01*
X146218668Y-67317183D01*
X146218669Y-67317185D01*
X146282298Y-67408056D01*
X146343023Y-67494781D01*
X146500219Y-67651977D01*
X146504727Y-67655134D01*
X146504730Y-67655136D01*
X146533176Y-67675054D01*
X146682323Y-67779488D01*
X146687305Y-67781811D01*
X146687310Y-67781814D01*
X146878822Y-67871117D01*
X146883804Y-67873440D01*
X146889112Y-67874862D01*
X146889114Y-67874863D01*
X146914951Y-67881786D01*
X147098537Y-67930978D01*
X147320000Y-67950353D01*
X147541463Y-67930978D01*
X147725049Y-67881786D01*
X147750886Y-67874863D01*
X147750888Y-67874862D01*
X147756196Y-67873440D01*
X147761178Y-67871117D01*
X147952690Y-67781814D01*
X147952695Y-67781811D01*
X147957677Y-67779488D01*
X148106824Y-67675054D01*
X148135270Y-67655136D01*
X148135273Y-67655134D01*
X148139781Y-67651977D01*
X148296977Y-67494781D01*
X148357703Y-67408056D01*
X148421331Y-67317185D01*
X148421332Y-67317183D01*
X148424488Y-67312676D01*
X148426811Y-67307694D01*
X148426814Y-67307689D01*
X148516117Y-67116178D01*
X148516118Y-67116177D01*
X148518440Y-67111196D01*
X148575978Y-66896463D01*
X148595353Y-66675000D01*
X148575978Y-66453537D01*
X148562406Y-66402885D01*
X149860000Y-66402885D01*
X149864475Y-66418124D01*
X149865865Y-66419329D01*
X149873548Y-66421000D01*
X150857885Y-66421000D01*
X150873124Y-66416525D01*
X150874329Y-66415135D01*
X150876000Y-66407452D01*
X150876000Y-66402885D01*
X151384000Y-66402885D01*
X151388475Y-66418124D01*
X151389865Y-66419329D01*
X151397548Y-66421000D01*
X152381884Y-66421000D01*
X152397123Y-66416525D01*
X152398328Y-66415135D01*
X152399999Y-66407452D01*
X152399999Y-65868331D01*
X152399629Y-65861510D01*
X152394105Y-65810648D01*
X152390479Y-65795396D01*
X152345324Y-65674946D01*
X152336786Y-65659351D01*
X152260285Y-65557276D01*
X152247724Y-65544715D01*
X152145649Y-65468214D01*
X152130054Y-65459676D01*
X152009606Y-65414522D01*
X151994351Y-65410895D01*
X151943486Y-65405369D01*
X151936672Y-65405000D01*
X151402115Y-65405000D01*
X151386876Y-65409475D01*
X151385671Y-65410865D01*
X151384000Y-65418548D01*
X151384000Y-66402885D01*
X150876000Y-66402885D01*
X150876000Y-65423116D01*
X150871525Y-65407877D01*
X150870135Y-65406672D01*
X150862452Y-65405001D01*
X150323331Y-65405001D01*
X150316510Y-65405371D01*
X150265648Y-65410895D01*
X150250396Y-65414521D01*
X150129946Y-65459676D01*
X150114351Y-65468214D01*
X150012276Y-65544715D01*
X149999715Y-65557276D01*
X149923214Y-65659351D01*
X149914676Y-65674946D01*
X149869522Y-65795394D01*
X149865895Y-65810649D01*
X149860369Y-65861514D01*
X149860000Y-65868328D01*
X149860000Y-66402885D01*
X148562406Y-66402885D01*
X148518440Y-66238804D01*
X148467851Y-66130315D01*
X148426814Y-66042311D01*
X148426811Y-66042306D01*
X148424488Y-66037324D01*
X148421331Y-66032815D01*
X148300136Y-65859730D01*
X148300134Y-65859727D01*
X148296977Y-65855219D01*
X148139781Y-65698023D01*
X148135273Y-65694866D01*
X148135270Y-65694864D01*
X148059505Y-65641813D01*
X147957677Y-65570512D01*
X147952695Y-65568189D01*
X147952690Y-65568186D01*
X147761178Y-65478883D01*
X147761177Y-65478882D01*
X147756196Y-65476560D01*
X147750888Y-65475138D01*
X147750886Y-65475137D01*
X147681716Y-65456603D01*
X147541463Y-65419022D01*
X147320000Y-65399647D01*
X147098537Y-65419022D01*
X146958284Y-65456603D01*
X146889114Y-65475137D01*
X146889112Y-65475138D01*
X146883804Y-65476560D01*
X146878823Y-65478882D01*
X146878822Y-65478883D01*
X146687311Y-65568186D01*
X146687306Y-65568189D01*
X146682324Y-65570512D01*
X146677817Y-65573668D01*
X146677815Y-65573669D01*
X146504730Y-65694864D01*
X146504727Y-65694866D01*
X146500219Y-65698023D01*
X146343023Y-65855219D01*
X146339866Y-65859727D01*
X146339864Y-65859730D01*
X146218669Y-66032815D01*
X146215512Y-66037324D01*
X146213189Y-66042306D01*
X146213186Y-66042311D01*
X146172149Y-66130315D01*
X146121560Y-66238804D01*
X146064022Y-66453537D01*
X146044647Y-66675000D01*
X144145000Y-66675000D01*
X144145000Y-63040134D01*
X152399500Y-63040134D01*
X152406255Y-63102316D01*
X152457385Y-63238705D01*
X152544739Y-63355261D01*
X152661295Y-63442615D01*
X152797684Y-63493745D01*
X152859866Y-63500500D01*
X154480134Y-63500500D01*
X154542316Y-63493745D01*
X154678705Y-63442615D01*
X154795261Y-63355261D01*
X154845088Y-63288777D01*
X155475777Y-63288777D01*
X155485074Y-63300793D01*
X155528069Y-63330898D01*
X155537555Y-63336376D01*
X155728993Y-63425645D01*
X155739285Y-63429391D01*
X155943309Y-63484059D01*
X155954104Y-63485962D01*
X156164525Y-63504372D01*
X156175475Y-63504372D01*
X156385896Y-63485962D01*
X156396691Y-63484059D01*
X156600715Y-63429391D01*
X156611007Y-63425645D01*
X156802445Y-63336376D01*
X156811931Y-63330898D01*
X156855764Y-63300207D01*
X156864139Y-63289729D01*
X156857071Y-63276281D01*
X156182812Y-62602022D01*
X156168868Y-62594408D01*
X156167035Y-62594539D01*
X156160420Y-62598790D01*
X155482207Y-63277003D01*
X155475777Y-63288777D01*
X154845088Y-63288777D01*
X154882615Y-63238705D01*
X154933745Y-63102316D01*
X154940500Y-63040134D01*
X154940503Y-63040134D01*
X154963944Y-62973823D01*
X155020039Y-62930304D01*
X155079070Y-62922254D01*
X155108136Y-62925263D01*
X155123718Y-62917072D01*
X155797978Y-62242812D01*
X155804356Y-62231132D01*
X156534408Y-62231132D01*
X156534539Y-62232965D01*
X156538790Y-62239580D01*
X157217003Y-62917793D01*
X157228777Y-62924223D01*
X157240793Y-62914926D01*
X157270897Y-62871932D01*
X157276377Y-62862441D01*
X157365645Y-62671007D01*
X157369391Y-62660715D01*
X157424059Y-62456691D01*
X157425962Y-62445896D01*
X157444372Y-62235475D01*
X157444372Y-62224525D01*
X157425962Y-62014104D01*
X157424059Y-62003309D01*
X157369391Y-61799285D01*
X157365645Y-61788993D01*
X157276377Y-61597559D01*
X157270897Y-61588068D01*
X157240206Y-61544235D01*
X157229729Y-61535860D01*
X157216282Y-61542928D01*
X156542022Y-62217188D01*
X156534408Y-62231132D01*
X155804356Y-62231132D01*
X155805592Y-62228868D01*
X155805461Y-62227035D01*
X155801210Y-62220420D01*
X155122997Y-61542207D01*
X155109053Y-61534593D01*
X155077148Y-61536875D01*
X155076952Y-61536951D01*
X155076723Y-61536905D01*
X155075142Y-61537018D01*
X155075111Y-61536580D01*
X155007356Y-61522922D01*
X154956392Y-61473493D01*
X154940697Y-61419845D01*
X154940500Y-61419866D01*
X154940380Y-61418763D01*
X154933745Y-61357684D01*
X154882615Y-61221295D01*
X154844375Y-61170271D01*
X155475860Y-61170271D01*
X155482928Y-61183718D01*
X156157188Y-61857978D01*
X156171132Y-61865592D01*
X156172965Y-61865461D01*
X156179580Y-61861210D01*
X156857793Y-61182997D01*
X156864223Y-61171223D01*
X156854926Y-61159207D01*
X156811931Y-61129102D01*
X156802445Y-61123624D01*
X156611007Y-61034355D01*
X156600715Y-61030609D01*
X156396691Y-60975941D01*
X156385896Y-60974038D01*
X156175475Y-60955628D01*
X156164525Y-60955628D01*
X155954104Y-60974038D01*
X155943309Y-60975941D01*
X155739285Y-61030609D01*
X155728993Y-61034355D01*
X155537559Y-61123623D01*
X155528068Y-61129103D01*
X155484235Y-61159794D01*
X155475860Y-61170271D01*
X154844375Y-61170271D01*
X154795261Y-61104739D01*
X154678705Y-61017385D01*
X154542316Y-60966255D01*
X154480134Y-60959500D01*
X152859866Y-60959500D01*
X152797684Y-60966255D01*
X152661295Y-61017385D01*
X152544739Y-61104739D01*
X152457385Y-61221295D01*
X152406255Y-61357684D01*
X152399500Y-61419866D01*
X152399500Y-63040134D01*
X144145000Y-63040134D01*
X144145000Y-56641000D01*
X144165002Y-56572879D01*
X144218658Y-56526386D01*
X144271000Y-56515000D01*
X145997810Y-56515000D01*
X146065931Y-56535002D01*
G37*
%TD.AperFunction*%
%TD*%
M02*
