%TF.GenerationSoftware,KiCad,Pcbnew,(6.0.7)*%
%TF.CreationDate,2022-09-05T15:15:59+09:00*%
%TF.ProjectId,IC555Demo,49433535-3544-4656-9d6f-2e6b69636164,rev?*%
%TF.SameCoordinates,Original*%
%TF.FileFunction,Copper,L2,Bot*%
%TF.FilePolarity,Positive*%
%FSLAX46Y46*%
G04 Gerber Fmt 4.6, Leading zero omitted, Abs format (unit mm)*
G04 Created by KiCad (PCBNEW (6.0.7)) date 2022-09-05 15:15:59*
%MOMM*%
%LPD*%
G01*
G04 APERTURE LIST*
%TA.AperFunction,ComponentPad*%
%ADD10R,1.524000X1.524000*%
%TD*%
%TA.AperFunction,ComponentPad*%
%ADD11C,1.524000*%
%TD*%
%TA.AperFunction,ComponentPad*%
%ADD12R,1.800000X1.800000*%
%TD*%
%TA.AperFunction,ComponentPad*%
%ADD13C,1.800000*%
%TD*%
%TA.AperFunction,ViaPad*%
%ADD14C,0.800000*%
%TD*%
%TA.AperFunction,Conductor*%
%ADD15C,0.250000*%
%TD*%
G04 APERTURE END LIST*
D10*
%TO.P,U1,1,GND*%
%TO.N,GND*%
X151130000Y-66675000D03*
D11*
%TO.P,U1,2,TRIGGER*%
%TO.N,Net-(C2-Pad1)*%
X151130000Y-69215000D03*
%TO.P,U1,3,OUTPUT*%
%TO.N,Net-(D1-Pad2)*%
X151130000Y-71755000D03*
%TO.P,U1,4,RESET*%
%TO.N,+5V*%
X151130000Y-74295000D03*
%TO.P,U1,5,CONTROL_VOLTAGE*%
%TO.N,Net-(C1-Pad1)*%
X158750000Y-74295000D03*
%TO.P,U1,6,THRESHOLD*%
%TO.N,Net-(C2-Pad1)*%
X158750000Y-71755000D03*
%TO.P,U1,7,DISCHARGE*%
%TO.N,Net-(R1-Pad2)*%
X158750000Y-69215000D03*
%TO.P,U1,8,VCC*%
%TO.N,+5V*%
X158750000Y-66675000D03*
%TD*%
%TO.P,R2,1*%
%TO.N,Net-(R1-Pad2)*%
X147320000Y-66675000D03*
%TO.P,R2,2*%
%TO.N,Net-(C2-Pad1)*%
X147320000Y-74295000D03*
%TD*%
D10*
%TO.P,C2,1*%
%TO.N,Net-(C2-Pad1)*%
X148225000Y-79375000D03*
D11*
%TO.P,C2,2*%
%TO.N,GND*%
X150225000Y-79375000D03*
%TD*%
D12*
%TO.P,D1,1*%
%TO.N,GND*%
X166365000Y-74295000D03*
D13*
%TO.P,D1,2*%
%TO.N,Net-(D1-Pad2)*%
X168905000Y-74295000D03*
%TD*%
D11*
%TO.P,R1,1*%
%TO.N,+5V*%
X161925000Y-76835000D03*
%TO.P,R1,2*%
%TO.N,Net-(R1-Pad2)*%
X161925000Y-69215000D03*
%TD*%
%TO.P,C1,1*%
%TO.N,Net-(C1-Pad1)*%
X157480000Y-79375000D03*
%TO.P,C1,2*%
%TO.N,GND*%
X154940000Y-79375000D03*
%TD*%
D12*
%TO.P,D2,1*%
%TO.N,Net-(D1-Pad2)*%
X166370000Y-67310000D03*
D13*
%TO.P,D2,2*%
%TO.N,+5V*%
X168910000Y-67310000D03*
%TD*%
D10*
%TO.P,J1,1*%
%TO.N,+5V*%
X153670000Y-62230000D03*
D11*
%TO.P,J1,2*%
%TO.N,GND*%
X156170000Y-62230000D03*
%TD*%
D14*
%TO.N,Net-(C2-Pad1)*%
X156210000Y-69215000D03*
X156210000Y-71755000D03*
X148590000Y-69215000D03*
%TO.N,Net-(D1-Pad2)*%
X153670000Y-67945000D03*
X153670000Y-71755000D03*
%TO.N,+5V*%
X154940000Y-76835000D03*
X154940000Y-66040000D03*
X154940000Y-74295000D03*
%TO.N,Net-(R1-Pad2)*%
X147320000Y-70485000D03*
%TD*%
D15*
%TO.N,Net-(C1-Pad1)*%
X158750000Y-78105000D02*
X157480000Y-79375000D01*
X158750000Y-74295000D02*
X158750000Y-78105000D01*
%TO.N,Net-(C2-Pad1)*%
X147320000Y-74295000D02*
X148590000Y-73025000D01*
X148225000Y-75200000D02*
X147320000Y-74295000D01*
X148590000Y-73025000D02*
X148590000Y-69215000D01*
X148225000Y-79375000D02*
X148225000Y-75200000D01*
X156210000Y-69215000D02*
X156210000Y-71755000D01*
%TO.N,Net-(D1-Pad2)*%
X166370000Y-67310000D02*
X168275000Y-69215000D01*
X168275000Y-69850000D02*
X168905000Y-70480000D01*
X153670000Y-67945000D02*
X153670000Y-71755000D01*
X168905000Y-70480000D02*
X168905000Y-74295000D01*
X168275000Y-69215000D02*
X168275000Y-69850000D01*
%TO.N,+5V*%
X153670000Y-64770000D02*
X154940000Y-66040000D01*
X153670000Y-62230000D02*
X153670000Y-64770000D01*
X154940000Y-76835000D02*
X154940000Y-74295000D01*
X154940000Y-74295000D02*
X154940000Y-66040000D01*
%TO.N,Net-(R1-Pad2)*%
X147320000Y-70485000D02*
X147320000Y-66675000D01*
%TD*%
M02*
