M48
; DRILL file {KiCad (6.0.7)} date Mon Sep  5 15:16:02 2022
; FORMAT={-:-/ absolute / inch / decimal}
; #@! TF.CreationDate,2022-09-05T15:16:02+09:00
; #@! TF.GenerationSoftware,Kicad,Pcbnew,(6.0.7)
; #@! TF.FileFunction,Plated,1,2,PTH
FMAT,2
INCH
; #@! TA.AperFunction,Plated,PTH,ViaDrill
T1C0.0157
; #@! TA.AperFunction,Plated,PTH,ComponentDrill
T2C0.0300
; #@! TA.AperFunction,Plated,PTH,ComponentDrill
T3C0.0315
; #@! TA.AperFunction,Plated,PTH,ComponentDrill
T4C0.0354
%
G90
G05
T1
X5.8Y-2.775
X5.85Y-2.725
X6.05Y-2.675
X6.05Y-2.825
X6.1Y-2.6
X6.1Y-2.925
X6.1Y-3.025
X6.15Y-2.725
X6.15Y-2.825
T2
X5.8Y-2.625
X5.8Y-2.925
X5.8356Y-3.125
X5.9144Y-3.125
X5.95Y-2.625
X5.95Y-2.725
X5.95Y-2.825
X5.95Y-2.925
X6.1Y-3.125
X6.2Y-3.125
X6.25Y-2.625
X6.25Y-2.725
X6.25Y-2.825
X6.25Y-2.925
X6.375Y-2.725
X6.375Y-3.025
T3
X6.05Y-2.45
X6.1484Y-2.45
T4
X6.5498Y-2.925
X6.55Y-2.65
X6.6498Y-2.925
X6.65Y-2.65
T0
M30
