%TF.GenerationSoftware,KiCad,Pcbnew,(6.0.7)*%
%TF.CreationDate,2022-09-05T15:15:59+09:00*%
%TF.ProjectId,IC555Demo,49433535-3544-4656-9d6f-2e6b69636164,rev?*%
%TF.SameCoordinates,Original*%
%TF.FileFunction,Legend,Top*%
%TF.FilePolarity,Positive*%
%FSLAX46Y46*%
G04 Gerber Fmt 4.6, Leading zero omitted, Abs format (unit mm)*
G04 Created by KiCad (PCBNEW (6.0.7)) date 2022-09-05 15:15:59*
%MOMM*%
%LPD*%
G01*
G04 APERTURE LIST*
%ADD10C,0.150000*%
%ADD11C,0.120000*%
G04 APERTURE END LIST*
D10*
X166068809Y-60242380D02*
X166306904Y-61242380D01*
X166497380Y-60528095D01*
X166687857Y-61242380D01*
X166925952Y-60242380D01*
X167449761Y-61242380D02*
X167354523Y-61194761D01*
X167306904Y-61147142D01*
X167259285Y-61051904D01*
X167259285Y-60766190D01*
X167306904Y-60670952D01*
X167354523Y-60623333D01*
X167449761Y-60575714D01*
X167592619Y-60575714D01*
X167687857Y-60623333D01*
X167735476Y-60670952D01*
X167783095Y-60766190D01*
X167783095Y-61051904D01*
X167735476Y-61147142D01*
X167687857Y-61194761D01*
X167592619Y-61242380D01*
X167449761Y-61242380D01*
X168354523Y-61242380D02*
X168259285Y-61194761D01*
X168211666Y-61147142D01*
X168164047Y-61051904D01*
X168164047Y-60766190D01*
X168211666Y-60670952D01*
X168259285Y-60623333D01*
X168354523Y-60575714D01*
X168497380Y-60575714D01*
X168592619Y-60623333D01*
X168640238Y-60670952D01*
X168687857Y-60766190D01*
X168687857Y-61051904D01*
X168640238Y-61147142D01*
X168592619Y-61194761D01*
X168497380Y-61242380D01*
X168354523Y-61242380D01*
X169068809Y-61194761D02*
X169164047Y-61242380D01*
X169354523Y-61242380D01*
X169449761Y-61194761D01*
X169497380Y-61099523D01*
X169497380Y-61051904D01*
X169449761Y-60956666D01*
X169354523Y-60909047D01*
X169211666Y-60909047D01*
X169116428Y-60861428D01*
X169068809Y-60766190D01*
X169068809Y-60718571D01*
X169116428Y-60623333D01*
X169211666Y-60575714D01*
X169354523Y-60575714D01*
X169449761Y-60623333D01*
X170068809Y-61242380D02*
X169973571Y-61194761D01*
X169925952Y-61147142D01*
X169878333Y-61051904D01*
X169878333Y-60766190D01*
X169925952Y-60670952D01*
X169973571Y-60623333D01*
X170068809Y-60575714D01*
X170211666Y-60575714D01*
X170306904Y-60623333D01*
X170354523Y-60670952D01*
X170402142Y-60766190D01*
X170402142Y-61051904D01*
X170354523Y-61147142D01*
X170306904Y-61194761D01*
X170211666Y-61242380D01*
X170068809Y-61242380D01*
X170830714Y-60575714D02*
X170830714Y-61242380D01*
X170830714Y-60670952D02*
X170878333Y-60623333D01*
X170973571Y-60575714D01*
X171116428Y-60575714D01*
X171211666Y-60623333D01*
X171259285Y-60718571D01*
X171259285Y-61242380D01*
X172164047Y-60575714D02*
X172164047Y-61385238D01*
X172116428Y-61480476D01*
X172068809Y-61528095D01*
X171973571Y-61575714D01*
X171830714Y-61575714D01*
X171735476Y-61528095D01*
X172164047Y-61194761D02*
X172068809Y-61242380D01*
X171878333Y-61242380D01*
X171783095Y-61194761D01*
X171735476Y-61147142D01*
X171687857Y-61051904D01*
X171687857Y-60766190D01*
X171735476Y-60670952D01*
X171783095Y-60623333D01*
X171878333Y-60575714D01*
X172068809Y-60575714D01*
X172164047Y-60623333D01*
X168283095Y-62852380D02*
X168283095Y-61852380D01*
X168664047Y-61852380D01*
X168759285Y-61900000D01*
X168806904Y-61947619D01*
X168854523Y-62042857D01*
X168854523Y-62185714D01*
X168806904Y-62280952D01*
X168759285Y-62328571D01*
X168664047Y-62376190D01*
X168283095Y-62376190D01*
X169854523Y-62757142D02*
X169806904Y-62804761D01*
X169664047Y-62852380D01*
X169568809Y-62852380D01*
X169425952Y-62804761D01*
X169330714Y-62709523D01*
X169283095Y-62614285D01*
X169235476Y-62423809D01*
X169235476Y-62280952D01*
X169283095Y-62090476D01*
X169330714Y-61995238D01*
X169425952Y-61900000D01*
X169568809Y-61852380D01*
X169664047Y-61852380D01*
X169806904Y-61900000D01*
X169854523Y-61947619D01*
X170616428Y-62328571D02*
X170759285Y-62376190D01*
X170806904Y-62423809D01*
X170854523Y-62519047D01*
X170854523Y-62661904D01*
X170806904Y-62757142D01*
X170759285Y-62804761D01*
X170664047Y-62852380D01*
X170283095Y-62852380D01*
X170283095Y-61852380D01*
X170616428Y-61852380D01*
X170711666Y-61900000D01*
X170759285Y-61947619D01*
X170806904Y-62042857D01*
X170806904Y-62138095D01*
X170759285Y-62233333D01*
X170711666Y-62280952D01*
X170616428Y-62328571D01*
X170283095Y-62328571D01*
%TO.C,U1*%
X154178095Y-64222380D02*
X154178095Y-65031904D01*
X154225714Y-65127142D01*
X154273333Y-65174761D01*
X154368571Y-65222380D01*
X154559047Y-65222380D01*
X154654285Y-65174761D01*
X154701904Y-65127142D01*
X154749523Y-65031904D01*
X154749523Y-64222380D01*
X155749523Y-65222380D02*
X155178095Y-65222380D01*
X155463809Y-65222380D02*
X155463809Y-64222380D01*
X155368571Y-64365238D01*
X155273333Y-64460476D01*
X155178095Y-64508095D01*
%TO.C,R2*%
X144962619Y-70318333D02*
X145438809Y-69985000D01*
X144962619Y-69746904D02*
X145962619Y-69746904D01*
X145962619Y-70127857D01*
X145915000Y-70223095D01*
X145867380Y-70270714D01*
X145772142Y-70318333D01*
X145629285Y-70318333D01*
X145534047Y-70270714D01*
X145486428Y-70223095D01*
X145438809Y-70127857D01*
X145438809Y-69746904D01*
X145867380Y-70699285D02*
X145915000Y-70746904D01*
X145962619Y-70842142D01*
X145962619Y-71080238D01*
X145915000Y-71175476D01*
X145867380Y-71223095D01*
X145772142Y-71270714D01*
X145676904Y-71270714D01*
X145534047Y-71223095D01*
X144962619Y-70651666D01*
X144962619Y-71270714D01*
X149772619Y-69270714D02*
X149772619Y-69889761D01*
X149391666Y-69556428D01*
X149391666Y-69699285D01*
X149344047Y-69794523D01*
X149296428Y-69842142D01*
X149201190Y-69889761D01*
X148963095Y-69889761D01*
X148867857Y-69842142D01*
X148820238Y-69794523D01*
X148772619Y-69699285D01*
X148772619Y-69413571D01*
X148820238Y-69318333D01*
X148867857Y-69270714D01*
X149772619Y-70223095D02*
X149772619Y-70842142D01*
X149391666Y-70508809D01*
X149391666Y-70651666D01*
X149344047Y-70746904D01*
X149296428Y-70794523D01*
X149201190Y-70842142D01*
X148963095Y-70842142D01*
X148867857Y-70794523D01*
X148820238Y-70746904D01*
X148772619Y-70651666D01*
X148772619Y-70365952D01*
X148820238Y-70270714D01*
X148867857Y-70223095D01*
X148772619Y-71270714D02*
X149772619Y-71270714D01*
X149153571Y-71365952D02*
X148772619Y-71651666D01*
X149439285Y-71651666D02*
X149058333Y-71270714D01*
%TO.C,C2*%
X149058333Y-76557142D02*
X149010714Y-76604761D01*
X148867857Y-76652380D01*
X148772619Y-76652380D01*
X148629761Y-76604761D01*
X148534523Y-76509523D01*
X148486904Y-76414285D01*
X148439285Y-76223809D01*
X148439285Y-76080952D01*
X148486904Y-75890476D01*
X148534523Y-75795238D01*
X148629761Y-75700000D01*
X148772619Y-75652380D01*
X148867857Y-75652380D01*
X149010714Y-75700000D01*
X149058333Y-75747619D01*
X149439285Y-75747619D02*
X149486904Y-75700000D01*
X149582142Y-75652380D01*
X149820238Y-75652380D01*
X149915476Y-75700000D01*
X149963095Y-75747619D01*
X150010714Y-75842857D01*
X150010714Y-75938095D01*
X149963095Y-76080952D01*
X149391666Y-76652380D01*
X150010714Y-76652380D01*
X148153571Y-83002380D02*
X147582142Y-83002380D01*
X147867857Y-83002380D02*
X147867857Y-82002380D01*
X147772619Y-82145238D01*
X147677380Y-82240476D01*
X147582142Y-82288095D01*
X148772619Y-82002380D02*
X148867857Y-82002380D01*
X148963095Y-82050000D01*
X149010714Y-82097619D01*
X149058333Y-82192857D01*
X149105952Y-82383333D01*
X149105952Y-82621428D01*
X149058333Y-82811904D01*
X149010714Y-82907142D01*
X148963095Y-82954761D01*
X148867857Y-83002380D01*
X148772619Y-83002380D01*
X148677380Y-82954761D01*
X148629761Y-82907142D01*
X148582142Y-82811904D01*
X148534523Y-82621428D01*
X148534523Y-82383333D01*
X148582142Y-82192857D01*
X148629761Y-82097619D01*
X148677380Y-82050000D01*
X148772619Y-82002380D01*
X149963095Y-82335714D02*
X149963095Y-83002380D01*
X149534523Y-82335714D02*
X149534523Y-82859523D01*
X149582142Y-82954761D01*
X149677380Y-83002380D01*
X149820238Y-83002380D01*
X149915476Y-82954761D01*
X149963095Y-82907142D01*
X150772619Y-82478571D02*
X150439285Y-82478571D01*
X150439285Y-83002380D02*
X150439285Y-82002380D01*
X150915476Y-82002380D01*
X149844047Y-80446428D02*
X150605952Y-80446428D01*
%TO.C,D1*%
X170076904Y-72207380D02*
X170076904Y-71207380D01*
X170315000Y-71207380D01*
X170457857Y-71255000D01*
X170553095Y-71350238D01*
X170600714Y-71445476D01*
X170648333Y-71635952D01*
X170648333Y-71778809D01*
X170600714Y-71969285D01*
X170553095Y-72064523D01*
X170457857Y-72159761D01*
X170315000Y-72207380D01*
X170076904Y-72207380D01*
X171600714Y-72207380D02*
X171029285Y-72207380D01*
X171315000Y-72207380D02*
X171315000Y-71207380D01*
X171219761Y-71350238D01*
X171124523Y-71445476D01*
X171029285Y-71493095D01*
X171442142Y-74747842D02*
X170965952Y-74747842D01*
X170965952Y-73747842D01*
X171775476Y-74224033D02*
X172108809Y-74224033D01*
X172251666Y-74747842D02*
X171775476Y-74747842D01*
X171775476Y-73747842D01*
X172251666Y-73747842D01*
X172680238Y-74747842D02*
X172680238Y-73747842D01*
X172918333Y-73747842D01*
X173061190Y-73795462D01*
X173156428Y-73890700D01*
X173204047Y-73985938D01*
X173251666Y-74176414D01*
X173251666Y-74319271D01*
X173204047Y-74509747D01*
X173156428Y-74604985D01*
X173061190Y-74700223D01*
X172918333Y-74747842D01*
X172680238Y-74747842D01*
%TO.C,R1*%
X160472380Y-73191666D02*
X159996190Y-73525000D01*
X160472380Y-73763095D02*
X159472380Y-73763095D01*
X159472380Y-73382142D01*
X159520000Y-73286904D01*
X159567619Y-73239285D01*
X159662857Y-73191666D01*
X159805714Y-73191666D01*
X159900952Y-73239285D01*
X159948571Y-73286904D01*
X159996190Y-73382142D01*
X159996190Y-73763095D01*
X160472380Y-72239285D02*
X160472380Y-72810714D01*
X160472380Y-72525000D02*
X159472380Y-72525000D01*
X159615238Y-72620238D01*
X159710476Y-72715476D01*
X159758095Y-72810714D01*
X164282380Y-73144047D02*
X164282380Y-73715476D01*
X164282380Y-73429761D02*
X163282380Y-73429761D01*
X163425238Y-73525000D01*
X163520476Y-73620238D01*
X163568095Y-73715476D01*
X164282380Y-72715476D02*
X163282380Y-72715476D01*
X163901428Y-72620238D02*
X164282380Y-72334523D01*
X163615714Y-72334523D02*
X163996666Y-72715476D01*
%TO.C,C1*%
X156043333Y-81637142D02*
X155995714Y-81684761D01*
X155852857Y-81732380D01*
X155757619Y-81732380D01*
X155614761Y-81684761D01*
X155519523Y-81589523D01*
X155471904Y-81494285D01*
X155424285Y-81303809D01*
X155424285Y-81160952D01*
X155471904Y-80970476D01*
X155519523Y-80875238D01*
X155614761Y-80780000D01*
X155757619Y-80732380D01*
X155852857Y-80732380D01*
X155995714Y-80780000D01*
X156043333Y-80827619D01*
X156995714Y-81732380D02*
X156424285Y-81732380D01*
X156710000Y-81732380D02*
X156710000Y-80732380D01*
X156614761Y-80875238D01*
X156519523Y-80970476D01*
X156424285Y-81018095D01*
X154090952Y-76287380D02*
X154186190Y-76287380D01*
X154281428Y-76335000D01*
X154329047Y-76382619D01*
X154376666Y-76477857D01*
X154424285Y-76668333D01*
X154424285Y-76906428D01*
X154376666Y-77096904D01*
X154329047Y-77192142D01*
X154281428Y-77239761D01*
X154186190Y-77287380D01*
X154090952Y-77287380D01*
X153995714Y-77239761D01*
X153948095Y-77192142D01*
X153900476Y-77096904D01*
X153852857Y-76906428D01*
X153852857Y-76668333D01*
X153900476Y-76477857D01*
X153948095Y-76382619D01*
X153995714Y-76335000D01*
X154090952Y-76287380D01*
X154852857Y-77192142D02*
X154900476Y-77239761D01*
X154852857Y-77287380D01*
X154805238Y-77239761D01*
X154852857Y-77192142D01*
X154852857Y-77287380D01*
X155519523Y-76287380D02*
X155614761Y-76287380D01*
X155710000Y-76335000D01*
X155757619Y-76382619D01*
X155805238Y-76477857D01*
X155852857Y-76668333D01*
X155852857Y-76906428D01*
X155805238Y-77096904D01*
X155757619Y-77192142D01*
X155710000Y-77239761D01*
X155614761Y-77287380D01*
X155519523Y-77287380D01*
X155424285Y-77239761D01*
X155376666Y-77192142D01*
X155329047Y-77096904D01*
X155281428Y-76906428D01*
X155281428Y-76668333D01*
X155329047Y-76477857D01*
X155376666Y-76382619D01*
X155424285Y-76335000D01*
X155519523Y-76287380D01*
X156805238Y-77287380D02*
X156233809Y-77287380D01*
X156519523Y-77287380D02*
X156519523Y-76287380D01*
X156424285Y-76430238D01*
X156329047Y-76525476D01*
X156233809Y-76573095D01*
X157662380Y-76620714D02*
X157662380Y-77287380D01*
X157233809Y-76620714D02*
X157233809Y-77144523D01*
X157281428Y-77239761D01*
X157376666Y-77287380D01*
X157519523Y-77287380D01*
X157614761Y-77239761D01*
X157662380Y-77192142D01*
X158471904Y-76763571D02*
X158138571Y-76763571D01*
X158138571Y-77287380D02*
X158138571Y-76287380D01*
X158614761Y-76287380D01*
%TO.C,D2*%
X170076904Y-65222380D02*
X170076904Y-64222380D01*
X170315000Y-64222380D01*
X170457857Y-64270000D01*
X170553095Y-64365238D01*
X170600714Y-64460476D01*
X170648333Y-64650952D01*
X170648333Y-64793809D01*
X170600714Y-64984285D01*
X170553095Y-65079523D01*
X170457857Y-65174761D01*
X170315000Y-65222380D01*
X170076904Y-65222380D01*
X171029285Y-64317619D02*
X171076904Y-64270000D01*
X171172142Y-64222380D01*
X171410238Y-64222380D01*
X171505476Y-64270000D01*
X171553095Y-64317619D01*
X171600714Y-64412857D01*
X171600714Y-64508095D01*
X171553095Y-64650952D01*
X170981666Y-65222380D01*
X171600714Y-65222380D01*
X171442142Y-67762380D02*
X170965952Y-67762380D01*
X170965952Y-66762380D01*
X171775476Y-67238571D02*
X172108809Y-67238571D01*
X172251666Y-67762380D02*
X171775476Y-67762380D01*
X171775476Y-66762380D01*
X172251666Y-66762380D01*
X172680238Y-67762380D02*
X172680238Y-66762380D01*
X172918333Y-66762380D01*
X173061190Y-66810000D01*
X173156428Y-66905238D01*
X173204047Y-67000476D01*
X173251666Y-67190952D01*
X173251666Y-67333809D01*
X173204047Y-67524285D01*
X173156428Y-67619523D01*
X173061190Y-67714761D01*
X172918333Y-67762380D01*
X172680238Y-67762380D01*
%TO.C,J1*%
X150796666Y-61047380D02*
X150796666Y-61761666D01*
X150749047Y-61904523D01*
X150653809Y-61999761D01*
X150510952Y-62047380D01*
X150415714Y-62047380D01*
X151796666Y-62047380D02*
X151225238Y-62047380D01*
X151510952Y-62047380D02*
X151510952Y-61047380D01*
X151415714Y-61190238D01*
X151320476Y-61285476D01*
X151225238Y-61333095D01*
X153249523Y-60682142D02*
X153201904Y-60729761D01*
X153059047Y-60777380D01*
X152963809Y-60777380D01*
X152820952Y-60729761D01*
X152725714Y-60634523D01*
X152678095Y-60539285D01*
X152630476Y-60348809D01*
X152630476Y-60205952D01*
X152678095Y-60015476D01*
X152725714Y-59920238D01*
X152820952Y-59825000D01*
X152963809Y-59777380D01*
X153059047Y-59777380D01*
X153201904Y-59825000D01*
X153249523Y-59872619D01*
X153868571Y-59777380D02*
X154059047Y-59777380D01*
X154154285Y-59825000D01*
X154249523Y-59920238D01*
X154297142Y-60110714D01*
X154297142Y-60444047D01*
X154249523Y-60634523D01*
X154154285Y-60729761D01*
X154059047Y-60777380D01*
X153868571Y-60777380D01*
X153773333Y-60729761D01*
X153678095Y-60634523D01*
X153630476Y-60444047D01*
X153630476Y-60110714D01*
X153678095Y-59920238D01*
X153773333Y-59825000D01*
X153868571Y-59777380D01*
X154725714Y-60777380D02*
X154725714Y-59777380D01*
X155297142Y-60777380D01*
X155297142Y-59777380D01*
X155963809Y-59777380D02*
X156059047Y-59777380D01*
X156154285Y-59825000D01*
X156201904Y-59872619D01*
X156249523Y-59967857D01*
X156297142Y-60158333D01*
X156297142Y-60396428D01*
X156249523Y-60586904D01*
X156201904Y-60682142D01*
X156154285Y-60729761D01*
X156059047Y-60777380D01*
X155963809Y-60777380D01*
X155868571Y-60729761D01*
X155820952Y-60682142D01*
X155773333Y-60586904D01*
X155725714Y-60396428D01*
X155725714Y-60158333D01*
X155773333Y-59967857D01*
X155820952Y-59872619D01*
X155868571Y-59825000D01*
X155963809Y-59777380D01*
X156678095Y-59872619D02*
X156725714Y-59825000D01*
X156820952Y-59777380D01*
X157059047Y-59777380D01*
X157154285Y-59825000D01*
X157201904Y-59872619D01*
X157249523Y-59967857D01*
X157249523Y-60063095D01*
X157201904Y-60205952D01*
X156630476Y-60777380D01*
X157249523Y-60777380D01*
D11*
%TO.C,U1*%
X155575000Y-66040000D02*
X155575000Y-66675000D01*
X157480000Y-75565000D02*
X157480000Y-66040000D01*
X155575000Y-66675000D02*
X154305000Y-66675000D01*
X157480000Y-66040000D02*
X155575000Y-66040000D01*
X152400000Y-75565000D02*
X157480000Y-75565000D01*
X152400000Y-66040000D02*
X152400000Y-75565000D01*
X154305000Y-66675000D02*
X154305000Y-66040000D01*
X154305000Y-66040000D02*
X152400000Y-66040000D01*
%TO.C,R2*%
X148336000Y-68199000D02*
X146304000Y-68199000D01*
X146304000Y-68199000D02*
X146304000Y-72771000D01*
X146304000Y-72771000D02*
X148336000Y-72771000D01*
X148336000Y-72771000D02*
X148336000Y-68199000D01*
%TO.C,C2*%
X151225000Y-79375000D02*
G75*
G03*
X151225000Y-79375000I-2000000J0D01*
G01*
%TO.C,D1*%
X165075000Y-72750000D02*
X165075000Y-75840000D01*
X170625000Y-74295462D02*
G75*
G03*
X165075000Y-72750170I-2990000J462D01*
G01*
X165075000Y-75839830D02*
G75*
G03*
X170625000Y-74294538I2560000J1544830D01*
G01*
X170135000Y-74295000D02*
G75*
G03*
X170135000Y-74295000I-2500000J0D01*
G01*
%TO.C,R1*%
X160909000Y-75311000D02*
X162941000Y-75311000D01*
X162941000Y-75311000D02*
X162941000Y-70739000D01*
X162941000Y-70739000D02*
X160909000Y-70739000D01*
X160909000Y-70739000D02*
X160909000Y-75311000D01*
%TO.C,C1*%
X158750000Y-80645000D02*
X153670000Y-80645000D01*
X153670000Y-80645000D02*
X153670000Y-78105000D01*
X153670000Y-78105000D02*
X158750000Y-78105000D01*
X158750000Y-78105000D02*
X158750000Y-80645000D01*
%TO.C,D2*%
X165080000Y-65765000D02*
X165080000Y-68855000D01*
X165080000Y-68854830D02*
G75*
G03*
X170630000Y-67309538I2560000J1544830D01*
G01*
X170630000Y-67310462D02*
G75*
G03*
X165080000Y-65765170I-2990000J462D01*
G01*
X170140000Y-67310000D02*
G75*
G03*
X170140000Y-67310000I-2500000J0D01*
G01*
%TO.C,J1*%
X152400000Y-60960000D02*
X157480000Y-60960000D01*
X157480000Y-60960000D02*
X157480000Y-63500000D01*
X157480000Y-63500000D02*
X152400000Y-63500000D01*
X152400000Y-63500000D02*
X152400000Y-60960000D01*
%TD*%
M02*
