%TF.GenerationSoftware,KiCad,Pcbnew,(6.0.7)*%
%TF.CreationDate,2022-08-16T13:57:52+09:00*%
%TF.ProjectId,kicad_demo,6b696361-645f-4646-956d-6f2e6b696361,rev?*%
%TF.SameCoordinates,Original*%
%TF.FileFunction,Copper,L2,Bot*%
%TF.FilePolarity,Positive*%
%FSLAX46Y46*%
G04 Gerber Fmt 4.6, Leading zero omitted, Abs format (unit mm)*
G04 Created by KiCad (PCBNEW (6.0.7)) date 2022-08-16 13:57:52*
%MOMM*%
%LPD*%
G01*
G04 APERTURE LIST*
G04 Aperture macros list*
%AMRoundRect*
0 Rectangle with rounded corners*
0 $1 Rounding radius*
0 $2 $3 $4 $5 $6 $7 $8 $9 X,Y pos of 4 corners*
0 Add a 4 corners polygon primitive as box body*
4,1,4,$2,$3,$4,$5,$6,$7,$8,$9,$2,$3,0*
0 Add four circle primitives for the rounded corners*
1,1,$1+$1,$2,$3*
1,1,$1+$1,$4,$5*
1,1,$1+$1,$6,$7*
1,1,$1+$1,$8,$9*
0 Add four rect primitives between the rounded corners*
20,1,$1+$1,$2,$3,$4,$5,0*
20,1,$1+$1,$4,$5,$6,$7,0*
20,1,$1+$1,$6,$7,$8,$9,0*
20,1,$1+$1,$8,$9,$2,$3,0*%
G04 Aperture macros list end*
%TA.AperFunction,ComponentPad*%
%ADD10C,1.600000*%
%TD*%
%TA.AperFunction,ComponentPad*%
%ADD11O,1.600000X1.600000*%
%TD*%
%TA.AperFunction,ComponentPad*%
%ADD12RoundRect,0.250000X0.675000X-0.600000X0.675000X0.600000X-0.675000X0.600000X-0.675000X-0.600000X0*%
%TD*%
%TA.AperFunction,ComponentPad*%
%ADD13O,1.850000X1.700000*%
%TD*%
%TA.AperFunction,ComponentPad*%
%ADD14R,1.800000X1.800000*%
%TD*%
%TA.AperFunction,ComponentPad*%
%ADD15C,1.800000*%
%TD*%
%TA.AperFunction,Conductor*%
%ADD16C,0.250000*%
%TD*%
G04 APERTURE END LIST*
D10*
%TO.P,R3,1*%
%TO.N,Net-(D3-Pad2)*%
X178810000Y-47000000D03*
D11*
%TO.P,R3,2*%
%TO.N,+5V*%
X171190000Y-47000000D03*
%TD*%
D10*
%TO.P,R2,1*%
%TO.N,Net-(D2-Pad2)*%
X178810000Y-69000000D03*
D11*
%TO.P,R2,2*%
%TO.N,+5V*%
X171190000Y-69000000D03*
%TD*%
D10*
%TO.P,R1,1*%
%TO.N,+5V*%
X171190000Y-58000000D03*
D11*
%TO.P,R1,2*%
%TO.N,Net-(D1-Pad2)*%
X178810000Y-58000000D03*
%TD*%
D12*
%TO.P,J1,1,Pin_1*%
%TO.N,+5V*%
X147000000Y-59000000D03*
D13*
%TO.P,J1,2,Pin_2*%
%TO.N,GND*%
X147000000Y-56500000D03*
%TD*%
D14*
%TO.P,D3,1,K*%
%TO.N,GND*%
X189000000Y-47000000D03*
D15*
%TO.P,D3,2,A*%
%TO.N,Net-(D3-Pad2)*%
X186460000Y-47000000D03*
%TD*%
D14*
%TO.P,D2,1,K*%
%TO.N,GND*%
X189000000Y-69000000D03*
D15*
%TO.P,D2,2,A*%
%TO.N,Net-(D2-Pad2)*%
X186460000Y-69000000D03*
%TD*%
D14*
%TO.P,D1,1,K*%
%TO.N,GND*%
X189000000Y-58000000D03*
D15*
%TO.P,D1,2,A*%
%TO.N,Net-(D1-Pad2)*%
X186460000Y-58000000D03*
%TD*%
D16*
%TO.N,+5V*%
X171190000Y-58000000D02*
X171190000Y-69000000D01*
X171190000Y-47000000D02*
X171190000Y-58000000D01*
%TD*%
%TA.AperFunction,Conductor*%
%TO.N,GND*%
G36*
X199433621Y-38528502D02*
G01*
X199480114Y-38582158D01*
X199491500Y-38634500D01*
X199491500Y-77365500D01*
X199471498Y-77433621D01*
X199417842Y-77480114D01*
X199365500Y-77491500D01*
X140634500Y-77491500D01*
X140566379Y-77471498D01*
X140519886Y-77417842D01*
X140508500Y-77365500D01*
X140508500Y-69000000D01*
X169876502Y-69000000D01*
X169896457Y-69228087D01*
X169897881Y-69233400D01*
X169897881Y-69233402D01*
X169949871Y-69427428D01*
X169955716Y-69449243D01*
X169958039Y-69454224D01*
X169958039Y-69454225D01*
X170050151Y-69651762D01*
X170050154Y-69651767D01*
X170052477Y-69656749D01*
X170055634Y-69661257D01*
X170174012Y-69830318D01*
X170183802Y-69844300D01*
X170345700Y-70006198D01*
X170350208Y-70009355D01*
X170350211Y-70009357D01*
X170350821Y-70009784D01*
X170533251Y-70137523D01*
X170538233Y-70139846D01*
X170538238Y-70139849D01*
X170697238Y-70213991D01*
X170740757Y-70234284D01*
X170746065Y-70235706D01*
X170746067Y-70235707D01*
X170956598Y-70292119D01*
X170956600Y-70292119D01*
X170961913Y-70293543D01*
X171190000Y-70313498D01*
X171418087Y-70293543D01*
X171423400Y-70292119D01*
X171423402Y-70292119D01*
X171633933Y-70235707D01*
X171633935Y-70235706D01*
X171639243Y-70234284D01*
X171682762Y-70213991D01*
X171841762Y-70139849D01*
X171841767Y-70139846D01*
X171846749Y-70137523D01*
X172029179Y-70009784D01*
X172029789Y-70009357D01*
X172029792Y-70009355D01*
X172034300Y-70006198D01*
X172196198Y-69844300D01*
X172205989Y-69830318D01*
X172324366Y-69661257D01*
X172327523Y-69656749D01*
X172329846Y-69651767D01*
X172329849Y-69651762D01*
X172421961Y-69454225D01*
X172421961Y-69454224D01*
X172424284Y-69449243D01*
X172430130Y-69427428D01*
X172482119Y-69233402D01*
X172482119Y-69233400D01*
X172483543Y-69228087D01*
X172503498Y-69000000D01*
X177496502Y-69000000D01*
X177516457Y-69228087D01*
X177517881Y-69233400D01*
X177517881Y-69233402D01*
X177569871Y-69427428D01*
X177575716Y-69449243D01*
X177578039Y-69454224D01*
X177578039Y-69454225D01*
X177670151Y-69651762D01*
X177670154Y-69651767D01*
X177672477Y-69656749D01*
X177675634Y-69661257D01*
X177794012Y-69830318D01*
X177803802Y-69844300D01*
X177965700Y-70006198D01*
X177970208Y-70009355D01*
X177970211Y-70009357D01*
X177970821Y-70009784D01*
X178153251Y-70137523D01*
X178158233Y-70139846D01*
X178158238Y-70139849D01*
X178317238Y-70213991D01*
X178360757Y-70234284D01*
X178366065Y-70235706D01*
X178366067Y-70235707D01*
X178576598Y-70292119D01*
X178576600Y-70292119D01*
X178581913Y-70293543D01*
X178810000Y-70313498D01*
X179038087Y-70293543D01*
X179043400Y-70292119D01*
X179043402Y-70292119D01*
X179253933Y-70235707D01*
X179253935Y-70235706D01*
X179259243Y-70234284D01*
X179302762Y-70213991D01*
X179461762Y-70139849D01*
X179461767Y-70139846D01*
X179466749Y-70137523D01*
X179649179Y-70009784D01*
X179649789Y-70009357D01*
X179649792Y-70009355D01*
X179654300Y-70006198D01*
X179816198Y-69844300D01*
X179825989Y-69830318D01*
X179944366Y-69661257D01*
X179947523Y-69656749D01*
X179949846Y-69651767D01*
X179949849Y-69651762D01*
X180041961Y-69454225D01*
X180041961Y-69454224D01*
X180044284Y-69449243D01*
X180050130Y-69427428D01*
X180102119Y-69233402D01*
X180102119Y-69233400D01*
X180103543Y-69228087D01*
X180123498Y-69000000D01*
X180120477Y-68965469D01*
X185047095Y-68965469D01*
X185047392Y-68970622D01*
X185047392Y-68970625D01*
X185053067Y-69069041D01*
X185060427Y-69196697D01*
X185061564Y-69201743D01*
X185061565Y-69201749D01*
X185076394Y-69267548D01*
X185111346Y-69422642D01*
X185113288Y-69427424D01*
X185113289Y-69427428D01*
X185196540Y-69632450D01*
X185198484Y-69637237D01*
X185319501Y-69834719D01*
X185471147Y-70009784D01*
X185649349Y-70157730D01*
X185849322Y-70274584D01*
X186065694Y-70357209D01*
X186070760Y-70358240D01*
X186070761Y-70358240D01*
X186123846Y-70369040D01*
X186292656Y-70403385D01*
X186423324Y-70408176D01*
X186518949Y-70411683D01*
X186518953Y-70411683D01*
X186524113Y-70411872D01*
X186529233Y-70411216D01*
X186529235Y-70411216D01*
X186628668Y-70398478D01*
X186753847Y-70382442D01*
X186758795Y-70380957D01*
X186758802Y-70380956D01*
X186970747Y-70317369D01*
X186975690Y-70315886D01*
X186980565Y-70313498D01*
X187179049Y-70216262D01*
X187179052Y-70216260D01*
X187183684Y-70213991D01*
X187372243Y-70079494D01*
X187375898Y-70075852D01*
X187375906Y-70075845D01*
X187417697Y-70034199D01*
X187480068Y-70000282D01*
X187550875Y-70005470D01*
X187607637Y-70048116D01*
X187624619Y-70079218D01*
X187646677Y-70138056D01*
X187655214Y-70153649D01*
X187731715Y-70255724D01*
X187744276Y-70268285D01*
X187846351Y-70344786D01*
X187861946Y-70353324D01*
X187982394Y-70398478D01*
X187997649Y-70402105D01*
X188048514Y-70407631D01*
X188055328Y-70408000D01*
X188727885Y-70408000D01*
X188743124Y-70403525D01*
X188744329Y-70402135D01*
X188746000Y-70394452D01*
X188746000Y-70389884D01*
X189254000Y-70389884D01*
X189258475Y-70405123D01*
X189259865Y-70406328D01*
X189267548Y-70407999D01*
X189944669Y-70407999D01*
X189951490Y-70407629D01*
X190002352Y-70402105D01*
X190017604Y-70398479D01*
X190138054Y-70353324D01*
X190153649Y-70344786D01*
X190255724Y-70268285D01*
X190268285Y-70255724D01*
X190344786Y-70153649D01*
X190353324Y-70138054D01*
X190398478Y-70017606D01*
X190402105Y-70002351D01*
X190407631Y-69951486D01*
X190408000Y-69944672D01*
X190408000Y-69272115D01*
X190403525Y-69256876D01*
X190402135Y-69255671D01*
X190394452Y-69254000D01*
X189272115Y-69254000D01*
X189256876Y-69258475D01*
X189255671Y-69259865D01*
X189254000Y-69267548D01*
X189254000Y-70389884D01*
X188746000Y-70389884D01*
X188746000Y-68727885D01*
X189254000Y-68727885D01*
X189258475Y-68743124D01*
X189259865Y-68744329D01*
X189267548Y-68746000D01*
X190389884Y-68746000D01*
X190405123Y-68741525D01*
X190406328Y-68740135D01*
X190407999Y-68732452D01*
X190407999Y-68055331D01*
X190407629Y-68048510D01*
X190402105Y-67997648D01*
X190398479Y-67982396D01*
X190353324Y-67861946D01*
X190344786Y-67846351D01*
X190268285Y-67744276D01*
X190255724Y-67731715D01*
X190153649Y-67655214D01*
X190138054Y-67646676D01*
X190017606Y-67601522D01*
X190002351Y-67597895D01*
X189951486Y-67592369D01*
X189944672Y-67592000D01*
X189272115Y-67592000D01*
X189256876Y-67596475D01*
X189255671Y-67597865D01*
X189254000Y-67605548D01*
X189254000Y-68727885D01*
X188746000Y-68727885D01*
X188746000Y-67610116D01*
X188741525Y-67594877D01*
X188740135Y-67593672D01*
X188732452Y-67592001D01*
X188055331Y-67592001D01*
X188048510Y-67592371D01*
X187997648Y-67597895D01*
X187982396Y-67601521D01*
X187861946Y-67646676D01*
X187846351Y-67655214D01*
X187744276Y-67731715D01*
X187731715Y-67744276D01*
X187655214Y-67846351D01*
X187646675Y-67861948D01*
X187625934Y-67917275D01*
X187583293Y-67974040D01*
X187516731Y-67998740D01*
X187447383Y-67983533D01*
X187424388Y-67966909D01*
X187423887Y-67966358D01*
X187361737Y-67917275D01*
X187246177Y-67826011D01*
X187246172Y-67826008D01*
X187242123Y-67822810D01*
X187237607Y-67820317D01*
X187237604Y-67820315D01*
X187043879Y-67713373D01*
X187043875Y-67713371D01*
X187039355Y-67710876D01*
X187034486Y-67709152D01*
X187034482Y-67709150D01*
X186825903Y-67635288D01*
X186825899Y-67635287D01*
X186821028Y-67633562D01*
X186815935Y-67632655D01*
X186815932Y-67632654D01*
X186598095Y-67593851D01*
X186598089Y-67593850D01*
X186593006Y-67592945D01*
X186515644Y-67592000D01*
X186366581Y-67590179D01*
X186366579Y-67590179D01*
X186361411Y-67590116D01*
X186132464Y-67625150D01*
X185912314Y-67697106D01*
X185907726Y-67699494D01*
X185907722Y-67699496D01*
X185751911Y-67780606D01*
X185706872Y-67804052D01*
X185702739Y-67807155D01*
X185702736Y-67807157D01*
X185600632Y-67883819D01*
X185521655Y-67943117D01*
X185361639Y-68110564D01*
X185231119Y-68301899D01*
X185133602Y-68511981D01*
X185071707Y-68735169D01*
X185047095Y-68965469D01*
X180120477Y-68965469D01*
X180103543Y-68771913D01*
X180095028Y-68740135D01*
X180045707Y-68556067D01*
X180045706Y-68556065D01*
X180044284Y-68550757D01*
X180024020Y-68507301D01*
X179949849Y-68348238D01*
X179949846Y-68348233D01*
X179947523Y-68343251D01*
X179816198Y-68155700D01*
X179654300Y-67993802D01*
X179649792Y-67990645D01*
X179649789Y-67990643D01*
X179497228Y-67883819D01*
X179466749Y-67862477D01*
X179461767Y-67860154D01*
X179461762Y-67860151D01*
X179264225Y-67768039D01*
X179264224Y-67768039D01*
X179259243Y-67765716D01*
X179253935Y-67764294D01*
X179253933Y-67764293D01*
X179043402Y-67707881D01*
X179043400Y-67707881D01*
X179038087Y-67706457D01*
X178810000Y-67686502D01*
X178581913Y-67706457D01*
X178576600Y-67707881D01*
X178576598Y-67707881D01*
X178366067Y-67764293D01*
X178366065Y-67764294D01*
X178360757Y-67765716D01*
X178355776Y-67768039D01*
X178355775Y-67768039D01*
X178158238Y-67860151D01*
X178158233Y-67860154D01*
X178153251Y-67862477D01*
X178122772Y-67883819D01*
X177970211Y-67990643D01*
X177970208Y-67990645D01*
X177965700Y-67993802D01*
X177803802Y-68155700D01*
X177672477Y-68343251D01*
X177670154Y-68348233D01*
X177670151Y-68348238D01*
X177595980Y-68507301D01*
X177575716Y-68550757D01*
X177574294Y-68556065D01*
X177574293Y-68556067D01*
X177524972Y-68740135D01*
X177516457Y-68771913D01*
X177496502Y-69000000D01*
X172503498Y-69000000D01*
X172483543Y-68771913D01*
X172475028Y-68740135D01*
X172425707Y-68556067D01*
X172425706Y-68556065D01*
X172424284Y-68550757D01*
X172404020Y-68507301D01*
X172329849Y-68348238D01*
X172329846Y-68348233D01*
X172327523Y-68343251D01*
X172196198Y-68155700D01*
X172034300Y-67993802D01*
X172029792Y-67990645D01*
X172029789Y-67990643D01*
X171877229Y-67883819D01*
X171832901Y-67828362D01*
X171823500Y-67780606D01*
X171823500Y-59219394D01*
X171843502Y-59151273D01*
X171877229Y-59116181D01*
X172029789Y-59009357D01*
X172029792Y-59009355D01*
X172034300Y-59006198D01*
X172196198Y-58844300D01*
X172205989Y-58830318D01*
X172324366Y-58661257D01*
X172327523Y-58656749D01*
X172329846Y-58651767D01*
X172329849Y-58651762D01*
X172421961Y-58454225D01*
X172421961Y-58454224D01*
X172424284Y-58449243D01*
X172430130Y-58427428D01*
X172482119Y-58233402D01*
X172482119Y-58233400D01*
X172483543Y-58228087D01*
X172503498Y-58000000D01*
X177496502Y-58000000D01*
X177516457Y-58228087D01*
X177517881Y-58233400D01*
X177517881Y-58233402D01*
X177569871Y-58427428D01*
X177575716Y-58449243D01*
X177578039Y-58454224D01*
X177578039Y-58454225D01*
X177670151Y-58651762D01*
X177670154Y-58651767D01*
X177672477Y-58656749D01*
X177675634Y-58661257D01*
X177794012Y-58830318D01*
X177803802Y-58844300D01*
X177965700Y-59006198D01*
X177970208Y-59009355D01*
X177970211Y-59009357D01*
X177970821Y-59009784D01*
X178153251Y-59137523D01*
X178158233Y-59139846D01*
X178158238Y-59139849D01*
X178317238Y-59213991D01*
X178360757Y-59234284D01*
X178366065Y-59235706D01*
X178366067Y-59235707D01*
X178576598Y-59292119D01*
X178576600Y-59292119D01*
X178581913Y-59293543D01*
X178810000Y-59313498D01*
X179038087Y-59293543D01*
X179043400Y-59292119D01*
X179043402Y-59292119D01*
X179253933Y-59235707D01*
X179253935Y-59235706D01*
X179259243Y-59234284D01*
X179302762Y-59213991D01*
X179461762Y-59139849D01*
X179461767Y-59139846D01*
X179466749Y-59137523D01*
X179649179Y-59009784D01*
X179649789Y-59009357D01*
X179649792Y-59009355D01*
X179654300Y-59006198D01*
X179816198Y-58844300D01*
X179825989Y-58830318D01*
X179944366Y-58661257D01*
X179947523Y-58656749D01*
X179949846Y-58651767D01*
X179949849Y-58651762D01*
X180041961Y-58454225D01*
X180041961Y-58454224D01*
X180044284Y-58449243D01*
X180050130Y-58427428D01*
X180102119Y-58233402D01*
X180102119Y-58233400D01*
X180103543Y-58228087D01*
X180123498Y-58000000D01*
X180120477Y-57965469D01*
X185047095Y-57965469D01*
X185047392Y-57970622D01*
X185047392Y-57970625D01*
X185053941Y-58084209D01*
X185060427Y-58196697D01*
X185061564Y-58201743D01*
X185061565Y-58201749D01*
X185076394Y-58267548D01*
X185111346Y-58422642D01*
X185113288Y-58427424D01*
X185113289Y-58427428D01*
X185196540Y-58632450D01*
X185198484Y-58637237D01*
X185319501Y-58834719D01*
X185471147Y-59009784D01*
X185649349Y-59157730D01*
X185849322Y-59274584D01*
X186065694Y-59357209D01*
X186070760Y-59358240D01*
X186070761Y-59358240D01*
X186123846Y-59369040D01*
X186292656Y-59403385D01*
X186423324Y-59408176D01*
X186518949Y-59411683D01*
X186518953Y-59411683D01*
X186524113Y-59411872D01*
X186529233Y-59411216D01*
X186529235Y-59411216D01*
X186628668Y-59398478D01*
X186753847Y-59382442D01*
X186758795Y-59380957D01*
X186758802Y-59380956D01*
X186970747Y-59317369D01*
X186975690Y-59315886D01*
X186980565Y-59313498D01*
X187179049Y-59216262D01*
X187179052Y-59216260D01*
X187183684Y-59213991D01*
X187372243Y-59079494D01*
X187375898Y-59075852D01*
X187375906Y-59075845D01*
X187417697Y-59034199D01*
X187480068Y-59000282D01*
X187550875Y-59005470D01*
X187607637Y-59048116D01*
X187624619Y-59079218D01*
X187646677Y-59138056D01*
X187655214Y-59153649D01*
X187731715Y-59255724D01*
X187744276Y-59268285D01*
X187846351Y-59344786D01*
X187861946Y-59353324D01*
X187982394Y-59398478D01*
X187997649Y-59402105D01*
X188048514Y-59407631D01*
X188055328Y-59408000D01*
X188727885Y-59408000D01*
X188743124Y-59403525D01*
X188744329Y-59402135D01*
X188746000Y-59394452D01*
X188746000Y-59389884D01*
X189254000Y-59389884D01*
X189258475Y-59405123D01*
X189259865Y-59406328D01*
X189267548Y-59407999D01*
X189944669Y-59407999D01*
X189951490Y-59407629D01*
X190002352Y-59402105D01*
X190017604Y-59398479D01*
X190138054Y-59353324D01*
X190153649Y-59344786D01*
X190255724Y-59268285D01*
X190268285Y-59255724D01*
X190344786Y-59153649D01*
X190353324Y-59138054D01*
X190398478Y-59017606D01*
X190402105Y-59002351D01*
X190407631Y-58951486D01*
X190408000Y-58944672D01*
X190408000Y-58272115D01*
X190403525Y-58256876D01*
X190402135Y-58255671D01*
X190394452Y-58254000D01*
X189272115Y-58254000D01*
X189256876Y-58258475D01*
X189255671Y-58259865D01*
X189254000Y-58267548D01*
X189254000Y-59389884D01*
X188746000Y-59389884D01*
X188746000Y-57727885D01*
X189254000Y-57727885D01*
X189258475Y-57743124D01*
X189259865Y-57744329D01*
X189267548Y-57746000D01*
X190389884Y-57746000D01*
X190405123Y-57741525D01*
X190406328Y-57740135D01*
X190407999Y-57732452D01*
X190407999Y-57055331D01*
X190407629Y-57048510D01*
X190402105Y-56997648D01*
X190398479Y-56982396D01*
X190353324Y-56861946D01*
X190344786Y-56846351D01*
X190268285Y-56744276D01*
X190255724Y-56731715D01*
X190153649Y-56655214D01*
X190138054Y-56646676D01*
X190017606Y-56601522D01*
X190002351Y-56597895D01*
X189951486Y-56592369D01*
X189944672Y-56592000D01*
X189272115Y-56592000D01*
X189256876Y-56596475D01*
X189255671Y-56597865D01*
X189254000Y-56605548D01*
X189254000Y-57727885D01*
X188746000Y-57727885D01*
X188746000Y-56610116D01*
X188741525Y-56594877D01*
X188740135Y-56593672D01*
X188732452Y-56592001D01*
X188055331Y-56592001D01*
X188048510Y-56592371D01*
X187997648Y-56597895D01*
X187982396Y-56601521D01*
X187861946Y-56646676D01*
X187846351Y-56655214D01*
X187744276Y-56731715D01*
X187731715Y-56744276D01*
X187655214Y-56846351D01*
X187646675Y-56861948D01*
X187625934Y-56917275D01*
X187583293Y-56974040D01*
X187516731Y-56998740D01*
X187447383Y-56983533D01*
X187424388Y-56966909D01*
X187423887Y-56966358D01*
X187361737Y-56917275D01*
X187246177Y-56826011D01*
X187246172Y-56826008D01*
X187242123Y-56822810D01*
X187237607Y-56820317D01*
X187237604Y-56820315D01*
X187043879Y-56713373D01*
X187043875Y-56713371D01*
X187039355Y-56710876D01*
X187034486Y-56709152D01*
X187034482Y-56709150D01*
X186825903Y-56635288D01*
X186825899Y-56635287D01*
X186821028Y-56633562D01*
X186815935Y-56632655D01*
X186815932Y-56632654D01*
X186598095Y-56593851D01*
X186598089Y-56593850D01*
X186593006Y-56592945D01*
X186515644Y-56592000D01*
X186366581Y-56590179D01*
X186366579Y-56590179D01*
X186361411Y-56590116D01*
X186132464Y-56625150D01*
X185912314Y-56697106D01*
X185907726Y-56699494D01*
X185907722Y-56699496D01*
X185775013Y-56768580D01*
X185706872Y-56804052D01*
X185702739Y-56807155D01*
X185702736Y-56807157D01*
X185583587Y-56896617D01*
X185521655Y-56943117D01*
X185361639Y-57110564D01*
X185231119Y-57301899D01*
X185133602Y-57511981D01*
X185071707Y-57735169D01*
X185047095Y-57965469D01*
X180120477Y-57965469D01*
X180103543Y-57771913D01*
X180095028Y-57740135D01*
X180045707Y-57556067D01*
X180045706Y-57556065D01*
X180044284Y-57550757D01*
X180008050Y-57473052D01*
X179949849Y-57348238D01*
X179949846Y-57348233D01*
X179947523Y-57343251D01*
X179874098Y-57238389D01*
X179819357Y-57160211D01*
X179819355Y-57160208D01*
X179816198Y-57155700D01*
X179654300Y-56993802D01*
X179649792Y-56990645D01*
X179649789Y-56990643D01*
X179545008Y-56917275D01*
X179466749Y-56862477D01*
X179461767Y-56860154D01*
X179461762Y-56860151D01*
X179264225Y-56768039D01*
X179264224Y-56768039D01*
X179259243Y-56765716D01*
X179253935Y-56764294D01*
X179253933Y-56764293D01*
X179043402Y-56707881D01*
X179043400Y-56707881D01*
X179038087Y-56706457D01*
X178810000Y-56686502D01*
X178581913Y-56706457D01*
X178576600Y-56707881D01*
X178576598Y-56707881D01*
X178366067Y-56764293D01*
X178366065Y-56764294D01*
X178360757Y-56765716D01*
X178355776Y-56768039D01*
X178355775Y-56768039D01*
X178158238Y-56860151D01*
X178158233Y-56860154D01*
X178153251Y-56862477D01*
X178074992Y-56917275D01*
X177970211Y-56990643D01*
X177970208Y-56990645D01*
X177965700Y-56993802D01*
X177803802Y-57155700D01*
X177800645Y-57160208D01*
X177800643Y-57160211D01*
X177745902Y-57238389D01*
X177672477Y-57343251D01*
X177670154Y-57348233D01*
X177670151Y-57348238D01*
X177611950Y-57473052D01*
X177575716Y-57550757D01*
X177574294Y-57556065D01*
X177574293Y-57556067D01*
X177524972Y-57740135D01*
X177516457Y-57771913D01*
X177496502Y-58000000D01*
X172503498Y-58000000D01*
X172483543Y-57771913D01*
X172475028Y-57740135D01*
X172425707Y-57556067D01*
X172425706Y-57556065D01*
X172424284Y-57550757D01*
X172388050Y-57473052D01*
X172329849Y-57348238D01*
X172329846Y-57348233D01*
X172327523Y-57343251D01*
X172254098Y-57238389D01*
X172199357Y-57160211D01*
X172199355Y-57160208D01*
X172196198Y-57155700D01*
X172034300Y-56993802D01*
X172029792Y-56990645D01*
X172029789Y-56990643D01*
X171877229Y-56883819D01*
X171832901Y-56828362D01*
X171823500Y-56780606D01*
X171823500Y-48219394D01*
X171843502Y-48151273D01*
X171877229Y-48116181D01*
X172029789Y-48009357D01*
X172029792Y-48009355D01*
X172034300Y-48006198D01*
X172196198Y-47844300D01*
X172205989Y-47830318D01*
X172324366Y-47661257D01*
X172327523Y-47656749D01*
X172329846Y-47651767D01*
X172329849Y-47651762D01*
X172421961Y-47454225D01*
X172421961Y-47454224D01*
X172424284Y-47449243D01*
X172430130Y-47427428D01*
X172482119Y-47233402D01*
X172482119Y-47233400D01*
X172483543Y-47228087D01*
X172503498Y-47000000D01*
X177496502Y-47000000D01*
X177516457Y-47228087D01*
X177517881Y-47233400D01*
X177517881Y-47233402D01*
X177569871Y-47427428D01*
X177575716Y-47449243D01*
X177578039Y-47454224D01*
X177578039Y-47454225D01*
X177670151Y-47651762D01*
X177670154Y-47651767D01*
X177672477Y-47656749D01*
X177675634Y-47661257D01*
X177794012Y-47830318D01*
X177803802Y-47844300D01*
X177965700Y-48006198D01*
X177970208Y-48009355D01*
X177970211Y-48009357D01*
X177970821Y-48009784D01*
X178153251Y-48137523D01*
X178158233Y-48139846D01*
X178158238Y-48139849D01*
X178317238Y-48213991D01*
X178360757Y-48234284D01*
X178366065Y-48235706D01*
X178366067Y-48235707D01*
X178576598Y-48292119D01*
X178576600Y-48292119D01*
X178581913Y-48293543D01*
X178810000Y-48313498D01*
X179038087Y-48293543D01*
X179043400Y-48292119D01*
X179043402Y-48292119D01*
X179253933Y-48235707D01*
X179253935Y-48235706D01*
X179259243Y-48234284D01*
X179302762Y-48213991D01*
X179461762Y-48139849D01*
X179461767Y-48139846D01*
X179466749Y-48137523D01*
X179649179Y-48009784D01*
X179649789Y-48009357D01*
X179649792Y-48009355D01*
X179654300Y-48006198D01*
X179816198Y-47844300D01*
X179825989Y-47830318D01*
X179944366Y-47661257D01*
X179947523Y-47656749D01*
X179949846Y-47651767D01*
X179949849Y-47651762D01*
X180041961Y-47454225D01*
X180041961Y-47454224D01*
X180044284Y-47449243D01*
X180050130Y-47427428D01*
X180102119Y-47233402D01*
X180102119Y-47233400D01*
X180103543Y-47228087D01*
X180123498Y-47000000D01*
X180120477Y-46965469D01*
X185047095Y-46965469D01*
X185047392Y-46970622D01*
X185047392Y-46970625D01*
X185053067Y-47069041D01*
X185060427Y-47196697D01*
X185061564Y-47201743D01*
X185061565Y-47201749D01*
X185076394Y-47267548D01*
X185111346Y-47422642D01*
X185113288Y-47427424D01*
X185113289Y-47427428D01*
X185196540Y-47632450D01*
X185198484Y-47637237D01*
X185319501Y-47834719D01*
X185471147Y-48009784D01*
X185649349Y-48157730D01*
X185849322Y-48274584D01*
X186065694Y-48357209D01*
X186070760Y-48358240D01*
X186070761Y-48358240D01*
X186123846Y-48369040D01*
X186292656Y-48403385D01*
X186423324Y-48408176D01*
X186518949Y-48411683D01*
X186518953Y-48411683D01*
X186524113Y-48411872D01*
X186529233Y-48411216D01*
X186529235Y-48411216D01*
X186628668Y-48398478D01*
X186753847Y-48382442D01*
X186758795Y-48380957D01*
X186758802Y-48380956D01*
X186970747Y-48317369D01*
X186975690Y-48315886D01*
X186980565Y-48313498D01*
X187179049Y-48216262D01*
X187179052Y-48216260D01*
X187183684Y-48213991D01*
X187372243Y-48079494D01*
X187375898Y-48075852D01*
X187375906Y-48075845D01*
X187417697Y-48034199D01*
X187480068Y-48000282D01*
X187550875Y-48005470D01*
X187607637Y-48048116D01*
X187624619Y-48079218D01*
X187646677Y-48138056D01*
X187655214Y-48153649D01*
X187731715Y-48255724D01*
X187744276Y-48268285D01*
X187846351Y-48344786D01*
X187861946Y-48353324D01*
X187982394Y-48398478D01*
X187997649Y-48402105D01*
X188048514Y-48407631D01*
X188055328Y-48408000D01*
X188727885Y-48408000D01*
X188743124Y-48403525D01*
X188744329Y-48402135D01*
X188746000Y-48394452D01*
X188746000Y-48389884D01*
X189254000Y-48389884D01*
X189258475Y-48405123D01*
X189259865Y-48406328D01*
X189267548Y-48407999D01*
X189944669Y-48407999D01*
X189951490Y-48407629D01*
X190002352Y-48402105D01*
X190017604Y-48398479D01*
X190138054Y-48353324D01*
X190153649Y-48344786D01*
X190255724Y-48268285D01*
X190268285Y-48255724D01*
X190344786Y-48153649D01*
X190353324Y-48138054D01*
X190398478Y-48017606D01*
X190402105Y-48002351D01*
X190407631Y-47951486D01*
X190408000Y-47944672D01*
X190408000Y-47272115D01*
X190403525Y-47256876D01*
X190402135Y-47255671D01*
X190394452Y-47254000D01*
X189272115Y-47254000D01*
X189256876Y-47258475D01*
X189255671Y-47259865D01*
X189254000Y-47267548D01*
X189254000Y-48389884D01*
X188746000Y-48389884D01*
X188746000Y-46727885D01*
X189254000Y-46727885D01*
X189258475Y-46743124D01*
X189259865Y-46744329D01*
X189267548Y-46746000D01*
X190389884Y-46746000D01*
X190405123Y-46741525D01*
X190406328Y-46740135D01*
X190407999Y-46732452D01*
X190407999Y-46055331D01*
X190407629Y-46048510D01*
X190402105Y-45997648D01*
X190398479Y-45982396D01*
X190353324Y-45861946D01*
X190344786Y-45846351D01*
X190268285Y-45744276D01*
X190255724Y-45731715D01*
X190153649Y-45655214D01*
X190138054Y-45646676D01*
X190017606Y-45601522D01*
X190002351Y-45597895D01*
X189951486Y-45592369D01*
X189944672Y-45592000D01*
X189272115Y-45592000D01*
X189256876Y-45596475D01*
X189255671Y-45597865D01*
X189254000Y-45605548D01*
X189254000Y-46727885D01*
X188746000Y-46727885D01*
X188746000Y-45610116D01*
X188741525Y-45594877D01*
X188740135Y-45593672D01*
X188732452Y-45592001D01*
X188055331Y-45592001D01*
X188048510Y-45592371D01*
X187997648Y-45597895D01*
X187982396Y-45601521D01*
X187861946Y-45646676D01*
X187846351Y-45655214D01*
X187744276Y-45731715D01*
X187731715Y-45744276D01*
X187655214Y-45846351D01*
X187646675Y-45861948D01*
X187625934Y-45917275D01*
X187583293Y-45974040D01*
X187516731Y-45998740D01*
X187447383Y-45983533D01*
X187424388Y-45966909D01*
X187423887Y-45966358D01*
X187296348Y-45865634D01*
X187246177Y-45826011D01*
X187246172Y-45826008D01*
X187242123Y-45822810D01*
X187237607Y-45820317D01*
X187237604Y-45820315D01*
X187043879Y-45713373D01*
X187043875Y-45713371D01*
X187039355Y-45710876D01*
X187034486Y-45709152D01*
X187034482Y-45709150D01*
X186825903Y-45635288D01*
X186825899Y-45635287D01*
X186821028Y-45633562D01*
X186815935Y-45632655D01*
X186815932Y-45632654D01*
X186598095Y-45593851D01*
X186598089Y-45593850D01*
X186593006Y-45592945D01*
X186515644Y-45592000D01*
X186366581Y-45590179D01*
X186366579Y-45590179D01*
X186361411Y-45590116D01*
X186132464Y-45625150D01*
X185912314Y-45697106D01*
X185907726Y-45699494D01*
X185907722Y-45699496D01*
X185711461Y-45801663D01*
X185706872Y-45804052D01*
X185702739Y-45807155D01*
X185702736Y-45807157D01*
X185556073Y-45917275D01*
X185521655Y-45943117D01*
X185361639Y-46110564D01*
X185231119Y-46301899D01*
X185133602Y-46511981D01*
X185071707Y-46735169D01*
X185047095Y-46965469D01*
X180120477Y-46965469D01*
X180103543Y-46771913D01*
X180095028Y-46740135D01*
X180045707Y-46556067D01*
X180045706Y-46556065D01*
X180044284Y-46550757D01*
X180024020Y-46507301D01*
X179949849Y-46348238D01*
X179949846Y-46348233D01*
X179947523Y-46343251D01*
X179816198Y-46155700D01*
X179654300Y-45993802D01*
X179649792Y-45990645D01*
X179649789Y-45990643D01*
X179545008Y-45917275D01*
X179466749Y-45862477D01*
X179461767Y-45860154D01*
X179461762Y-45860151D01*
X179264225Y-45768039D01*
X179264224Y-45768039D01*
X179259243Y-45765716D01*
X179253935Y-45764294D01*
X179253933Y-45764293D01*
X179043402Y-45707881D01*
X179043400Y-45707881D01*
X179038087Y-45706457D01*
X178810000Y-45686502D01*
X178581913Y-45706457D01*
X178576600Y-45707881D01*
X178576598Y-45707881D01*
X178366067Y-45764293D01*
X178366065Y-45764294D01*
X178360757Y-45765716D01*
X178355776Y-45768039D01*
X178355775Y-45768039D01*
X178158238Y-45860151D01*
X178158233Y-45860154D01*
X178153251Y-45862477D01*
X178074992Y-45917275D01*
X177970211Y-45990643D01*
X177970208Y-45990645D01*
X177965700Y-45993802D01*
X177803802Y-46155700D01*
X177672477Y-46343251D01*
X177670154Y-46348233D01*
X177670151Y-46348238D01*
X177595980Y-46507301D01*
X177575716Y-46550757D01*
X177574294Y-46556065D01*
X177574293Y-46556067D01*
X177524972Y-46740135D01*
X177516457Y-46771913D01*
X177496502Y-47000000D01*
X172503498Y-47000000D01*
X172483543Y-46771913D01*
X172475028Y-46740135D01*
X172425707Y-46556067D01*
X172425706Y-46556065D01*
X172424284Y-46550757D01*
X172404020Y-46507301D01*
X172329849Y-46348238D01*
X172329846Y-46348233D01*
X172327523Y-46343251D01*
X172196198Y-46155700D01*
X172034300Y-45993802D01*
X172029792Y-45990645D01*
X172029789Y-45990643D01*
X171925008Y-45917275D01*
X171846749Y-45862477D01*
X171841767Y-45860154D01*
X171841762Y-45860151D01*
X171644225Y-45768039D01*
X171644224Y-45768039D01*
X171639243Y-45765716D01*
X171633935Y-45764294D01*
X171633933Y-45764293D01*
X171423402Y-45707881D01*
X171423400Y-45707881D01*
X171418087Y-45706457D01*
X171190000Y-45686502D01*
X170961913Y-45706457D01*
X170956600Y-45707881D01*
X170956598Y-45707881D01*
X170746067Y-45764293D01*
X170746065Y-45764294D01*
X170740757Y-45765716D01*
X170735776Y-45768039D01*
X170735775Y-45768039D01*
X170538238Y-45860151D01*
X170538233Y-45860154D01*
X170533251Y-45862477D01*
X170454992Y-45917275D01*
X170350211Y-45990643D01*
X170350208Y-45990645D01*
X170345700Y-45993802D01*
X170183802Y-46155700D01*
X170052477Y-46343251D01*
X170050154Y-46348233D01*
X170050151Y-46348238D01*
X169975980Y-46507301D01*
X169955716Y-46550757D01*
X169954294Y-46556065D01*
X169954293Y-46556067D01*
X169904972Y-46740135D01*
X169896457Y-46771913D01*
X169876502Y-47000000D01*
X169896457Y-47228087D01*
X169897881Y-47233400D01*
X169897881Y-47233402D01*
X169949871Y-47427428D01*
X169955716Y-47449243D01*
X169958039Y-47454224D01*
X169958039Y-47454225D01*
X170050151Y-47651762D01*
X170050154Y-47651767D01*
X170052477Y-47656749D01*
X170055634Y-47661257D01*
X170174012Y-47830318D01*
X170183802Y-47844300D01*
X170345700Y-48006198D01*
X170350208Y-48009355D01*
X170350211Y-48009357D01*
X170502771Y-48116181D01*
X170547099Y-48171638D01*
X170556500Y-48219394D01*
X170556500Y-56780606D01*
X170536498Y-56848727D01*
X170502771Y-56883819D01*
X170350211Y-56990643D01*
X170350208Y-56990645D01*
X170345700Y-56993802D01*
X170183802Y-57155700D01*
X170180645Y-57160208D01*
X170180643Y-57160211D01*
X170125902Y-57238389D01*
X170052477Y-57343251D01*
X170050154Y-57348233D01*
X170050151Y-57348238D01*
X169991950Y-57473052D01*
X169955716Y-57550757D01*
X169954294Y-57556065D01*
X169954293Y-57556067D01*
X169904972Y-57740135D01*
X169896457Y-57771913D01*
X169876502Y-58000000D01*
X169896457Y-58228087D01*
X169897881Y-58233400D01*
X169897881Y-58233402D01*
X169949871Y-58427428D01*
X169955716Y-58449243D01*
X169958039Y-58454224D01*
X169958039Y-58454225D01*
X170050151Y-58651762D01*
X170050154Y-58651767D01*
X170052477Y-58656749D01*
X170055634Y-58661257D01*
X170174012Y-58830318D01*
X170183802Y-58844300D01*
X170345700Y-59006198D01*
X170350208Y-59009355D01*
X170350211Y-59009357D01*
X170502771Y-59116181D01*
X170547099Y-59171638D01*
X170556500Y-59219394D01*
X170556500Y-67780606D01*
X170536498Y-67848727D01*
X170502771Y-67883819D01*
X170350211Y-67990643D01*
X170350208Y-67990645D01*
X170345700Y-67993802D01*
X170183802Y-68155700D01*
X170052477Y-68343251D01*
X170050154Y-68348233D01*
X170050151Y-68348238D01*
X169975980Y-68507301D01*
X169955716Y-68550757D01*
X169954294Y-68556065D01*
X169954293Y-68556067D01*
X169904972Y-68740135D01*
X169896457Y-68771913D01*
X169876502Y-69000000D01*
X140508500Y-69000000D01*
X140508500Y-59650400D01*
X145566500Y-59650400D01*
X145577474Y-59756166D01*
X145633450Y-59923946D01*
X145726522Y-60074348D01*
X145851697Y-60199305D01*
X145857927Y-60203145D01*
X145857928Y-60203146D01*
X145995090Y-60287694D01*
X146002262Y-60292115D01*
X146082005Y-60318564D01*
X146163611Y-60345632D01*
X146163613Y-60345632D01*
X146170139Y-60347797D01*
X146176975Y-60348497D01*
X146176978Y-60348498D01*
X146220031Y-60352909D01*
X146274600Y-60358500D01*
X147725400Y-60358500D01*
X147728646Y-60358163D01*
X147728650Y-60358163D01*
X147824308Y-60348238D01*
X147824312Y-60348237D01*
X147831166Y-60347526D01*
X147837702Y-60345345D01*
X147837704Y-60345345D01*
X147969806Y-60301272D01*
X147998946Y-60291550D01*
X148149348Y-60198478D01*
X148274305Y-60073303D01*
X148367115Y-59922738D01*
X148422797Y-59754861D01*
X148433500Y-59650400D01*
X148433500Y-58349600D01*
X148428216Y-58298671D01*
X148423238Y-58250692D01*
X148423237Y-58250688D01*
X148422526Y-58243834D01*
X148417273Y-58228087D01*
X148368868Y-58083002D01*
X148366550Y-58076054D01*
X148273478Y-57925652D01*
X148148303Y-57800695D01*
X148002220Y-57710647D01*
X147954727Y-57657876D01*
X147943303Y-57587804D01*
X147971577Y-57522680D01*
X147981364Y-57512218D01*
X148091906Y-57406766D01*
X148098941Y-57398814D01*
X148230141Y-57222475D01*
X148235745Y-57213438D01*
X148335357Y-57017516D01*
X148339357Y-57007665D01*
X148404534Y-56797760D01*
X148406817Y-56787376D01*
X148408861Y-56771957D01*
X148406665Y-56757793D01*
X148393478Y-56754000D01*
X145608808Y-56754000D01*
X145595277Y-56757973D01*
X145593752Y-56768580D01*
X145618477Y-56886421D01*
X145621537Y-56896617D01*
X145702263Y-57101029D01*
X145706994Y-57110561D01*
X145821016Y-57298462D01*
X145827280Y-57307052D01*
X145971327Y-57473052D01*
X145978956Y-57480470D01*
X146010569Y-57506391D01*
X146050564Y-57565051D01*
X146052496Y-57636021D01*
X146015752Y-57696770D01*
X145996983Y-57710969D01*
X145850652Y-57801522D01*
X145725695Y-57926697D01*
X145721855Y-57932927D01*
X145721854Y-57932928D01*
X145637953Y-58069041D01*
X145632885Y-58077262D01*
X145630581Y-58084209D01*
X145594985Y-58191529D01*
X145577203Y-58245139D01*
X145576503Y-58251975D01*
X145576502Y-58251978D01*
X145575694Y-58259865D01*
X145566500Y-58349600D01*
X145566500Y-59650400D01*
X140508500Y-59650400D01*
X140508500Y-56228043D01*
X145591139Y-56228043D01*
X145593335Y-56242207D01*
X145606522Y-56246000D01*
X146727885Y-56246000D01*
X146743124Y-56241525D01*
X146744329Y-56240135D01*
X146746000Y-56232452D01*
X146746000Y-56227885D01*
X147254000Y-56227885D01*
X147258475Y-56243124D01*
X147259865Y-56244329D01*
X147267548Y-56246000D01*
X148391192Y-56246000D01*
X148404723Y-56242027D01*
X148406248Y-56231420D01*
X148381523Y-56113579D01*
X148378463Y-56103383D01*
X148297737Y-55898971D01*
X148293006Y-55889439D01*
X148178984Y-55701538D01*
X148172720Y-55692948D01*
X148028673Y-55526948D01*
X148021042Y-55519528D01*
X147851089Y-55380174D01*
X147842322Y-55374150D01*
X147651318Y-55265424D01*
X147641654Y-55260959D01*
X147435059Y-55185969D01*
X147424792Y-55183198D01*
X147271826Y-55155537D01*
X147258587Y-55156955D01*
X147254000Y-55171594D01*
X147254000Y-56227885D01*
X146746000Y-56227885D01*
X146746000Y-55170393D01*
X146741690Y-55155715D01*
X146729807Y-55153652D01*
X146700676Y-55156124D01*
X146690202Y-55157915D01*
X146477465Y-55213130D01*
X146467425Y-55216665D01*
X146267030Y-55306937D01*
X146257744Y-55312106D01*
X146075425Y-55434850D01*
X146067130Y-55441519D01*
X145908100Y-55593228D01*
X145901059Y-55601186D01*
X145769859Y-55777525D01*
X145764255Y-55786562D01*
X145664643Y-55982484D01*
X145660643Y-55992335D01*
X145595466Y-56202240D01*
X145593183Y-56212624D01*
X145591139Y-56228043D01*
X140508500Y-56228043D01*
X140508500Y-38634500D01*
X140528502Y-38566379D01*
X140582158Y-38519886D01*
X140634500Y-38508500D01*
X199365500Y-38508500D01*
X199433621Y-38528502D01*
G37*
%TD.AperFunction*%
%TD*%
M02*
