%TF.GenerationSoftware,KiCad,Pcbnew,(6.0.7)*%
%TF.CreationDate,2022-08-16T13:57:52+09:00*%
%TF.ProjectId,kicad_demo,6b696361-645f-4646-956d-6f2e6b696361,rev?*%
%TF.SameCoordinates,Original*%
%TF.FileFunction,Legend,Top*%
%TF.FilePolarity,Positive*%
%FSLAX46Y46*%
G04 Gerber Fmt 4.6, Leading zero omitted, Abs format (unit mm)*
G04 Created by KiCad (PCBNEW (6.0.7)) date 2022-08-16 13:57:52*
%MOMM*%
%LPD*%
G01*
G04 APERTURE LIST*
%ADD10C,0.150000*%
%ADD11C,0.120000*%
G04 APERTURE END LIST*
D10*
%TO.C,R3*%
X172623333Y-49972380D02*
X172290000Y-49496190D01*
X172051904Y-49972380D02*
X172051904Y-48972380D01*
X172432857Y-48972380D01*
X172528095Y-49020000D01*
X172575714Y-49067619D01*
X172623333Y-49162857D01*
X172623333Y-49305714D01*
X172575714Y-49400952D01*
X172528095Y-49448571D01*
X172432857Y-49496190D01*
X172051904Y-49496190D01*
X172956666Y-48972380D02*
X173575714Y-48972380D01*
X173242380Y-49353333D01*
X173385238Y-49353333D01*
X173480476Y-49400952D01*
X173528095Y-49448571D01*
X173575714Y-49543809D01*
X173575714Y-49781904D01*
X173528095Y-49877142D01*
X173480476Y-49924761D01*
X173385238Y-49972380D01*
X173099523Y-49972380D01*
X173004285Y-49924761D01*
X172956666Y-49877142D01*
%TO.C,R2*%
X172483333Y-71982380D02*
X172150000Y-71506190D01*
X171911904Y-71982380D02*
X171911904Y-70982380D01*
X172292857Y-70982380D01*
X172388095Y-71030000D01*
X172435714Y-71077619D01*
X172483333Y-71172857D01*
X172483333Y-71315714D01*
X172435714Y-71410952D01*
X172388095Y-71458571D01*
X172292857Y-71506190D01*
X171911904Y-71506190D01*
X172864285Y-71077619D02*
X172911904Y-71030000D01*
X173007142Y-70982380D01*
X173245238Y-70982380D01*
X173340476Y-71030000D01*
X173388095Y-71077619D01*
X173435714Y-71172857D01*
X173435714Y-71268095D01*
X173388095Y-71410952D01*
X172816666Y-71982380D01*
X173435714Y-71982380D01*
%TO.C,R1*%
X172673333Y-60702380D02*
X172340000Y-60226190D01*
X172101904Y-60702380D02*
X172101904Y-59702380D01*
X172482857Y-59702380D01*
X172578095Y-59750000D01*
X172625714Y-59797619D01*
X172673333Y-59892857D01*
X172673333Y-60035714D01*
X172625714Y-60130952D01*
X172578095Y-60178571D01*
X172482857Y-60226190D01*
X172101904Y-60226190D01*
X173625714Y-60702380D02*
X173054285Y-60702380D01*
X173340000Y-60702380D02*
X173340000Y-59702380D01*
X173244761Y-59845238D01*
X173149523Y-59940476D01*
X173054285Y-59988095D01*
%TO.C,J1*%
X142152380Y-58083333D02*
X142866666Y-58083333D01*
X143009523Y-58130952D01*
X143104761Y-58226190D01*
X143152380Y-58369047D01*
X143152380Y-58464285D01*
X143152380Y-57083333D02*
X143152380Y-57654761D01*
X143152380Y-57369047D02*
X142152380Y-57369047D01*
X142295238Y-57464285D01*
X142390476Y-57559523D01*
X142438095Y-57654761D01*
%TO.C,D3*%
X186991904Y-51412380D02*
X186991904Y-50412380D01*
X187230000Y-50412380D01*
X187372857Y-50460000D01*
X187468095Y-50555238D01*
X187515714Y-50650476D01*
X187563333Y-50840952D01*
X187563333Y-50983809D01*
X187515714Y-51174285D01*
X187468095Y-51269523D01*
X187372857Y-51364761D01*
X187230000Y-51412380D01*
X186991904Y-51412380D01*
X187896666Y-50412380D02*
X188515714Y-50412380D01*
X188182380Y-50793333D01*
X188325238Y-50793333D01*
X188420476Y-50840952D01*
X188468095Y-50888571D01*
X188515714Y-50983809D01*
X188515714Y-51221904D01*
X188468095Y-51317142D01*
X188420476Y-51364761D01*
X188325238Y-51412380D01*
X188039523Y-51412380D01*
X187944285Y-51364761D01*
X187896666Y-51317142D01*
%TO.C,D2*%
X186991904Y-73412380D02*
X186991904Y-72412380D01*
X187230000Y-72412380D01*
X187372857Y-72460000D01*
X187468095Y-72555238D01*
X187515714Y-72650476D01*
X187563333Y-72840952D01*
X187563333Y-72983809D01*
X187515714Y-73174285D01*
X187468095Y-73269523D01*
X187372857Y-73364761D01*
X187230000Y-73412380D01*
X186991904Y-73412380D01*
X187944285Y-72507619D02*
X187991904Y-72460000D01*
X188087142Y-72412380D01*
X188325238Y-72412380D01*
X188420476Y-72460000D01*
X188468095Y-72507619D01*
X188515714Y-72602857D01*
X188515714Y-72698095D01*
X188468095Y-72840952D01*
X187896666Y-73412380D01*
X188515714Y-73412380D01*
%TO.C,D1*%
X186991904Y-62412380D02*
X186991904Y-61412380D01*
X187230000Y-61412380D01*
X187372857Y-61460000D01*
X187468095Y-61555238D01*
X187515714Y-61650476D01*
X187563333Y-61840952D01*
X187563333Y-61983809D01*
X187515714Y-62174285D01*
X187468095Y-62269523D01*
X187372857Y-62364761D01*
X187230000Y-62412380D01*
X186991904Y-62412380D01*
X188515714Y-62412380D02*
X187944285Y-62412380D01*
X188230000Y-62412380D02*
X188230000Y-61412380D01*
X188134761Y-61555238D01*
X188039523Y-61650476D01*
X187944285Y-61698095D01*
D11*
%TO.C,R3*%
X171730000Y-45630000D02*
X171730000Y-45960000D01*
X178270000Y-48370000D02*
X171730000Y-48370000D01*
X178270000Y-45630000D02*
X171730000Y-45630000D01*
X178270000Y-45960000D02*
X178270000Y-45630000D01*
X178270000Y-48040000D02*
X178270000Y-48370000D01*
X171730000Y-48370000D02*
X171730000Y-48040000D01*
%TO.C,R2*%
X171730000Y-67630000D02*
X171730000Y-67960000D01*
X178270000Y-70370000D02*
X171730000Y-70370000D01*
X178270000Y-67630000D02*
X171730000Y-67630000D01*
X178270000Y-67960000D02*
X178270000Y-67630000D01*
X178270000Y-70040000D02*
X178270000Y-70370000D01*
X171730000Y-70370000D02*
X171730000Y-70040000D01*
%TO.C,R1*%
X178270000Y-59370000D02*
X178270000Y-59040000D01*
X171730000Y-56630000D02*
X178270000Y-56630000D01*
X171730000Y-59370000D02*
X178270000Y-59370000D01*
X171730000Y-59040000D02*
X171730000Y-59370000D01*
X171730000Y-56960000D02*
X171730000Y-56630000D01*
X178270000Y-56630000D02*
X178270000Y-56960000D01*
%TO.C,J1*%
X148910000Y-54940000D02*
X147910000Y-53940000D01*
X148910000Y-61560000D02*
X148910000Y-54940000D01*
X147910000Y-53940000D02*
X143790000Y-53940000D01*
X143790000Y-53940000D02*
X143790000Y-61560000D01*
X146800000Y-61860000D02*
X149210000Y-61860000D01*
X149210000Y-61860000D02*
X149210000Y-59450000D01*
X143790000Y-61560000D02*
X148910000Y-61560000D01*
%TO.C,D3*%
X190290000Y-48545000D02*
X190290000Y-45455000D01*
X190290000Y-45455170D02*
G75*
G03*
X184740000Y-47000462I-2560000J-1544830D01*
G01*
X184740000Y-46999538D02*
G75*
G03*
X190290000Y-48544830I2990000J-462D01*
G01*
X190230000Y-47000000D02*
G75*
G03*
X190230000Y-47000000I-2500000J0D01*
G01*
%TO.C,D2*%
X190290000Y-70545000D02*
X190290000Y-67455000D01*
X190290000Y-67455170D02*
G75*
G03*
X184740000Y-69000462I-2560000J-1544830D01*
G01*
X184740000Y-68999538D02*
G75*
G03*
X190290000Y-70544830I2990000J-462D01*
G01*
X190230000Y-69000000D02*
G75*
G03*
X190230000Y-69000000I-2500000J0D01*
G01*
%TO.C,D1*%
X190290000Y-59545000D02*
X190290000Y-56455000D01*
X190290000Y-56455170D02*
G75*
G03*
X184740000Y-58000462I-2560000J-1544830D01*
G01*
X184740000Y-57999538D02*
G75*
G03*
X190290000Y-59544830I2990000J-462D01*
G01*
X190230000Y-58000000D02*
G75*
G03*
X190230000Y-58000000I-2500000J0D01*
G01*
%TD*%
M02*
