%TF.GenerationSoftware,KiCad,Pcbnew,(6.0.7)*%
%TF.CreationDate,2022-08-17T10:28:51+09:00*%
%TF.ProjectId,demo_p02,64656d6f-5f70-4303-922e-6b696361645f,rev?*%
%TF.SameCoordinates,Original*%
%TF.FileFunction,Legend,Top*%
%TF.FilePolarity,Positive*%
%FSLAX46Y46*%
G04 Gerber Fmt 4.6, Leading zero omitted, Abs format (unit mm)*
G04 Created by KiCad (PCBNEW (6.0.7)) date 2022-08-17 10:28:51*
%MOMM*%
%LPD*%
G01*
G04 APERTURE LIST*
%ADD10C,0.150000*%
%ADD11C,0.120000*%
G04 APERTURE END LIST*
D10*
%TO.C,U3*%
X100838095Y-66972380D02*
X100838095Y-67781904D01*
X100885714Y-67877142D01*
X100933333Y-67924761D01*
X101028571Y-67972380D01*
X101219047Y-67972380D01*
X101314285Y-67924761D01*
X101361904Y-67877142D01*
X101409523Y-67781904D01*
X101409523Y-66972380D01*
X101790476Y-66972380D02*
X102409523Y-66972380D01*
X102076190Y-67353333D01*
X102219047Y-67353333D01*
X102314285Y-67400952D01*
X102361904Y-67448571D01*
X102409523Y-67543809D01*
X102409523Y-67781904D01*
X102361904Y-67877142D01*
X102314285Y-67924761D01*
X102219047Y-67972380D01*
X101933333Y-67972380D01*
X101838095Y-67924761D01*
X101790476Y-67877142D01*
%TO.C,U2*%
X116088095Y-66977380D02*
X116088095Y-67786904D01*
X116135714Y-67882142D01*
X116183333Y-67929761D01*
X116278571Y-67977380D01*
X116469047Y-67977380D01*
X116564285Y-67929761D01*
X116611904Y-67882142D01*
X116659523Y-67786904D01*
X116659523Y-66977380D01*
X117088095Y-67072619D02*
X117135714Y-67025000D01*
X117230952Y-66977380D01*
X117469047Y-66977380D01*
X117564285Y-67025000D01*
X117611904Y-67072619D01*
X117659523Y-67167857D01*
X117659523Y-67263095D01*
X117611904Y-67405952D01*
X117040476Y-67977380D01*
X117659523Y-67977380D01*
%TO.C,U1*%
X130048095Y-77062380D02*
X130048095Y-77871904D01*
X130095714Y-77967142D01*
X130143333Y-78014761D01*
X130238571Y-78062380D01*
X130429047Y-78062380D01*
X130524285Y-78014761D01*
X130571904Y-77967142D01*
X130619523Y-77871904D01*
X130619523Y-77062380D01*
X131619523Y-78062380D02*
X131048095Y-78062380D01*
X131333809Y-78062380D02*
X131333809Y-77062380D01*
X131238571Y-77205238D01*
X131143333Y-77300476D01*
X131048095Y-77348095D01*
D11*
%TO.C,U3*%
X98950000Y-94040000D02*
X104250000Y-94040000D01*
X104250000Y-94040000D02*
X104250000Y-68520000D01*
X104250000Y-68520000D02*
X102600000Y-68520000D01*
X100600000Y-68520000D02*
X98950000Y-68520000D01*
X98950000Y-68520000D02*
X98950000Y-94040000D01*
X100600000Y-68520000D02*
G75*
G03*
X102600000Y-68520000I1000000J0D01*
G01*
%TO.C,U2*%
X114200000Y-94045000D02*
X119500000Y-94045000D01*
X119500000Y-94045000D02*
X119500000Y-68525000D01*
X119500000Y-68525000D02*
X117850000Y-68525000D01*
X115850000Y-68525000D02*
X114200000Y-68525000D01*
X114200000Y-68525000D02*
X114200000Y-94045000D01*
X115850000Y-68525000D02*
G75*
G03*
X117850000Y-68525000I1000000J0D01*
G01*
%TO.C,U1*%
X130810000Y-81570000D02*
X130010000Y-81570000D01*
X130810000Y-78450000D02*
X131610000Y-78450000D01*
X130810000Y-81570000D02*
X131610000Y-81570000D01*
X130810000Y-78450000D02*
X129010000Y-78450000D01*
%TD*%
M02*
