%TF.GenerationSoftware,KiCad,Pcbnew,(6.0.7)*%
%TF.CreationDate,2022-08-17T10:28:51+09:00*%
%TF.ProjectId,demo_p02,64656d6f-5f70-4303-922e-6b696361645f,rev?*%
%TF.SameCoordinates,Original*%
%TF.FileFunction,Soldermask,Bot*%
%TF.FilePolarity,Negative*%
%FSLAX46Y46*%
G04 Gerber Fmt 4.6, Leading zero omitted, Abs format (unit mm)*
G04 Created by KiCad (PCBNEW (6.0.7)) date 2022-08-17 10:28:51*
%MOMM*%
%LPD*%
G01*
G04 APERTURE LIST*
%ADD10R,1.600000X1.600000*%
%ADD11O,1.600000X1.600000*%
G04 APERTURE END LIST*
D10*
%TO.C,U3*%
X97790000Y-69850000D03*
D11*
X97790000Y-72390000D03*
X97790000Y-74930000D03*
X97790000Y-77470000D03*
X97790000Y-80010000D03*
X97790000Y-82550000D03*
X97790000Y-85090000D03*
X97790000Y-87630000D03*
X97790000Y-90170000D03*
X97790000Y-92710000D03*
X105410000Y-92710000D03*
X105410000Y-90170000D03*
X105410000Y-87630000D03*
X105410000Y-85090000D03*
X105410000Y-82550000D03*
X105410000Y-80010000D03*
X105410000Y-77470000D03*
X105410000Y-74930000D03*
X105410000Y-72390000D03*
X105410000Y-69850000D03*
%TD*%
D10*
%TO.C,U2*%
X113040000Y-69855000D03*
D11*
X113040000Y-72395000D03*
X113040000Y-74935000D03*
X113040000Y-77475000D03*
X113040000Y-80015000D03*
X113040000Y-82555000D03*
X113040000Y-85095000D03*
X113040000Y-87635000D03*
X113040000Y-90175000D03*
X113040000Y-92715000D03*
X120660000Y-92715000D03*
X120660000Y-90175000D03*
X120660000Y-87635000D03*
X120660000Y-85095000D03*
X120660000Y-82555000D03*
X120660000Y-80015000D03*
X120660000Y-77475000D03*
X120660000Y-74935000D03*
X120660000Y-72395000D03*
X120660000Y-69855000D03*
%TD*%
M02*
