M48
; DRILL file {KiCad (6.0.7)} date Wed Aug 17 10:30:17 2022
; FORMAT={-:-/ absolute / metric / decimal}
; #@! TF.CreationDate,2022-08-17T10:30:17+09:00
; #@! TF.GenerationSoftware,Kicad,Pcbnew,(6.0.7)
; #@! TF.FileFunction,Plated,1,2,PTH
FMAT,2
METRIC
; #@! TA.AperFunction,Plated,PTH,ViaDrill
T1C0.400
; #@! TA.AperFunction,Plated,PTH,ComponentDrill
T2C0.800
%
G90
G05
T1
X125.69Y-95.26
X125.79Y-80.06
T2
X97.79Y-69.85
X97.79Y-72.39
X97.79Y-74.93
X97.79Y-77.47
X97.79Y-80.01
X97.79Y-82.55
X97.79Y-85.09
X97.79Y-87.63
X97.79Y-90.17
X97.79Y-92.71
X105.41Y-69.85
X105.41Y-72.39
X105.41Y-74.93
X105.41Y-77.47
X105.41Y-80.01
X105.41Y-82.55
X105.41Y-85.09
X105.41Y-87.63
X105.41Y-90.17
X105.41Y-92.71
X113.04Y-69.855
X113.04Y-72.395
X113.04Y-74.935
X113.04Y-77.475
X113.04Y-80.015
X113.04Y-82.555
X113.04Y-85.095
X113.04Y-87.635
X113.04Y-90.175
X113.04Y-92.715
X120.66Y-69.855
X120.66Y-72.395
X120.66Y-74.935
X120.66Y-77.475
X120.66Y-80.015
X120.66Y-82.555
X120.66Y-85.095
X120.66Y-87.635
X120.66Y-90.175
X120.66Y-92.715
T0
M30
