%TF.GenerationSoftware,KiCad,Pcbnew,(6.0.7)*%
%TF.CreationDate,2022-08-31T11:28:36+09:00*%
%TF.ProjectId,LED_Dice,4c45445f-4469-4636-952e-6b696361645f,rev?*%
%TF.SameCoordinates,Original*%
%TF.FileFunction,Copper,L1,Top*%
%TF.FilePolarity,Positive*%
%FSLAX46Y46*%
G04 Gerber Fmt 4.6, Leading zero omitted, Abs format (unit mm)*
G04 Created by KiCad (PCBNEW (6.0.7)) date 2022-08-31 11:28:36*
%MOMM*%
%LPD*%
G01*
G04 APERTURE LIST*
%TA.AperFunction,ComponentPad*%
%ADD10R,1.700000X1.700000*%
%TD*%
%TA.AperFunction,ComponentPad*%
%ADD11O,1.700000X1.700000*%
%TD*%
%TA.AperFunction,ComponentPad*%
%ADD12C,2.000000*%
%TD*%
%TA.AperFunction,ComponentPad*%
%ADD13C,1.600000*%
%TD*%
%TA.AperFunction,ComponentPad*%
%ADD14O,1.600000X1.600000*%
%TD*%
%TA.AperFunction,ComponentPad*%
%ADD15C,1.800000*%
%TD*%
%TA.AperFunction,ComponentPad*%
%ADD16R,1.800000X1.800000*%
%TD*%
%TA.AperFunction,ViaPad*%
%ADD17C,0.800000*%
%TD*%
%TA.AperFunction,Conductor*%
%ADD18C,0.250000*%
%TD*%
G04 APERTURE END LIST*
D10*
%TO.P,J4,1,Pin_1*%
%TO.N,D07*%
X242570000Y-29210000D03*
D11*
%TO.P,J4,2,Pin_2*%
%TO.N,D06*%
X245110000Y-29210000D03*
%TO.P,J4,3,Pin_3*%
%TO.N,D05*%
X247650000Y-29210000D03*
%TO.P,J4,4,Pin_4*%
%TO.N,D04*%
X250190000Y-29210000D03*
%TO.P,J4,5,Pin_5*%
%TO.N,unconnected-(J4-Pad5)*%
X252730000Y-29210000D03*
%TO.P,J4,6,Pin_6*%
%TO.N,unconnected-(J4-Pad6)*%
X255270000Y-29210000D03*
%TO.P,J4,7,Pin_7*%
%TO.N,unconnected-(J4-Pad7)*%
X257810000Y-29210000D03*
%TO.P,J4,8,Pin_8*%
%TO.N,unconnected-(J4-Pad8)*%
X260350000Y-29210000D03*
%TD*%
D10*
%TO.P,J3,1,Pin_1*%
%TO.N,unconnected-(J3-Pad1)*%
X215900000Y-29210000D03*
D11*
%TO.P,J3,2,Pin_2*%
%TO.N,unconnected-(J3-Pad2)*%
X218440000Y-29210000D03*
%TO.P,J3,3,Pin_3*%
%TO.N,unconnected-(J3-Pad3)*%
X220980000Y-29210000D03*
%TO.P,J3,4,Pin_4*%
%TO.N,unconnected-(J3-Pad4)*%
X223520000Y-29210000D03*
%TO.P,J3,5,Pin_5*%
%TO.N,unconnected-(J3-Pad5)*%
X226060000Y-29210000D03*
%TO.P,J3,6,Pin_6*%
%TO.N,D12_SW2*%
X228600000Y-29210000D03*
%TO.P,J3,7,Pin_7*%
%TO.N,D11_SW1*%
X231140000Y-29210000D03*
%TO.P,J3,8,Pin_8*%
%TO.N,D10*%
X233680000Y-29210000D03*
%TO.P,J3,9,Pin_9*%
%TO.N,D09*%
X236220000Y-29210000D03*
%TO.P,J3,10,Pin_10*%
%TO.N,D08*%
X238760000Y-29210000D03*
%TD*%
D10*
%TO.P,J2,1,Pin_1*%
%TO.N,unconnected-(J2-Pad1)*%
X247650000Y-77470000D03*
D11*
%TO.P,J2,2,Pin_2*%
%TO.N,unconnected-(J2-Pad2)*%
X250190000Y-77470000D03*
%TO.P,J2,3,Pin_3*%
%TO.N,unconnected-(J2-Pad3)*%
X252730000Y-77470000D03*
%TO.P,J2,4,Pin_4*%
%TO.N,unconnected-(J2-Pad4)*%
X255270000Y-77470000D03*
%TO.P,J2,5,Pin_5*%
%TO.N,unconnected-(J2-Pad5)*%
X257810000Y-77470000D03*
%TO.P,J2,6,Pin_6*%
%TO.N,unconnected-(J2-Pad6)*%
X260350000Y-77470000D03*
%TD*%
D10*
%TO.P,J1,1,Pin_1*%
%TO.N,unconnected-(J1-Pad1)*%
X224790000Y-77470000D03*
D11*
%TO.P,J1,2,Pin_2*%
%TO.N,unconnected-(J1-Pad2)*%
X227330000Y-77470000D03*
%TO.P,J1,3,Pin_3*%
%TO.N,unconnected-(J1-Pad3)*%
X229870000Y-77470000D03*
%TO.P,J1,4,Pin_4*%
%TO.N,unconnected-(J1-Pad4)*%
X232410000Y-77470000D03*
%TO.P,J1,5,Pin_5*%
%TO.N,+5V*%
X234950000Y-77470000D03*
%TO.P,J1,6,Pin_6*%
%TO.N,GND*%
X237490000Y-77470000D03*
%TO.P,J1,7,Pin_7*%
X240030000Y-77470000D03*
%TO.P,J1,8,Pin_8*%
%TO.N,unconnected-(J1-Pad8)*%
X242570000Y-77470000D03*
%TD*%
D12*
%TO.P,SW2,1,1*%
%TO.N,GND*%
X258390000Y-56590000D03*
%TO.P,SW2,2,2*%
X258390000Y-50090000D03*
%TO.P,SW2,3,K*%
%TO.N,D12_SW2*%
X262890000Y-50090000D03*
%TO.P,SW2,4,A*%
X262890000Y-56590000D03*
%TD*%
%TO.P,SW1,1,1*%
%TO.N,GND*%
X201240000Y-56590000D03*
%TO.P,SW1,2,2*%
X201240000Y-50090000D03*
%TO.P,SW1,3,K*%
%TO.N,D11_SW1*%
X205740000Y-50090000D03*
%TO.P,SW1,4,A*%
X205740000Y-56590000D03*
%TD*%
D13*
%TO.P,R9,1*%
%TO.N,D12_SW2*%
X262890000Y-62230000D03*
D14*
%TO.P,R9,2*%
%TO.N,+5V*%
X262890000Y-69850000D03*
%TD*%
D13*
%TO.P,R8,1*%
%TO.N,D11_SW1*%
X212090000Y-40640000D03*
D14*
%TO.P,R8,2*%
%TO.N,+5V*%
X212090000Y-33020000D03*
%TD*%
D13*
%TO.P,R7,1*%
%TO.N,Net-(R7-Pad1)*%
X218440000Y-33020000D03*
D14*
%TO.P,R7,2*%
%TO.N,D10*%
X226060000Y-33020000D03*
%TD*%
D13*
%TO.P,R6,1*%
%TO.N,Net-(D6-Pad2)*%
X229870000Y-33020000D03*
D14*
%TO.P,R6,2*%
%TO.N,D09*%
X237490000Y-33020000D03*
%TD*%
D13*
%TO.P,R5,1*%
%TO.N,Net-(D5-Pad2)*%
X241300000Y-33020000D03*
D14*
%TO.P,R5,2*%
%TO.N,D08*%
X248920000Y-33020000D03*
%TD*%
D13*
%TO.P,R4,1*%
%TO.N,Net-(D4-Pad2)*%
X252730000Y-33020000D03*
D14*
%TO.P,R4,2*%
%TO.N,D07*%
X260350000Y-33020000D03*
%TD*%
D13*
%TO.P,R3,1*%
%TO.N,Net-(D3-Pad2)*%
X231140000Y-73660000D03*
D14*
%TO.P,R3,2*%
%TO.N,D06*%
X223520000Y-73660000D03*
%TD*%
D13*
%TO.P,R2,1*%
%TO.N,Net-(D2-Pad2)*%
X242570000Y-73660000D03*
D14*
%TO.P,R2,2*%
%TO.N,D05*%
X234950000Y-73660000D03*
%TD*%
D13*
%TO.P,R1,1*%
%TO.N,Net-(D1-Pad2)*%
X254000000Y-73660000D03*
D14*
%TO.P,R1,2*%
%TO.N,D04*%
X246380000Y-73660000D03*
%TD*%
D15*
%TO.P,D7,2,A*%
%TO.N,Net-(R7-Pad1)*%
X222250000Y-41910000D03*
D16*
%TO.P,D7,1,K*%
%TO.N,GND*%
X219710000Y-41910000D03*
%TD*%
%TO.P,D6,1,K*%
%TO.N,GND*%
X231140000Y-41910000D03*
D15*
%TO.P,D6,2,A*%
%TO.N,Net-(D6-Pad2)*%
X233680000Y-41910000D03*
%TD*%
D16*
%TO.P,D5,1,K*%
%TO.N,GND*%
X242570000Y-41910000D03*
D15*
%TO.P,D5,2,A*%
%TO.N,Net-(D5-Pad2)*%
X245110000Y-41910000D03*
%TD*%
D16*
%TO.P,D4,1,K*%
%TO.N,GND*%
X219710000Y-64770000D03*
D15*
%TO.P,D4,2,A*%
%TO.N,Net-(D4-Pad2)*%
X222250000Y-64770000D03*
%TD*%
D16*
%TO.P,D3,1,K*%
%TO.N,GND*%
X231140000Y-64770000D03*
D15*
%TO.P,D3,2,A*%
%TO.N,Net-(D3-Pad2)*%
X233680000Y-64770000D03*
%TD*%
D16*
%TO.P,D2,1,K*%
%TO.N,GND*%
X242570000Y-64770000D03*
D15*
%TO.P,D2,2,A*%
%TO.N,Net-(D2-Pad2)*%
X245110000Y-64770000D03*
%TD*%
D16*
%TO.P,D1,1,K*%
%TO.N,GND*%
X231140000Y-53340000D03*
D15*
%TO.P,D1,2,A*%
%TO.N,Net-(D1-Pad2)*%
X233680000Y-53340000D03*
%TD*%
D17*
%TO.N,D04*%
X250737700Y-38762300D03*
X251500000Y-36000000D03*
%TO.N,Net-(D4-Pad2)*%
X257000000Y-68500000D03*
%TD*%
D18*
%TO.N,Net-(D4-Pad2)*%
X252500000Y-33250000D02*
X252730000Y-33020000D01*
X252500000Y-38227208D02*
X252500000Y-33250000D01*
X256450000Y-42177208D02*
X252500000Y-38227208D01*
X256450000Y-67950000D02*
X256450000Y-42177208D01*
X257000000Y-68500000D02*
X256450000Y-67950000D01*
%TO.N,D04*%
X255000000Y-60000000D02*
X255000000Y-43024600D01*
X255000000Y-69500000D02*
X255000000Y-60000000D01*
X255000000Y-43024600D02*
X250737700Y-38762300D01*
X250840000Y-73660000D02*
X254500000Y-70000000D01*
X254500000Y-70000000D02*
X255000000Y-69500000D01*
X246380000Y-73660000D02*
X250840000Y-73660000D01*
X247500000Y-33227208D02*
X249636396Y-35363604D01*
X250272792Y-36000000D02*
X251500000Y-36000000D01*
X247500000Y-32500000D02*
X247500000Y-33227208D01*
X247500000Y-31900000D02*
X247500000Y-32500000D01*
X249636396Y-35363604D02*
X250272792Y-36000000D01*
X250190000Y-29210000D02*
X247500000Y-31900000D01*
%TO.N,D06*%
X256000000Y-42363604D02*
X245110000Y-31473604D01*
X256000000Y-42500000D02*
X256000000Y-42363604D01*
X245110000Y-31473604D02*
X245110000Y-29210000D01*
X256000000Y-66500000D02*
X256000000Y-42500000D01*
%TO.N,D05*%
X236290000Y-75000000D02*
X234950000Y-73660000D01*
X254500000Y-75000000D02*
X236290000Y-75000000D01*
X255500000Y-74000000D02*
X254500000Y-75000000D01*
X255500000Y-42500000D02*
X255500000Y-74000000D01*
X243935000Y-30935000D02*
X255500000Y-42500000D01*
X243935000Y-28565000D02*
X243935000Y-30935000D01*
X244500000Y-28000000D02*
X243935000Y-28565000D01*
X246440000Y-28000000D02*
X244500000Y-28000000D01*
X247650000Y-29210000D02*
X246440000Y-28000000D01*
%TO.N,D06*%
X256000000Y-74500000D02*
X256000000Y-66500000D01*
X255000000Y-75500000D02*
X256000000Y-74500000D01*
X225500000Y-75500000D02*
X255000000Y-75500000D01*
X225360000Y-75500000D02*
X225500000Y-75500000D01*
X223520000Y-73660000D02*
X225360000Y-75500000D01*
%TO.N,D10*%
X231390000Y-31500000D02*
X227580000Y-31500000D01*
X233680000Y-29210000D02*
X231390000Y-31500000D01*
X227580000Y-31500000D02*
X226060000Y-33020000D01*
%TO.N,D11_SW1*%
X210000000Y-31500000D02*
X210000000Y-38550000D01*
X213500000Y-28000000D02*
X210000000Y-31500000D01*
X210000000Y-38550000D02*
X212090000Y-40640000D01*
X231140000Y-29210000D02*
X229930000Y-28000000D01*
X229930000Y-28000000D02*
X213500000Y-28000000D01*
X212090000Y-43740000D02*
X212090000Y-40640000D01*
X205740000Y-50090000D02*
X212090000Y-43740000D01*
%TO.N,D09*%
X236220000Y-31750000D02*
X237490000Y-33020000D01*
X236220000Y-29210000D02*
X236220000Y-31750000D01*
%TO.N,D07*%
X242570000Y-27930000D02*
X243000000Y-27500000D01*
X242570000Y-29210000D02*
X242570000Y-27930000D01*
X256500000Y-28000000D02*
X256000000Y-27500000D01*
X256000000Y-27500000D02*
X243000000Y-27500000D01*
X259218630Y-33020000D02*
X256500000Y-30301370D01*
X256500000Y-30301370D02*
X256500000Y-28000000D01*
X260350000Y-33020000D02*
X259218630Y-33020000D01*
%TO.N,D08*%
X253500000Y-31500000D02*
X252000000Y-31500000D01*
X256500000Y-34500000D02*
X253500000Y-31500000D01*
X261500000Y-34500000D02*
X256500000Y-34500000D01*
X250480000Y-33020000D02*
X248920000Y-33020000D01*
X262000000Y-34000000D02*
X261500000Y-34500000D01*
X262000000Y-32500000D02*
X262000000Y-34000000D01*
X261000000Y-31500000D02*
X262000000Y-32500000D01*
X260000000Y-31500000D02*
X261000000Y-31500000D01*
X252000000Y-31500000D02*
X250480000Y-33020000D01*
X259000000Y-30500000D02*
X260000000Y-31500000D01*
X259000000Y-28000000D02*
X259000000Y-30500000D01*
X258000000Y-27000000D02*
X259000000Y-28000000D01*
X240970000Y-27000000D02*
X258000000Y-27000000D01*
X238760000Y-29210000D02*
X240970000Y-27000000D01*
%TO.N,Net-(D5-Pad2)*%
X245110000Y-41910000D02*
X245110000Y-36830000D01*
X245110000Y-36830000D02*
X241300000Y-33020000D01*
%TO.N,Net-(D6-Pad2)*%
X233680000Y-36830000D02*
X233680000Y-41910000D01*
X229870000Y-33020000D02*
X233680000Y-36830000D01*
%TO.N,Net-(R7-Pad1)*%
X222250000Y-36830000D02*
X218440000Y-33020000D01*
X222250000Y-41910000D02*
X222250000Y-36830000D01*
%TO.N,Net-(D3-Pad2)*%
X231140000Y-71360000D02*
X231140000Y-73660000D01*
X233680000Y-68820000D02*
X231140000Y-71360000D01*
X233680000Y-64770000D02*
X233680000Y-68820000D01*
%TO.N,Net-(D2-Pad2)*%
X242570000Y-70930000D02*
X242570000Y-73660000D01*
X245110000Y-68390000D02*
X242570000Y-70930000D01*
X245110000Y-64770000D02*
X245110000Y-68390000D01*
%TD*%
%TA.AperFunction,Conductor*%
%TO.N,GND*%
G36*
X240329527Y-26528502D02*
G01*
X240376020Y-26582158D01*
X240386124Y-26652432D01*
X240356630Y-26717012D01*
X240350501Y-26723595D01*
X239217345Y-27856750D01*
X239155033Y-27890776D01*
X239106154Y-27891702D01*
X238893373Y-27853800D01*
X238893367Y-27853799D01*
X238888284Y-27852894D01*
X238814452Y-27851992D01*
X238670081Y-27850228D01*
X238670079Y-27850228D01*
X238664911Y-27850165D01*
X238444091Y-27883955D01*
X238231756Y-27953357D01*
X238033607Y-28056507D01*
X238029474Y-28059610D01*
X238029471Y-28059612D01*
X237859100Y-28187530D01*
X237854965Y-28190635D01*
X237851393Y-28194373D01*
X237708284Y-28344128D01*
X237700629Y-28352138D01*
X237593201Y-28509621D01*
X237538293Y-28554621D01*
X237467768Y-28562792D01*
X237404021Y-28531538D01*
X237383324Y-28507054D01*
X237302822Y-28382617D01*
X237302820Y-28382614D01*
X237300014Y-28378277D01*
X237149670Y-28213051D01*
X237145619Y-28209852D01*
X237145615Y-28209848D01*
X236978414Y-28077800D01*
X236978410Y-28077798D01*
X236974359Y-28074598D01*
X236778789Y-27966638D01*
X236773920Y-27964914D01*
X236773916Y-27964912D01*
X236573087Y-27893795D01*
X236573083Y-27893794D01*
X236568212Y-27892069D01*
X236563119Y-27891162D01*
X236563116Y-27891161D01*
X236353373Y-27853800D01*
X236353367Y-27853799D01*
X236348284Y-27852894D01*
X236274452Y-27851992D01*
X236130081Y-27850228D01*
X236130079Y-27850228D01*
X236124911Y-27850165D01*
X235904091Y-27883955D01*
X235691756Y-27953357D01*
X235493607Y-28056507D01*
X235489474Y-28059610D01*
X235489471Y-28059612D01*
X235319100Y-28187530D01*
X235314965Y-28190635D01*
X235311393Y-28194373D01*
X235168284Y-28344128D01*
X235160629Y-28352138D01*
X235053201Y-28509621D01*
X234998293Y-28554621D01*
X234927768Y-28562792D01*
X234864021Y-28531538D01*
X234843324Y-28507054D01*
X234762822Y-28382617D01*
X234762820Y-28382614D01*
X234760014Y-28378277D01*
X234609670Y-28213051D01*
X234605619Y-28209852D01*
X234605615Y-28209848D01*
X234438414Y-28077800D01*
X234438410Y-28077798D01*
X234434359Y-28074598D01*
X234238789Y-27966638D01*
X234233920Y-27964914D01*
X234233916Y-27964912D01*
X234033087Y-27893795D01*
X234033083Y-27893794D01*
X234028212Y-27892069D01*
X234023119Y-27891162D01*
X234023116Y-27891161D01*
X233813373Y-27853800D01*
X233813367Y-27853799D01*
X233808284Y-27852894D01*
X233734452Y-27851992D01*
X233590081Y-27850228D01*
X233590079Y-27850228D01*
X233584911Y-27850165D01*
X233364091Y-27883955D01*
X233151756Y-27953357D01*
X232953607Y-28056507D01*
X232949474Y-28059610D01*
X232949471Y-28059612D01*
X232779100Y-28187530D01*
X232774965Y-28190635D01*
X232771393Y-28194373D01*
X232628284Y-28344128D01*
X232620629Y-28352138D01*
X232513201Y-28509621D01*
X232458293Y-28554621D01*
X232387768Y-28562792D01*
X232324021Y-28531538D01*
X232303324Y-28507054D01*
X232222822Y-28382617D01*
X232222820Y-28382614D01*
X232220014Y-28378277D01*
X232069670Y-28213051D01*
X232065619Y-28209852D01*
X232065615Y-28209848D01*
X231898414Y-28077800D01*
X231898410Y-28077798D01*
X231894359Y-28074598D01*
X231698789Y-27966638D01*
X231693920Y-27964914D01*
X231693916Y-27964912D01*
X231493087Y-27893795D01*
X231493083Y-27893794D01*
X231488212Y-27892069D01*
X231483119Y-27891162D01*
X231483116Y-27891161D01*
X231273373Y-27853800D01*
X231273367Y-27853799D01*
X231268284Y-27852894D01*
X231194452Y-27851992D01*
X231050081Y-27850228D01*
X231050079Y-27850228D01*
X231044911Y-27850165D01*
X230824091Y-27883955D01*
X230811532Y-27888060D01*
X230740568Y-27890210D01*
X230683294Y-27857389D01*
X230433652Y-27607747D01*
X230426112Y-27599461D01*
X230422000Y-27592982D01*
X230415953Y-27587303D01*
X230372349Y-27546357D01*
X230369507Y-27543602D01*
X230349770Y-27523865D01*
X230346573Y-27521385D01*
X230337551Y-27513680D01*
X230324116Y-27501064D01*
X230305321Y-27483414D01*
X230298375Y-27479595D01*
X230298372Y-27479593D01*
X230287566Y-27473652D01*
X230271047Y-27462801D01*
X230270583Y-27462441D01*
X230255041Y-27450386D01*
X230247772Y-27447241D01*
X230247768Y-27447238D01*
X230214463Y-27432826D01*
X230203813Y-27427609D01*
X230165060Y-27406305D01*
X230145437Y-27401267D01*
X230126734Y-27394863D01*
X230115420Y-27389967D01*
X230115419Y-27389967D01*
X230108145Y-27386819D01*
X230100322Y-27385580D01*
X230100312Y-27385577D01*
X230064476Y-27379901D01*
X230052856Y-27377495D01*
X230017711Y-27368472D01*
X230017710Y-27368472D01*
X230010030Y-27366500D01*
X229989776Y-27366500D01*
X229970065Y-27364949D01*
X229967534Y-27364548D01*
X229950057Y-27361780D01*
X229942165Y-27362526D01*
X229906039Y-27365941D01*
X229894181Y-27366500D01*
X213578763Y-27366500D01*
X213567579Y-27365973D01*
X213560091Y-27364299D01*
X213552168Y-27364548D01*
X213492033Y-27366438D01*
X213488075Y-27366500D01*
X213460144Y-27366500D01*
X213456229Y-27366995D01*
X213456225Y-27366995D01*
X213456167Y-27367003D01*
X213456138Y-27367006D01*
X213444296Y-27367939D01*
X213400110Y-27369327D01*
X213382744Y-27374372D01*
X213380658Y-27374978D01*
X213361306Y-27378986D01*
X213349068Y-27380532D01*
X213349066Y-27380533D01*
X213341203Y-27381526D01*
X213300086Y-27397806D01*
X213288885Y-27401641D01*
X213246406Y-27413982D01*
X213239587Y-27418015D01*
X213239582Y-27418017D01*
X213228971Y-27424293D01*
X213211221Y-27432990D01*
X213192383Y-27440448D01*
X213185967Y-27445109D01*
X213185966Y-27445110D01*
X213156625Y-27466428D01*
X213146701Y-27472947D01*
X213115460Y-27491422D01*
X213115455Y-27491426D01*
X213108637Y-27495458D01*
X213094313Y-27509782D01*
X213079281Y-27522621D01*
X213062893Y-27534528D01*
X213034712Y-27568593D01*
X213026722Y-27577373D01*
X209607747Y-30996348D01*
X209599461Y-31003888D01*
X209592982Y-31008000D01*
X209587557Y-31013777D01*
X209546357Y-31057651D01*
X209543602Y-31060493D01*
X209523865Y-31080230D01*
X209521385Y-31083427D01*
X209513682Y-31092447D01*
X209483414Y-31124679D01*
X209479595Y-31131625D01*
X209479593Y-31131628D01*
X209473652Y-31142434D01*
X209462801Y-31158953D01*
X209450386Y-31174959D01*
X209447241Y-31182228D01*
X209447238Y-31182232D01*
X209432826Y-31215537D01*
X209427609Y-31226187D01*
X209406305Y-31264940D01*
X209404334Y-31272615D01*
X209404334Y-31272616D01*
X209401267Y-31284562D01*
X209394863Y-31303266D01*
X209386819Y-31321855D01*
X209385580Y-31329678D01*
X209385577Y-31329688D01*
X209379901Y-31365524D01*
X209377495Y-31377144D01*
X209372565Y-31396348D01*
X209366500Y-31419970D01*
X209366500Y-31440224D01*
X209364949Y-31459934D01*
X209361780Y-31479943D01*
X209362526Y-31487835D01*
X209365941Y-31523961D01*
X209366500Y-31535819D01*
X209366500Y-38471233D01*
X209365973Y-38482416D01*
X209364298Y-38489909D01*
X209364547Y-38497835D01*
X209364547Y-38497836D01*
X209366438Y-38557986D01*
X209366500Y-38561945D01*
X209366500Y-38589856D01*
X209366997Y-38593790D01*
X209366997Y-38593791D01*
X209367005Y-38593856D01*
X209367938Y-38605693D01*
X209369327Y-38649889D01*
X209374978Y-38669339D01*
X209378987Y-38688700D01*
X209381526Y-38708797D01*
X209384445Y-38716168D01*
X209384445Y-38716170D01*
X209397804Y-38749912D01*
X209401649Y-38761142D01*
X209403893Y-38768865D01*
X209413982Y-38803593D01*
X209418015Y-38810412D01*
X209418017Y-38810417D01*
X209424293Y-38821028D01*
X209432988Y-38838776D01*
X209440448Y-38857617D01*
X209445110Y-38864033D01*
X209445110Y-38864034D01*
X209466436Y-38893387D01*
X209472952Y-38903307D01*
X209495458Y-38941362D01*
X209509779Y-38955683D01*
X209522619Y-38970716D01*
X209534528Y-38987107D01*
X209540634Y-38992158D01*
X209568605Y-39015298D01*
X209577384Y-39023288D01*
X210780848Y-40226752D01*
X210814874Y-40289064D01*
X210813459Y-40348459D01*
X210797882Y-40406591D01*
X210797881Y-40406598D01*
X210796457Y-40411913D01*
X210776502Y-40640000D01*
X210796457Y-40868087D01*
X210797881Y-40873400D01*
X210797881Y-40873402D01*
X210799698Y-40880181D01*
X210855716Y-41089243D01*
X210858039Y-41094224D01*
X210858039Y-41094225D01*
X210950151Y-41291762D01*
X210950154Y-41291767D01*
X210952477Y-41296749D01*
X210955634Y-41301257D01*
X211066468Y-41459544D01*
X211083802Y-41484300D01*
X211245700Y-41646198D01*
X211250208Y-41649355D01*
X211250211Y-41649357D01*
X211402771Y-41756181D01*
X211447099Y-41811638D01*
X211456500Y-41859394D01*
X211456500Y-43425406D01*
X211436498Y-43493527D01*
X211419595Y-43514501D01*
X206318459Y-48615636D01*
X206256147Y-48649662D01*
X206199951Y-48649060D01*
X206147104Y-48636373D01*
X205981524Y-48596620D01*
X205981518Y-48596619D01*
X205976711Y-48595465D01*
X205740000Y-48576835D01*
X205503289Y-48595465D01*
X205498482Y-48596619D01*
X205498476Y-48596620D01*
X205352609Y-48631640D01*
X205272406Y-48650895D01*
X205267835Y-48652788D01*
X205267833Y-48652789D01*
X205057611Y-48739865D01*
X205057607Y-48739867D01*
X205053037Y-48741760D01*
X205048817Y-48744346D01*
X204854798Y-48863241D01*
X204854792Y-48863245D01*
X204850584Y-48865824D01*
X204670031Y-49020031D01*
X204515824Y-49200584D01*
X204513245Y-49204792D01*
X204513241Y-49204798D01*
X204394346Y-49398817D01*
X204391760Y-49403037D01*
X204389867Y-49407607D01*
X204389865Y-49407611D01*
X204302789Y-49617833D01*
X204300895Y-49622406D01*
X204245465Y-49853289D01*
X204226835Y-50090000D01*
X204245465Y-50326711D01*
X204300895Y-50557594D01*
X204302788Y-50562165D01*
X204302789Y-50562167D01*
X204389772Y-50772163D01*
X204391760Y-50776963D01*
X204394346Y-50781183D01*
X204513241Y-50975202D01*
X204513245Y-50975208D01*
X204515824Y-50979416D01*
X204670031Y-51159969D01*
X204850584Y-51314176D01*
X204854792Y-51316755D01*
X204854798Y-51316759D01*
X205048084Y-51435205D01*
X205053037Y-51438240D01*
X205057607Y-51440133D01*
X205057611Y-51440135D01*
X205267833Y-51527211D01*
X205272406Y-51529105D01*
X205352609Y-51548360D01*
X205498476Y-51583380D01*
X205498482Y-51583381D01*
X205503289Y-51584535D01*
X205740000Y-51603165D01*
X205976711Y-51584535D01*
X205981518Y-51583381D01*
X205981524Y-51583380D01*
X206127391Y-51548360D01*
X206207594Y-51529105D01*
X206212167Y-51527211D01*
X206422389Y-51440135D01*
X206422393Y-51440133D01*
X206426963Y-51438240D01*
X206431916Y-51435205D01*
X206625202Y-51316759D01*
X206625208Y-51316755D01*
X206629416Y-51314176D01*
X206809969Y-51159969D01*
X206964176Y-50979416D01*
X206966755Y-50975208D01*
X206966759Y-50975202D01*
X207085654Y-50781183D01*
X207088240Y-50776963D01*
X207090229Y-50772163D01*
X207177211Y-50562167D01*
X207177212Y-50562165D01*
X207179105Y-50557594D01*
X207234535Y-50326711D01*
X207253165Y-50090000D01*
X207234535Y-49853289D01*
X207203847Y-49725461D01*
X207180940Y-49630049D01*
X207184487Y-49559141D01*
X207214364Y-49511540D01*
X212482253Y-44243652D01*
X212490539Y-44236112D01*
X212497018Y-44232000D01*
X212543644Y-44182348D01*
X212546398Y-44179507D01*
X212566135Y-44159770D01*
X212568615Y-44156573D01*
X212576320Y-44147551D01*
X212601159Y-44121100D01*
X212606586Y-44115321D01*
X212610405Y-44108375D01*
X212610407Y-44108372D01*
X212616348Y-44097566D01*
X212627199Y-44081047D01*
X212634758Y-44071301D01*
X212639614Y-44065041D01*
X212642759Y-44057772D01*
X212642762Y-44057768D01*
X212657174Y-44024463D01*
X212662391Y-44013813D01*
X212683695Y-43975060D01*
X212688733Y-43955437D01*
X212695137Y-43936734D01*
X212700033Y-43925420D01*
X212700033Y-43925419D01*
X212703181Y-43918145D01*
X212704420Y-43910322D01*
X212704423Y-43910312D01*
X212710099Y-43874476D01*
X212712505Y-43862856D01*
X212721528Y-43827711D01*
X212721528Y-43827710D01*
X212723500Y-43820030D01*
X212723500Y-43799776D01*
X212725051Y-43780065D01*
X212726980Y-43767886D01*
X212728220Y-43760057D01*
X212724059Y-43716038D01*
X212723500Y-43704181D01*
X212723500Y-42854669D01*
X218302001Y-42854669D01*
X218302371Y-42861490D01*
X218307895Y-42912352D01*
X218311521Y-42927604D01*
X218356676Y-43048054D01*
X218365214Y-43063649D01*
X218441715Y-43165724D01*
X218454276Y-43178285D01*
X218556351Y-43254786D01*
X218571946Y-43263324D01*
X218692394Y-43308478D01*
X218707649Y-43312105D01*
X218758514Y-43317631D01*
X218765328Y-43318000D01*
X219437885Y-43318000D01*
X219453124Y-43313525D01*
X219454329Y-43312135D01*
X219456000Y-43304452D01*
X219456000Y-42182115D01*
X219451525Y-42166876D01*
X219450135Y-42165671D01*
X219442452Y-42164000D01*
X218320116Y-42164000D01*
X218304877Y-42168475D01*
X218303672Y-42169865D01*
X218302001Y-42177548D01*
X218302001Y-42854669D01*
X212723500Y-42854669D01*
X212723500Y-41859394D01*
X212743502Y-41791273D01*
X212777229Y-41756181D01*
X212929789Y-41649357D01*
X212929792Y-41649355D01*
X212934300Y-41646198D01*
X212942613Y-41637885D01*
X218302000Y-41637885D01*
X218306475Y-41653124D01*
X218307865Y-41654329D01*
X218315548Y-41656000D01*
X219437885Y-41656000D01*
X219453124Y-41651525D01*
X219454329Y-41650135D01*
X219456000Y-41642452D01*
X219456000Y-40520116D01*
X219451525Y-40504877D01*
X219450135Y-40503672D01*
X219442452Y-40502001D01*
X218765331Y-40502001D01*
X218758510Y-40502371D01*
X218707648Y-40507895D01*
X218692396Y-40511521D01*
X218571946Y-40556676D01*
X218556351Y-40565214D01*
X218454276Y-40641715D01*
X218441715Y-40654276D01*
X218365214Y-40756351D01*
X218356676Y-40771946D01*
X218311522Y-40892394D01*
X218307895Y-40907649D01*
X218302369Y-40958514D01*
X218302000Y-40965328D01*
X218302000Y-41637885D01*
X212942613Y-41637885D01*
X213096198Y-41484300D01*
X213113533Y-41459544D01*
X213224366Y-41301257D01*
X213227523Y-41296749D01*
X213229846Y-41291767D01*
X213229849Y-41291762D01*
X213321961Y-41094225D01*
X213321961Y-41094224D01*
X213324284Y-41089243D01*
X213380303Y-40880181D01*
X213382119Y-40873402D01*
X213382119Y-40873400D01*
X213383543Y-40868087D01*
X213403498Y-40640000D01*
X213383543Y-40411913D01*
X213382117Y-40406591D01*
X213325707Y-40196067D01*
X213325706Y-40196065D01*
X213324284Y-40190757D01*
X213321961Y-40185775D01*
X213229849Y-39988238D01*
X213229846Y-39988233D01*
X213227523Y-39983251D01*
X213096198Y-39795700D01*
X212934300Y-39633802D01*
X212929792Y-39630645D01*
X212929789Y-39630643D01*
X212824513Y-39556928D01*
X212746749Y-39502477D01*
X212741767Y-39500154D01*
X212741762Y-39500151D01*
X212544225Y-39408039D01*
X212544224Y-39408039D01*
X212539243Y-39405716D01*
X212533935Y-39404294D01*
X212533933Y-39404293D01*
X212323402Y-39347881D01*
X212323400Y-39347881D01*
X212318087Y-39346457D01*
X212090000Y-39326502D01*
X211861913Y-39346457D01*
X211798458Y-39363460D01*
X211727482Y-39361770D01*
X211676753Y-39330848D01*
X210670405Y-38324500D01*
X210636379Y-38262188D01*
X210633500Y-38235405D01*
X210633500Y-33561049D01*
X210653502Y-33492928D01*
X210707158Y-33446435D01*
X210777432Y-33436331D01*
X210842012Y-33465825D01*
X210873695Y-33507798D01*
X210952477Y-33676749D01*
X211083802Y-33864300D01*
X211245700Y-34026198D01*
X211250208Y-34029355D01*
X211250211Y-34029357D01*
X211254564Y-34032405D01*
X211433251Y-34157523D01*
X211438233Y-34159846D01*
X211438238Y-34159849D01*
X211635775Y-34251961D01*
X211640757Y-34254284D01*
X211646065Y-34255706D01*
X211646067Y-34255707D01*
X211856598Y-34312119D01*
X211856600Y-34312119D01*
X211861913Y-34313543D01*
X212090000Y-34333498D01*
X212318087Y-34313543D01*
X212323400Y-34312119D01*
X212323402Y-34312119D01*
X212533933Y-34255707D01*
X212533935Y-34255706D01*
X212539243Y-34254284D01*
X212544225Y-34251961D01*
X212741762Y-34159849D01*
X212741767Y-34159846D01*
X212746749Y-34157523D01*
X212925436Y-34032405D01*
X212929789Y-34029357D01*
X212929792Y-34029355D01*
X212934300Y-34026198D01*
X213096198Y-33864300D01*
X213227523Y-33676749D01*
X213229846Y-33671767D01*
X213229849Y-33671762D01*
X213321961Y-33474225D01*
X213321961Y-33474224D01*
X213324284Y-33469243D01*
X213329067Y-33451395D01*
X213382119Y-33253402D01*
X213382119Y-33253400D01*
X213383543Y-33248087D01*
X213403498Y-33020000D01*
X217126502Y-33020000D01*
X217146457Y-33248087D01*
X217147881Y-33253400D01*
X217147881Y-33253402D01*
X217200934Y-33451395D01*
X217205716Y-33469243D01*
X217208039Y-33474224D01*
X217208039Y-33474225D01*
X217300151Y-33671762D01*
X217300154Y-33671767D01*
X217302477Y-33676749D01*
X217433802Y-33864300D01*
X217595700Y-34026198D01*
X217600208Y-34029355D01*
X217600211Y-34029357D01*
X217604564Y-34032405D01*
X217783251Y-34157523D01*
X217788233Y-34159846D01*
X217788238Y-34159849D01*
X217985775Y-34251961D01*
X217990757Y-34254284D01*
X217996065Y-34255706D01*
X217996067Y-34255707D01*
X218206598Y-34312119D01*
X218206600Y-34312119D01*
X218211913Y-34313543D01*
X218440000Y-34333498D01*
X218668087Y-34313543D01*
X218673398Y-34312120D01*
X218673409Y-34312118D01*
X218731541Y-34296541D01*
X218802517Y-34298230D01*
X218853248Y-34329152D01*
X221579595Y-37055499D01*
X221613621Y-37117811D01*
X221616500Y-37144594D01*
X221616500Y-40575319D01*
X221596498Y-40643440D01*
X221548679Y-40687083D01*
X221496872Y-40714052D01*
X221492734Y-40717159D01*
X221343784Y-40828994D01*
X221311655Y-40853117D01*
X221297350Y-40868087D01*
X221293787Y-40871815D01*
X221232263Y-40907245D01*
X221161351Y-40903788D01*
X221103564Y-40862543D01*
X221084711Y-40828994D01*
X221063324Y-40771946D01*
X221054786Y-40756351D01*
X220978285Y-40654276D01*
X220965724Y-40641715D01*
X220863649Y-40565214D01*
X220848054Y-40556676D01*
X220727606Y-40511522D01*
X220712351Y-40507895D01*
X220661486Y-40502369D01*
X220654672Y-40502000D01*
X219982115Y-40502000D01*
X219966876Y-40506475D01*
X219965671Y-40507865D01*
X219964000Y-40515548D01*
X219964000Y-43299884D01*
X219968475Y-43315123D01*
X219969865Y-43316328D01*
X219977548Y-43317999D01*
X220654669Y-43317999D01*
X220661490Y-43317629D01*
X220712352Y-43312105D01*
X220727604Y-43308479D01*
X220848054Y-43263324D01*
X220863649Y-43254786D01*
X220965724Y-43178285D01*
X220978285Y-43165724D01*
X221054786Y-43063649D01*
X221063324Y-43048054D01*
X221084773Y-42990840D01*
X221127415Y-42934075D01*
X221193977Y-42909376D01*
X221263325Y-42924584D01*
X221283240Y-42938126D01*
X221439349Y-43067730D01*
X221639322Y-43184584D01*
X221855694Y-43267209D01*
X221860760Y-43268240D01*
X221860761Y-43268240D01*
X221913846Y-43279040D01*
X222082656Y-43313385D01*
X222213324Y-43318176D01*
X222308949Y-43321683D01*
X222308953Y-43321683D01*
X222314113Y-43321872D01*
X222319233Y-43321216D01*
X222319235Y-43321216D01*
X222418668Y-43308478D01*
X222543847Y-43292442D01*
X222548795Y-43290957D01*
X222548802Y-43290956D01*
X222760747Y-43227369D01*
X222765690Y-43225886D01*
X222846236Y-43186427D01*
X222969049Y-43126262D01*
X222969052Y-43126260D01*
X222973684Y-43123991D01*
X223162243Y-42989494D01*
X223297539Y-42854669D01*
X229732001Y-42854669D01*
X229732371Y-42861490D01*
X229737895Y-42912352D01*
X229741521Y-42927604D01*
X229786676Y-43048054D01*
X229795214Y-43063649D01*
X229871715Y-43165724D01*
X229884276Y-43178285D01*
X229986351Y-43254786D01*
X230001946Y-43263324D01*
X230122394Y-43308478D01*
X230137649Y-43312105D01*
X230188514Y-43317631D01*
X230195328Y-43318000D01*
X230867885Y-43318000D01*
X230883124Y-43313525D01*
X230884329Y-43312135D01*
X230886000Y-43304452D01*
X230886000Y-42182115D01*
X230881525Y-42166876D01*
X230880135Y-42165671D01*
X230872452Y-42164000D01*
X229750116Y-42164000D01*
X229734877Y-42168475D01*
X229733672Y-42169865D01*
X229732001Y-42177548D01*
X229732001Y-42854669D01*
X223297539Y-42854669D01*
X223326303Y-42826005D01*
X223461458Y-42637917D01*
X223523424Y-42512539D01*
X223561784Y-42434922D01*
X223561785Y-42434920D01*
X223564078Y-42430280D01*
X223631408Y-42208671D01*
X223661640Y-41979041D01*
X223661957Y-41966076D01*
X223663245Y-41913365D01*
X223663245Y-41913361D01*
X223663327Y-41910000D01*
X223653120Y-41785846D01*
X223644773Y-41684318D01*
X223644772Y-41684312D01*
X223644349Y-41679167D01*
X223633980Y-41637885D01*
X229732000Y-41637885D01*
X229736475Y-41653124D01*
X229737865Y-41654329D01*
X229745548Y-41656000D01*
X230867885Y-41656000D01*
X230883124Y-41651525D01*
X230884329Y-41650135D01*
X230886000Y-41642452D01*
X230886000Y-40520116D01*
X230881525Y-40504877D01*
X230880135Y-40503672D01*
X230872452Y-40502001D01*
X230195331Y-40502001D01*
X230188510Y-40502371D01*
X230137648Y-40507895D01*
X230122396Y-40511521D01*
X230001946Y-40556676D01*
X229986351Y-40565214D01*
X229884276Y-40641715D01*
X229871715Y-40654276D01*
X229795214Y-40756351D01*
X229786676Y-40771946D01*
X229741522Y-40892394D01*
X229737895Y-40907649D01*
X229732369Y-40958514D01*
X229732000Y-40965328D01*
X229732000Y-41637885D01*
X223633980Y-41637885D01*
X223587925Y-41454533D01*
X223495570Y-41242131D01*
X223369764Y-41047665D01*
X223213887Y-40876358D01*
X223209836Y-40873159D01*
X223209832Y-40873155D01*
X223036178Y-40736012D01*
X223036175Y-40736010D01*
X223032123Y-40732810D01*
X222948607Y-40686707D01*
X222898636Y-40636274D01*
X222883500Y-40576398D01*
X222883500Y-36908768D01*
X222884027Y-36897585D01*
X222885702Y-36890092D01*
X222883562Y-36822001D01*
X222883500Y-36818044D01*
X222883500Y-36790144D01*
X222882996Y-36786153D01*
X222882063Y-36774311D01*
X222880923Y-36738036D01*
X222880674Y-36730111D01*
X222875021Y-36710652D01*
X222871012Y-36691293D01*
X222870846Y-36689983D01*
X222868474Y-36671203D01*
X222865558Y-36663837D01*
X222865556Y-36663831D01*
X222852200Y-36630098D01*
X222848355Y-36618868D01*
X222838230Y-36584017D01*
X222838230Y-36584016D01*
X222836019Y-36576407D01*
X222825705Y-36558966D01*
X222817008Y-36541213D01*
X222812472Y-36529758D01*
X222809552Y-36522383D01*
X222783563Y-36486612D01*
X222777047Y-36476692D01*
X222758578Y-36445463D01*
X222754542Y-36438638D01*
X222740221Y-36424317D01*
X222727380Y-36409283D01*
X222720131Y-36399306D01*
X222715472Y-36392893D01*
X222681395Y-36364702D01*
X222672616Y-36356712D01*
X219749152Y-33433248D01*
X219715126Y-33370936D01*
X219716541Y-33311541D01*
X219732118Y-33253409D01*
X219732120Y-33253398D01*
X219733543Y-33248087D01*
X219753498Y-33020000D01*
X219733543Y-32791913D01*
X219732117Y-32786591D01*
X219675707Y-32576067D01*
X219675706Y-32576065D01*
X219674284Y-32570757D01*
X219656305Y-32532201D01*
X219579849Y-32368238D01*
X219579846Y-32368233D01*
X219577523Y-32363251D01*
X219476571Y-32219077D01*
X219449357Y-32180211D01*
X219449355Y-32180208D01*
X219446198Y-32175700D01*
X219284300Y-32013802D01*
X219279792Y-32010645D01*
X219279789Y-32010643D01*
X219166611Y-31931395D01*
X219096749Y-31882477D01*
X219091767Y-31880154D01*
X219091762Y-31880151D01*
X218894225Y-31788039D01*
X218894224Y-31788039D01*
X218889243Y-31785716D01*
X218883935Y-31784294D01*
X218883933Y-31784293D01*
X218673402Y-31727881D01*
X218673400Y-31727881D01*
X218668087Y-31726457D01*
X218440000Y-31706502D01*
X218211913Y-31726457D01*
X218206600Y-31727881D01*
X218206598Y-31727881D01*
X217996067Y-31784293D01*
X217996065Y-31784294D01*
X217990757Y-31785716D01*
X217985776Y-31788039D01*
X217985775Y-31788039D01*
X217788238Y-31880151D01*
X217788233Y-31880154D01*
X217783251Y-31882477D01*
X217713389Y-31931395D01*
X217600211Y-32010643D01*
X217600208Y-32010645D01*
X217595700Y-32013802D01*
X217433802Y-32175700D01*
X217430645Y-32180208D01*
X217430643Y-32180211D01*
X217403429Y-32219077D01*
X217302477Y-32363251D01*
X217300154Y-32368233D01*
X217300151Y-32368238D01*
X217223695Y-32532201D01*
X217205716Y-32570757D01*
X217204294Y-32576065D01*
X217204293Y-32576067D01*
X217147883Y-32786591D01*
X217146457Y-32791913D01*
X217126502Y-33020000D01*
X213403498Y-33020000D01*
X213383543Y-32791913D01*
X213382117Y-32786591D01*
X213325707Y-32576067D01*
X213325706Y-32576065D01*
X213324284Y-32570757D01*
X213306305Y-32532201D01*
X213229849Y-32368238D01*
X213229846Y-32368233D01*
X213227523Y-32363251D01*
X213126571Y-32219077D01*
X213099357Y-32180211D01*
X213099355Y-32180208D01*
X213096198Y-32175700D01*
X212934300Y-32013802D01*
X212929792Y-32010645D01*
X212929789Y-32010643D01*
X212816611Y-31931395D01*
X212746749Y-31882477D01*
X212741767Y-31880154D01*
X212741762Y-31880151D01*
X212544225Y-31788039D01*
X212544224Y-31788039D01*
X212539243Y-31785716D01*
X212533935Y-31784294D01*
X212533933Y-31784293D01*
X212323402Y-31727881D01*
X212323400Y-31727881D01*
X212318087Y-31726457D01*
X212090000Y-31706502D01*
X211861913Y-31726457D01*
X211856600Y-31727881D01*
X211856598Y-31727881D01*
X211646067Y-31784293D01*
X211646065Y-31784294D01*
X211640757Y-31785716D01*
X211635776Y-31788039D01*
X211635775Y-31788039D01*
X211438238Y-31880151D01*
X211438233Y-31880154D01*
X211433251Y-31882477D01*
X211363389Y-31931395D01*
X211250211Y-32010643D01*
X211250208Y-32010645D01*
X211245700Y-32013802D01*
X211083802Y-32175700D01*
X211080645Y-32180208D01*
X211080643Y-32180211D01*
X211053429Y-32219077D01*
X210952477Y-32363251D01*
X210898526Y-32478951D01*
X210873695Y-32532201D01*
X210826778Y-32585486D01*
X210758501Y-32604947D01*
X210690541Y-32584405D01*
X210644475Y-32530383D01*
X210633500Y-32478951D01*
X210633500Y-31814594D01*
X210653502Y-31746473D01*
X210670405Y-31725499D01*
X213725499Y-28670405D01*
X213787811Y-28636379D01*
X213814594Y-28633500D01*
X214415500Y-28633500D01*
X214483621Y-28653502D01*
X214530114Y-28707158D01*
X214541500Y-28759500D01*
X214541500Y-30108134D01*
X214548255Y-30170316D01*
X214599385Y-30306705D01*
X214686739Y-30423261D01*
X214803295Y-30510615D01*
X214939684Y-30561745D01*
X215001866Y-30568500D01*
X216798134Y-30568500D01*
X216860316Y-30561745D01*
X216996705Y-30510615D01*
X217113261Y-30423261D01*
X217200615Y-30306705D01*
X217222799Y-30247529D01*
X217244598Y-30189382D01*
X217287240Y-30132618D01*
X217353802Y-30107918D01*
X217423150Y-30123126D01*
X217457817Y-30151114D01*
X217486250Y-30183938D01*
X217658126Y-30326632D01*
X217851000Y-30439338D01*
X217855825Y-30441180D01*
X217855826Y-30441181D01*
X217928612Y-30468975D01*
X218059692Y-30519030D01*
X218064760Y-30520061D01*
X218064763Y-30520062D01*
X218162054Y-30539856D01*
X218278597Y-30563567D01*
X218283772Y-30563757D01*
X218283774Y-30563757D01*
X218496673Y-30571564D01*
X218496677Y-30571564D01*
X218501837Y-30571753D01*
X218506957Y-30571097D01*
X218506959Y-30571097D01*
X218718288Y-30544025D01*
X218718289Y-30544025D01*
X218723416Y-30543368D01*
X218762434Y-30531662D01*
X218932429Y-30480661D01*
X218932434Y-30480659D01*
X218937384Y-30479174D01*
X219137994Y-30380896D01*
X219319860Y-30251173D01*
X219478096Y-30093489D01*
X219608453Y-29912077D01*
X219609776Y-29913028D01*
X219656645Y-29869857D01*
X219726580Y-29857625D01*
X219792026Y-29885144D01*
X219819875Y-29916994D01*
X219879987Y-30015088D01*
X220026250Y-30183938D01*
X220198126Y-30326632D01*
X220391000Y-30439338D01*
X220395825Y-30441180D01*
X220395826Y-30441181D01*
X220468612Y-30468975D01*
X220599692Y-30519030D01*
X220604760Y-30520061D01*
X220604763Y-30520062D01*
X220702054Y-30539856D01*
X220818597Y-30563567D01*
X220823772Y-30563757D01*
X220823774Y-30563757D01*
X221036673Y-30571564D01*
X221036677Y-30571564D01*
X221041837Y-30571753D01*
X221046957Y-30571097D01*
X221046959Y-30571097D01*
X221258288Y-30544025D01*
X221258289Y-30544025D01*
X221263416Y-30543368D01*
X221302434Y-30531662D01*
X221472429Y-30480661D01*
X221472434Y-30480659D01*
X221477384Y-30479174D01*
X221677994Y-30380896D01*
X221859860Y-30251173D01*
X222018096Y-30093489D01*
X222148453Y-29912077D01*
X222149776Y-29913028D01*
X222196645Y-29869857D01*
X222266580Y-29857625D01*
X222332026Y-29885144D01*
X222359875Y-29916994D01*
X222419987Y-30015088D01*
X222566250Y-30183938D01*
X222738126Y-30326632D01*
X222931000Y-30439338D01*
X222935825Y-30441180D01*
X222935826Y-30441181D01*
X223008612Y-30468975D01*
X223139692Y-30519030D01*
X223144760Y-30520061D01*
X223144763Y-30520062D01*
X223242054Y-30539856D01*
X223358597Y-30563567D01*
X223363772Y-30563757D01*
X223363774Y-30563757D01*
X223576673Y-30571564D01*
X223576677Y-30571564D01*
X223581837Y-30571753D01*
X223586957Y-30571097D01*
X223586959Y-30571097D01*
X223798288Y-30544025D01*
X223798289Y-30544025D01*
X223803416Y-30543368D01*
X223842434Y-30531662D01*
X224012429Y-30480661D01*
X224012434Y-30480659D01*
X224017384Y-30479174D01*
X224217994Y-30380896D01*
X224399860Y-30251173D01*
X224558096Y-30093489D01*
X224688453Y-29912077D01*
X224689776Y-29913028D01*
X224736645Y-29869857D01*
X224806580Y-29857625D01*
X224872026Y-29885144D01*
X224899875Y-29916994D01*
X224959987Y-30015088D01*
X225106250Y-30183938D01*
X225278126Y-30326632D01*
X225471000Y-30439338D01*
X225475825Y-30441180D01*
X225475826Y-30441181D01*
X225548612Y-30468975D01*
X225679692Y-30519030D01*
X225684760Y-30520061D01*
X225684763Y-30520062D01*
X225782054Y-30539856D01*
X225898597Y-30563567D01*
X225903772Y-30563757D01*
X225903774Y-30563757D01*
X226116673Y-30571564D01*
X226116677Y-30571564D01*
X226121837Y-30571753D01*
X226126957Y-30571097D01*
X226126959Y-30571097D01*
X226338288Y-30544025D01*
X226338289Y-30544025D01*
X226343416Y-30543368D01*
X226382434Y-30531662D01*
X226552429Y-30480661D01*
X226552434Y-30480659D01*
X226557384Y-30479174D01*
X226757994Y-30380896D01*
X226939860Y-30251173D01*
X227098096Y-30093489D01*
X227228453Y-29912077D01*
X227229776Y-29913028D01*
X227276645Y-29869857D01*
X227346580Y-29857625D01*
X227412026Y-29885144D01*
X227439875Y-29916994D01*
X227499987Y-30015088D01*
X227646250Y-30183938D01*
X227818126Y-30326632D01*
X228011000Y-30439338D01*
X228015825Y-30441180D01*
X228015826Y-30441181D01*
X228088612Y-30468975D01*
X228219692Y-30519030D01*
X228224760Y-30520061D01*
X228224763Y-30520062D01*
X228322054Y-30539856D01*
X228438597Y-30563567D01*
X228443772Y-30563757D01*
X228443774Y-30563757D01*
X228656673Y-30571564D01*
X228656677Y-30571564D01*
X228661837Y-30571753D01*
X228666957Y-30571097D01*
X228666959Y-30571097D01*
X228878288Y-30544025D01*
X228878289Y-30544025D01*
X228883416Y-30543368D01*
X228922434Y-30531662D01*
X229092429Y-30480661D01*
X229092434Y-30480659D01*
X229097384Y-30479174D01*
X229297994Y-30380896D01*
X229479860Y-30251173D01*
X229638096Y-30093489D01*
X229768453Y-29912077D01*
X229769776Y-29913028D01*
X229816645Y-29869857D01*
X229886580Y-29857625D01*
X229952026Y-29885144D01*
X229979875Y-29916994D01*
X230039987Y-30015088D01*
X230186250Y-30183938D01*
X230358126Y-30326632D01*
X230551000Y-30439338D01*
X230555825Y-30441180D01*
X230555826Y-30441181D01*
X230628612Y-30468975D01*
X230759692Y-30519030D01*
X230764760Y-30520061D01*
X230764763Y-30520062D01*
X230862054Y-30539856D01*
X230978597Y-30563567D01*
X230983771Y-30563757D01*
X230983773Y-30563757D01*
X231051293Y-30566233D01*
X231125649Y-30568959D01*
X231192990Y-30591443D01*
X231237486Y-30646767D01*
X231245008Y-30717364D01*
X231210126Y-30783969D01*
X231164500Y-30829595D01*
X231102188Y-30863621D01*
X231075405Y-30866500D01*
X227658768Y-30866500D01*
X227647585Y-30865973D01*
X227640092Y-30864298D01*
X227632166Y-30864547D01*
X227632165Y-30864547D01*
X227572002Y-30866438D01*
X227568044Y-30866500D01*
X227540144Y-30866500D01*
X227536154Y-30867004D01*
X227524320Y-30867936D01*
X227480111Y-30869326D01*
X227472495Y-30871539D01*
X227472493Y-30871539D01*
X227460652Y-30874979D01*
X227441293Y-30878988D01*
X227439983Y-30879154D01*
X227421203Y-30881526D01*
X227413837Y-30884442D01*
X227413831Y-30884444D01*
X227380098Y-30897800D01*
X227368868Y-30901645D01*
X227354969Y-30905683D01*
X227326407Y-30913981D01*
X227319584Y-30918016D01*
X227308966Y-30924295D01*
X227291213Y-30932992D01*
X227283568Y-30936019D01*
X227272383Y-30940448D01*
X227258705Y-30950386D01*
X227236612Y-30966437D01*
X227226695Y-30972951D01*
X227188638Y-30995458D01*
X227174317Y-31009779D01*
X227159284Y-31022619D01*
X227142893Y-31034528D01*
X227134217Y-31045016D01*
X227114702Y-31068605D01*
X227106712Y-31077384D01*
X226473248Y-31710848D01*
X226410936Y-31744874D01*
X226351541Y-31743459D01*
X226293409Y-31727882D01*
X226293398Y-31727880D01*
X226288087Y-31726457D01*
X226060000Y-31706502D01*
X225831913Y-31726457D01*
X225826600Y-31727881D01*
X225826598Y-31727881D01*
X225616067Y-31784293D01*
X225616065Y-31784294D01*
X225610757Y-31785716D01*
X225605776Y-31788039D01*
X225605775Y-31788039D01*
X225408238Y-31880151D01*
X225408233Y-31880154D01*
X225403251Y-31882477D01*
X225333389Y-31931395D01*
X225220211Y-32010643D01*
X225220208Y-32010645D01*
X225215700Y-32013802D01*
X225053802Y-32175700D01*
X225050645Y-32180208D01*
X225050643Y-32180211D01*
X225023429Y-32219077D01*
X224922477Y-32363251D01*
X224920154Y-32368233D01*
X224920151Y-32368238D01*
X224843695Y-32532201D01*
X224825716Y-32570757D01*
X224824294Y-32576065D01*
X224824293Y-32576067D01*
X224767883Y-32786591D01*
X224766457Y-32791913D01*
X224746502Y-33020000D01*
X224766457Y-33248087D01*
X224767881Y-33253400D01*
X224767881Y-33253402D01*
X224820934Y-33451395D01*
X224825716Y-33469243D01*
X224828039Y-33474224D01*
X224828039Y-33474225D01*
X224920151Y-33671762D01*
X224920154Y-33671767D01*
X224922477Y-33676749D01*
X225053802Y-33864300D01*
X225215700Y-34026198D01*
X225220208Y-34029355D01*
X225220211Y-34029357D01*
X225224564Y-34032405D01*
X225403251Y-34157523D01*
X225408233Y-34159846D01*
X225408238Y-34159849D01*
X225605775Y-34251961D01*
X225610757Y-34254284D01*
X225616065Y-34255706D01*
X225616067Y-34255707D01*
X225826598Y-34312119D01*
X225826600Y-34312119D01*
X225831913Y-34313543D01*
X226060000Y-34333498D01*
X226288087Y-34313543D01*
X226293400Y-34312119D01*
X226293402Y-34312119D01*
X226503933Y-34255707D01*
X226503935Y-34255706D01*
X226509243Y-34254284D01*
X226514225Y-34251961D01*
X226711762Y-34159849D01*
X226711767Y-34159846D01*
X226716749Y-34157523D01*
X226895436Y-34032405D01*
X226899789Y-34029357D01*
X226899792Y-34029355D01*
X226904300Y-34026198D01*
X227066198Y-33864300D01*
X227197523Y-33676749D01*
X227199846Y-33671767D01*
X227199849Y-33671762D01*
X227291961Y-33474225D01*
X227291961Y-33474224D01*
X227294284Y-33469243D01*
X227299067Y-33451395D01*
X227352119Y-33253402D01*
X227352119Y-33253400D01*
X227353543Y-33248087D01*
X227373498Y-33020000D01*
X227353543Y-32791913D01*
X227352119Y-32786598D01*
X227352118Y-32786591D01*
X227336541Y-32728459D01*
X227338230Y-32657483D01*
X227369152Y-32606752D01*
X227805499Y-32170405D01*
X227867811Y-32136379D01*
X227894594Y-32133500D01*
X228651307Y-32133500D01*
X228719428Y-32153502D01*
X228765921Y-32207158D01*
X228776025Y-32277432D01*
X228754519Y-32331772D01*
X228732477Y-32363251D01*
X228730154Y-32368233D01*
X228730151Y-32368238D01*
X228653695Y-32532201D01*
X228635716Y-32570757D01*
X228634294Y-32576065D01*
X228634293Y-32576067D01*
X228577883Y-32786591D01*
X228576457Y-32791913D01*
X228556502Y-33020000D01*
X228576457Y-33248087D01*
X228577881Y-33253400D01*
X228577881Y-33253402D01*
X228630934Y-33451395D01*
X228635716Y-33469243D01*
X228638039Y-33474224D01*
X228638039Y-33474225D01*
X228730151Y-33671762D01*
X228730154Y-33671767D01*
X228732477Y-33676749D01*
X228863802Y-33864300D01*
X229025700Y-34026198D01*
X229030208Y-34029355D01*
X229030211Y-34029357D01*
X229034564Y-34032405D01*
X229213251Y-34157523D01*
X229218233Y-34159846D01*
X229218238Y-34159849D01*
X229415775Y-34251961D01*
X229420757Y-34254284D01*
X229426065Y-34255706D01*
X229426067Y-34255707D01*
X229636598Y-34312119D01*
X229636600Y-34312119D01*
X229641913Y-34313543D01*
X229870000Y-34333498D01*
X230098087Y-34313543D01*
X230103398Y-34312120D01*
X230103409Y-34312118D01*
X230161541Y-34296541D01*
X230232517Y-34298230D01*
X230283248Y-34329152D01*
X233009595Y-37055499D01*
X233043621Y-37117811D01*
X233046500Y-37144594D01*
X233046500Y-40575319D01*
X233026498Y-40643440D01*
X232978679Y-40687083D01*
X232926872Y-40714052D01*
X232922734Y-40717159D01*
X232773784Y-40828994D01*
X232741655Y-40853117D01*
X232727350Y-40868087D01*
X232723787Y-40871815D01*
X232662263Y-40907245D01*
X232591351Y-40903788D01*
X232533564Y-40862543D01*
X232514711Y-40828994D01*
X232493324Y-40771946D01*
X232484786Y-40756351D01*
X232408285Y-40654276D01*
X232395724Y-40641715D01*
X232293649Y-40565214D01*
X232278054Y-40556676D01*
X232157606Y-40511522D01*
X232142351Y-40507895D01*
X232091486Y-40502369D01*
X232084672Y-40502000D01*
X231412115Y-40502000D01*
X231396876Y-40506475D01*
X231395671Y-40507865D01*
X231394000Y-40515548D01*
X231394000Y-43299884D01*
X231398475Y-43315123D01*
X231399865Y-43316328D01*
X231407548Y-43317999D01*
X232084669Y-43317999D01*
X232091490Y-43317629D01*
X232142352Y-43312105D01*
X232157604Y-43308479D01*
X232278054Y-43263324D01*
X232293649Y-43254786D01*
X232395724Y-43178285D01*
X232408285Y-43165724D01*
X232484786Y-43063649D01*
X232493324Y-43048054D01*
X232514773Y-42990840D01*
X232557415Y-42934075D01*
X232623977Y-42909376D01*
X232693325Y-42924584D01*
X232713240Y-42938126D01*
X232869349Y-43067730D01*
X233069322Y-43184584D01*
X233285694Y-43267209D01*
X233290760Y-43268240D01*
X233290761Y-43268240D01*
X233343846Y-43279040D01*
X233512656Y-43313385D01*
X233643324Y-43318176D01*
X233738949Y-43321683D01*
X233738953Y-43321683D01*
X233744113Y-43321872D01*
X233749233Y-43321216D01*
X233749235Y-43321216D01*
X233848668Y-43308478D01*
X233973847Y-43292442D01*
X233978795Y-43290957D01*
X233978802Y-43290956D01*
X234190747Y-43227369D01*
X234195690Y-43225886D01*
X234276236Y-43186427D01*
X234399049Y-43126262D01*
X234399052Y-43126260D01*
X234403684Y-43123991D01*
X234592243Y-42989494D01*
X234727539Y-42854669D01*
X241162001Y-42854669D01*
X241162371Y-42861490D01*
X241167895Y-42912352D01*
X241171521Y-42927604D01*
X241216676Y-43048054D01*
X241225214Y-43063649D01*
X241301715Y-43165724D01*
X241314276Y-43178285D01*
X241416351Y-43254786D01*
X241431946Y-43263324D01*
X241552394Y-43308478D01*
X241567649Y-43312105D01*
X241618514Y-43317631D01*
X241625328Y-43318000D01*
X242297885Y-43318000D01*
X242313124Y-43313525D01*
X242314329Y-43312135D01*
X242316000Y-43304452D01*
X242316000Y-42182115D01*
X242311525Y-42166876D01*
X242310135Y-42165671D01*
X242302452Y-42164000D01*
X241180116Y-42164000D01*
X241164877Y-42168475D01*
X241163672Y-42169865D01*
X241162001Y-42177548D01*
X241162001Y-42854669D01*
X234727539Y-42854669D01*
X234756303Y-42826005D01*
X234891458Y-42637917D01*
X234953424Y-42512539D01*
X234991784Y-42434922D01*
X234991785Y-42434920D01*
X234994078Y-42430280D01*
X235061408Y-42208671D01*
X235091640Y-41979041D01*
X235091957Y-41966076D01*
X235093245Y-41913365D01*
X235093245Y-41913361D01*
X235093327Y-41910000D01*
X235083120Y-41785846D01*
X235074773Y-41684318D01*
X235074772Y-41684312D01*
X235074349Y-41679167D01*
X235063980Y-41637885D01*
X241162000Y-41637885D01*
X241166475Y-41653124D01*
X241167865Y-41654329D01*
X241175548Y-41656000D01*
X242297885Y-41656000D01*
X242313124Y-41651525D01*
X242314329Y-41650135D01*
X242316000Y-41642452D01*
X242316000Y-40520116D01*
X242311525Y-40504877D01*
X242310135Y-40503672D01*
X242302452Y-40502001D01*
X241625331Y-40502001D01*
X241618510Y-40502371D01*
X241567648Y-40507895D01*
X241552396Y-40511521D01*
X241431946Y-40556676D01*
X241416351Y-40565214D01*
X241314276Y-40641715D01*
X241301715Y-40654276D01*
X241225214Y-40756351D01*
X241216676Y-40771946D01*
X241171522Y-40892394D01*
X241167895Y-40907649D01*
X241162369Y-40958514D01*
X241162000Y-40965328D01*
X241162000Y-41637885D01*
X235063980Y-41637885D01*
X235017925Y-41454533D01*
X234925570Y-41242131D01*
X234799764Y-41047665D01*
X234643887Y-40876358D01*
X234639836Y-40873159D01*
X234639832Y-40873155D01*
X234466178Y-40736012D01*
X234466175Y-40736010D01*
X234462123Y-40732810D01*
X234378607Y-40686707D01*
X234328636Y-40636274D01*
X234313500Y-40576398D01*
X234313500Y-36908768D01*
X234314027Y-36897585D01*
X234315702Y-36890092D01*
X234313562Y-36822001D01*
X234313500Y-36818044D01*
X234313500Y-36790144D01*
X234312996Y-36786153D01*
X234312063Y-36774311D01*
X234310923Y-36738036D01*
X234310674Y-36730111D01*
X234305021Y-36710652D01*
X234301012Y-36691293D01*
X234300846Y-36689983D01*
X234298474Y-36671203D01*
X234295558Y-36663837D01*
X234295556Y-36663831D01*
X234282200Y-36630098D01*
X234278355Y-36618868D01*
X234268230Y-36584017D01*
X234268230Y-36584016D01*
X234266019Y-36576407D01*
X234255705Y-36558966D01*
X234247008Y-36541213D01*
X234242472Y-36529758D01*
X234239552Y-36522383D01*
X234213563Y-36486612D01*
X234207047Y-36476692D01*
X234188578Y-36445463D01*
X234184542Y-36438638D01*
X234170221Y-36424317D01*
X234157380Y-36409283D01*
X234150131Y-36399306D01*
X234145472Y-36392893D01*
X234111395Y-36364702D01*
X234102616Y-36356712D01*
X231179152Y-33433248D01*
X231145126Y-33370936D01*
X231146541Y-33311541D01*
X231162118Y-33253409D01*
X231162120Y-33253398D01*
X231163543Y-33248087D01*
X231183498Y-33020000D01*
X231163543Y-32791913D01*
X231162117Y-32786591D01*
X231105707Y-32576067D01*
X231105706Y-32576065D01*
X231104284Y-32570757D01*
X231086305Y-32532201D01*
X231009849Y-32368238D01*
X231009846Y-32368233D01*
X231007523Y-32363251D01*
X230985481Y-32331772D01*
X230962792Y-32264498D01*
X230980076Y-32195637D01*
X231031846Y-32147053D01*
X231088693Y-32133500D01*
X231311233Y-32133500D01*
X231322416Y-32134027D01*
X231329909Y-32135702D01*
X231337835Y-32135453D01*
X231337836Y-32135453D01*
X231397986Y-32133562D01*
X231401945Y-32133500D01*
X231429856Y-32133500D01*
X231433791Y-32133003D01*
X231433856Y-32132995D01*
X231445693Y-32132062D01*
X231477951Y-32131048D01*
X231481970Y-32130922D01*
X231489889Y-32130673D01*
X231509343Y-32125021D01*
X231528700Y-32121013D01*
X231540930Y-32119468D01*
X231540931Y-32119468D01*
X231548797Y-32118474D01*
X231556168Y-32115555D01*
X231556170Y-32115555D01*
X231589912Y-32102196D01*
X231601142Y-32098351D01*
X231635983Y-32088229D01*
X231635984Y-32088229D01*
X231643593Y-32086018D01*
X231650412Y-32081985D01*
X231650417Y-32081983D01*
X231661028Y-32075707D01*
X231678776Y-32067012D01*
X231697617Y-32059552D01*
X231733387Y-32033564D01*
X231743307Y-32027048D01*
X231774535Y-32008580D01*
X231774538Y-32008578D01*
X231781362Y-32004542D01*
X231795683Y-31990221D01*
X231810717Y-31977380D01*
X231820694Y-31970131D01*
X231827107Y-31965472D01*
X231855298Y-31931395D01*
X231863288Y-31922616D01*
X233224549Y-30561355D01*
X233286861Y-30527329D01*
X233338762Y-30526979D01*
X233518597Y-30563567D01*
X233523772Y-30563757D01*
X233523774Y-30563757D01*
X233736673Y-30571564D01*
X233736677Y-30571564D01*
X233741837Y-30571753D01*
X233746957Y-30571097D01*
X233746959Y-30571097D01*
X233958288Y-30544025D01*
X233958289Y-30544025D01*
X233963416Y-30543368D01*
X234002434Y-30531662D01*
X234172429Y-30480661D01*
X234172434Y-30480659D01*
X234177384Y-30479174D01*
X234377994Y-30380896D01*
X234559860Y-30251173D01*
X234718096Y-30093489D01*
X234848453Y-29912077D01*
X234849776Y-29913028D01*
X234896645Y-29869857D01*
X234966580Y-29857625D01*
X235032026Y-29885144D01*
X235059875Y-29916994D01*
X235119987Y-30015088D01*
X235266250Y-30183938D01*
X235438126Y-30326632D01*
X235442593Y-30329242D01*
X235524070Y-30376853D01*
X235572794Y-30428491D01*
X235586500Y-30485641D01*
X235586500Y-31671233D01*
X235585973Y-31682416D01*
X235584298Y-31689909D01*
X235584547Y-31697835D01*
X235584547Y-31697836D01*
X235586438Y-31757986D01*
X235586500Y-31761945D01*
X235586500Y-31789856D01*
X235586997Y-31793790D01*
X235586997Y-31793791D01*
X235587005Y-31793856D01*
X235587938Y-31805693D01*
X235589327Y-31849889D01*
X235594978Y-31869339D01*
X235598987Y-31888700D01*
X235601526Y-31908797D01*
X235604445Y-31916168D01*
X235604445Y-31916170D01*
X235617804Y-31949912D01*
X235621649Y-31961142D01*
X235628059Y-31983207D01*
X235633982Y-32003593D01*
X235638015Y-32010412D01*
X235638017Y-32010417D01*
X235644293Y-32021028D01*
X235652988Y-32038776D01*
X235660448Y-32057617D01*
X235665110Y-32064033D01*
X235665110Y-32064034D01*
X235686436Y-32093387D01*
X235692952Y-32103307D01*
X235711139Y-32134059D01*
X235715458Y-32141362D01*
X235729779Y-32155683D01*
X235742619Y-32170716D01*
X235754528Y-32187107D01*
X235783667Y-32211213D01*
X235788605Y-32215298D01*
X235797384Y-32223288D01*
X236180848Y-32606752D01*
X236214874Y-32669064D01*
X236213459Y-32728459D01*
X236197882Y-32786591D01*
X236197881Y-32786598D01*
X236196457Y-32791913D01*
X236176502Y-33020000D01*
X236196457Y-33248087D01*
X236197881Y-33253400D01*
X236197881Y-33253402D01*
X236250934Y-33451395D01*
X236255716Y-33469243D01*
X236258039Y-33474224D01*
X236258039Y-33474225D01*
X236350151Y-33671762D01*
X236350154Y-33671767D01*
X236352477Y-33676749D01*
X236483802Y-33864300D01*
X236645700Y-34026198D01*
X236650208Y-34029355D01*
X236650211Y-34029357D01*
X236654564Y-34032405D01*
X236833251Y-34157523D01*
X236838233Y-34159846D01*
X236838238Y-34159849D01*
X237035775Y-34251961D01*
X237040757Y-34254284D01*
X237046065Y-34255706D01*
X237046067Y-34255707D01*
X237256598Y-34312119D01*
X237256600Y-34312119D01*
X237261913Y-34313543D01*
X237490000Y-34333498D01*
X237718087Y-34313543D01*
X237723400Y-34312119D01*
X237723402Y-34312119D01*
X237933933Y-34255707D01*
X237933935Y-34255706D01*
X237939243Y-34254284D01*
X237944225Y-34251961D01*
X238141762Y-34159849D01*
X238141767Y-34159846D01*
X238146749Y-34157523D01*
X238325436Y-34032405D01*
X238329789Y-34029357D01*
X238329792Y-34029355D01*
X238334300Y-34026198D01*
X238496198Y-33864300D01*
X238627523Y-33676749D01*
X238629846Y-33671767D01*
X238629849Y-33671762D01*
X238721961Y-33474225D01*
X238721961Y-33474224D01*
X238724284Y-33469243D01*
X238729067Y-33451395D01*
X238782119Y-33253402D01*
X238782119Y-33253400D01*
X238783543Y-33248087D01*
X238803498Y-33020000D01*
X239986502Y-33020000D01*
X240006457Y-33248087D01*
X240007881Y-33253400D01*
X240007881Y-33253402D01*
X240060934Y-33451395D01*
X240065716Y-33469243D01*
X240068039Y-33474224D01*
X240068039Y-33474225D01*
X240160151Y-33671762D01*
X240160154Y-33671767D01*
X240162477Y-33676749D01*
X240293802Y-33864300D01*
X240455700Y-34026198D01*
X240460208Y-34029355D01*
X240460211Y-34029357D01*
X240464564Y-34032405D01*
X240643251Y-34157523D01*
X240648233Y-34159846D01*
X240648238Y-34159849D01*
X240845775Y-34251961D01*
X240850757Y-34254284D01*
X240856065Y-34255706D01*
X240856067Y-34255707D01*
X241066598Y-34312119D01*
X241066600Y-34312119D01*
X241071913Y-34313543D01*
X241300000Y-34333498D01*
X241528087Y-34313543D01*
X241533398Y-34312120D01*
X241533409Y-34312118D01*
X241591541Y-34296541D01*
X241662517Y-34298230D01*
X241713248Y-34329152D01*
X244439595Y-37055499D01*
X244473621Y-37117811D01*
X244476500Y-37144594D01*
X244476500Y-40575319D01*
X244456498Y-40643440D01*
X244408679Y-40687083D01*
X244356872Y-40714052D01*
X244352734Y-40717159D01*
X244203784Y-40828994D01*
X244171655Y-40853117D01*
X244157350Y-40868087D01*
X244153787Y-40871815D01*
X244092263Y-40907245D01*
X244021351Y-40903788D01*
X243963564Y-40862543D01*
X243944711Y-40828994D01*
X243923324Y-40771946D01*
X243914786Y-40756351D01*
X243838285Y-40654276D01*
X243825724Y-40641715D01*
X243723649Y-40565214D01*
X243708054Y-40556676D01*
X243587606Y-40511522D01*
X243572351Y-40507895D01*
X243521486Y-40502369D01*
X243514672Y-40502000D01*
X242842115Y-40502000D01*
X242826876Y-40506475D01*
X242825671Y-40507865D01*
X242824000Y-40515548D01*
X242824000Y-43299884D01*
X242828475Y-43315123D01*
X242829865Y-43316328D01*
X242837548Y-43317999D01*
X243514669Y-43317999D01*
X243521490Y-43317629D01*
X243572352Y-43312105D01*
X243587604Y-43308479D01*
X243708054Y-43263324D01*
X243723649Y-43254786D01*
X243825724Y-43178285D01*
X243838285Y-43165724D01*
X243914786Y-43063649D01*
X243923324Y-43048054D01*
X243944773Y-42990840D01*
X243987415Y-42934075D01*
X244053977Y-42909376D01*
X244123325Y-42924584D01*
X244143240Y-42938126D01*
X244299349Y-43067730D01*
X244499322Y-43184584D01*
X244715694Y-43267209D01*
X244720760Y-43268240D01*
X244720761Y-43268240D01*
X244773846Y-43279040D01*
X244942656Y-43313385D01*
X245073324Y-43318176D01*
X245168949Y-43321683D01*
X245168953Y-43321683D01*
X245174113Y-43321872D01*
X245179233Y-43321216D01*
X245179235Y-43321216D01*
X245278668Y-43308478D01*
X245403847Y-43292442D01*
X245408795Y-43290957D01*
X245408802Y-43290956D01*
X245620747Y-43227369D01*
X245625690Y-43225886D01*
X245706236Y-43186427D01*
X245829049Y-43126262D01*
X245829052Y-43126260D01*
X245833684Y-43123991D01*
X246022243Y-42989494D01*
X246186303Y-42826005D01*
X246321458Y-42637917D01*
X246383424Y-42512539D01*
X246421784Y-42434922D01*
X246421785Y-42434920D01*
X246424078Y-42430280D01*
X246491408Y-42208671D01*
X246521640Y-41979041D01*
X246521957Y-41966076D01*
X246523245Y-41913365D01*
X246523245Y-41913361D01*
X246523327Y-41910000D01*
X246513120Y-41785846D01*
X246504773Y-41684318D01*
X246504772Y-41684312D01*
X246504349Y-41679167D01*
X246447925Y-41454533D01*
X246355570Y-41242131D01*
X246229764Y-41047665D01*
X246073887Y-40876358D01*
X246069836Y-40873159D01*
X246069832Y-40873155D01*
X245896178Y-40736012D01*
X245896175Y-40736010D01*
X245892123Y-40732810D01*
X245808607Y-40686707D01*
X245758636Y-40636274D01*
X245743500Y-40576398D01*
X245743500Y-36908768D01*
X245744027Y-36897585D01*
X245745702Y-36890092D01*
X245743562Y-36822001D01*
X245743500Y-36818044D01*
X245743500Y-36790144D01*
X245742996Y-36786153D01*
X245742063Y-36774311D01*
X245740923Y-36738036D01*
X245740674Y-36730111D01*
X245735021Y-36710652D01*
X245731012Y-36691293D01*
X245730846Y-36689983D01*
X245728474Y-36671203D01*
X245725558Y-36663837D01*
X245725556Y-36663831D01*
X245712200Y-36630098D01*
X245708355Y-36618868D01*
X245698230Y-36584017D01*
X245698230Y-36584016D01*
X245696019Y-36576407D01*
X245685705Y-36558966D01*
X245677008Y-36541213D01*
X245672472Y-36529758D01*
X245669552Y-36522383D01*
X245643563Y-36486612D01*
X245637047Y-36476692D01*
X245618578Y-36445463D01*
X245614542Y-36438638D01*
X245600221Y-36424317D01*
X245587380Y-36409283D01*
X245580131Y-36399306D01*
X245575472Y-36392893D01*
X245541395Y-36364702D01*
X245532616Y-36356712D01*
X242609152Y-33433248D01*
X242575126Y-33370936D01*
X242576541Y-33311541D01*
X242592118Y-33253409D01*
X242592120Y-33253398D01*
X242593543Y-33248087D01*
X242613498Y-33020000D01*
X242593543Y-32791913D01*
X242592117Y-32786591D01*
X242535707Y-32576067D01*
X242535706Y-32576065D01*
X242534284Y-32570757D01*
X242516305Y-32532201D01*
X242439849Y-32368238D01*
X242439846Y-32368233D01*
X242437523Y-32363251D01*
X242336571Y-32219077D01*
X242309357Y-32180211D01*
X242309355Y-32180208D01*
X242306198Y-32175700D01*
X242144300Y-32013802D01*
X242139792Y-32010645D01*
X242139789Y-32010643D01*
X242026611Y-31931395D01*
X241956749Y-31882477D01*
X241951767Y-31880154D01*
X241951762Y-31880151D01*
X241754225Y-31788039D01*
X241754224Y-31788039D01*
X241749243Y-31785716D01*
X241743935Y-31784294D01*
X241743933Y-31784293D01*
X241533402Y-31727881D01*
X241533400Y-31727881D01*
X241528087Y-31726457D01*
X241300000Y-31706502D01*
X241071913Y-31726457D01*
X241066600Y-31727881D01*
X241066598Y-31727881D01*
X240856067Y-31784293D01*
X240856065Y-31784294D01*
X240850757Y-31785716D01*
X240845776Y-31788039D01*
X240845775Y-31788039D01*
X240648238Y-31880151D01*
X240648233Y-31880154D01*
X240643251Y-31882477D01*
X240573389Y-31931395D01*
X240460211Y-32010643D01*
X240460208Y-32010645D01*
X240455700Y-32013802D01*
X240293802Y-32175700D01*
X240290645Y-32180208D01*
X240290643Y-32180211D01*
X240263429Y-32219077D01*
X240162477Y-32363251D01*
X240160154Y-32368233D01*
X240160151Y-32368238D01*
X240083695Y-32532201D01*
X240065716Y-32570757D01*
X240064294Y-32576065D01*
X240064293Y-32576067D01*
X240007883Y-32786591D01*
X240006457Y-32791913D01*
X239986502Y-33020000D01*
X238803498Y-33020000D01*
X238783543Y-32791913D01*
X238782117Y-32786591D01*
X238725707Y-32576067D01*
X238725706Y-32576065D01*
X238724284Y-32570757D01*
X238706305Y-32532201D01*
X238629849Y-32368238D01*
X238629846Y-32368233D01*
X238627523Y-32363251D01*
X238526571Y-32219077D01*
X238499357Y-32180211D01*
X238499355Y-32180208D01*
X238496198Y-32175700D01*
X238334300Y-32013802D01*
X238329792Y-32010645D01*
X238329789Y-32010643D01*
X238216611Y-31931395D01*
X238146749Y-31882477D01*
X238141767Y-31880154D01*
X238141762Y-31880151D01*
X237944225Y-31788039D01*
X237944224Y-31788039D01*
X237939243Y-31785716D01*
X237933935Y-31784294D01*
X237933933Y-31784293D01*
X237723402Y-31727881D01*
X237723400Y-31727881D01*
X237718087Y-31726457D01*
X237490000Y-31706502D01*
X237261913Y-31726457D01*
X237198458Y-31743460D01*
X237127482Y-31741770D01*
X237076753Y-31710848D01*
X236890405Y-31524500D01*
X236856379Y-31462188D01*
X236853500Y-31435405D01*
X236853500Y-30490427D01*
X236873502Y-30422306D01*
X236914618Y-30382550D01*
X236917994Y-30380896D01*
X237099860Y-30251173D01*
X237258096Y-30093489D01*
X237388453Y-29912077D01*
X237389776Y-29913028D01*
X237436645Y-29869857D01*
X237506580Y-29857625D01*
X237572026Y-29885144D01*
X237599875Y-29916994D01*
X237659987Y-30015088D01*
X237806250Y-30183938D01*
X237978126Y-30326632D01*
X238171000Y-30439338D01*
X238175825Y-30441180D01*
X238175826Y-30441181D01*
X238248612Y-30468975D01*
X238379692Y-30519030D01*
X238384760Y-30520061D01*
X238384763Y-30520062D01*
X238482054Y-30539856D01*
X238598597Y-30563567D01*
X238603772Y-30563757D01*
X238603774Y-30563757D01*
X238816673Y-30571564D01*
X238816677Y-30571564D01*
X238821837Y-30571753D01*
X238826957Y-30571097D01*
X238826959Y-30571097D01*
X239038288Y-30544025D01*
X239038289Y-30544025D01*
X239043416Y-30543368D01*
X239082434Y-30531662D01*
X239252429Y-30480661D01*
X239252434Y-30480659D01*
X239257384Y-30479174D01*
X239457994Y-30380896D01*
X239639860Y-30251173D01*
X239798096Y-30093489D01*
X239928453Y-29912077D01*
X239949320Y-29869857D01*
X240025136Y-29716453D01*
X240025137Y-29716451D01*
X240027430Y-29711811D01*
X240092370Y-29498069D01*
X240121529Y-29276590D01*
X240123156Y-29210000D01*
X240104852Y-28987361D01*
X240076821Y-28875765D01*
X240079625Y-28804823D01*
X240109930Y-28755974D01*
X240649035Y-28216870D01*
X241195500Y-27670405D01*
X241257812Y-27636379D01*
X241284595Y-27633500D01*
X241514166Y-27633500D01*
X241582287Y-27653502D01*
X241628780Y-27707158D01*
X241638884Y-27777432D01*
X241609390Y-27842012D01*
X241558396Y-27877482D01*
X241473295Y-27909385D01*
X241356739Y-27996739D01*
X241269385Y-28113295D01*
X241218255Y-28249684D01*
X241211500Y-28311866D01*
X241211500Y-30108134D01*
X241218255Y-30170316D01*
X241269385Y-30306705D01*
X241356739Y-30423261D01*
X241473295Y-30510615D01*
X241609684Y-30561745D01*
X241671866Y-30568500D01*
X243175500Y-30568500D01*
X243243621Y-30588502D01*
X243290114Y-30642158D01*
X243301500Y-30694500D01*
X243301500Y-30856233D01*
X243300973Y-30867416D01*
X243299298Y-30874909D01*
X243299547Y-30882835D01*
X243299547Y-30882836D01*
X243301438Y-30942986D01*
X243301500Y-30946945D01*
X243301500Y-30974856D01*
X243301997Y-30978790D01*
X243301997Y-30978791D01*
X243302005Y-30978856D01*
X243302938Y-30990693D01*
X243304327Y-31034889D01*
X243307659Y-31046357D01*
X243309978Y-31054339D01*
X243313987Y-31073700D01*
X243316526Y-31093797D01*
X243319445Y-31101168D01*
X243319445Y-31101170D01*
X243332804Y-31134912D01*
X243336649Y-31146142D01*
X243348982Y-31188593D01*
X243353015Y-31195412D01*
X243353017Y-31195417D01*
X243359293Y-31206028D01*
X243367988Y-31223776D01*
X243375448Y-31242617D01*
X243380110Y-31249033D01*
X243380110Y-31249034D01*
X243401436Y-31278387D01*
X243407952Y-31288307D01*
X243430458Y-31326362D01*
X243444779Y-31340683D01*
X243457619Y-31355716D01*
X243469528Y-31372107D01*
X243475634Y-31377158D01*
X243503605Y-31400298D01*
X243512384Y-31408288D01*
X250070839Y-37966744D01*
X250104865Y-38029056D01*
X250099800Y-38099871D01*
X250075382Y-38140148D01*
X249998660Y-38225356D01*
X249903173Y-38390744D01*
X249844158Y-38572372D01*
X249843468Y-38578933D01*
X249843468Y-38578935D01*
X249830646Y-38700930D01*
X249824196Y-38762300D01*
X249824886Y-38768865D01*
X249837974Y-38893387D01*
X249844158Y-38952228D01*
X249903173Y-39133856D01*
X249998660Y-39299244D01*
X250003078Y-39304151D01*
X250003079Y-39304152D01*
X250056480Y-39363460D01*
X250126447Y-39441166D01*
X250207633Y-39500151D01*
X250251505Y-39532026D01*
X250280948Y-39553418D01*
X250286976Y-39556102D01*
X250286978Y-39556103D01*
X250438735Y-39623669D01*
X250455412Y-39631094D01*
X250548812Y-39650947D01*
X250635756Y-39669428D01*
X250635761Y-39669428D01*
X250642213Y-39670800D01*
X250698106Y-39670800D01*
X250766227Y-39690802D01*
X250787201Y-39707705D01*
X254329595Y-43250099D01*
X254363621Y-43312411D01*
X254366500Y-43339194D01*
X254366500Y-69185405D01*
X254346498Y-69253526D01*
X254329595Y-69274501D01*
X254023865Y-69580230D01*
X254023852Y-69580244D01*
X250614500Y-72989595D01*
X250552188Y-73023621D01*
X250525405Y-73026500D01*
X247599394Y-73026500D01*
X247531273Y-73006498D01*
X247496181Y-72972771D01*
X247389357Y-72820211D01*
X247389355Y-72820208D01*
X247386198Y-72815700D01*
X247224300Y-72653802D01*
X247219792Y-72650645D01*
X247219789Y-72650643D01*
X247141611Y-72595902D01*
X247036749Y-72522477D01*
X247031767Y-72520154D01*
X247031762Y-72520151D01*
X246834225Y-72428039D01*
X246834224Y-72428039D01*
X246829243Y-72425716D01*
X246823935Y-72424294D01*
X246823933Y-72424293D01*
X246613402Y-72367881D01*
X246613400Y-72367881D01*
X246608087Y-72366457D01*
X246380000Y-72346502D01*
X246151913Y-72366457D01*
X246146600Y-72367881D01*
X246146598Y-72367881D01*
X245936067Y-72424293D01*
X245936065Y-72424294D01*
X245930757Y-72425716D01*
X245925776Y-72428039D01*
X245925775Y-72428039D01*
X245728238Y-72520151D01*
X245728233Y-72520154D01*
X245723251Y-72522477D01*
X245618389Y-72595902D01*
X245540211Y-72650643D01*
X245540208Y-72650645D01*
X245535700Y-72653802D01*
X245373802Y-72815700D01*
X245242477Y-73003251D01*
X245240154Y-73008233D01*
X245240151Y-73008238D01*
X245148039Y-73205775D01*
X245145716Y-73210757D01*
X245086457Y-73431913D01*
X245066502Y-73660000D01*
X245086457Y-73888087D01*
X245087880Y-73893398D01*
X245087881Y-73893402D01*
X245140934Y-74091395D01*
X245145716Y-74109243D01*
X245148039Y-74114224D01*
X245148039Y-74114225D01*
X245182091Y-74187250D01*
X245192752Y-74257442D01*
X245163772Y-74322255D01*
X245104352Y-74361111D01*
X245067896Y-74366500D01*
X243882104Y-74366500D01*
X243813983Y-74346498D01*
X243767490Y-74292842D01*
X243757386Y-74222568D01*
X243767909Y-74187250D01*
X243801961Y-74114225D01*
X243801961Y-74114224D01*
X243804284Y-74109243D01*
X243809067Y-74091395D01*
X243862119Y-73893402D01*
X243862120Y-73893398D01*
X243863543Y-73888087D01*
X243883498Y-73660000D01*
X243863543Y-73431913D01*
X243804284Y-73210757D01*
X243801961Y-73205775D01*
X243709849Y-73008238D01*
X243709846Y-73008233D01*
X243707523Y-73003251D01*
X243576198Y-72815700D01*
X243414300Y-72653802D01*
X243409792Y-72650645D01*
X243409789Y-72650643D01*
X243257229Y-72543819D01*
X243212901Y-72488362D01*
X243203500Y-72440606D01*
X243203500Y-71244594D01*
X243223502Y-71176473D01*
X243240405Y-71155499D01*
X245502247Y-68893657D01*
X245510537Y-68886113D01*
X245517018Y-68882000D01*
X245526826Y-68871556D01*
X245563658Y-68832333D01*
X245566413Y-68829491D01*
X245586134Y-68809770D01*
X245588612Y-68806575D01*
X245596318Y-68797553D01*
X245621158Y-68771101D01*
X245626586Y-68765321D01*
X245636346Y-68747568D01*
X245647199Y-68731045D01*
X245654753Y-68721306D01*
X245659613Y-68715041D01*
X245677176Y-68674457D01*
X245682383Y-68663827D01*
X245703695Y-68625060D01*
X245705666Y-68617383D01*
X245705668Y-68617378D01*
X245708732Y-68605442D01*
X245715138Y-68586730D01*
X245720034Y-68575417D01*
X245723181Y-68568145D01*
X245725033Y-68556457D01*
X245730097Y-68524481D01*
X245732504Y-68512860D01*
X245741528Y-68477711D01*
X245741528Y-68477710D01*
X245743500Y-68470030D01*
X245743500Y-68449769D01*
X245745051Y-68430058D01*
X245746979Y-68417885D01*
X245748219Y-68410057D01*
X245744059Y-68366046D01*
X245743500Y-68354189D01*
X245743500Y-66106752D01*
X245763502Y-66038631D01*
X245814068Y-65993601D01*
X245821316Y-65990050D01*
X245829043Y-65986265D01*
X245829048Y-65986262D01*
X245833684Y-65983991D01*
X245837888Y-65980993D01*
X245837892Y-65980990D01*
X245940144Y-65908054D01*
X246022243Y-65849494D01*
X246186303Y-65686005D01*
X246321458Y-65497917D01*
X246424078Y-65290280D01*
X246491408Y-65068671D01*
X246521640Y-64839041D01*
X246523327Y-64770000D01*
X246517032Y-64693434D01*
X246504773Y-64544318D01*
X246504772Y-64544312D01*
X246504349Y-64539167D01*
X246447925Y-64314533D01*
X246355570Y-64102131D01*
X246229764Y-63907665D01*
X246073887Y-63736358D01*
X246069836Y-63733159D01*
X246069832Y-63733155D01*
X245896177Y-63596011D01*
X245896172Y-63596008D01*
X245892123Y-63592810D01*
X245887607Y-63590317D01*
X245887604Y-63590315D01*
X245693879Y-63483373D01*
X245693875Y-63483371D01*
X245689355Y-63480876D01*
X245684486Y-63479152D01*
X245684482Y-63479150D01*
X245475903Y-63405288D01*
X245475899Y-63405287D01*
X245471028Y-63403562D01*
X245465935Y-63402655D01*
X245465932Y-63402654D01*
X245248095Y-63363851D01*
X245248089Y-63363850D01*
X245243006Y-63362945D01*
X245165644Y-63362000D01*
X245016581Y-63360179D01*
X245016579Y-63360179D01*
X245011411Y-63360116D01*
X244782464Y-63395150D01*
X244562314Y-63467106D01*
X244557726Y-63469494D01*
X244557722Y-63469496D01*
X244361461Y-63571663D01*
X244356872Y-63574052D01*
X244352739Y-63577155D01*
X244352736Y-63577157D01*
X244175790Y-63710012D01*
X244171655Y-63713117D01*
X244168083Y-63716855D01*
X244153787Y-63731815D01*
X244092263Y-63767245D01*
X244021351Y-63763788D01*
X243963564Y-63722543D01*
X243944711Y-63688994D01*
X243923324Y-63631946D01*
X243914786Y-63616351D01*
X243838285Y-63514276D01*
X243825724Y-63501715D01*
X243723649Y-63425214D01*
X243708054Y-63416676D01*
X243587606Y-63371522D01*
X243572351Y-63367895D01*
X243521486Y-63362369D01*
X243514672Y-63362000D01*
X242842115Y-63362000D01*
X242826876Y-63366475D01*
X242825671Y-63367865D01*
X242824000Y-63375548D01*
X242824000Y-66159884D01*
X242828475Y-66175123D01*
X242829865Y-66176328D01*
X242837548Y-66177999D01*
X243514669Y-66177999D01*
X243521490Y-66177629D01*
X243572352Y-66172105D01*
X243587604Y-66168479D01*
X243708054Y-66123324D01*
X243723649Y-66114786D01*
X243825724Y-66038285D01*
X243838285Y-66025724D01*
X243914786Y-65923649D01*
X243923324Y-65908054D01*
X243944773Y-65850840D01*
X243987415Y-65794075D01*
X244053977Y-65769376D01*
X244123325Y-65784584D01*
X244143240Y-65798126D01*
X244299349Y-65927730D01*
X244412073Y-65993600D01*
X244414070Y-65994767D01*
X244462794Y-66046405D01*
X244476500Y-66103555D01*
X244476500Y-68075405D01*
X244456498Y-68143526D01*
X244439595Y-68164500D01*
X242177747Y-70426348D01*
X242169461Y-70433888D01*
X242162982Y-70438000D01*
X242157557Y-70443777D01*
X242116357Y-70487651D01*
X242113602Y-70490493D01*
X242093865Y-70510230D01*
X242091385Y-70513427D01*
X242083682Y-70522447D01*
X242053414Y-70554679D01*
X242049595Y-70561625D01*
X242049593Y-70561628D01*
X242043652Y-70572434D01*
X242032801Y-70588953D01*
X242020386Y-70604959D01*
X242017241Y-70612228D01*
X242017238Y-70612232D01*
X242002826Y-70645537D01*
X241997609Y-70656187D01*
X241976305Y-70694940D01*
X241974334Y-70702615D01*
X241974334Y-70702616D01*
X241971267Y-70714562D01*
X241964863Y-70733266D01*
X241956819Y-70751855D01*
X241955580Y-70759678D01*
X241955577Y-70759688D01*
X241949901Y-70795524D01*
X241947495Y-70807144D01*
X241936500Y-70849970D01*
X241936500Y-70870224D01*
X241934949Y-70889934D01*
X241931780Y-70909943D01*
X241934939Y-70943356D01*
X241935941Y-70953961D01*
X241936500Y-70965819D01*
X241936500Y-72440606D01*
X241916498Y-72508727D01*
X241882771Y-72543819D01*
X241730211Y-72650643D01*
X241730208Y-72650645D01*
X241725700Y-72653802D01*
X241563802Y-72815700D01*
X241432477Y-73003251D01*
X241430154Y-73008233D01*
X241430151Y-73008238D01*
X241338039Y-73205775D01*
X241335716Y-73210757D01*
X241276457Y-73431913D01*
X241256502Y-73660000D01*
X241276457Y-73888087D01*
X241277880Y-73893398D01*
X241277881Y-73893402D01*
X241330934Y-74091395D01*
X241335716Y-74109243D01*
X241338039Y-74114224D01*
X241338039Y-74114225D01*
X241372091Y-74187250D01*
X241382752Y-74257442D01*
X241353772Y-74322255D01*
X241294352Y-74361111D01*
X241257896Y-74366500D01*
X236604595Y-74366500D01*
X236536474Y-74346498D01*
X236515500Y-74329595D01*
X236259152Y-74073247D01*
X236225126Y-74010935D01*
X236226540Y-73951541D01*
X236243543Y-73888087D01*
X236263498Y-73660000D01*
X236243543Y-73431913D01*
X236184284Y-73210757D01*
X236181961Y-73205775D01*
X236089849Y-73008238D01*
X236089846Y-73008233D01*
X236087523Y-73003251D01*
X235956198Y-72815700D01*
X235794300Y-72653802D01*
X235789792Y-72650645D01*
X235789789Y-72650643D01*
X235711611Y-72595902D01*
X235606749Y-72522477D01*
X235601767Y-72520154D01*
X235601762Y-72520151D01*
X235404225Y-72428039D01*
X235404224Y-72428039D01*
X235399243Y-72425716D01*
X235393935Y-72424294D01*
X235393933Y-72424293D01*
X235183402Y-72367881D01*
X235183400Y-72367881D01*
X235178087Y-72366457D01*
X234950000Y-72346502D01*
X234721913Y-72366457D01*
X234716600Y-72367881D01*
X234716598Y-72367881D01*
X234506067Y-72424293D01*
X234506065Y-72424294D01*
X234500757Y-72425716D01*
X234495776Y-72428039D01*
X234495775Y-72428039D01*
X234298238Y-72520151D01*
X234298233Y-72520154D01*
X234293251Y-72522477D01*
X234188389Y-72595902D01*
X234110211Y-72650643D01*
X234110208Y-72650645D01*
X234105700Y-72653802D01*
X233943802Y-72815700D01*
X233812477Y-73003251D01*
X233810154Y-73008233D01*
X233810151Y-73008238D01*
X233718039Y-73205775D01*
X233715716Y-73210757D01*
X233656457Y-73431913D01*
X233636502Y-73660000D01*
X233656457Y-73888087D01*
X233657880Y-73893398D01*
X233657881Y-73893402D01*
X233710934Y-74091395D01*
X233715716Y-74109243D01*
X233718039Y-74114224D01*
X233718039Y-74114225D01*
X233810151Y-74311762D01*
X233810154Y-74311767D01*
X233812477Y-74316749D01*
X233821472Y-74329595D01*
X233932337Y-74487926D01*
X233943802Y-74504300D01*
X234090907Y-74651405D01*
X234124933Y-74713717D01*
X234119868Y-74784532D01*
X234077321Y-74841368D01*
X234010801Y-74866179D01*
X234001812Y-74866500D01*
X232088188Y-74866500D01*
X232020067Y-74846498D01*
X231973574Y-74792842D01*
X231963470Y-74722568D01*
X231992964Y-74657988D01*
X231999093Y-74651405D01*
X232146198Y-74504300D01*
X232157664Y-74487926D01*
X232268528Y-74329595D01*
X232277523Y-74316749D01*
X232279846Y-74311767D01*
X232279849Y-74311762D01*
X232371961Y-74114225D01*
X232371961Y-74114224D01*
X232374284Y-74109243D01*
X232379067Y-74091395D01*
X232432119Y-73893402D01*
X232432120Y-73893398D01*
X232433543Y-73888087D01*
X232453498Y-73660000D01*
X232433543Y-73431913D01*
X232374284Y-73210757D01*
X232371961Y-73205775D01*
X232279849Y-73008238D01*
X232279846Y-73008233D01*
X232277523Y-73003251D01*
X232146198Y-72815700D01*
X231984300Y-72653802D01*
X231979792Y-72650645D01*
X231979789Y-72650643D01*
X231827229Y-72543819D01*
X231782901Y-72488362D01*
X231773500Y-72440606D01*
X231773500Y-71674594D01*
X231793502Y-71606473D01*
X231810405Y-71585499D01*
X234072247Y-69323657D01*
X234080537Y-69316113D01*
X234087018Y-69312000D01*
X234133659Y-69262332D01*
X234136413Y-69259491D01*
X234156134Y-69239770D01*
X234158612Y-69236575D01*
X234166318Y-69227553D01*
X234191158Y-69201101D01*
X234196586Y-69195321D01*
X234202732Y-69184142D01*
X234206346Y-69177568D01*
X234217199Y-69161045D01*
X234224753Y-69151306D01*
X234229613Y-69145041D01*
X234247176Y-69104457D01*
X234252383Y-69093827D01*
X234273695Y-69055060D01*
X234275666Y-69047383D01*
X234275668Y-69047378D01*
X234278732Y-69035442D01*
X234285138Y-69016730D01*
X234290034Y-69005417D01*
X234293181Y-68998145D01*
X234300097Y-68954481D01*
X234302504Y-68942860D01*
X234311528Y-68907711D01*
X234311528Y-68907710D01*
X234313500Y-68900030D01*
X234313500Y-68879769D01*
X234315051Y-68860058D01*
X234316979Y-68847885D01*
X234318219Y-68840057D01*
X234314059Y-68796046D01*
X234313500Y-68784189D01*
X234313500Y-66106752D01*
X234333502Y-66038631D01*
X234384068Y-65993601D01*
X234391316Y-65990050D01*
X234399043Y-65986265D01*
X234399048Y-65986262D01*
X234403684Y-65983991D01*
X234407888Y-65980993D01*
X234407892Y-65980990D01*
X234510144Y-65908054D01*
X234592243Y-65849494D01*
X234727539Y-65714669D01*
X241162001Y-65714669D01*
X241162371Y-65721490D01*
X241167895Y-65772352D01*
X241171521Y-65787604D01*
X241216676Y-65908054D01*
X241225214Y-65923649D01*
X241301715Y-66025724D01*
X241314276Y-66038285D01*
X241416351Y-66114786D01*
X241431946Y-66123324D01*
X241552394Y-66168478D01*
X241567649Y-66172105D01*
X241618514Y-66177631D01*
X241625328Y-66178000D01*
X242297885Y-66178000D01*
X242313124Y-66173525D01*
X242314329Y-66172135D01*
X242316000Y-66164452D01*
X242316000Y-65042115D01*
X242311525Y-65026876D01*
X242310135Y-65025671D01*
X242302452Y-65024000D01*
X241180116Y-65024000D01*
X241164877Y-65028475D01*
X241163672Y-65029865D01*
X241162001Y-65037548D01*
X241162001Y-65714669D01*
X234727539Y-65714669D01*
X234756303Y-65686005D01*
X234891458Y-65497917D01*
X234994078Y-65290280D01*
X235061408Y-65068671D01*
X235091640Y-64839041D01*
X235093327Y-64770000D01*
X235087032Y-64693434D01*
X235074773Y-64544318D01*
X235074772Y-64544312D01*
X235074349Y-64539167D01*
X235063980Y-64497885D01*
X241162000Y-64497885D01*
X241166475Y-64513124D01*
X241167865Y-64514329D01*
X241175548Y-64516000D01*
X242297885Y-64516000D01*
X242313124Y-64511525D01*
X242314329Y-64510135D01*
X242316000Y-64502452D01*
X242316000Y-63380116D01*
X242311525Y-63364877D01*
X242310135Y-63363672D01*
X242302452Y-63362001D01*
X241625331Y-63362001D01*
X241618510Y-63362371D01*
X241567648Y-63367895D01*
X241552396Y-63371521D01*
X241431946Y-63416676D01*
X241416351Y-63425214D01*
X241314276Y-63501715D01*
X241301715Y-63514276D01*
X241225214Y-63616351D01*
X241216676Y-63631946D01*
X241171522Y-63752394D01*
X241167895Y-63767649D01*
X241162369Y-63818514D01*
X241162000Y-63825328D01*
X241162000Y-64497885D01*
X235063980Y-64497885D01*
X235017925Y-64314533D01*
X234925570Y-64102131D01*
X234799764Y-63907665D01*
X234643887Y-63736358D01*
X234639836Y-63733159D01*
X234639832Y-63733155D01*
X234466177Y-63596011D01*
X234466172Y-63596008D01*
X234462123Y-63592810D01*
X234457607Y-63590317D01*
X234457604Y-63590315D01*
X234263879Y-63483373D01*
X234263875Y-63483371D01*
X234259355Y-63480876D01*
X234254486Y-63479152D01*
X234254482Y-63479150D01*
X234045903Y-63405288D01*
X234045899Y-63405287D01*
X234041028Y-63403562D01*
X234035935Y-63402655D01*
X234035932Y-63402654D01*
X233818095Y-63363851D01*
X233818089Y-63363850D01*
X233813006Y-63362945D01*
X233735644Y-63362000D01*
X233586581Y-63360179D01*
X233586579Y-63360179D01*
X233581411Y-63360116D01*
X233352464Y-63395150D01*
X233132314Y-63467106D01*
X233127726Y-63469494D01*
X233127722Y-63469496D01*
X232931461Y-63571663D01*
X232926872Y-63574052D01*
X232922739Y-63577155D01*
X232922736Y-63577157D01*
X232745790Y-63710012D01*
X232741655Y-63713117D01*
X232738083Y-63716855D01*
X232723787Y-63731815D01*
X232662263Y-63767245D01*
X232591351Y-63763788D01*
X232533564Y-63722543D01*
X232514711Y-63688994D01*
X232493324Y-63631946D01*
X232484786Y-63616351D01*
X232408285Y-63514276D01*
X232395724Y-63501715D01*
X232293649Y-63425214D01*
X232278054Y-63416676D01*
X232157606Y-63371522D01*
X232142351Y-63367895D01*
X232091486Y-63362369D01*
X232084672Y-63362000D01*
X231412115Y-63362000D01*
X231396876Y-63366475D01*
X231395671Y-63367865D01*
X231394000Y-63375548D01*
X231394000Y-66159884D01*
X231398475Y-66175123D01*
X231399865Y-66176328D01*
X231407548Y-66177999D01*
X232084669Y-66177999D01*
X232091490Y-66177629D01*
X232142352Y-66172105D01*
X232157604Y-66168479D01*
X232278054Y-66123324D01*
X232293649Y-66114786D01*
X232395724Y-66038285D01*
X232408285Y-66025724D01*
X232484786Y-65923649D01*
X232493324Y-65908054D01*
X232514773Y-65850840D01*
X232557415Y-65794075D01*
X232623977Y-65769376D01*
X232693325Y-65784584D01*
X232713240Y-65798126D01*
X232869349Y-65927730D01*
X232982073Y-65993600D01*
X232984070Y-65994767D01*
X233032794Y-66046405D01*
X233046500Y-66103555D01*
X233046500Y-68505405D01*
X233026498Y-68573526D01*
X233009595Y-68594500D01*
X230747747Y-70856348D01*
X230739461Y-70863888D01*
X230732982Y-70868000D01*
X230727557Y-70873777D01*
X230686357Y-70917651D01*
X230683602Y-70920493D01*
X230663865Y-70940230D01*
X230661385Y-70943427D01*
X230653682Y-70952447D01*
X230623414Y-70984679D01*
X230619595Y-70991625D01*
X230619593Y-70991628D01*
X230613652Y-71002434D01*
X230602801Y-71018953D01*
X230590386Y-71034959D01*
X230587241Y-71042228D01*
X230587238Y-71042232D01*
X230572826Y-71075537D01*
X230567609Y-71086187D01*
X230546305Y-71124940D01*
X230544334Y-71132615D01*
X230544334Y-71132616D01*
X230541267Y-71144562D01*
X230534863Y-71163266D01*
X230526819Y-71181855D01*
X230525580Y-71189678D01*
X230525577Y-71189688D01*
X230519901Y-71225524D01*
X230517495Y-71237144D01*
X230515112Y-71246426D01*
X230506500Y-71279970D01*
X230506500Y-71300224D01*
X230504949Y-71319934D01*
X230501780Y-71339943D01*
X230502526Y-71347835D01*
X230505941Y-71383961D01*
X230506500Y-71395819D01*
X230506500Y-72440606D01*
X230486498Y-72508727D01*
X230452771Y-72543819D01*
X230300211Y-72650643D01*
X230300208Y-72650645D01*
X230295700Y-72653802D01*
X230133802Y-72815700D01*
X230002477Y-73003251D01*
X230000154Y-73008233D01*
X230000151Y-73008238D01*
X229908039Y-73205775D01*
X229905716Y-73210757D01*
X229846457Y-73431913D01*
X229826502Y-73660000D01*
X229846457Y-73888087D01*
X229847880Y-73893398D01*
X229847881Y-73893402D01*
X229900934Y-74091395D01*
X229905716Y-74109243D01*
X229908039Y-74114224D01*
X229908039Y-74114225D01*
X230000151Y-74311762D01*
X230000154Y-74311767D01*
X230002477Y-74316749D01*
X230011472Y-74329595D01*
X230122337Y-74487926D01*
X230133802Y-74504300D01*
X230280907Y-74651405D01*
X230314933Y-74713717D01*
X230309868Y-74784532D01*
X230267321Y-74841368D01*
X230200801Y-74866179D01*
X230191812Y-74866500D01*
X225674594Y-74866500D01*
X225606473Y-74846498D01*
X225585499Y-74829595D01*
X224829152Y-74073248D01*
X224795126Y-74010936D01*
X224796541Y-73951541D01*
X224812118Y-73893409D01*
X224812120Y-73893398D01*
X224813543Y-73888087D01*
X224833498Y-73660000D01*
X224813543Y-73431913D01*
X224754284Y-73210757D01*
X224751961Y-73205775D01*
X224659849Y-73008238D01*
X224659846Y-73008233D01*
X224657523Y-73003251D01*
X224526198Y-72815700D01*
X224364300Y-72653802D01*
X224359792Y-72650645D01*
X224359789Y-72650643D01*
X224281611Y-72595902D01*
X224176749Y-72522477D01*
X224171767Y-72520154D01*
X224171762Y-72520151D01*
X223974225Y-72428039D01*
X223974224Y-72428039D01*
X223969243Y-72425716D01*
X223963935Y-72424294D01*
X223963933Y-72424293D01*
X223753402Y-72367881D01*
X223753400Y-72367881D01*
X223748087Y-72366457D01*
X223520000Y-72346502D01*
X223291913Y-72366457D01*
X223286600Y-72367881D01*
X223286598Y-72367881D01*
X223076067Y-72424293D01*
X223076065Y-72424294D01*
X223070757Y-72425716D01*
X223065776Y-72428039D01*
X223065775Y-72428039D01*
X222868238Y-72520151D01*
X222868233Y-72520154D01*
X222863251Y-72522477D01*
X222758389Y-72595902D01*
X222680211Y-72650643D01*
X222680208Y-72650645D01*
X222675700Y-72653802D01*
X222513802Y-72815700D01*
X222382477Y-73003251D01*
X222380154Y-73008233D01*
X222380151Y-73008238D01*
X222288039Y-73205775D01*
X222285716Y-73210757D01*
X222226457Y-73431913D01*
X222206502Y-73660000D01*
X222226457Y-73888087D01*
X222227880Y-73893398D01*
X222227881Y-73893402D01*
X222280934Y-74091395D01*
X222285716Y-74109243D01*
X222288039Y-74114224D01*
X222288039Y-74114225D01*
X222380151Y-74311762D01*
X222380154Y-74311767D01*
X222382477Y-74316749D01*
X222391472Y-74329595D01*
X222502337Y-74487926D01*
X222513802Y-74504300D01*
X222675700Y-74666198D01*
X222680208Y-74669355D01*
X222680211Y-74669357D01*
X222716008Y-74694422D01*
X222863251Y-74797523D01*
X222868233Y-74799846D01*
X222868238Y-74799849D01*
X223065775Y-74891961D01*
X223070757Y-74894284D01*
X223076065Y-74895706D01*
X223076067Y-74895707D01*
X223286598Y-74952119D01*
X223286600Y-74952119D01*
X223291913Y-74953543D01*
X223520000Y-74973498D01*
X223748087Y-74953543D01*
X223753398Y-74952120D01*
X223753409Y-74952118D01*
X223811541Y-74936541D01*
X223882517Y-74938230D01*
X223933246Y-74969150D01*
X224856359Y-75892264D01*
X224863886Y-75900536D01*
X224868000Y-75907018D01*
X224868937Y-75907898D01*
X224895782Y-75970419D01*
X224884077Y-76040444D01*
X224836372Y-76093025D01*
X224770688Y-76111500D01*
X223891866Y-76111500D01*
X223829684Y-76118255D01*
X223693295Y-76169385D01*
X223576739Y-76256739D01*
X223489385Y-76373295D01*
X223438255Y-76509684D01*
X223431500Y-76571866D01*
X223431500Y-78368134D01*
X223438255Y-78430316D01*
X223489385Y-78566705D01*
X223576739Y-78683261D01*
X223693295Y-78770615D01*
X223829684Y-78821745D01*
X223891866Y-78828500D01*
X225688134Y-78828500D01*
X225750316Y-78821745D01*
X225886705Y-78770615D01*
X226003261Y-78683261D01*
X226090615Y-78566705D01*
X226112799Y-78507529D01*
X226134598Y-78449382D01*
X226177240Y-78392618D01*
X226243802Y-78367918D01*
X226313150Y-78383126D01*
X226347817Y-78411114D01*
X226376250Y-78443938D01*
X226548126Y-78586632D01*
X226741000Y-78699338D01*
X226949692Y-78779030D01*
X226954760Y-78780061D01*
X226954763Y-78780062D01*
X227049862Y-78799410D01*
X227168597Y-78823567D01*
X227173772Y-78823757D01*
X227173774Y-78823757D01*
X227386673Y-78831564D01*
X227386677Y-78831564D01*
X227391837Y-78831753D01*
X227396957Y-78831097D01*
X227396959Y-78831097D01*
X227608288Y-78804025D01*
X227608289Y-78804025D01*
X227613416Y-78803368D01*
X227618366Y-78801883D01*
X227822429Y-78740661D01*
X227822434Y-78740659D01*
X227827384Y-78739174D01*
X228027994Y-78640896D01*
X228209860Y-78511173D01*
X228368096Y-78353489D01*
X228498453Y-78172077D01*
X228499776Y-78173028D01*
X228546645Y-78129857D01*
X228616580Y-78117625D01*
X228682026Y-78145144D01*
X228709875Y-78176994D01*
X228769987Y-78275088D01*
X228916250Y-78443938D01*
X229088126Y-78586632D01*
X229281000Y-78699338D01*
X229489692Y-78779030D01*
X229494760Y-78780061D01*
X229494763Y-78780062D01*
X229589862Y-78799410D01*
X229708597Y-78823567D01*
X229713772Y-78823757D01*
X229713774Y-78823757D01*
X229926673Y-78831564D01*
X229926677Y-78831564D01*
X229931837Y-78831753D01*
X229936957Y-78831097D01*
X229936959Y-78831097D01*
X230148288Y-78804025D01*
X230148289Y-78804025D01*
X230153416Y-78803368D01*
X230158366Y-78801883D01*
X230362429Y-78740661D01*
X230362434Y-78740659D01*
X230367384Y-78739174D01*
X230567994Y-78640896D01*
X230749860Y-78511173D01*
X230908096Y-78353489D01*
X231038453Y-78172077D01*
X231039776Y-78173028D01*
X231086645Y-78129857D01*
X231156580Y-78117625D01*
X231222026Y-78145144D01*
X231249875Y-78176994D01*
X231309987Y-78275088D01*
X231456250Y-78443938D01*
X231628126Y-78586632D01*
X231821000Y-78699338D01*
X232029692Y-78779030D01*
X232034760Y-78780061D01*
X232034763Y-78780062D01*
X232129862Y-78799410D01*
X232248597Y-78823567D01*
X232253772Y-78823757D01*
X232253774Y-78823757D01*
X232466673Y-78831564D01*
X232466677Y-78831564D01*
X232471837Y-78831753D01*
X232476957Y-78831097D01*
X232476959Y-78831097D01*
X232688288Y-78804025D01*
X232688289Y-78804025D01*
X232693416Y-78803368D01*
X232698366Y-78801883D01*
X232902429Y-78740661D01*
X232902434Y-78740659D01*
X232907384Y-78739174D01*
X233107994Y-78640896D01*
X233289860Y-78511173D01*
X233448096Y-78353489D01*
X233578453Y-78172077D01*
X233579776Y-78173028D01*
X233626645Y-78129857D01*
X233696580Y-78117625D01*
X233762026Y-78145144D01*
X233789875Y-78176994D01*
X233849987Y-78275088D01*
X233996250Y-78443938D01*
X234168126Y-78586632D01*
X234361000Y-78699338D01*
X234569692Y-78779030D01*
X234574760Y-78780061D01*
X234574763Y-78780062D01*
X234669862Y-78799410D01*
X234788597Y-78823567D01*
X234793772Y-78823757D01*
X234793774Y-78823757D01*
X235006673Y-78831564D01*
X235006677Y-78831564D01*
X235011837Y-78831753D01*
X235016957Y-78831097D01*
X235016959Y-78831097D01*
X235228288Y-78804025D01*
X235228289Y-78804025D01*
X235233416Y-78803368D01*
X235238366Y-78801883D01*
X235442429Y-78740661D01*
X235442434Y-78740659D01*
X235447384Y-78739174D01*
X235647994Y-78640896D01*
X235829860Y-78511173D01*
X235988096Y-78353489D01*
X236118453Y-78172077D01*
X236119640Y-78172930D01*
X236166960Y-78129362D01*
X236236897Y-78117145D01*
X236302338Y-78144678D01*
X236330166Y-78176511D01*
X236387694Y-78270388D01*
X236393777Y-78278699D01*
X236533213Y-78439667D01*
X236540580Y-78446883D01*
X236704434Y-78582916D01*
X236712881Y-78588831D01*
X236896756Y-78696279D01*
X236906042Y-78700729D01*
X237105001Y-78776703D01*
X237114899Y-78779579D01*
X237218250Y-78800606D01*
X237232299Y-78799410D01*
X237236000Y-78789065D01*
X237236000Y-78788517D01*
X237744000Y-78788517D01*
X237748064Y-78802359D01*
X237761478Y-78804393D01*
X237768184Y-78803534D01*
X237778262Y-78801392D01*
X237982255Y-78740191D01*
X237991842Y-78736433D01*
X238183095Y-78642739D01*
X238191945Y-78637464D01*
X238365328Y-78513792D01*
X238373200Y-78507139D01*
X238524052Y-78356812D01*
X238530730Y-78348965D01*
X238658022Y-78171819D01*
X238659147Y-78172627D01*
X238706669Y-78128876D01*
X238776607Y-78116661D01*
X238842046Y-78144197D01*
X238869870Y-78176028D01*
X238927690Y-78270383D01*
X238933777Y-78278699D01*
X239073213Y-78439667D01*
X239080580Y-78446883D01*
X239244434Y-78582916D01*
X239252881Y-78588831D01*
X239436756Y-78696279D01*
X239446042Y-78700729D01*
X239645001Y-78776703D01*
X239654899Y-78779579D01*
X239758250Y-78800606D01*
X239772299Y-78799410D01*
X239776000Y-78789065D01*
X239776000Y-77742115D01*
X239771525Y-77726876D01*
X239770135Y-77725671D01*
X239762452Y-77724000D01*
X237762115Y-77724000D01*
X237746876Y-77728475D01*
X237745671Y-77729865D01*
X237744000Y-77737548D01*
X237744000Y-78788517D01*
X237236000Y-78788517D01*
X237236000Y-77342000D01*
X237256002Y-77273879D01*
X237309658Y-77227386D01*
X237362000Y-77216000D01*
X240158000Y-77216000D01*
X240226121Y-77236002D01*
X240272614Y-77289658D01*
X240284000Y-77342000D01*
X240284000Y-78788517D01*
X240288064Y-78802359D01*
X240301478Y-78804393D01*
X240308184Y-78803534D01*
X240318262Y-78801392D01*
X240522255Y-78740191D01*
X240531842Y-78736433D01*
X240723095Y-78642739D01*
X240731945Y-78637464D01*
X240905328Y-78513792D01*
X240913200Y-78507139D01*
X241064052Y-78356812D01*
X241070730Y-78348965D01*
X241198022Y-78171819D01*
X241199279Y-78172722D01*
X241246373Y-78129362D01*
X241316311Y-78117145D01*
X241381751Y-78144678D01*
X241409579Y-78176511D01*
X241469987Y-78275088D01*
X241616250Y-78443938D01*
X241788126Y-78586632D01*
X241981000Y-78699338D01*
X242189692Y-78779030D01*
X242194760Y-78780061D01*
X242194763Y-78780062D01*
X242289862Y-78799410D01*
X242408597Y-78823567D01*
X242413772Y-78823757D01*
X242413774Y-78823757D01*
X242626673Y-78831564D01*
X242626677Y-78831564D01*
X242631837Y-78831753D01*
X242636957Y-78831097D01*
X242636959Y-78831097D01*
X242848288Y-78804025D01*
X242848289Y-78804025D01*
X242853416Y-78803368D01*
X242858366Y-78801883D01*
X243062429Y-78740661D01*
X243062434Y-78740659D01*
X243067384Y-78739174D01*
X243267994Y-78640896D01*
X243449860Y-78511173D01*
X243608096Y-78353489D01*
X243738453Y-78172077D01*
X243751995Y-78144678D01*
X243835136Y-77976453D01*
X243835137Y-77976451D01*
X243837430Y-77971811D01*
X243902370Y-77758069D01*
X243931529Y-77536590D01*
X243932784Y-77485243D01*
X243933074Y-77473365D01*
X243933074Y-77473361D01*
X243933156Y-77470000D01*
X243914852Y-77247361D01*
X243860431Y-77030702D01*
X243771354Y-76825840D01*
X243650014Y-76638277D01*
X243499670Y-76473051D01*
X243354473Y-76358381D01*
X243313412Y-76300464D01*
X243310180Y-76229541D01*
X243345806Y-76168130D01*
X243408977Y-76135728D01*
X243432567Y-76133500D01*
X246277211Y-76133500D01*
X246345332Y-76153502D01*
X246391825Y-76207158D01*
X246401929Y-76277432D01*
X246378037Y-76335065D01*
X246349385Y-76373295D01*
X246298255Y-76509684D01*
X246291500Y-76571866D01*
X246291500Y-78368134D01*
X246298255Y-78430316D01*
X246349385Y-78566705D01*
X246436739Y-78683261D01*
X246553295Y-78770615D01*
X246689684Y-78821745D01*
X246751866Y-78828500D01*
X248548134Y-78828500D01*
X248610316Y-78821745D01*
X248746705Y-78770615D01*
X248863261Y-78683261D01*
X248950615Y-78566705D01*
X248972799Y-78507529D01*
X248994598Y-78449382D01*
X249037240Y-78392618D01*
X249103802Y-78367918D01*
X249173150Y-78383126D01*
X249207817Y-78411114D01*
X249236250Y-78443938D01*
X249408126Y-78586632D01*
X249601000Y-78699338D01*
X249809692Y-78779030D01*
X249814760Y-78780061D01*
X249814763Y-78780062D01*
X249909862Y-78799410D01*
X250028597Y-78823567D01*
X250033772Y-78823757D01*
X250033774Y-78823757D01*
X250246673Y-78831564D01*
X250246677Y-78831564D01*
X250251837Y-78831753D01*
X250256957Y-78831097D01*
X250256959Y-78831097D01*
X250468288Y-78804025D01*
X250468289Y-78804025D01*
X250473416Y-78803368D01*
X250478366Y-78801883D01*
X250682429Y-78740661D01*
X250682434Y-78740659D01*
X250687384Y-78739174D01*
X250887994Y-78640896D01*
X251069860Y-78511173D01*
X251228096Y-78353489D01*
X251358453Y-78172077D01*
X251359776Y-78173028D01*
X251406645Y-78129857D01*
X251476580Y-78117625D01*
X251542026Y-78145144D01*
X251569875Y-78176994D01*
X251629987Y-78275088D01*
X251776250Y-78443938D01*
X251948126Y-78586632D01*
X252141000Y-78699338D01*
X252349692Y-78779030D01*
X252354760Y-78780061D01*
X252354763Y-78780062D01*
X252449862Y-78799410D01*
X252568597Y-78823567D01*
X252573772Y-78823757D01*
X252573774Y-78823757D01*
X252786673Y-78831564D01*
X252786677Y-78831564D01*
X252791837Y-78831753D01*
X252796957Y-78831097D01*
X252796959Y-78831097D01*
X253008288Y-78804025D01*
X253008289Y-78804025D01*
X253013416Y-78803368D01*
X253018366Y-78801883D01*
X253222429Y-78740661D01*
X253222434Y-78740659D01*
X253227384Y-78739174D01*
X253427994Y-78640896D01*
X253609860Y-78511173D01*
X253768096Y-78353489D01*
X253898453Y-78172077D01*
X253899776Y-78173028D01*
X253946645Y-78129857D01*
X254016580Y-78117625D01*
X254082026Y-78145144D01*
X254109875Y-78176994D01*
X254169987Y-78275088D01*
X254316250Y-78443938D01*
X254488126Y-78586632D01*
X254681000Y-78699338D01*
X254889692Y-78779030D01*
X254894760Y-78780061D01*
X254894763Y-78780062D01*
X254989862Y-78799410D01*
X255108597Y-78823567D01*
X255113772Y-78823757D01*
X255113774Y-78823757D01*
X255326673Y-78831564D01*
X255326677Y-78831564D01*
X255331837Y-78831753D01*
X255336957Y-78831097D01*
X255336959Y-78831097D01*
X255548288Y-78804025D01*
X255548289Y-78804025D01*
X255553416Y-78803368D01*
X255558366Y-78801883D01*
X255762429Y-78740661D01*
X255762434Y-78740659D01*
X255767384Y-78739174D01*
X255967994Y-78640896D01*
X256149860Y-78511173D01*
X256308096Y-78353489D01*
X256438453Y-78172077D01*
X256439776Y-78173028D01*
X256486645Y-78129857D01*
X256556580Y-78117625D01*
X256622026Y-78145144D01*
X256649875Y-78176994D01*
X256709987Y-78275088D01*
X256856250Y-78443938D01*
X257028126Y-78586632D01*
X257221000Y-78699338D01*
X257429692Y-78779030D01*
X257434760Y-78780061D01*
X257434763Y-78780062D01*
X257529862Y-78799410D01*
X257648597Y-78823567D01*
X257653772Y-78823757D01*
X257653774Y-78823757D01*
X257866673Y-78831564D01*
X257866677Y-78831564D01*
X257871837Y-78831753D01*
X257876957Y-78831097D01*
X257876959Y-78831097D01*
X258088288Y-78804025D01*
X258088289Y-78804025D01*
X258093416Y-78803368D01*
X258098366Y-78801883D01*
X258302429Y-78740661D01*
X258302434Y-78740659D01*
X258307384Y-78739174D01*
X258507994Y-78640896D01*
X258689860Y-78511173D01*
X258848096Y-78353489D01*
X258978453Y-78172077D01*
X258979776Y-78173028D01*
X259026645Y-78129857D01*
X259096580Y-78117625D01*
X259162026Y-78145144D01*
X259189875Y-78176994D01*
X259249987Y-78275088D01*
X259396250Y-78443938D01*
X259568126Y-78586632D01*
X259761000Y-78699338D01*
X259969692Y-78779030D01*
X259974760Y-78780061D01*
X259974763Y-78780062D01*
X260069862Y-78799410D01*
X260188597Y-78823567D01*
X260193772Y-78823757D01*
X260193774Y-78823757D01*
X260406673Y-78831564D01*
X260406677Y-78831564D01*
X260411837Y-78831753D01*
X260416957Y-78831097D01*
X260416959Y-78831097D01*
X260628288Y-78804025D01*
X260628289Y-78804025D01*
X260633416Y-78803368D01*
X260638366Y-78801883D01*
X260842429Y-78740661D01*
X260842434Y-78740659D01*
X260847384Y-78739174D01*
X261047994Y-78640896D01*
X261229860Y-78511173D01*
X261388096Y-78353489D01*
X261518453Y-78172077D01*
X261531995Y-78144678D01*
X261615136Y-77976453D01*
X261615137Y-77976451D01*
X261617430Y-77971811D01*
X261682370Y-77758069D01*
X261711529Y-77536590D01*
X261712784Y-77485243D01*
X261713074Y-77473365D01*
X261713074Y-77473361D01*
X261713156Y-77470000D01*
X261694852Y-77247361D01*
X261640431Y-77030702D01*
X261551354Y-76825840D01*
X261430014Y-76638277D01*
X261279670Y-76473051D01*
X261275619Y-76469852D01*
X261275615Y-76469848D01*
X261108414Y-76337800D01*
X261108410Y-76337798D01*
X261104359Y-76334598D01*
X260908789Y-76226638D01*
X260903920Y-76224914D01*
X260903916Y-76224912D01*
X260703087Y-76153795D01*
X260703083Y-76153794D01*
X260698212Y-76152069D01*
X260693119Y-76151162D01*
X260693116Y-76151161D01*
X260483373Y-76113800D01*
X260483367Y-76113799D01*
X260478284Y-76112894D01*
X260404452Y-76111992D01*
X260260081Y-76110228D01*
X260260079Y-76110228D01*
X260254911Y-76110165D01*
X260034091Y-76143955D01*
X259821756Y-76213357D01*
X259623607Y-76316507D01*
X259619474Y-76319610D01*
X259619471Y-76319612D01*
X259449100Y-76447530D01*
X259444965Y-76450635D01*
X259441393Y-76454373D01*
X259333729Y-76567037D01*
X259290629Y-76612138D01*
X259183201Y-76769621D01*
X259128293Y-76814621D01*
X259057768Y-76822792D01*
X258994021Y-76791538D01*
X258973324Y-76767054D01*
X258892822Y-76642617D01*
X258892820Y-76642614D01*
X258890014Y-76638277D01*
X258739670Y-76473051D01*
X258735619Y-76469852D01*
X258735615Y-76469848D01*
X258568414Y-76337800D01*
X258568410Y-76337798D01*
X258564359Y-76334598D01*
X258368789Y-76226638D01*
X258363920Y-76224914D01*
X258363916Y-76224912D01*
X258163087Y-76153795D01*
X258163083Y-76153794D01*
X258158212Y-76152069D01*
X258153119Y-76151162D01*
X258153116Y-76151161D01*
X257943373Y-76113800D01*
X257943367Y-76113799D01*
X257938284Y-76112894D01*
X257864452Y-76111992D01*
X257720081Y-76110228D01*
X257720079Y-76110228D01*
X257714911Y-76110165D01*
X257494091Y-76143955D01*
X257281756Y-76213357D01*
X257083607Y-76316507D01*
X257079474Y-76319610D01*
X257079471Y-76319612D01*
X256909100Y-76447530D01*
X256904965Y-76450635D01*
X256901393Y-76454373D01*
X256793729Y-76567037D01*
X256750629Y-76612138D01*
X256643201Y-76769621D01*
X256588293Y-76814621D01*
X256517768Y-76822792D01*
X256454021Y-76791538D01*
X256433324Y-76767054D01*
X256352822Y-76642617D01*
X256352820Y-76642614D01*
X256350014Y-76638277D01*
X256199670Y-76473051D01*
X256195619Y-76469852D01*
X256195615Y-76469848D01*
X256028414Y-76337800D01*
X256028410Y-76337798D01*
X256024359Y-76334598D01*
X255828789Y-76226638D01*
X255823920Y-76224914D01*
X255823916Y-76224912D01*
X255623087Y-76153795D01*
X255623083Y-76153794D01*
X255618212Y-76152069D01*
X255567469Y-76143030D01*
X255538534Y-76137876D01*
X255474977Y-76106238D01*
X255438614Y-76045260D01*
X255440991Y-75974303D01*
X255463543Y-75933518D01*
X255465295Y-75931400D01*
X255473288Y-75922616D01*
X256392247Y-75003657D01*
X256400537Y-74996113D01*
X256407018Y-74992000D01*
X256453659Y-74942332D01*
X256456413Y-74939491D01*
X256476135Y-74919769D01*
X256478612Y-74916576D01*
X256486317Y-74907555D01*
X256511159Y-74881100D01*
X256516586Y-74875321D01*
X256520407Y-74868371D01*
X256526346Y-74857568D01*
X256537202Y-74841041D01*
X256544757Y-74831302D01*
X256544758Y-74831300D01*
X256549614Y-74825040D01*
X256567174Y-74784460D01*
X256572391Y-74773812D01*
X256589875Y-74742009D01*
X256589876Y-74742007D01*
X256593695Y-74735060D01*
X256596903Y-74722568D01*
X256598733Y-74715438D01*
X256605137Y-74696734D01*
X256610033Y-74685420D01*
X256610033Y-74685419D01*
X256613181Y-74678145D01*
X256614420Y-74670322D01*
X256614423Y-74670312D01*
X256620099Y-74634476D01*
X256622505Y-74622856D01*
X256631528Y-74587711D01*
X256631528Y-74587710D01*
X256633500Y-74580030D01*
X256633500Y-74559776D01*
X256635051Y-74540065D01*
X256636980Y-74527886D01*
X256638220Y-74520057D01*
X256634059Y-74476038D01*
X256633500Y-74464181D01*
X256633500Y-69506492D01*
X256653502Y-69438371D01*
X256707158Y-69391878D01*
X256777432Y-69381774D01*
X256785697Y-69383245D01*
X256898056Y-69407128D01*
X256898061Y-69407128D01*
X256904513Y-69408500D01*
X257095487Y-69408500D01*
X257101939Y-69407128D01*
X257101944Y-69407128D01*
X257188888Y-69388647D01*
X257282288Y-69368794D01*
X257288319Y-69366109D01*
X257450722Y-69293803D01*
X257450724Y-69293802D01*
X257456752Y-69291118D01*
X257498337Y-69260905D01*
X257530418Y-69237596D01*
X257611253Y-69178866D01*
X257641709Y-69145041D01*
X257734621Y-69041852D01*
X257734622Y-69041851D01*
X257739040Y-69036944D01*
X257813653Y-68907711D01*
X257831223Y-68877279D01*
X257831224Y-68877278D01*
X257834527Y-68871556D01*
X257893542Y-68689928D01*
X257895167Y-68674473D01*
X257912814Y-68506565D01*
X257913504Y-68500000D01*
X257906153Y-68430058D01*
X257894232Y-68316635D01*
X257894232Y-68316633D01*
X257893542Y-68310072D01*
X257834527Y-68128444D01*
X257739040Y-67963056D01*
X257611253Y-67821134D01*
X257456752Y-67708882D01*
X257450724Y-67706198D01*
X257450722Y-67706197D01*
X257288319Y-67633891D01*
X257288318Y-67633891D01*
X257282288Y-67631206D01*
X257183303Y-67610166D01*
X257120830Y-67576437D01*
X257086508Y-67514288D01*
X257083500Y-67486919D01*
X257083500Y-57822670D01*
X257522160Y-57822670D01*
X257527887Y-57830320D01*
X257699042Y-57935205D01*
X257707837Y-57939687D01*
X257917988Y-58026734D01*
X257927373Y-58029783D01*
X258148554Y-58082885D01*
X258158301Y-58084428D01*
X258385070Y-58102275D01*
X258394930Y-58102275D01*
X258621699Y-58084428D01*
X258631446Y-58082885D01*
X258852627Y-58029783D01*
X258862012Y-58026734D01*
X259072163Y-57939687D01*
X259080958Y-57935205D01*
X259248445Y-57832568D01*
X259257907Y-57822110D01*
X259254124Y-57813334D01*
X258402812Y-56962022D01*
X258388868Y-56954408D01*
X258387035Y-56954539D01*
X258380420Y-56958790D01*
X257528920Y-57810290D01*
X257522160Y-57822670D01*
X257083500Y-57822670D01*
X257083500Y-57572867D01*
X257103502Y-57504746D01*
X257159624Y-57457159D01*
X257166667Y-57454123D01*
X258017978Y-56602812D01*
X258024356Y-56591132D01*
X258754408Y-56591132D01*
X258754539Y-56592965D01*
X258758790Y-56599580D01*
X259610290Y-57451080D01*
X259622670Y-57457840D01*
X259630320Y-57452113D01*
X259735205Y-57280958D01*
X259739687Y-57272163D01*
X259826734Y-57062012D01*
X259829783Y-57052627D01*
X259882885Y-56831446D01*
X259884428Y-56821699D01*
X259902275Y-56594930D01*
X259902275Y-56585070D01*
X259884428Y-56358301D01*
X259882885Y-56348554D01*
X259829783Y-56127373D01*
X259826734Y-56117988D01*
X259739687Y-55907837D01*
X259735205Y-55899042D01*
X259632568Y-55731555D01*
X259622110Y-55722093D01*
X259613334Y-55725876D01*
X258762022Y-56577188D01*
X258754408Y-56591132D01*
X258024356Y-56591132D01*
X258025592Y-56588868D01*
X258025461Y-56587035D01*
X258021210Y-56580420D01*
X257169709Y-55728919D01*
X257149114Y-55717673D01*
X257098912Y-55667471D01*
X257083500Y-55607086D01*
X257083500Y-55357890D01*
X257522093Y-55357890D01*
X257525876Y-55366666D01*
X258377188Y-56217978D01*
X258391132Y-56225592D01*
X258392965Y-56225461D01*
X258399580Y-56221210D01*
X259251080Y-55369710D01*
X259257840Y-55357330D01*
X259252113Y-55349680D01*
X259080958Y-55244795D01*
X259072163Y-55240313D01*
X258862012Y-55153266D01*
X258852627Y-55150217D01*
X258631446Y-55097115D01*
X258621699Y-55095572D01*
X258394930Y-55077725D01*
X258385070Y-55077725D01*
X258158301Y-55095572D01*
X258148554Y-55097115D01*
X257927373Y-55150217D01*
X257917988Y-55153266D01*
X257707837Y-55240313D01*
X257699042Y-55244795D01*
X257531555Y-55347432D01*
X257522093Y-55357890D01*
X257083500Y-55357890D01*
X257083500Y-51322670D01*
X257522160Y-51322670D01*
X257527887Y-51330320D01*
X257699042Y-51435205D01*
X257707837Y-51439687D01*
X257917988Y-51526734D01*
X257927373Y-51529783D01*
X258148554Y-51582885D01*
X258158301Y-51584428D01*
X258385070Y-51602275D01*
X258394930Y-51602275D01*
X258621699Y-51584428D01*
X258631446Y-51582885D01*
X258852627Y-51529783D01*
X258862012Y-51526734D01*
X259072163Y-51439687D01*
X259080958Y-51435205D01*
X259248445Y-51332568D01*
X259257907Y-51322110D01*
X259254124Y-51313334D01*
X258402812Y-50462022D01*
X258388868Y-50454408D01*
X258387035Y-50454539D01*
X258380420Y-50458790D01*
X257528920Y-51310290D01*
X257522160Y-51322670D01*
X257083500Y-51322670D01*
X257083500Y-51072867D01*
X257103502Y-51004746D01*
X257159624Y-50957159D01*
X257166667Y-50954123D01*
X258017978Y-50102812D01*
X258024356Y-50091132D01*
X258754408Y-50091132D01*
X258754539Y-50092965D01*
X258758790Y-50099580D01*
X259610290Y-50951080D01*
X259622670Y-50957840D01*
X259630320Y-50952113D01*
X259735205Y-50780958D01*
X259739687Y-50772163D01*
X259826734Y-50562012D01*
X259829783Y-50552627D01*
X259882885Y-50331446D01*
X259884428Y-50321699D01*
X259902275Y-50094930D01*
X259902275Y-50085070D01*
X259884428Y-49858301D01*
X259882885Y-49848554D01*
X259829783Y-49627373D01*
X259826734Y-49617988D01*
X259739687Y-49407837D01*
X259735205Y-49399042D01*
X259632568Y-49231555D01*
X259622110Y-49222093D01*
X259613334Y-49225876D01*
X258762022Y-50077188D01*
X258754408Y-50091132D01*
X258024356Y-50091132D01*
X258025592Y-50088868D01*
X258025461Y-50087035D01*
X258021210Y-50080420D01*
X257169709Y-49228919D01*
X257149114Y-49217673D01*
X257098912Y-49167471D01*
X257083500Y-49107086D01*
X257083500Y-48857890D01*
X257522093Y-48857890D01*
X257525876Y-48866666D01*
X258377188Y-49717978D01*
X258391132Y-49725592D01*
X258392965Y-49725461D01*
X258399580Y-49721210D01*
X259251080Y-48869710D01*
X259257840Y-48857330D01*
X259252113Y-48849680D01*
X259080958Y-48744795D01*
X259072163Y-48740313D01*
X258862012Y-48653266D01*
X258852627Y-48650217D01*
X258631446Y-48597115D01*
X258621699Y-48595572D01*
X258394930Y-48577725D01*
X258385070Y-48577725D01*
X258158301Y-48595572D01*
X258148554Y-48597115D01*
X257927373Y-48650217D01*
X257917988Y-48653266D01*
X257707837Y-48740313D01*
X257699042Y-48744795D01*
X257531555Y-48847432D01*
X257522093Y-48857890D01*
X257083500Y-48857890D01*
X257083500Y-42255976D01*
X257084027Y-42244793D01*
X257085702Y-42237300D01*
X257083562Y-42169209D01*
X257083500Y-42165252D01*
X257083500Y-42137352D01*
X257082996Y-42133361D01*
X257082063Y-42121519D01*
X257080923Y-42085244D01*
X257080674Y-42077319D01*
X257075021Y-42057860D01*
X257071012Y-42038501D01*
X257070846Y-42037191D01*
X257068474Y-42018411D01*
X257065558Y-42011045D01*
X257065556Y-42011039D01*
X257052200Y-41977306D01*
X257048355Y-41966076D01*
X257038230Y-41931225D01*
X257038230Y-41931224D01*
X257036019Y-41923615D01*
X257029957Y-41913365D01*
X257025705Y-41906174D01*
X257017008Y-41888421D01*
X257012472Y-41876966D01*
X257009552Y-41869591D01*
X256983563Y-41833820D01*
X256977047Y-41823900D01*
X256958578Y-41792671D01*
X256954542Y-41785846D01*
X256940221Y-41771525D01*
X256927380Y-41756491D01*
X256920131Y-41746514D01*
X256915472Y-41740101D01*
X256881395Y-41711910D01*
X256872616Y-41703920D01*
X253170405Y-38001708D01*
X253136379Y-37939396D01*
X253133500Y-37912613D01*
X253133500Y-34355886D01*
X253153502Y-34287765D01*
X253206250Y-34241691D01*
X253381762Y-34159849D01*
X253381767Y-34159846D01*
X253386749Y-34157523D01*
X253565436Y-34032405D01*
X253569789Y-34029357D01*
X253569792Y-34029355D01*
X253574300Y-34026198D01*
X253736198Y-33864300D01*
X253867523Y-33676749D01*
X253869846Y-33671767D01*
X253869849Y-33671762D01*
X253961961Y-33474225D01*
X253961961Y-33474224D01*
X253964284Y-33469243D01*
X253969067Y-33451395D01*
X254022119Y-33253402D01*
X254022119Y-33253400D01*
X254023543Y-33248087D01*
X254024022Y-33242609D01*
X254024023Y-33242606D01*
X254026432Y-33215066D01*
X254052295Y-33148947D01*
X254109799Y-33107308D01*
X254180686Y-33103367D01*
X254241048Y-33136952D01*
X255996343Y-34892247D01*
X256003887Y-34900537D01*
X256008000Y-34907018D01*
X256013777Y-34912443D01*
X256057667Y-34953658D01*
X256060509Y-34956413D01*
X256080231Y-34976135D01*
X256083373Y-34978572D01*
X256083433Y-34978619D01*
X256092445Y-34986317D01*
X256100103Y-34993508D01*
X256124679Y-35016586D01*
X256131622Y-35020403D01*
X256142431Y-35026345D01*
X256158953Y-35037198D01*
X256174959Y-35049614D01*
X256182237Y-35052764D01*
X256182238Y-35052764D01*
X256215537Y-35067174D01*
X256226187Y-35072391D01*
X256264940Y-35093695D01*
X256272615Y-35095666D01*
X256272616Y-35095666D01*
X256284562Y-35098733D01*
X256303267Y-35105137D01*
X256321855Y-35113181D01*
X256329678Y-35114420D01*
X256329688Y-35114423D01*
X256365524Y-35120099D01*
X256377144Y-35122505D01*
X256405691Y-35129834D01*
X256419970Y-35133500D01*
X256440224Y-35133500D01*
X256459934Y-35135051D01*
X256479943Y-35138220D01*
X256487835Y-35137474D01*
X256506580Y-35135702D01*
X256523962Y-35134059D01*
X256535819Y-35133500D01*
X261421233Y-35133500D01*
X261432416Y-35134027D01*
X261439909Y-35135702D01*
X261447835Y-35135453D01*
X261447836Y-35135453D01*
X261507986Y-35133562D01*
X261511945Y-35133500D01*
X261539856Y-35133500D01*
X261543791Y-35133003D01*
X261543856Y-35132995D01*
X261555693Y-35132062D01*
X261587951Y-35131048D01*
X261591970Y-35130922D01*
X261599889Y-35130673D01*
X261619343Y-35125021D01*
X261638700Y-35121013D01*
X261650930Y-35119468D01*
X261650931Y-35119468D01*
X261658797Y-35118474D01*
X261666168Y-35115555D01*
X261666170Y-35115555D01*
X261699912Y-35102196D01*
X261711142Y-35098351D01*
X261745983Y-35088229D01*
X261745984Y-35088229D01*
X261753593Y-35086018D01*
X261760412Y-35081985D01*
X261760417Y-35081983D01*
X261771028Y-35075707D01*
X261788776Y-35067012D01*
X261807617Y-35059552D01*
X261843387Y-35033564D01*
X261853307Y-35027048D01*
X261884535Y-35008580D01*
X261884538Y-35008578D01*
X261891362Y-35004542D01*
X261905683Y-34990221D01*
X261920717Y-34977380D01*
X261930693Y-34970132D01*
X261937107Y-34965472D01*
X261965288Y-34931407D01*
X261973278Y-34922626D01*
X262392258Y-34503647D01*
X262400537Y-34496113D01*
X262407018Y-34492000D01*
X262453644Y-34442348D01*
X262456398Y-34439507D01*
X262476135Y-34419770D01*
X262478615Y-34416573D01*
X262486320Y-34407551D01*
X262511159Y-34381100D01*
X262516586Y-34375321D01*
X262520405Y-34368375D01*
X262520407Y-34368372D01*
X262526348Y-34357566D01*
X262537199Y-34341047D01*
X262544758Y-34331301D01*
X262549614Y-34325041D01*
X262552759Y-34317772D01*
X262552762Y-34317768D01*
X262567174Y-34284463D01*
X262572391Y-34273813D01*
X262593695Y-34235060D01*
X262598733Y-34215437D01*
X262605137Y-34196734D01*
X262610032Y-34185422D01*
X262613181Y-34178145D01*
X262614421Y-34170317D01*
X262614504Y-34170031D01*
X262652719Y-34110197D01*
X262717216Y-34080522D01*
X262787518Y-34090427D01*
X262841305Y-34136768D01*
X262861500Y-34205188D01*
X262861500Y-39428928D01*
X262860145Y-39441058D01*
X262860627Y-39441097D01*
X262859907Y-39450044D01*
X262857926Y-39458800D01*
X262858482Y-39467760D01*
X262861258Y-39512508D01*
X262861500Y-39520310D01*
X262861500Y-39536513D01*
X262862136Y-39540953D01*
X262862984Y-39546878D01*
X262864013Y-39556928D01*
X262866945Y-39604177D01*
X262869994Y-39612623D01*
X262870593Y-39615514D01*
X262874822Y-39632480D01*
X262875648Y-39635305D01*
X262876920Y-39644187D01*
X262896522Y-39687298D01*
X262900327Y-39696647D01*
X262916404Y-39741181D01*
X262921699Y-39748429D01*
X262923080Y-39751027D01*
X262931915Y-39766145D01*
X262933494Y-39768614D01*
X262937208Y-39776782D01*
X262957395Y-39800211D01*
X262968115Y-39812652D01*
X262974397Y-39820564D01*
X262975746Y-39822409D01*
X262999776Y-39889214D01*
X263000000Y-39896732D01*
X263000000Y-48451704D01*
X262979998Y-48519825D01*
X262926342Y-48566318D01*
X262883886Y-48577316D01*
X262799380Y-48583967D01*
X262653289Y-48595465D01*
X262648482Y-48596619D01*
X262648476Y-48596620D01*
X262502609Y-48631640D01*
X262422406Y-48650895D01*
X262417835Y-48652788D01*
X262417833Y-48652789D01*
X262207611Y-48739865D01*
X262207607Y-48739867D01*
X262203037Y-48741760D01*
X262198817Y-48744346D01*
X262004798Y-48863241D01*
X262004792Y-48863245D01*
X262000584Y-48865824D01*
X261820031Y-49020031D01*
X261665824Y-49200584D01*
X261663245Y-49204792D01*
X261663241Y-49204798D01*
X261544346Y-49398817D01*
X261541760Y-49403037D01*
X261539867Y-49407607D01*
X261539865Y-49407611D01*
X261452789Y-49617833D01*
X261450895Y-49622406D01*
X261395465Y-49853289D01*
X261376835Y-50090000D01*
X261395465Y-50326711D01*
X261450895Y-50557594D01*
X261452788Y-50562165D01*
X261452789Y-50562167D01*
X261539772Y-50772163D01*
X261541760Y-50776963D01*
X261544346Y-50781183D01*
X261663241Y-50975202D01*
X261663245Y-50975208D01*
X261665824Y-50979416D01*
X261820031Y-51159969D01*
X262000584Y-51314176D01*
X262004792Y-51316755D01*
X262004798Y-51316759D01*
X262198084Y-51435205D01*
X262203037Y-51438240D01*
X262207607Y-51440133D01*
X262207611Y-51440135D01*
X262417833Y-51527211D01*
X262422406Y-51529105D01*
X262502609Y-51548360D01*
X262648476Y-51583380D01*
X262648482Y-51583381D01*
X262653289Y-51584535D01*
X262799380Y-51596033D01*
X262883886Y-51602684D01*
X262950228Y-51627970D01*
X262992367Y-51685108D01*
X263000000Y-51728296D01*
X263000000Y-54951704D01*
X262979998Y-55019825D01*
X262926342Y-55066318D01*
X262883886Y-55077316D01*
X262799380Y-55083967D01*
X262653289Y-55095465D01*
X262648482Y-55096619D01*
X262648476Y-55096620D01*
X262502609Y-55131640D01*
X262422406Y-55150895D01*
X262417835Y-55152788D01*
X262417833Y-55152789D01*
X262207611Y-55239865D01*
X262207607Y-55239867D01*
X262203037Y-55241760D01*
X262198817Y-55244346D01*
X262004798Y-55363241D01*
X262004792Y-55363245D01*
X262000584Y-55365824D01*
X261820031Y-55520031D01*
X261665824Y-55700584D01*
X261663245Y-55704792D01*
X261663241Y-55704798D01*
X261544346Y-55898817D01*
X261541760Y-55903037D01*
X261539867Y-55907607D01*
X261539865Y-55907611D01*
X261452789Y-56117833D01*
X261450895Y-56122406D01*
X261395465Y-56353289D01*
X261376835Y-56590000D01*
X261395465Y-56826711D01*
X261450895Y-57057594D01*
X261452788Y-57062165D01*
X261452789Y-57062167D01*
X261539772Y-57272163D01*
X261541760Y-57276963D01*
X261544346Y-57281183D01*
X261663241Y-57475202D01*
X261663245Y-57475208D01*
X261665824Y-57479416D01*
X261820031Y-57659969D01*
X262000584Y-57814176D01*
X262004792Y-57816755D01*
X262004798Y-57816759D01*
X262198084Y-57935205D01*
X262203037Y-57938240D01*
X262207607Y-57940133D01*
X262207611Y-57940135D01*
X262417833Y-58027211D01*
X262422406Y-58029105D01*
X262502609Y-58048360D01*
X262648476Y-58083380D01*
X262648482Y-58083381D01*
X262653289Y-58084535D01*
X262799380Y-58096033D01*
X262883886Y-58102684D01*
X262950228Y-58127970D01*
X262992367Y-58185108D01*
X263000000Y-58228296D01*
X263000000Y-60791420D01*
X262979998Y-60859541D01*
X262926342Y-60906034D01*
X262884982Y-60916941D01*
X262661913Y-60936457D01*
X262656600Y-60937881D01*
X262656598Y-60937881D01*
X262446067Y-60994293D01*
X262446065Y-60994294D01*
X262440757Y-60995716D01*
X262435776Y-60998039D01*
X262435775Y-60998039D01*
X262238238Y-61090151D01*
X262238233Y-61090154D01*
X262233251Y-61092477D01*
X262128389Y-61165902D01*
X262050211Y-61220643D01*
X262050208Y-61220645D01*
X262045700Y-61223802D01*
X261883802Y-61385700D01*
X261752477Y-61573251D01*
X261750154Y-61578233D01*
X261750151Y-61578238D01*
X261658039Y-61775775D01*
X261655716Y-61780757D01*
X261596457Y-62001913D01*
X261576502Y-62230000D01*
X261596457Y-62458087D01*
X261655716Y-62679243D01*
X261658039Y-62684224D01*
X261658039Y-62684225D01*
X261750151Y-62881762D01*
X261750154Y-62881767D01*
X261752477Y-62886749D01*
X261883802Y-63074300D01*
X262045700Y-63236198D01*
X262050208Y-63239355D01*
X262050211Y-63239357D01*
X262128389Y-63294098D01*
X262233251Y-63367523D01*
X262238233Y-63369846D01*
X262238238Y-63369849D01*
X262435775Y-63461961D01*
X262440757Y-63464284D01*
X262446065Y-63465706D01*
X262446067Y-63465707D01*
X262656598Y-63522119D01*
X262656600Y-63522119D01*
X262661913Y-63523543D01*
X262876597Y-63542325D01*
X262884982Y-63543059D01*
X262951100Y-63568923D01*
X262992739Y-63626426D01*
X263000000Y-63668580D01*
X263000000Y-68411420D01*
X262979998Y-68479541D01*
X262926342Y-68526034D01*
X262884982Y-68536941D01*
X262661913Y-68556457D01*
X262656600Y-68557881D01*
X262656598Y-68557881D01*
X262446067Y-68614293D01*
X262446065Y-68614294D01*
X262440757Y-68615716D01*
X262435776Y-68618039D01*
X262435775Y-68618039D01*
X262238238Y-68710151D01*
X262238233Y-68710154D01*
X262233251Y-68712477D01*
X262130836Y-68784189D01*
X262050211Y-68840643D01*
X262050208Y-68840645D01*
X262045700Y-68843802D01*
X261883802Y-69005700D01*
X261880645Y-69010208D01*
X261880643Y-69010211D01*
X261849240Y-69055060D01*
X261752477Y-69193251D01*
X261750154Y-69198233D01*
X261750151Y-69198238D01*
X261670620Y-69368794D01*
X261655716Y-69400757D01*
X261596457Y-69621913D01*
X261576502Y-69850000D01*
X261596457Y-70078087D01*
X261655716Y-70299243D01*
X261658039Y-70304224D01*
X261658039Y-70304225D01*
X261750151Y-70501762D01*
X261750154Y-70501767D01*
X261752477Y-70506749D01*
X261781992Y-70548900D01*
X261857123Y-70656198D01*
X261883802Y-70694300D01*
X262045700Y-70856198D01*
X262050208Y-70859355D01*
X262050211Y-70859357D01*
X262062555Y-70868000D01*
X262233251Y-70987523D01*
X262238233Y-70989846D01*
X262238238Y-70989849D01*
X262421999Y-71075537D01*
X262440757Y-71084284D01*
X262446065Y-71085706D01*
X262446067Y-71085707D01*
X262656598Y-71142119D01*
X262656600Y-71142119D01*
X262661913Y-71143543D01*
X262876597Y-71162325D01*
X262884982Y-71163059D01*
X262951100Y-71188923D01*
X262992739Y-71246426D01*
X263000000Y-71288580D01*
X263000000Y-77103045D01*
X262979998Y-77171166D01*
X262968447Y-77186445D01*
X262940622Y-77217951D01*
X262936808Y-77226074D01*
X262935174Y-77228562D01*
X262926186Y-77243523D01*
X262924771Y-77246108D01*
X262919384Y-77253295D01*
X262905752Y-77289658D01*
X262902759Y-77297642D01*
X262898833Y-77306958D01*
X262878719Y-77349800D01*
X262877338Y-77358669D01*
X262876472Y-77361502D01*
X262872042Y-77378389D01*
X262871408Y-77381274D01*
X262868255Y-77389684D01*
X262867590Y-77398639D01*
X262864746Y-77436906D01*
X262863592Y-77446952D01*
X262861500Y-77460386D01*
X262861500Y-77475906D01*
X262861154Y-77485243D01*
X262857461Y-77534941D01*
X262859335Y-77543720D01*
X262859898Y-77551978D01*
X262861500Y-77567161D01*
X262861500Y-79865500D01*
X262841498Y-79933621D01*
X262787842Y-79980114D01*
X262735500Y-79991500D01*
X190126000Y-79991500D01*
X190057879Y-79971498D01*
X190011386Y-79917842D01*
X190000000Y-79865500D01*
X190000000Y-65714669D01*
X218302001Y-65714669D01*
X218302371Y-65721490D01*
X218307895Y-65772352D01*
X218311521Y-65787604D01*
X218356676Y-65908054D01*
X218365214Y-65923649D01*
X218441715Y-66025724D01*
X218454276Y-66038285D01*
X218556351Y-66114786D01*
X218571946Y-66123324D01*
X218692394Y-66168478D01*
X218707649Y-66172105D01*
X218758514Y-66177631D01*
X218765328Y-66178000D01*
X219437885Y-66178000D01*
X219453124Y-66173525D01*
X219454329Y-66172135D01*
X219456000Y-66164452D01*
X219456000Y-66159884D01*
X219964000Y-66159884D01*
X219968475Y-66175123D01*
X219969865Y-66176328D01*
X219977548Y-66177999D01*
X220654669Y-66177999D01*
X220661490Y-66177629D01*
X220712352Y-66172105D01*
X220727604Y-66168479D01*
X220848054Y-66123324D01*
X220863649Y-66114786D01*
X220965724Y-66038285D01*
X220978285Y-66025724D01*
X221054786Y-65923649D01*
X221063324Y-65908054D01*
X221084773Y-65850840D01*
X221127415Y-65794075D01*
X221193977Y-65769376D01*
X221263325Y-65784584D01*
X221283240Y-65798126D01*
X221439349Y-65927730D01*
X221639322Y-66044584D01*
X221855694Y-66127209D01*
X221860760Y-66128240D01*
X221860761Y-66128240D01*
X221913846Y-66139040D01*
X222082656Y-66173385D01*
X222213324Y-66178176D01*
X222308949Y-66181683D01*
X222308953Y-66181683D01*
X222314113Y-66181872D01*
X222319233Y-66181216D01*
X222319235Y-66181216D01*
X222418668Y-66168478D01*
X222543847Y-66152442D01*
X222548795Y-66150957D01*
X222548802Y-66150956D01*
X222760747Y-66087369D01*
X222765690Y-66085886D01*
X222846281Y-66046405D01*
X222969049Y-65986262D01*
X222969052Y-65986260D01*
X222973684Y-65983991D01*
X223162243Y-65849494D01*
X223297539Y-65714669D01*
X229732001Y-65714669D01*
X229732371Y-65721490D01*
X229737895Y-65772352D01*
X229741521Y-65787604D01*
X229786676Y-65908054D01*
X229795214Y-65923649D01*
X229871715Y-66025724D01*
X229884276Y-66038285D01*
X229986351Y-66114786D01*
X230001946Y-66123324D01*
X230122394Y-66168478D01*
X230137649Y-66172105D01*
X230188514Y-66177631D01*
X230195328Y-66178000D01*
X230867885Y-66178000D01*
X230883124Y-66173525D01*
X230884329Y-66172135D01*
X230886000Y-66164452D01*
X230886000Y-65042115D01*
X230881525Y-65026876D01*
X230880135Y-65025671D01*
X230872452Y-65024000D01*
X229750116Y-65024000D01*
X229734877Y-65028475D01*
X229733672Y-65029865D01*
X229732001Y-65037548D01*
X229732001Y-65714669D01*
X223297539Y-65714669D01*
X223326303Y-65686005D01*
X223461458Y-65497917D01*
X223564078Y-65290280D01*
X223631408Y-65068671D01*
X223661640Y-64839041D01*
X223663327Y-64770000D01*
X223657032Y-64693434D01*
X223644773Y-64544318D01*
X223644772Y-64544312D01*
X223644349Y-64539167D01*
X223633980Y-64497885D01*
X229732000Y-64497885D01*
X229736475Y-64513124D01*
X229737865Y-64514329D01*
X229745548Y-64516000D01*
X230867885Y-64516000D01*
X230883124Y-64511525D01*
X230884329Y-64510135D01*
X230886000Y-64502452D01*
X230886000Y-63380116D01*
X230881525Y-63364877D01*
X230880135Y-63363672D01*
X230872452Y-63362001D01*
X230195331Y-63362001D01*
X230188510Y-63362371D01*
X230137648Y-63367895D01*
X230122396Y-63371521D01*
X230001946Y-63416676D01*
X229986351Y-63425214D01*
X229884276Y-63501715D01*
X229871715Y-63514276D01*
X229795214Y-63616351D01*
X229786676Y-63631946D01*
X229741522Y-63752394D01*
X229737895Y-63767649D01*
X229732369Y-63818514D01*
X229732000Y-63825328D01*
X229732000Y-64497885D01*
X223633980Y-64497885D01*
X223587925Y-64314533D01*
X223495570Y-64102131D01*
X223369764Y-63907665D01*
X223213887Y-63736358D01*
X223209836Y-63733159D01*
X223209832Y-63733155D01*
X223036177Y-63596011D01*
X223036172Y-63596008D01*
X223032123Y-63592810D01*
X223027607Y-63590317D01*
X223027604Y-63590315D01*
X222833879Y-63483373D01*
X222833875Y-63483371D01*
X222829355Y-63480876D01*
X222824486Y-63479152D01*
X222824482Y-63479150D01*
X222615903Y-63405288D01*
X222615899Y-63405287D01*
X222611028Y-63403562D01*
X222605935Y-63402655D01*
X222605932Y-63402654D01*
X222388095Y-63363851D01*
X222388089Y-63363850D01*
X222383006Y-63362945D01*
X222305644Y-63362000D01*
X222156581Y-63360179D01*
X222156579Y-63360179D01*
X222151411Y-63360116D01*
X221922464Y-63395150D01*
X221702314Y-63467106D01*
X221697726Y-63469494D01*
X221697722Y-63469496D01*
X221501461Y-63571663D01*
X221496872Y-63574052D01*
X221492739Y-63577155D01*
X221492736Y-63577157D01*
X221315790Y-63710012D01*
X221311655Y-63713117D01*
X221308083Y-63716855D01*
X221293787Y-63731815D01*
X221232263Y-63767245D01*
X221161351Y-63763788D01*
X221103564Y-63722543D01*
X221084711Y-63688994D01*
X221063324Y-63631946D01*
X221054786Y-63616351D01*
X220978285Y-63514276D01*
X220965724Y-63501715D01*
X220863649Y-63425214D01*
X220848054Y-63416676D01*
X220727606Y-63371522D01*
X220712351Y-63367895D01*
X220661486Y-63362369D01*
X220654672Y-63362000D01*
X219982115Y-63362000D01*
X219966876Y-63366475D01*
X219965671Y-63367865D01*
X219964000Y-63375548D01*
X219964000Y-66159884D01*
X219456000Y-66159884D01*
X219456000Y-65042115D01*
X219451525Y-65026876D01*
X219450135Y-65025671D01*
X219442452Y-65024000D01*
X218320116Y-65024000D01*
X218304877Y-65028475D01*
X218303672Y-65029865D01*
X218302001Y-65037548D01*
X218302001Y-65714669D01*
X190000000Y-65714669D01*
X190000000Y-64497885D01*
X218302000Y-64497885D01*
X218306475Y-64513124D01*
X218307865Y-64514329D01*
X218315548Y-64516000D01*
X219437885Y-64516000D01*
X219453124Y-64511525D01*
X219454329Y-64510135D01*
X219456000Y-64502452D01*
X219456000Y-63380116D01*
X219451525Y-63364877D01*
X219450135Y-63363672D01*
X219442452Y-63362001D01*
X218765331Y-63362001D01*
X218758510Y-63362371D01*
X218707648Y-63367895D01*
X218692396Y-63371521D01*
X218571946Y-63416676D01*
X218556351Y-63425214D01*
X218454276Y-63501715D01*
X218441715Y-63514276D01*
X218365214Y-63616351D01*
X218356676Y-63631946D01*
X218311522Y-63752394D01*
X218307895Y-63767649D01*
X218302369Y-63818514D01*
X218302000Y-63825328D01*
X218302000Y-64497885D01*
X190000000Y-64497885D01*
X190000000Y-57822670D01*
X200372160Y-57822670D01*
X200377887Y-57830320D01*
X200549042Y-57935205D01*
X200557837Y-57939687D01*
X200767988Y-58026734D01*
X200777373Y-58029783D01*
X200998554Y-58082885D01*
X201008301Y-58084428D01*
X201235070Y-58102275D01*
X201244930Y-58102275D01*
X201471699Y-58084428D01*
X201481446Y-58082885D01*
X201702627Y-58029783D01*
X201712012Y-58026734D01*
X201922163Y-57939687D01*
X201930958Y-57935205D01*
X202098445Y-57832568D01*
X202107907Y-57822110D01*
X202104124Y-57813334D01*
X201252812Y-56962022D01*
X201238868Y-56954408D01*
X201237035Y-56954539D01*
X201230420Y-56958790D01*
X200378920Y-57810290D01*
X200372160Y-57822670D01*
X190000000Y-57822670D01*
X190000000Y-56594930D01*
X199727725Y-56594930D01*
X199745572Y-56821699D01*
X199747115Y-56831446D01*
X199800217Y-57052627D01*
X199803266Y-57062012D01*
X199890313Y-57272163D01*
X199894795Y-57280958D01*
X199997432Y-57448445D01*
X200007890Y-57457907D01*
X200016666Y-57454124D01*
X200867978Y-56602812D01*
X200874356Y-56591132D01*
X201604408Y-56591132D01*
X201604539Y-56592965D01*
X201608790Y-56599580D01*
X202460290Y-57451080D01*
X202472670Y-57457840D01*
X202480320Y-57452113D01*
X202585205Y-57280958D01*
X202589687Y-57272163D01*
X202676734Y-57062012D01*
X202679783Y-57052627D01*
X202732885Y-56831446D01*
X202734428Y-56821699D01*
X202752275Y-56594930D01*
X202752275Y-56590000D01*
X204226835Y-56590000D01*
X204245465Y-56826711D01*
X204300895Y-57057594D01*
X204302788Y-57062165D01*
X204302789Y-57062167D01*
X204389772Y-57272163D01*
X204391760Y-57276963D01*
X204394346Y-57281183D01*
X204513241Y-57475202D01*
X204513245Y-57475208D01*
X204515824Y-57479416D01*
X204670031Y-57659969D01*
X204850584Y-57814176D01*
X204854792Y-57816755D01*
X204854798Y-57816759D01*
X205048084Y-57935205D01*
X205053037Y-57938240D01*
X205057607Y-57940133D01*
X205057611Y-57940135D01*
X205267833Y-58027211D01*
X205272406Y-58029105D01*
X205352609Y-58048360D01*
X205498476Y-58083380D01*
X205498482Y-58083381D01*
X205503289Y-58084535D01*
X205740000Y-58103165D01*
X205976711Y-58084535D01*
X205981518Y-58083381D01*
X205981524Y-58083380D01*
X206127391Y-58048360D01*
X206207594Y-58029105D01*
X206212167Y-58027211D01*
X206422389Y-57940135D01*
X206422393Y-57940133D01*
X206426963Y-57938240D01*
X206431916Y-57935205D01*
X206625202Y-57816759D01*
X206625208Y-57816755D01*
X206629416Y-57814176D01*
X206809969Y-57659969D01*
X206964176Y-57479416D01*
X206966755Y-57475208D01*
X206966759Y-57475202D01*
X207085654Y-57281183D01*
X207088240Y-57276963D01*
X207090229Y-57272163D01*
X207177211Y-57062167D01*
X207177212Y-57062165D01*
X207179105Y-57057594D01*
X207234535Y-56826711D01*
X207253165Y-56590000D01*
X207234535Y-56353289D01*
X207179105Y-56122406D01*
X207177211Y-56117833D01*
X207090135Y-55907611D01*
X207090133Y-55907607D01*
X207088240Y-55903037D01*
X207085654Y-55898817D01*
X206966759Y-55704798D01*
X206966755Y-55704792D01*
X206964176Y-55700584D01*
X206809969Y-55520031D01*
X206629416Y-55365824D01*
X206625208Y-55363245D01*
X206625202Y-55363241D01*
X206431183Y-55244346D01*
X206426963Y-55241760D01*
X206422393Y-55239867D01*
X206422389Y-55239865D01*
X206212167Y-55152789D01*
X206212165Y-55152788D01*
X206207594Y-55150895D01*
X206127391Y-55131640D01*
X205981524Y-55096620D01*
X205981518Y-55096619D01*
X205976711Y-55095465D01*
X205740000Y-55076835D01*
X205503289Y-55095465D01*
X205498482Y-55096619D01*
X205498476Y-55096620D01*
X205352609Y-55131640D01*
X205272406Y-55150895D01*
X205267835Y-55152788D01*
X205267833Y-55152789D01*
X205057611Y-55239865D01*
X205057607Y-55239867D01*
X205053037Y-55241760D01*
X205048817Y-55244346D01*
X204854798Y-55363241D01*
X204854792Y-55363245D01*
X204850584Y-55365824D01*
X204670031Y-55520031D01*
X204515824Y-55700584D01*
X204513245Y-55704792D01*
X204513241Y-55704798D01*
X204394346Y-55898817D01*
X204391760Y-55903037D01*
X204389867Y-55907607D01*
X204389865Y-55907611D01*
X204302789Y-56117833D01*
X204300895Y-56122406D01*
X204245465Y-56353289D01*
X204226835Y-56590000D01*
X202752275Y-56590000D01*
X202752275Y-56585070D01*
X202734428Y-56358301D01*
X202732885Y-56348554D01*
X202679783Y-56127373D01*
X202676734Y-56117988D01*
X202589687Y-55907837D01*
X202585205Y-55899042D01*
X202482568Y-55731555D01*
X202472110Y-55722093D01*
X202463334Y-55725876D01*
X201612022Y-56577188D01*
X201604408Y-56591132D01*
X200874356Y-56591132D01*
X200875592Y-56588868D01*
X200875461Y-56587035D01*
X200871210Y-56580420D01*
X200019710Y-55728920D01*
X200007330Y-55722160D01*
X199999680Y-55727887D01*
X199894795Y-55899042D01*
X199890313Y-55907837D01*
X199803266Y-56117988D01*
X199800217Y-56127373D01*
X199747115Y-56348554D01*
X199745572Y-56358301D01*
X199727725Y-56585070D01*
X199727725Y-56594930D01*
X190000000Y-56594930D01*
X190000000Y-55357890D01*
X200372093Y-55357890D01*
X200375876Y-55366666D01*
X201227188Y-56217978D01*
X201241132Y-56225592D01*
X201242965Y-56225461D01*
X201249580Y-56221210D01*
X202101080Y-55369710D01*
X202107840Y-55357330D01*
X202102113Y-55349680D01*
X201930958Y-55244795D01*
X201922163Y-55240313D01*
X201712012Y-55153266D01*
X201702627Y-55150217D01*
X201481446Y-55097115D01*
X201471699Y-55095572D01*
X201244930Y-55077725D01*
X201235070Y-55077725D01*
X201008301Y-55095572D01*
X200998554Y-55097115D01*
X200777373Y-55150217D01*
X200767988Y-55153266D01*
X200557837Y-55240313D01*
X200549042Y-55244795D01*
X200381555Y-55347432D01*
X200372093Y-55357890D01*
X190000000Y-55357890D01*
X190000000Y-54284669D01*
X229732001Y-54284669D01*
X229732371Y-54291490D01*
X229737895Y-54342352D01*
X229741521Y-54357604D01*
X229786676Y-54478054D01*
X229795214Y-54493649D01*
X229871715Y-54595724D01*
X229884276Y-54608285D01*
X229986351Y-54684786D01*
X230001946Y-54693324D01*
X230122394Y-54738478D01*
X230137649Y-54742105D01*
X230188514Y-54747631D01*
X230195328Y-54748000D01*
X230867885Y-54748000D01*
X230883124Y-54743525D01*
X230884329Y-54742135D01*
X230886000Y-54734452D01*
X230886000Y-54729884D01*
X231394000Y-54729884D01*
X231398475Y-54745123D01*
X231399865Y-54746328D01*
X231407548Y-54747999D01*
X232084669Y-54747999D01*
X232091490Y-54747629D01*
X232142352Y-54742105D01*
X232157604Y-54738479D01*
X232278054Y-54693324D01*
X232293649Y-54684786D01*
X232395724Y-54608285D01*
X232408285Y-54595724D01*
X232484786Y-54493649D01*
X232493324Y-54478054D01*
X232514773Y-54420840D01*
X232557415Y-54364075D01*
X232623977Y-54339376D01*
X232693325Y-54354584D01*
X232713240Y-54368126D01*
X232869349Y-54497730D01*
X233069322Y-54614584D01*
X233285694Y-54697209D01*
X233290760Y-54698240D01*
X233290761Y-54698240D01*
X233343846Y-54709040D01*
X233512656Y-54743385D01*
X233643324Y-54748176D01*
X233738949Y-54751683D01*
X233738953Y-54751683D01*
X233744113Y-54751872D01*
X233749233Y-54751216D01*
X233749235Y-54751216D01*
X233848668Y-54738478D01*
X233973847Y-54722442D01*
X233978795Y-54720957D01*
X233978802Y-54720956D01*
X234190747Y-54657369D01*
X234195690Y-54655886D01*
X234276236Y-54616427D01*
X234399049Y-54556262D01*
X234399052Y-54556260D01*
X234403684Y-54553991D01*
X234592243Y-54419494D01*
X234756303Y-54256005D01*
X234891458Y-54067917D01*
X234994078Y-53860280D01*
X235061408Y-53638671D01*
X235091640Y-53409041D01*
X235093327Y-53340000D01*
X235087032Y-53263434D01*
X235074773Y-53114318D01*
X235074772Y-53114312D01*
X235074349Y-53109167D01*
X235017925Y-52884533D01*
X234925570Y-52672131D01*
X234799764Y-52477665D01*
X234643887Y-52306358D01*
X234639836Y-52303159D01*
X234639832Y-52303155D01*
X234466177Y-52166011D01*
X234466172Y-52166008D01*
X234462123Y-52162810D01*
X234457607Y-52160317D01*
X234457604Y-52160315D01*
X234263879Y-52053373D01*
X234263875Y-52053371D01*
X234259355Y-52050876D01*
X234254486Y-52049152D01*
X234254482Y-52049150D01*
X234045903Y-51975288D01*
X234045899Y-51975287D01*
X234041028Y-51973562D01*
X234035935Y-51972655D01*
X234035932Y-51972654D01*
X233818095Y-51933851D01*
X233818089Y-51933850D01*
X233813006Y-51932945D01*
X233735644Y-51932000D01*
X233586581Y-51930179D01*
X233586579Y-51930179D01*
X233581411Y-51930116D01*
X233352464Y-51965150D01*
X233132314Y-52037106D01*
X233127726Y-52039494D01*
X233127722Y-52039496D01*
X232931461Y-52141663D01*
X232926872Y-52144052D01*
X232922739Y-52147155D01*
X232922736Y-52147157D01*
X232745790Y-52280012D01*
X232741655Y-52283117D01*
X232738083Y-52286855D01*
X232723787Y-52301815D01*
X232662263Y-52337245D01*
X232591351Y-52333788D01*
X232533564Y-52292543D01*
X232514711Y-52258994D01*
X232493324Y-52201946D01*
X232484786Y-52186351D01*
X232408285Y-52084276D01*
X232395724Y-52071715D01*
X232293649Y-51995214D01*
X232278054Y-51986676D01*
X232157606Y-51941522D01*
X232142351Y-51937895D01*
X232091486Y-51932369D01*
X232084672Y-51932000D01*
X231412115Y-51932000D01*
X231396876Y-51936475D01*
X231395671Y-51937865D01*
X231394000Y-51945548D01*
X231394000Y-54729884D01*
X230886000Y-54729884D01*
X230886000Y-53612115D01*
X230881525Y-53596876D01*
X230880135Y-53595671D01*
X230872452Y-53594000D01*
X229750116Y-53594000D01*
X229734877Y-53598475D01*
X229733672Y-53599865D01*
X229732001Y-53607548D01*
X229732001Y-54284669D01*
X190000000Y-54284669D01*
X190000000Y-53067885D01*
X229732000Y-53067885D01*
X229736475Y-53083124D01*
X229737865Y-53084329D01*
X229745548Y-53086000D01*
X230867885Y-53086000D01*
X230883124Y-53081525D01*
X230884329Y-53080135D01*
X230886000Y-53072452D01*
X230886000Y-51950116D01*
X230881525Y-51934877D01*
X230880135Y-51933672D01*
X230872452Y-51932001D01*
X230195331Y-51932001D01*
X230188510Y-51932371D01*
X230137648Y-51937895D01*
X230122396Y-51941521D01*
X230001946Y-51986676D01*
X229986351Y-51995214D01*
X229884276Y-52071715D01*
X229871715Y-52084276D01*
X229795214Y-52186351D01*
X229786676Y-52201946D01*
X229741522Y-52322394D01*
X229737895Y-52337649D01*
X229732369Y-52388514D01*
X229732000Y-52395328D01*
X229732000Y-53067885D01*
X190000000Y-53067885D01*
X190000000Y-51322670D01*
X200372160Y-51322670D01*
X200377887Y-51330320D01*
X200549042Y-51435205D01*
X200557837Y-51439687D01*
X200767988Y-51526734D01*
X200777373Y-51529783D01*
X200998554Y-51582885D01*
X201008301Y-51584428D01*
X201235070Y-51602275D01*
X201244930Y-51602275D01*
X201471699Y-51584428D01*
X201481446Y-51582885D01*
X201702627Y-51529783D01*
X201712012Y-51526734D01*
X201922163Y-51439687D01*
X201930958Y-51435205D01*
X202098445Y-51332568D01*
X202107907Y-51322110D01*
X202104124Y-51313334D01*
X201252812Y-50462022D01*
X201238868Y-50454408D01*
X201237035Y-50454539D01*
X201230420Y-50458790D01*
X200378920Y-51310290D01*
X200372160Y-51322670D01*
X190000000Y-51322670D01*
X190000000Y-50094930D01*
X199727725Y-50094930D01*
X199745572Y-50321699D01*
X199747115Y-50331446D01*
X199800217Y-50552627D01*
X199803266Y-50562012D01*
X199890313Y-50772163D01*
X199894795Y-50780958D01*
X199997432Y-50948445D01*
X200007890Y-50957907D01*
X200016666Y-50954124D01*
X200867978Y-50102812D01*
X200874356Y-50091132D01*
X201604408Y-50091132D01*
X201604539Y-50092965D01*
X201608790Y-50099580D01*
X202460290Y-50951080D01*
X202472670Y-50957840D01*
X202480320Y-50952113D01*
X202585205Y-50780958D01*
X202589687Y-50772163D01*
X202676734Y-50562012D01*
X202679783Y-50552627D01*
X202732885Y-50331446D01*
X202734428Y-50321699D01*
X202752275Y-50094930D01*
X202752275Y-50085070D01*
X202734428Y-49858301D01*
X202732885Y-49848554D01*
X202679783Y-49627373D01*
X202676734Y-49617988D01*
X202589687Y-49407837D01*
X202585205Y-49399042D01*
X202482568Y-49231555D01*
X202472110Y-49222093D01*
X202463334Y-49225876D01*
X201612022Y-50077188D01*
X201604408Y-50091132D01*
X200874356Y-50091132D01*
X200875592Y-50088868D01*
X200875461Y-50087035D01*
X200871210Y-50080420D01*
X200019710Y-49228920D01*
X200007330Y-49222160D01*
X199999680Y-49227887D01*
X199894795Y-49399042D01*
X199890313Y-49407837D01*
X199803266Y-49617988D01*
X199800217Y-49627373D01*
X199747115Y-49848554D01*
X199745572Y-49858301D01*
X199727725Y-50085070D01*
X199727725Y-50094930D01*
X190000000Y-50094930D01*
X190000000Y-48857890D01*
X200372093Y-48857890D01*
X200375876Y-48866666D01*
X201227188Y-49717978D01*
X201241132Y-49725592D01*
X201242965Y-49725461D01*
X201249580Y-49721210D01*
X202101080Y-48869710D01*
X202107840Y-48857330D01*
X202102113Y-48849680D01*
X201930958Y-48744795D01*
X201922163Y-48740313D01*
X201712012Y-48653266D01*
X201702627Y-48650217D01*
X201481446Y-48597115D01*
X201471699Y-48595572D01*
X201244930Y-48577725D01*
X201235070Y-48577725D01*
X201008301Y-48595572D01*
X200998554Y-48597115D01*
X200777373Y-48650217D01*
X200767988Y-48653266D01*
X200557837Y-48740313D01*
X200549042Y-48744795D01*
X200381555Y-48847432D01*
X200372093Y-48857890D01*
X190000000Y-48857890D01*
X190000000Y-26634500D01*
X190020002Y-26566379D01*
X190073658Y-26519886D01*
X190126000Y-26508500D01*
X240261406Y-26508500D01*
X240329527Y-26528502D01*
G37*
%TD.AperFunction*%
%TD*%
M02*
