%TF.GenerationSoftware,KiCad,Pcbnew,(6.0.7)*%
%TF.CreationDate,2022-08-31T11:28:36+09:00*%
%TF.ProjectId,LED_Dice,4c45445f-4469-4636-952e-6b696361645f,rev?*%
%TF.SameCoordinates,Original*%
%TF.FileFunction,Legend,Top*%
%TF.FilePolarity,Positive*%
%FSLAX46Y46*%
G04 Gerber Fmt 4.6, Leading zero omitted, Abs format (unit mm)*
G04 Created by KiCad (PCBNEW (6.0.7)) date 2022-08-31 11:28:36*
%MOMM*%
%LPD*%
G01*
G04 APERTURE LIST*
%ADD10C,0.150000*%
%ADD11C,1.000000*%
%ADD12C,1.500000*%
%ADD13C,0.120000*%
G04 APERTURE END LIST*
D10*
X193287976Y-74556666D02*
X193764166Y-74556666D01*
X193192738Y-74842380D02*
X193526071Y-73842380D01*
X193859404Y-74842380D01*
X194192738Y-74842380D02*
X194192738Y-74175714D01*
X194192738Y-74366190D02*
X194240357Y-74270952D01*
X194287976Y-74223333D01*
X194383214Y-74175714D01*
X194478452Y-74175714D01*
X195240357Y-74842380D02*
X195240357Y-73842380D01*
X195240357Y-74794761D02*
X195145119Y-74842380D01*
X194954642Y-74842380D01*
X194859404Y-74794761D01*
X194811785Y-74747142D01*
X194764166Y-74651904D01*
X194764166Y-74366190D01*
X194811785Y-74270952D01*
X194859404Y-74223333D01*
X194954642Y-74175714D01*
X195145119Y-74175714D01*
X195240357Y-74223333D01*
X196145119Y-74175714D02*
X196145119Y-74842380D01*
X195716547Y-74175714D02*
X195716547Y-74699523D01*
X195764166Y-74794761D01*
X195859404Y-74842380D01*
X196002261Y-74842380D01*
X196097500Y-74794761D01*
X196145119Y-74747142D01*
X196621309Y-74842380D02*
X196621309Y-74175714D01*
X196621309Y-73842380D02*
X196573690Y-73890000D01*
X196621309Y-73937619D01*
X196668928Y-73890000D01*
X196621309Y-73842380D01*
X196621309Y-73937619D01*
X197097500Y-74175714D02*
X197097500Y-74842380D01*
X197097500Y-74270952D02*
X197145119Y-74223333D01*
X197240357Y-74175714D01*
X197383214Y-74175714D01*
X197478452Y-74223333D01*
X197526071Y-74318571D01*
X197526071Y-74842380D01*
X198145119Y-74842380D02*
X198049880Y-74794761D01*
X198002261Y-74747142D01*
X197954642Y-74651904D01*
X197954642Y-74366190D01*
X198002261Y-74270952D01*
X198049880Y-74223333D01*
X198145119Y-74175714D01*
X198287976Y-74175714D01*
X198383214Y-74223333D01*
X198430833Y-74270952D01*
X198478452Y-74366190D01*
X198478452Y-74651904D01*
X198430833Y-74747142D01*
X198383214Y-74794761D01*
X198287976Y-74842380D01*
X198145119Y-74842380D01*
X199668928Y-74842380D02*
X199668928Y-73842380D01*
X199907023Y-73842380D01*
X200049880Y-73890000D01*
X200145119Y-73985238D01*
X200192738Y-74080476D01*
X200240357Y-74270952D01*
X200240357Y-74413809D01*
X200192738Y-74604285D01*
X200145119Y-74699523D01*
X200049880Y-74794761D01*
X199907023Y-74842380D01*
X199668928Y-74842380D01*
X200668928Y-74842380D02*
X200668928Y-74175714D01*
X200668928Y-73842380D02*
X200621309Y-73890000D01*
X200668928Y-73937619D01*
X200716547Y-73890000D01*
X200668928Y-73842380D01*
X200668928Y-73937619D01*
X201573690Y-74794761D02*
X201478452Y-74842380D01*
X201287976Y-74842380D01*
X201192738Y-74794761D01*
X201145119Y-74747142D01*
X201097500Y-74651904D01*
X201097500Y-74366190D01*
X201145119Y-74270952D01*
X201192738Y-74223333D01*
X201287976Y-74175714D01*
X201478452Y-74175714D01*
X201573690Y-74223333D01*
X202383214Y-74794761D02*
X202287976Y-74842380D01*
X202097500Y-74842380D01*
X202002261Y-74794761D01*
X201954642Y-74699523D01*
X201954642Y-74318571D01*
X202002261Y-74223333D01*
X202097500Y-74175714D01*
X202287976Y-74175714D01*
X202383214Y-74223333D01*
X202430833Y-74318571D01*
X202430833Y-74413809D01*
X201954642Y-74509047D01*
X203573690Y-74794761D02*
X203716547Y-74842380D01*
X203954642Y-74842380D01*
X204049880Y-74794761D01*
X204097500Y-74747142D01*
X204145119Y-74651904D01*
X204145119Y-74556666D01*
X204097500Y-74461428D01*
X204049880Y-74413809D01*
X203954642Y-74366190D01*
X203764166Y-74318571D01*
X203668928Y-74270952D01*
X203621309Y-74223333D01*
X203573690Y-74128095D01*
X203573690Y-74032857D01*
X203621309Y-73937619D01*
X203668928Y-73890000D01*
X203764166Y-73842380D01*
X204002261Y-73842380D01*
X204145119Y-73890000D01*
X204573690Y-74842380D02*
X204573690Y-73842380D01*
X205002261Y-74842380D02*
X205002261Y-74318571D01*
X204954642Y-74223333D01*
X204859404Y-74175714D01*
X204716547Y-74175714D01*
X204621309Y-74223333D01*
X204573690Y-74270952D01*
X205478452Y-74842380D02*
X205478452Y-74175714D01*
X205478452Y-73842380D02*
X205430833Y-73890000D01*
X205478452Y-73937619D01*
X205526071Y-73890000D01*
X205478452Y-73842380D01*
X205478452Y-73937619D01*
X206335595Y-74794761D02*
X206240357Y-74842380D01*
X206049880Y-74842380D01*
X205954642Y-74794761D01*
X205907023Y-74699523D01*
X205907023Y-74318571D01*
X205954642Y-74223333D01*
X206049880Y-74175714D01*
X206240357Y-74175714D01*
X206335595Y-74223333D01*
X206383214Y-74318571D01*
X206383214Y-74413809D01*
X205907023Y-74509047D01*
X206954642Y-74842380D02*
X206859404Y-74794761D01*
X206811785Y-74699523D01*
X206811785Y-73842380D01*
X207764166Y-74842380D02*
X207764166Y-73842380D01*
X207764166Y-74794761D02*
X207668928Y-74842380D01*
X207478452Y-74842380D01*
X207383214Y-74794761D01*
X207335595Y-74747142D01*
X207287976Y-74651904D01*
X207287976Y-74366190D01*
X207335595Y-74270952D01*
X207383214Y-74223333D01*
X207478452Y-74175714D01*
X207668928Y-74175714D01*
X207764166Y-74223333D01*
X193287976Y-75547619D02*
X193335595Y-75500000D01*
X193430833Y-75452380D01*
X193668928Y-75452380D01*
X193764166Y-75500000D01*
X193811785Y-75547619D01*
X193859404Y-75642857D01*
X193859404Y-75738095D01*
X193811785Y-75880952D01*
X193240357Y-76452380D01*
X193859404Y-76452380D01*
X194478452Y-75452380D02*
X194573690Y-75452380D01*
X194668928Y-75500000D01*
X194716547Y-75547619D01*
X194764166Y-75642857D01*
X194811785Y-75833333D01*
X194811785Y-76071428D01*
X194764166Y-76261904D01*
X194716547Y-76357142D01*
X194668928Y-76404761D01*
X194573690Y-76452380D01*
X194478452Y-76452380D01*
X194383214Y-76404761D01*
X194335595Y-76357142D01*
X194287976Y-76261904D01*
X194240357Y-76071428D01*
X194240357Y-75833333D01*
X194287976Y-75642857D01*
X194335595Y-75547619D01*
X194383214Y-75500000D01*
X194478452Y-75452380D01*
X195192738Y-75547619D02*
X195240357Y-75500000D01*
X195335595Y-75452380D01*
X195573690Y-75452380D01*
X195668928Y-75500000D01*
X195716547Y-75547619D01*
X195764166Y-75642857D01*
X195764166Y-75738095D01*
X195716547Y-75880952D01*
X195145119Y-76452380D01*
X195764166Y-76452380D01*
X196145119Y-75547619D02*
X196192738Y-75500000D01*
X196287976Y-75452380D01*
X196526071Y-75452380D01*
X196621309Y-75500000D01*
X196668928Y-75547619D01*
X196716547Y-75642857D01*
X196716547Y-75738095D01*
X196668928Y-75880952D01*
X196097500Y-76452380D01*
X196716547Y-76452380D01*
X197145119Y-76357142D02*
X197192738Y-76404761D01*
X197145119Y-76452380D01*
X197097500Y-76404761D01*
X197145119Y-76357142D01*
X197145119Y-76452380D01*
X197811785Y-75452380D02*
X197907023Y-75452380D01*
X198002261Y-75500000D01*
X198049880Y-75547619D01*
X198097500Y-75642857D01*
X198145119Y-75833333D01*
X198145119Y-76071428D01*
X198097500Y-76261904D01*
X198049880Y-76357142D01*
X198002261Y-76404761D01*
X197907023Y-76452380D01*
X197811785Y-76452380D01*
X197716547Y-76404761D01*
X197668928Y-76357142D01*
X197621309Y-76261904D01*
X197573690Y-76071428D01*
X197573690Y-75833333D01*
X197621309Y-75642857D01*
X197668928Y-75547619D01*
X197716547Y-75500000D01*
X197811785Y-75452380D01*
X198716547Y-75880952D02*
X198621309Y-75833333D01*
X198573690Y-75785714D01*
X198526071Y-75690476D01*
X198526071Y-75642857D01*
X198573690Y-75547619D01*
X198621309Y-75500000D01*
X198716547Y-75452380D01*
X198907023Y-75452380D01*
X199002261Y-75500000D01*
X199049880Y-75547619D01*
X199097500Y-75642857D01*
X199097500Y-75690476D01*
X199049880Y-75785714D01*
X199002261Y-75833333D01*
X198907023Y-75880952D01*
X198716547Y-75880952D01*
X198621309Y-75928571D01*
X198573690Y-75976190D01*
X198526071Y-76071428D01*
X198526071Y-76261904D01*
X198573690Y-76357142D01*
X198621309Y-76404761D01*
X198716547Y-76452380D01*
X198907023Y-76452380D01*
X199002261Y-76404761D01*
X199049880Y-76357142D01*
X199097500Y-76261904D01*
X199097500Y-76071428D01*
X199049880Y-75976190D01*
X199002261Y-75928571D01*
X198907023Y-75880952D01*
X199526071Y-76357142D02*
X199573690Y-76404761D01*
X199526071Y-76452380D01*
X199478452Y-76404761D01*
X199526071Y-76357142D01*
X199526071Y-76452380D01*
X199907023Y-75452380D02*
X200526071Y-75452380D01*
X200192738Y-75833333D01*
X200335595Y-75833333D01*
X200430833Y-75880952D01*
X200478452Y-75928571D01*
X200526071Y-76023809D01*
X200526071Y-76261904D01*
X200478452Y-76357142D01*
X200430833Y-76404761D01*
X200335595Y-76452380D01*
X200049880Y-76452380D01*
X199954642Y-76404761D01*
X199907023Y-76357142D01*
X201478452Y-76452380D02*
X200907023Y-76452380D01*
X201192738Y-76452380D02*
X201192738Y-75452380D01*
X201097500Y-75595238D01*
X201002261Y-75690476D01*
X200907023Y-75738095D01*
X201907023Y-76357142D02*
X201954642Y-76404761D01*
X201907023Y-76452380D01*
X201859404Y-76404761D01*
X201907023Y-76357142D01*
X201907023Y-76452380D01*
X193240357Y-77062380D02*
X193478452Y-78062380D01*
X193668928Y-77348095D01*
X193859404Y-78062380D01*
X194097500Y-77062380D01*
X194430833Y-78014761D02*
X194573690Y-78062380D01*
X194811785Y-78062380D01*
X194907023Y-78014761D01*
X194954642Y-77967142D01*
X195002261Y-77871904D01*
X195002261Y-77776666D01*
X194954642Y-77681428D01*
X194907023Y-77633809D01*
X194811785Y-77586190D01*
X194621309Y-77538571D01*
X194526071Y-77490952D01*
X194478452Y-77443333D01*
X194430833Y-77348095D01*
X194430833Y-77252857D01*
X194478452Y-77157619D01*
X194526071Y-77110000D01*
X194621309Y-77062380D01*
X194859404Y-77062380D01*
X195002261Y-77110000D01*
X195430833Y-78062380D02*
X195430833Y-77062380D01*
X195764166Y-77062380D02*
X196335595Y-77062380D01*
X196049880Y-78062380D02*
X196049880Y-77062380D01*
X196668928Y-77681428D02*
X197430833Y-77681428D01*
X197859404Y-78014761D02*
X198002261Y-78062380D01*
X198240357Y-78062380D01*
X198335595Y-78014761D01*
X198383214Y-77967142D01*
X198430833Y-77871904D01*
X198430833Y-77776666D01*
X198383214Y-77681428D01*
X198335595Y-77633809D01*
X198240357Y-77586190D01*
X198049880Y-77538571D01*
X197954642Y-77490952D01*
X197907023Y-77443333D01*
X197859404Y-77348095D01*
X197859404Y-77252857D01*
X197907023Y-77157619D01*
X197954642Y-77110000D01*
X198049880Y-77062380D01*
X198287976Y-77062380D01*
X198430833Y-77110000D01*
X198859404Y-78062380D02*
X198859404Y-77062380D01*
X198859404Y-77538571D02*
X199430833Y-77538571D01*
X199430833Y-78062380D02*
X199430833Y-77062380D01*
X199907023Y-78062380D02*
X199907023Y-77062380D01*
X200145119Y-77062380D01*
X200287976Y-77110000D01*
X200383214Y-77205238D01*
X200430833Y-77300476D01*
X200478452Y-77490952D01*
X200478452Y-77633809D01*
X200430833Y-77824285D01*
X200383214Y-77919523D01*
X200287976Y-78014761D01*
X200145119Y-78062380D01*
X199907023Y-78062380D01*
X200907023Y-77681428D02*
X201668928Y-77681428D01*
X202097500Y-77157619D02*
X202145119Y-77110000D01*
X202240357Y-77062380D01*
X202478452Y-77062380D01*
X202573690Y-77110000D01*
X202621309Y-77157619D01*
X202668928Y-77252857D01*
X202668928Y-77348095D01*
X202621309Y-77490952D01*
X202049880Y-78062380D01*
X202668928Y-78062380D01*
X203049880Y-77157619D02*
X203097500Y-77110000D01*
X203192738Y-77062380D01*
X203430833Y-77062380D01*
X203526071Y-77110000D01*
X203573690Y-77157619D01*
X203621309Y-77252857D01*
X203621309Y-77348095D01*
X203573690Y-77490952D01*
X203002261Y-78062380D01*
X203621309Y-78062380D01*
X204240357Y-77062380D02*
X204335595Y-77062380D01*
X204430833Y-77110000D01*
X204478452Y-77157619D01*
X204526071Y-77252857D01*
X204573690Y-77443333D01*
X204573690Y-77681428D01*
X204526071Y-77871904D01*
X204478452Y-77967142D01*
X204430833Y-78014761D01*
X204335595Y-78062380D01*
X204240357Y-78062380D01*
X204145119Y-78014761D01*
X204097500Y-77967142D01*
X204049880Y-77871904D01*
X204002261Y-77681428D01*
X204002261Y-77443333D01*
X204049880Y-77252857D01*
X204097500Y-77157619D01*
X204145119Y-77110000D01*
X204240357Y-77062380D01*
X205145119Y-77490952D02*
X205049880Y-77443333D01*
X205002261Y-77395714D01*
X204954642Y-77300476D01*
X204954642Y-77252857D01*
X205002261Y-77157619D01*
X205049880Y-77110000D01*
X205145119Y-77062380D01*
X205335595Y-77062380D01*
X205430833Y-77110000D01*
X205478452Y-77157619D01*
X205526071Y-77252857D01*
X205526071Y-77300476D01*
X205478452Y-77395714D01*
X205430833Y-77443333D01*
X205335595Y-77490952D01*
X205145119Y-77490952D01*
X205049880Y-77538571D01*
X205002261Y-77586190D01*
X204954642Y-77681428D01*
X204954642Y-77871904D01*
X205002261Y-77967142D01*
X205049880Y-78014761D01*
X205145119Y-78062380D01*
X205335595Y-78062380D01*
X205430833Y-78014761D01*
X205478452Y-77967142D01*
X205526071Y-77871904D01*
X205526071Y-77681428D01*
X205478452Y-77586190D01*
X205430833Y-77538571D01*
X205335595Y-77490952D01*
X205859404Y-77062380D02*
X206478452Y-77062380D01*
X206145119Y-77443333D01*
X206287976Y-77443333D01*
X206383214Y-77490952D01*
X206430833Y-77538571D01*
X206478452Y-77633809D01*
X206478452Y-77871904D01*
X206430833Y-77967142D01*
X206383214Y-78014761D01*
X206287976Y-78062380D01*
X206002261Y-78062380D01*
X205907023Y-78014761D01*
X205859404Y-77967142D01*
X207430833Y-78062380D02*
X206859404Y-78062380D01*
X207145119Y-78062380D02*
X207145119Y-77062380D01*
X207049880Y-77205238D01*
X206954642Y-77300476D01*
X206859404Y-77348095D01*
X207859404Y-77681428D02*
X208621309Y-77681428D01*
X209287976Y-77062380D02*
X209383214Y-77062380D01*
X209478452Y-77110000D01*
X209526071Y-77157619D01*
X209573690Y-77252857D01*
X209621309Y-77443333D01*
X209621309Y-77681428D01*
X209573690Y-77871904D01*
X209526071Y-77967142D01*
X209478452Y-78014761D01*
X209383214Y-78062380D01*
X209287976Y-78062380D01*
X209192738Y-78014761D01*
X209145119Y-77967142D01*
X209097500Y-77871904D01*
X209049880Y-77681428D01*
X209049880Y-77443333D01*
X209097500Y-77252857D01*
X209145119Y-77157619D01*
X209192738Y-77110000D01*
X209287976Y-77062380D01*
X210573690Y-78062380D02*
X210002261Y-78062380D01*
X210287976Y-78062380D02*
X210287976Y-77062380D01*
X210192738Y-77205238D01*
X210097500Y-77300476D01*
X210002261Y-77348095D01*
D11*
X237552918Y-53340000D02*
G75*
G03*
X237552918Y-53340000I-5142918J0D01*
G01*
D12*
X215900000Y-36830000D02*
X248920000Y-36830000D01*
X248920000Y-36830000D02*
X248920000Y-69850000D01*
X248920000Y-69850000D02*
X215900000Y-69850000D01*
X215900000Y-69850000D02*
X215900000Y-36830000D01*
D10*
%TO.C,J4*%
X239692380Y-29543333D02*
X240406666Y-29543333D01*
X240549523Y-29590952D01*
X240644761Y-29686190D01*
X240692380Y-29829047D01*
X240692380Y-29924285D01*
X240025714Y-28638571D02*
X240692380Y-28638571D01*
X239644761Y-28876666D02*
X240359047Y-29114761D01*
X240359047Y-28495714D01*
%TO.C,J3*%
X213022380Y-29543333D02*
X213736666Y-29543333D01*
X213879523Y-29590952D01*
X213974761Y-29686190D01*
X214022380Y-29829047D01*
X214022380Y-29924285D01*
X213022380Y-29162380D02*
X213022380Y-28543333D01*
X213403333Y-28876666D01*
X213403333Y-28733809D01*
X213450952Y-28638571D01*
X213498571Y-28590952D01*
X213593809Y-28543333D01*
X213831904Y-28543333D01*
X213927142Y-28590952D01*
X213974761Y-28638571D01*
X214022380Y-28733809D01*
X214022380Y-29019523D01*
X213974761Y-29114761D01*
X213927142Y-29162380D01*
%TO.C,J2*%
X244772380Y-77803333D02*
X245486666Y-77803333D01*
X245629523Y-77850952D01*
X245724761Y-77946190D01*
X245772380Y-78089047D01*
X245772380Y-78184285D01*
X244867619Y-77374761D02*
X244820000Y-77327142D01*
X244772380Y-77231904D01*
X244772380Y-76993809D01*
X244820000Y-76898571D01*
X244867619Y-76850952D01*
X244962857Y-76803333D01*
X245058095Y-76803333D01*
X245200952Y-76850952D01*
X245772380Y-77422380D01*
X245772380Y-76803333D01*
%TO.C,J1*%
X221912380Y-77803333D02*
X222626666Y-77803333D01*
X222769523Y-77850952D01*
X222864761Y-77946190D01*
X222912380Y-78089047D01*
X222912380Y-78184285D01*
X222912380Y-76803333D02*
X222912380Y-77374761D01*
X222912380Y-77089047D02*
X221912380Y-77089047D01*
X222055238Y-77184285D01*
X222150476Y-77279523D01*
X222198095Y-77374761D01*
%TO.C,SW2*%
X257544761Y-54673333D02*
X257592380Y-54530476D01*
X257592380Y-54292380D01*
X257544761Y-54197142D01*
X257497142Y-54149523D01*
X257401904Y-54101904D01*
X257306666Y-54101904D01*
X257211428Y-54149523D01*
X257163809Y-54197142D01*
X257116190Y-54292380D01*
X257068571Y-54482857D01*
X257020952Y-54578095D01*
X256973333Y-54625714D01*
X256878095Y-54673333D01*
X256782857Y-54673333D01*
X256687619Y-54625714D01*
X256640000Y-54578095D01*
X256592380Y-54482857D01*
X256592380Y-54244761D01*
X256640000Y-54101904D01*
X256592380Y-53768571D02*
X257592380Y-53530476D01*
X256878095Y-53340000D01*
X257592380Y-53149523D01*
X256592380Y-52911428D01*
X256687619Y-52578095D02*
X256640000Y-52530476D01*
X256592380Y-52435238D01*
X256592380Y-52197142D01*
X256640000Y-52101904D01*
X256687619Y-52054285D01*
X256782857Y-52006666D01*
X256878095Y-52006666D01*
X257020952Y-52054285D01*
X257592380Y-52625714D01*
X257592380Y-52006666D01*
%TO.C,SW1*%
X200394761Y-54673333D02*
X200442380Y-54530476D01*
X200442380Y-54292380D01*
X200394761Y-54197142D01*
X200347142Y-54149523D01*
X200251904Y-54101904D01*
X200156666Y-54101904D01*
X200061428Y-54149523D01*
X200013809Y-54197142D01*
X199966190Y-54292380D01*
X199918571Y-54482857D01*
X199870952Y-54578095D01*
X199823333Y-54625714D01*
X199728095Y-54673333D01*
X199632857Y-54673333D01*
X199537619Y-54625714D01*
X199490000Y-54578095D01*
X199442380Y-54482857D01*
X199442380Y-54244761D01*
X199490000Y-54101904D01*
X199442380Y-53768571D02*
X200442380Y-53530476D01*
X199728095Y-53340000D01*
X200442380Y-53149523D01*
X199442380Y-52911428D01*
X200442380Y-52006666D02*
X200442380Y-52578095D01*
X200442380Y-52292380D02*
X199442380Y-52292380D01*
X199585238Y-52387619D01*
X199680476Y-52482857D01*
X199728095Y-52578095D01*
%TO.C,R9*%
X261972380Y-71286666D02*
X261496190Y-71620000D01*
X261972380Y-71858095D02*
X260972380Y-71858095D01*
X260972380Y-71477142D01*
X261020000Y-71381904D01*
X261067619Y-71334285D01*
X261162857Y-71286666D01*
X261305714Y-71286666D01*
X261400952Y-71334285D01*
X261448571Y-71381904D01*
X261496190Y-71477142D01*
X261496190Y-71858095D01*
X261972380Y-70810476D02*
X261972380Y-70620000D01*
X261924761Y-70524761D01*
X261877142Y-70477142D01*
X261734285Y-70381904D01*
X261543809Y-70334285D01*
X261162857Y-70334285D01*
X261067619Y-70381904D01*
X261020000Y-70429523D01*
X260972380Y-70524761D01*
X260972380Y-70715238D01*
X261020000Y-70810476D01*
X261067619Y-70858095D01*
X261162857Y-70905714D01*
X261400952Y-70905714D01*
X261496190Y-70858095D01*
X261543809Y-70810476D01*
X261591428Y-70715238D01*
X261591428Y-70524761D01*
X261543809Y-70429523D01*
X261496190Y-70381904D01*
X261400952Y-70334285D01*
X260972380Y-66635238D02*
X260972380Y-67206666D01*
X260972380Y-66920952D02*
X259972380Y-66920952D01*
X260115238Y-67016190D01*
X260210476Y-67111428D01*
X260258095Y-67206666D01*
X259972380Y-66016190D02*
X259972380Y-65920952D01*
X260020000Y-65825714D01*
X260067619Y-65778095D01*
X260162857Y-65730476D01*
X260353333Y-65682857D01*
X260591428Y-65682857D01*
X260781904Y-65730476D01*
X260877142Y-65778095D01*
X260924761Y-65825714D01*
X260972380Y-65920952D01*
X260972380Y-66016190D01*
X260924761Y-66111428D01*
X260877142Y-66159047D01*
X260781904Y-66206666D01*
X260591428Y-66254285D01*
X260353333Y-66254285D01*
X260162857Y-66206666D01*
X260067619Y-66159047D01*
X260020000Y-66111428D01*
X259972380Y-66016190D01*
X260972380Y-65254285D02*
X259972380Y-65254285D01*
X260591428Y-65159047D02*
X260972380Y-64873333D01*
X260305714Y-64873333D02*
X260686666Y-65254285D01*
%TO.C,R8*%
X211272380Y-42076666D02*
X210796190Y-42410000D01*
X211272380Y-42648095D02*
X210272380Y-42648095D01*
X210272380Y-42267142D01*
X210320000Y-42171904D01*
X210367619Y-42124285D01*
X210462857Y-42076666D01*
X210605714Y-42076666D01*
X210700952Y-42124285D01*
X210748571Y-42171904D01*
X210796190Y-42267142D01*
X210796190Y-42648095D01*
X210700952Y-41505238D02*
X210653333Y-41600476D01*
X210605714Y-41648095D01*
X210510476Y-41695714D01*
X210462857Y-41695714D01*
X210367619Y-41648095D01*
X210320000Y-41600476D01*
X210272380Y-41505238D01*
X210272380Y-41314761D01*
X210320000Y-41219523D01*
X210367619Y-41171904D01*
X210462857Y-41124285D01*
X210510476Y-41124285D01*
X210605714Y-41171904D01*
X210653333Y-41219523D01*
X210700952Y-41314761D01*
X210700952Y-41505238D01*
X210748571Y-41600476D01*
X210796190Y-41648095D01*
X210891428Y-41695714D01*
X211081904Y-41695714D01*
X211177142Y-41648095D01*
X211224761Y-41600476D01*
X211272380Y-41505238D01*
X211272380Y-41314761D01*
X211224761Y-41219523D01*
X211177142Y-41171904D01*
X211081904Y-41124285D01*
X210891428Y-41124285D01*
X210796190Y-41171904D01*
X210748571Y-41219523D01*
X210700952Y-41314761D01*
X214912380Y-37519910D02*
X214912380Y-38091339D01*
X214912380Y-37805625D02*
X213912380Y-37680625D01*
X214055238Y-37793720D01*
X214150476Y-37900863D01*
X214198095Y-38002053D01*
X213912380Y-36775863D02*
X213912380Y-36680625D01*
X213960000Y-36591339D01*
X214007619Y-36549672D01*
X214102857Y-36513958D01*
X214293333Y-36490148D01*
X214531428Y-36519910D01*
X214721904Y-36591339D01*
X214817142Y-36650863D01*
X214864761Y-36704434D01*
X214912380Y-36805625D01*
X214912380Y-36900863D01*
X214864761Y-36990148D01*
X214817142Y-37031815D01*
X214721904Y-37067529D01*
X214531428Y-37091339D01*
X214293333Y-37061577D01*
X214102857Y-36990148D01*
X214007619Y-36930625D01*
X213960000Y-36877053D01*
X213912380Y-36775863D01*
X214912380Y-36138958D02*
X213912380Y-36013958D01*
X214531428Y-35996101D02*
X214912380Y-35758005D01*
X214245714Y-35674672D02*
X214626666Y-36103244D01*
%TO.C,R7*%
X217003333Y-32432380D02*
X216670000Y-31956190D01*
X216431904Y-32432380D02*
X216431904Y-31432380D01*
X216812857Y-31432380D01*
X216908095Y-31480000D01*
X216955714Y-31527619D01*
X217003333Y-31622857D01*
X217003333Y-31765714D01*
X216955714Y-31860952D01*
X216908095Y-31908571D01*
X216812857Y-31956190D01*
X216431904Y-31956190D01*
X217336666Y-31432380D02*
X218003333Y-31432380D01*
X217574761Y-32432380D01*
X221214285Y-34952380D02*
X221833333Y-34952380D01*
X221500000Y-35333333D01*
X221642857Y-35333333D01*
X221738095Y-35380952D01*
X221785714Y-35428571D01*
X221833333Y-35523809D01*
X221833333Y-35761904D01*
X221785714Y-35857142D01*
X221738095Y-35904761D01*
X221642857Y-35952380D01*
X221357142Y-35952380D01*
X221261904Y-35904761D01*
X221214285Y-35857142D01*
X222452380Y-34952380D02*
X222547619Y-34952380D01*
X222642857Y-35000000D01*
X222690476Y-35047619D01*
X222738095Y-35142857D01*
X222785714Y-35333333D01*
X222785714Y-35571428D01*
X222738095Y-35761904D01*
X222690476Y-35857142D01*
X222642857Y-35904761D01*
X222547619Y-35952380D01*
X222452380Y-35952380D01*
X222357142Y-35904761D01*
X222309523Y-35857142D01*
X222261904Y-35761904D01*
X222214285Y-35571428D01*
X222214285Y-35333333D01*
X222261904Y-35142857D01*
X222309523Y-35047619D01*
X222357142Y-35000000D01*
X222452380Y-34952380D01*
X223404761Y-34952380D02*
X223500000Y-34952380D01*
X223595238Y-35000000D01*
X223642857Y-35047619D01*
X223690476Y-35142857D01*
X223738095Y-35333333D01*
X223738095Y-35571428D01*
X223690476Y-35761904D01*
X223642857Y-35857142D01*
X223595238Y-35904761D01*
X223500000Y-35952380D01*
X223404761Y-35952380D01*
X223309523Y-35904761D01*
X223261904Y-35857142D01*
X223214285Y-35761904D01*
X223166666Y-35571428D01*
X223166666Y-35333333D01*
X223214285Y-35142857D01*
X223261904Y-35047619D01*
X223309523Y-35000000D01*
X223404761Y-34952380D01*
%TO.C,R6*%
X228433333Y-32202380D02*
X228100000Y-31726190D01*
X227861904Y-32202380D02*
X227861904Y-31202380D01*
X228242857Y-31202380D01*
X228338095Y-31250000D01*
X228385714Y-31297619D01*
X228433333Y-31392857D01*
X228433333Y-31535714D01*
X228385714Y-31630952D01*
X228338095Y-31678571D01*
X228242857Y-31726190D01*
X227861904Y-31726190D01*
X229290476Y-31202380D02*
X229100000Y-31202380D01*
X229004761Y-31250000D01*
X228957142Y-31297619D01*
X228861904Y-31440476D01*
X228814285Y-31630952D01*
X228814285Y-32011904D01*
X228861904Y-32107142D01*
X228909523Y-32154761D01*
X229004761Y-32202380D01*
X229195238Y-32202380D01*
X229290476Y-32154761D01*
X229338095Y-32107142D01*
X229385714Y-32011904D01*
X229385714Y-31773809D01*
X229338095Y-31678571D01*
X229290476Y-31630952D01*
X229195238Y-31583333D01*
X229004761Y-31583333D01*
X228909523Y-31630952D01*
X228861904Y-31678571D01*
X228814285Y-31773809D01*
X232394285Y-34842380D02*
X233013333Y-34842380D01*
X232680000Y-35223333D01*
X232822857Y-35223333D01*
X232918095Y-35270952D01*
X232965714Y-35318571D01*
X233013333Y-35413809D01*
X233013333Y-35651904D01*
X232965714Y-35747142D01*
X232918095Y-35794761D01*
X232822857Y-35842380D01*
X232537142Y-35842380D01*
X232441904Y-35794761D01*
X232394285Y-35747142D01*
X233632380Y-34842380D02*
X233727619Y-34842380D01*
X233822857Y-34890000D01*
X233870476Y-34937619D01*
X233918095Y-35032857D01*
X233965714Y-35223333D01*
X233965714Y-35461428D01*
X233918095Y-35651904D01*
X233870476Y-35747142D01*
X233822857Y-35794761D01*
X233727619Y-35842380D01*
X233632380Y-35842380D01*
X233537142Y-35794761D01*
X233489523Y-35747142D01*
X233441904Y-35651904D01*
X233394285Y-35461428D01*
X233394285Y-35223333D01*
X233441904Y-35032857D01*
X233489523Y-34937619D01*
X233537142Y-34890000D01*
X233632380Y-34842380D01*
X234584761Y-34842380D02*
X234680000Y-34842380D01*
X234775238Y-34890000D01*
X234822857Y-34937619D01*
X234870476Y-35032857D01*
X234918095Y-35223333D01*
X234918095Y-35461428D01*
X234870476Y-35651904D01*
X234822857Y-35747142D01*
X234775238Y-35794761D01*
X234680000Y-35842380D01*
X234584761Y-35842380D01*
X234489523Y-35794761D01*
X234441904Y-35747142D01*
X234394285Y-35651904D01*
X234346666Y-35461428D01*
X234346666Y-35223333D01*
X234394285Y-35032857D01*
X234441904Y-34937619D01*
X234489523Y-34890000D01*
X234584761Y-34842380D01*
%TO.C,R5*%
X239863333Y-32267380D02*
X239530000Y-31791190D01*
X239291904Y-32267380D02*
X239291904Y-31267380D01*
X239672857Y-31267380D01*
X239768095Y-31315000D01*
X239815714Y-31362619D01*
X239863333Y-31457857D01*
X239863333Y-31600714D01*
X239815714Y-31695952D01*
X239768095Y-31743571D01*
X239672857Y-31791190D01*
X239291904Y-31791190D01*
X240768095Y-31267380D02*
X240291904Y-31267380D01*
X240244285Y-31743571D01*
X240291904Y-31695952D01*
X240387142Y-31648333D01*
X240625238Y-31648333D01*
X240720476Y-31695952D01*
X240768095Y-31743571D01*
X240815714Y-31838809D01*
X240815714Y-32076904D01*
X240768095Y-32172142D01*
X240720476Y-32219761D01*
X240625238Y-32267380D01*
X240387142Y-32267380D01*
X240291904Y-32219761D01*
X240244285Y-32172142D01*
X243824285Y-34842380D02*
X244443333Y-34842380D01*
X244110000Y-35223333D01*
X244252857Y-35223333D01*
X244348095Y-35270952D01*
X244395714Y-35318571D01*
X244443333Y-35413809D01*
X244443333Y-35651904D01*
X244395714Y-35747142D01*
X244348095Y-35794761D01*
X244252857Y-35842380D01*
X243967142Y-35842380D01*
X243871904Y-35794761D01*
X243824285Y-35747142D01*
X245062380Y-34842380D02*
X245157619Y-34842380D01*
X245252857Y-34890000D01*
X245300476Y-34937619D01*
X245348095Y-35032857D01*
X245395714Y-35223333D01*
X245395714Y-35461428D01*
X245348095Y-35651904D01*
X245300476Y-35747142D01*
X245252857Y-35794761D01*
X245157619Y-35842380D01*
X245062380Y-35842380D01*
X244967142Y-35794761D01*
X244919523Y-35747142D01*
X244871904Y-35651904D01*
X244824285Y-35461428D01*
X244824285Y-35223333D01*
X244871904Y-35032857D01*
X244919523Y-34937619D01*
X244967142Y-34890000D01*
X245062380Y-34842380D01*
X246014761Y-34842380D02*
X246110000Y-34842380D01*
X246205238Y-34890000D01*
X246252857Y-34937619D01*
X246300476Y-35032857D01*
X246348095Y-35223333D01*
X246348095Y-35461428D01*
X246300476Y-35651904D01*
X246252857Y-35747142D01*
X246205238Y-35794761D01*
X246110000Y-35842380D01*
X246014761Y-35842380D01*
X245919523Y-35794761D01*
X245871904Y-35747142D01*
X245824285Y-35651904D01*
X245776666Y-35461428D01*
X245776666Y-35223333D01*
X245824285Y-35032857D01*
X245871904Y-34937619D01*
X245919523Y-34890000D01*
X246014761Y-34842380D01*
%TO.C,R4*%
X251293333Y-32202380D02*
X250960000Y-31726190D01*
X250721904Y-32202380D02*
X250721904Y-31202380D01*
X251102857Y-31202380D01*
X251198095Y-31250000D01*
X251245714Y-31297619D01*
X251293333Y-31392857D01*
X251293333Y-31535714D01*
X251245714Y-31630952D01*
X251198095Y-31678571D01*
X251102857Y-31726190D01*
X250721904Y-31726190D01*
X252150476Y-31535714D02*
X252150476Y-32202380D01*
X251912380Y-31154761D02*
X251674285Y-31869047D01*
X252293333Y-31869047D01*
X255254285Y-34842380D02*
X255873333Y-34842380D01*
X255540000Y-35223333D01*
X255682857Y-35223333D01*
X255778095Y-35270952D01*
X255825714Y-35318571D01*
X255873333Y-35413809D01*
X255873333Y-35651904D01*
X255825714Y-35747142D01*
X255778095Y-35794761D01*
X255682857Y-35842380D01*
X255397142Y-35842380D01*
X255301904Y-35794761D01*
X255254285Y-35747142D01*
X256492380Y-34842380D02*
X256587619Y-34842380D01*
X256682857Y-34890000D01*
X256730476Y-34937619D01*
X256778095Y-35032857D01*
X256825714Y-35223333D01*
X256825714Y-35461428D01*
X256778095Y-35651904D01*
X256730476Y-35747142D01*
X256682857Y-35794761D01*
X256587619Y-35842380D01*
X256492380Y-35842380D01*
X256397142Y-35794761D01*
X256349523Y-35747142D01*
X256301904Y-35651904D01*
X256254285Y-35461428D01*
X256254285Y-35223333D01*
X256301904Y-35032857D01*
X256349523Y-34937619D01*
X256397142Y-34890000D01*
X256492380Y-34842380D01*
X257444761Y-34842380D02*
X257540000Y-34842380D01*
X257635238Y-34890000D01*
X257682857Y-34937619D01*
X257730476Y-35032857D01*
X257778095Y-35223333D01*
X257778095Y-35461428D01*
X257730476Y-35651904D01*
X257682857Y-35747142D01*
X257635238Y-35794761D01*
X257540000Y-35842380D01*
X257444761Y-35842380D01*
X257349523Y-35794761D01*
X257301904Y-35747142D01*
X257254285Y-35651904D01*
X257206666Y-35461428D01*
X257206666Y-35223333D01*
X257254285Y-35032857D01*
X257301904Y-34937619D01*
X257349523Y-34890000D01*
X257444761Y-34842380D01*
%TO.C,R3*%
X222083333Y-72907380D02*
X221750000Y-72431190D01*
X221511904Y-72907380D02*
X221511904Y-71907380D01*
X221892857Y-71907380D01*
X221988095Y-71955000D01*
X222035714Y-72002619D01*
X222083333Y-72097857D01*
X222083333Y-72240714D01*
X222035714Y-72335952D01*
X221988095Y-72383571D01*
X221892857Y-72431190D01*
X221511904Y-72431190D01*
X222416666Y-71907380D02*
X223035714Y-71907380D01*
X222702380Y-72288333D01*
X222845238Y-72288333D01*
X222940476Y-72335952D01*
X222988095Y-72383571D01*
X223035714Y-72478809D01*
X223035714Y-72716904D01*
X222988095Y-72812142D01*
X222940476Y-72859761D01*
X222845238Y-72907380D01*
X222559523Y-72907380D01*
X222464285Y-72859761D01*
X222416666Y-72812142D01*
X226044285Y-70952380D02*
X226663333Y-70952380D01*
X226330000Y-71333333D01*
X226472857Y-71333333D01*
X226568095Y-71380952D01*
X226615714Y-71428571D01*
X226663333Y-71523809D01*
X226663333Y-71761904D01*
X226615714Y-71857142D01*
X226568095Y-71904761D01*
X226472857Y-71952380D01*
X226187142Y-71952380D01*
X226091904Y-71904761D01*
X226044285Y-71857142D01*
X227282380Y-70952380D02*
X227377619Y-70952380D01*
X227472857Y-71000000D01*
X227520476Y-71047619D01*
X227568095Y-71142857D01*
X227615714Y-71333333D01*
X227615714Y-71571428D01*
X227568095Y-71761904D01*
X227520476Y-71857142D01*
X227472857Y-71904761D01*
X227377619Y-71952380D01*
X227282380Y-71952380D01*
X227187142Y-71904761D01*
X227139523Y-71857142D01*
X227091904Y-71761904D01*
X227044285Y-71571428D01*
X227044285Y-71333333D01*
X227091904Y-71142857D01*
X227139523Y-71047619D01*
X227187142Y-71000000D01*
X227282380Y-70952380D01*
X228234761Y-70952380D02*
X228330000Y-70952380D01*
X228425238Y-71000000D01*
X228472857Y-71047619D01*
X228520476Y-71142857D01*
X228568095Y-71333333D01*
X228568095Y-71571428D01*
X228520476Y-71761904D01*
X228472857Y-71857142D01*
X228425238Y-71904761D01*
X228330000Y-71952380D01*
X228234761Y-71952380D01*
X228139523Y-71904761D01*
X228091904Y-71857142D01*
X228044285Y-71761904D01*
X227996666Y-71571428D01*
X227996666Y-71333333D01*
X228044285Y-71142857D01*
X228091904Y-71047619D01*
X228139523Y-71000000D01*
X228234761Y-70952380D01*
%TO.C,R2*%
X233513333Y-72907380D02*
X233180000Y-72431190D01*
X232941904Y-72907380D02*
X232941904Y-71907380D01*
X233322857Y-71907380D01*
X233418095Y-71955000D01*
X233465714Y-72002619D01*
X233513333Y-72097857D01*
X233513333Y-72240714D01*
X233465714Y-72335952D01*
X233418095Y-72383571D01*
X233322857Y-72431190D01*
X232941904Y-72431190D01*
X233894285Y-72002619D02*
X233941904Y-71955000D01*
X234037142Y-71907380D01*
X234275238Y-71907380D01*
X234370476Y-71955000D01*
X234418095Y-72002619D01*
X234465714Y-72097857D01*
X234465714Y-72193095D01*
X234418095Y-72335952D01*
X233846666Y-72907380D01*
X234465714Y-72907380D01*
X237474285Y-70952380D02*
X238093333Y-70952380D01*
X237760000Y-71333333D01*
X237902857Y-71333333D01*
X237998095Y-71380952D01*
X238045714Y-71428571D01*
X238093333Y-71523809D01*
X238093333Y-71761904D01*
X238045714Y-71857142D01*
X237998095Y-71904761D01*
X237902857Y-71952380D01*
X237617142Y-71952380D01*
X237521904Y-71904761D01*
X237474285Y-71857142D01*
X238712380Y-70952380D02*
X238807619Y-70952380D01*
X238902857Y-71000000D01*
X238950476Y-71047619D01*
X238998095Y-71142857D01*
X239045714Y-71333333D01*
X239045714Y-71571428D01*
X238998095Y-71761904D01*
X238950476Y-71857142D01*
X238902857Y-71904761D01*
X238807619Y-71952380D01*
X238712380Y-71952380D01*
X238617142Y-71904761D01*
X238569523Y-71857142D01*
X238521904Y-71761904D01*
X238474285Y-71571428D01*
X238474285Y-71333333D01*
X238521904Y-71142857D01*
X238569523Y-71047619D01*
X238617142Y-71000000D01*
X238712380Y-70952380D01*
X239664761Y-70952380D02*
X239760000Y-70952380D01*
X239855238Y-71000000D01*
X239902857Y-71047619D01*
X239950476Y-71142857D01*
X239998095Y-71333333D01*
X239998095Y-71571428D01*
X239950476Y-71761904D01*
X239902857Y-71857142D01*
X239855238Y-71904761D01*
X239760000Y-71952380D01*
X239664761Y-71952380D01*
X239569523Y-71904761D01*
X239521904Y-71857142D01*
X239474285Y-71761904D01*
X239426666Y-71571428D01*
X239426666Y-71333333D01*
X239474285Y-71142857D01*
X239521904Y-71047619D01*
X239569523Y-71000000D01*
X239664761Y-70952380D01*
%TO.C,R1*%
X244943333Y-72907380D02*
X244610000Y-72431190D01*
X244371904Y-72907380D02*
X244371904Y-71907380D01*
X244752857Y-71907380D01*
X244848095Y-71955000D01*
X244895714Y-72002619D01*
X244943333Y-72097857D01*
X244943333Y-72240714D01*
X244895714Y-72335952D01*
X244848095Y-72383571D01*
X244752857Y-72431190D01*
X244371904Y-72431190D01*
X245895714Y-72907380D02*
X245324285Y-72907380D01*
X245610000Y-72907380D02*
X245610000Y-71907380D01*
X245514761Y-72050238D01*
X245419523Y-72145476D01*
X245324285Y-72193095D01*
X248714285Y-70952380D02*
X249333333Y-70952380D01*
X249000000Y-71333333D01*
X249142857Y-71333333D01*
X249238095Y-71380952D01*
X249285714Y-71428571D01*
X249333333Y-71523809D01*
X249333333Y-71761904D01*
X249285714Y-71857142D01*
X249238095Y-71904761D01*
X249142857Y-71952380D01*
X248857142Y-71952380D01*
X248761904Y-71904761D01*
X248714285Y-71857142D01*
X249952380Y-70952380D02*
X250047619Y-70952380D01*
X250142857Y-71000000D01*
X250190476Y-71047619D01*
X250238095Y-71142857D01*
X250285714Y-71333333D01*
X250285714Y-71571428D01*
X250238095Y-71761904D01*
X250190476Y-71857142D01*
X250142857Y-71904761D01*
X250047619Y-71952380D01*
X249952380Y-71952380D01*
X249857142Y-71904761D01*
X249809523Y-71857142D01*
X249761904Y-71761904D01*
X249714285Y-71571428D01*
X249714285Y-71333333D01*
X249761904Y-71142857D01*
X249809523Y-71047619D01*
X249857142Y-71000000D01*
X249952380Y-70952380D01*
X250904761Y-70952380D02*
X251000000Y-70952380D01*
X251095238Y-71000000D01*
X251142857Y-71047619D01*
X251190476Y-71142857D01*
X251238095Y-71333333D01*
X251238095Y-71571428D01*
X251190476Y-71761904D01*
X251142857Y-71857142D01*
X251095238Y-71904761D01*
X251000000Y-71952380D01*
X250904761Y-71952380D01*
X250809523Y-71904761D01*
X250761904Y-71857142D01*
X250714285Y-71761904D01*
X250666666Y-71571428D01*
X250666666Y-71333333D01*
X250714285Y-71142857D01*
X250761904Y-71047619D01*
X250809523Y-71000000D01*
X250904761Y-70952380D01*
%TO.C,D7*%
X220241904Y-46172380D02*
X220241904Y-45172380D01*
X220480000Y-45172380D01*
X220622857Y-45220000D01*
X220718095Y-45315238D01*
X220765714Y-45410476D01*
X220813333Y-45600952D01*
X220813333Y-45743809D01*
X220765714Y-45934285D01*
X220718095Y-46029523D01*
X220622857Y-46124761D01*
X220480000Y-46172380D01*
X220241904Y-46172380D01*
X221146666Y-45172380D02*
X221813333Y-45172380D01*
X221384761Y-46172380D01*
%TO.C,D6*%
X231671904Y-46172380D02*
X231671904Y-45172380D01*
X231910000Y-45172380D01*
X232052857Y-45220000D01*
X232148095Y-45315238D01*
X232195714Y-45410476D01*
X232243333Y-45600952D01*
X232243333Y-45743809D01*
X232195714Y-45934285D01*
X232148095Y-46029523D01*
X232052857Y-46124761D01*
X231910000Y-46172380D01*
X231671904Y-46172380D01*
X233100476Y-45172380D02*
X232910000Y-45172380D01*
X232814761Y-45220000D01*
X232767142Y-45267619D01*
X232671904Y-45410476D01*
X232624285Y-45600952D01*
X232624285Y-45981904D01*
X232671904Y-46077142D01*
X232719523Y-46124761D01*
X232814761Y-46172380D01*
X233005238Y-46172380D01*
X233100476Y-46124761D01*
X233148095Y-46077142D01*
X233195714Y-45981904D01*
X233195714Y-45743809D01*
X233148095Y-45648571D01*
X233100476Y-45600952D01*
X233005238Y-45553333D01*
X232814761Y-45553333D01*
X232719523Y-45600952D01*
X232671904Y-45648571D01*
X232624285Y-45743809D01*
%TO.C,D5*%
X243101904Y-46172380D02*
X243101904Y-45172380D01*
X243340000Y-45172380D01*
X243482857Y-45220000D01*
X243578095Y-45315238D01*
X243625714Y-45410476D01*
X243673333Y-45600952D01*
X243673333Y-45743809D01*
X243625714Y-45934285D01*
X243578095Y-46029523D01*
X243482857Y-46124761D01*
X243340000Y-46172380D01*
X243101904Y-46172380D01*
X244578095Y-45172380D02*
X244101904Y-45172380D01*
X244054285Y-45648571D01*
X244101904Y-45600952D01*
X244197142Y-45553333D01*
X244435238Y-45553333D01*
X244530476Y-45600952D01*
X244578095Y-45648571D01*
X244625714Y-45743809D01*
X244625714Y-45981904D01*
X244578095Y-46077142D01*
X244530476Y-46124761D01*
X244435238Y-46172380D01*
X244197142Y-46172380D01*
X244101904Y-46124761D01*
X244054285Y-46077142D01*
%TO.C,D4*%
X220241904Y-61262380D02*
X220241904Y-60262380D01*
X220480000Y-60262380D01*
X220622857Y-60310000D01*
X220718095Y-60405238D01*
X220765714Y-60500476D01*
X220813333Y-60690952D01*
X220813333Y-60833809D01*
X220765714Y-61024285D01*
X220718095Y-61119523D01*
X220622857Y-61214761D01*
X220480000Y-61262380D01*
X220241904Y-61262380D01*
X221670476Y-60595714D02*
X221670476Y-61262380D01*
X221432380Y-60214761D02*
X221194285Y-60929047D01*
X221813333Y-60929047D01*
%TO.C,D3*%
X231671904Y-61262380D02*
X231671904Y-60262380D01*
X231910000Y-60262380D01*
X232052857Y-60310000D01*
X232148095Y-60405238D01*
X232195714Y-60500476D01*
X232243333Y-60690952D01*
X232243333Y-60833809D01*
X232195714Y-61024285D01*
X232148095Y-61119523D01*
X232052857Y-61214761D01*
X231910000Y-61262380D01*
X231671904Y-61262380D01*
X232576666Y-60262380D02*
X233195714Y-60262380D01*
X232862380Y-60643333D01*
X233005238Y-60643333D01*
X233100476Y-60690952D01*
X233148095Y-60738571D01*
X233195714Y-60833809D01*
X233195714Y-61071904D01*
X233148095Y-61167142D01*
X233100476Y-61214761D01*
X233005238Y-61262380D01*
X232719523Y-61262380D01*
X232624285Y-61214761D01*
X232576666Y-61167142D01*
%TO.C,D2*%
X243101904Y-61262380D02*
X243101904Y-60262380D01*
X243340000Y-60262380D01*
X243482857Y-60310000D01*
X243578095Y-60405238D01*
X243625714Y-60500476D01*
X243673333Y-60690952D01*
X243673333Y-60833809D01*
X243625714Y-61024285D01*
X243578095Y-61119523D01*
X243482857Y-61214761D01*
X243340000Y-61262380D01*
X243101904Y-61262380D01*
X244054285Y-60357619D02*
X244101904Y-60310000D01*
X244197142Y-60262380D01*
X244435238Y-60262380D01*
X244530476Y-60310000D01*
X244578095Y-60357619D01*
X244625714Y-60452857D01*
X244625714Y-60548095D01*
X244578095Y-60690952D01*
X244006666Y-61262380D01*
X244625714Y-61262380D01*
%TO.C,D1*%
X227861904Y-53792380D02*
X227861904Y-52792380D01*
X228100000Y-52792380D01*
X228242857Y-52840000D01*
X228338095Y-52935238D01*
X228385714Y-53030476D01*
X228433333Y-53220952D01*
X228433333Y-53363809D01*
X228385714Y-53554285D01*
X228338095Y-53649523D01*
X228242857Y-53744761D01*
X228100000Y-53792380D01*
X227861904Y-53792380D01*
X229385714Y-53792380D02*
X228814285Y-53792380D01*
X229100000Y-53792380D02*
X229100000Y-52792380D01*
X229004761Y-52935238D01*
X228909523Y-53030476D01*
X228814285Y-53078095D01*
%TO.C,G\u002A\u002A\u002A*%
G36*
X192896281Y-68172617D02*
G01*
X192877379Y-67906380D01*
X192877360Y-67615446D01*
X192877616Y-67606832D01*
X192886958Y-67403229D01*
X192902878Y-67226452D01*
X192927405Y-67064148D01*
X192962564Y-66903967D01*
X193010384Y-66733556D01*
X193032540Y-66662787D01*
X193121418Y-66428068D01*
X193755669Y-66428068D01*
X193764555Y-67190004D01*
X193767258Y-67401096D01*
X193770326Y-67577051D01*
X193774252Y-67722173D01*
X193779530Y-67840764D01*
X193786649Y-67937130D01*
X193796104Y-68015573D01*
X193808387Y-68080398D01*
X193823989Y-68135908D01*
X193843404Y-68186406D01*
X193867123Y-68236197D01*
X193888940Y-68277334D01*
X193954761Y-68372657D01*
X194045466Y-68469733D01*
X194148822Y-68556977D01*
X194252595Y-68622802D01*
X194254902Y-68623977D01*
X194430509Y-68694064D01*
X194606331Y-68725412D01*
X194786480Y-68718530D01*
X194878367Y-68701169D01*
X195057546Y-68640107D01*
X195216046Y-68547594D01*
X195350239Y-68426452D01*
X195456495Y-68279500D01*
X195481589Y-68232411D01*
X195523552Y-68144234D01*
X195546502Y-68086726D01*
X195551180Y-68056417D01*
X195538326Y-68049839D01*
X195518906Y-68057702D01*
X195452686Y-68077460D01*
X195360358Y-68082980D01*
X195341132Y-68082307D01*
X195300850Y-68068119D01*
X195248984Y-68034541D01*
X195222809Y-68012645D01*
X195149146Y-67945166D01*
X195139286Y-67182774D01*
X195136698Y-66989011D01*
X195134284Y-66830895D01*
X195131814Y-66704635D01*
X195129057Y-66606438D01*
X195125782Y-66532511D01*
X195121757Y-66479064D01*
X195116753Y-66442304D01*
X195110537Y-66418440D01*
X195102880Y-66403679D01*
X195093550Y-66394229D01*
X195091146Y-66392411D01*
X195073239Y-66384222D01*
X195041752Y-66377723D01*
X194992699Y-66372742D01*
X194922099Y-66369103D01*
X194825966Y-66366635D01*
X194700318Y-66365162D01*
X194541169Y-66364512D01*
X194449687Y-66364441D01*
X194276216Y-66364667D01*
X194137863Y-66365486D01*
X194030310Y-66367111D01*
X193949238Y-66369753D01*
X193890326Y-66373624D01*
X193849254Y-66378935D01*
X193821704Y-66385900D01*
X193803354Y-66394729D01*
X193801089Y-66396254D01*
X193755669Y-66428068D01*
X193121418Y-66428068D01*
X193161922Y-66321100D01*
X193323172Y-66000423D01*
X193513952Y-65702122D01*
X193731929Y-65427565D01*
X193974765Y-65178119D01*
X194240127Y-64955151D01*
X194525678Y-64760028D01*
X194829084Y-64594118D01*
X195148008Y-64458788D01*
X195480115Y-64355404D01*
X195823071Y-64285335D01*
X196174539Y-64249947D01*
X196532185Y-64250607D01*
X196893672Y-64288682D01*
X197042314Y-64315399D01*
X197321137Y-64386017D01*
X197605950Y-64484830D01*
X197885284Y-64606896D01*
X198147673Y-64747272D01*
X198353161Y-64880388D01*
X198563739Y-65045956D01*
X198774100Y-65240006D01*
X198974931Y-65452653D01*
X199156917Y-65674013D01*
X199310743Y-65894204D01*
X199315027Y-65901009D01*
X199371657Y-65999400D01*
X199435576Y-66123578D01*
X199501448Y-66261964D01*
X199563935Y-66402979D01*
X199617700Y-66535045D01*
X199654416Y-66637287D01*
X199749805Y-66992916D01*
X199806857Y-67354058D01*
X199825760Y-67717770D01*
X199806705Y-68081111D01*
X199749877Y-68441140D01*
X199655466Y-68794916D01*
X199523660Y-69139496D01*
X199489533Y-69214053D01*
X199317073Y-69533979D01*
X199112693Y-69832425D01*
X198878888Y-70107180D01*
X198618151Y-70356034D01*
X198332975Y-70576779D01*
X198025854Y-70767205D01*
X197699282Y-70925101D01*
X197455175Y-71016849D01*
X197286424Y-71070664D01*
X197138086Y-71111772D01*
X196999431Y-71141940D01*
X196859732Y-71162937D01*
X196708259Y-71176529D01*
X196534284Y-71184483D01*
X196421118Y-71187168D01*
X196237396Y-71188945D01*
X196087019Y-71186778D01*
X195964073Y-71180455D01*
X195862638Y-71169763D01*
X195839364Y-71166290D01*
X195471214Y-71088617D01*
X195119253Y-70976093D01*
X194785362Y-70830243D01*
X194471420Y-70652595D01*
X194179309Y-70444674D01*
X193910909Y-70208008D01*
X193668101Y-69944124D01*
X193452764Y-69654548D01*
X193266780Y-69340807D01*
X193112028Y-69004428D01*
X193082573Y-68928106D01*
X192997250Y-68672984D01*
X192968388Y-68556548D01*
X194005512Y-68556548D01*
X194009225Y-68578823D01*
X194034885Y-68623608D01*
X194077635Y-68684477D01*
X194132621Y-68755003D01*
X194194988Y-68828761D01*
X194259880Y-68899325D01*
X194279878Y-68919675D01*
X194484114Y-69096959D01*
X194706880Y-69239498D01*
X194947516Y-69347005D01*
X195205361Y-69419194D01*
X195479756Y-69455777D01*
X195517935Y-69457967D01*
X195568162Y-69455346D01*
X195636848Y-69445779D01*
X195675699Y-69438366D01*
X195836601Y-69387752D01*
X195970394Y-69309089D01*
X196079481Y-69200491D01*
X196166270Y-69060069D01*
X196171309Y-69049557D01*
X196192723Y-69003252D01*
X196208643Y-68963423D01*
X196220017Y-68923070D01*
X196227794Y-68875191D01*
X196232921Y-68812788D01*
X196236349Y-68728859D01*
X196239024Y-68616404D01*
X196240543Y-68538626D01*
X196247817Y-68159006D01*
X196440839Y-68159006D01*
X196440988Y-68440023D01*
X196444266Y-68628037D01*
X196454807Y-68782814D01*
X196473996Y-68910117D01*
X196503220Y-69015711D01*
X196543867Y-69105358D01*
X196597323Y-69184823D01*
X196629242Y-69222488D01*
X196736084Y-69318861D01*
X196861625Y-69388912D01*
X196992810Y-69432475D01*
X197058736Y-69447348D01*
X197118343Y-69454604D01*
X197184629Y-69454624D01*
X197270590Y-69447791D01*
X197322894Y-69442161D01*
X197590067Y-69393605D01*
X197838896Y-69310140D01*
X198069327Y-69191793D01*
X198281307Y-69038590D01*
X198440077Y-68888299D01*
X198508622Y-68812092D01*
X198571377Y-68735903D01*
X198623855Y-68665940D01*
X198661571Y-68608412D01*
X198680039Y-68569528D01*
X198679429Y-68557017D01*
X198659766Y-68562047D01*
X198621460Y-68585592D01*
X198605700Y-68597122D01*
X198448408Y-68692838D01*
X198274695Y-68755901D01*
X198091020Y-68785784D01*
X197903843Y-68781962D01*
X197719620Y-68743907D01*
X197565426Y-68681862D01*
X197462608Y-68616812D01*
X197356515Y-68527809D01*
X197260126Y-68426838D01*
X197195157Y-68339988D01*
X197146599Y-68259123D01*
X197109516Y-68183018D01*
X197082088Y-68103930D01*
X197073971Y-68066721D01*
X197150471Y-68066721D01*
X197159359Y-68110256D01*
X197180878Y-68170870D01*
X197197342Y-68208307D01*
X197288528Y-68359184D01*
X197407472Y-68488064D01*
X197548414Y-68592198D01*
X197705591Y-68668838D01*
X197873240Y-68715236D01*
X198045599Y-68728641D01*
X198216906Y-68706307D01*
X198232812Y-68702254D01*
X198399451Y-68640704D01*
X198552252Y-68550832D01*
X198683867Y-68438181D01*
X198786948Y-68308293D01*
X198811951Y-68265413D01*
X198839349Y-68210645D01*
X198862022Y-68155317D01*
X198880407Y-68095165D01*
X198894938Y-68025926D01*
X198906052Y-67943336D01*
X198914184Y-67843131D01*
X198919771Y-67721047D01*
X198923248Y-67572821D01*
X198925051Y-67394190D01*
X198925616Y-67180888D01*
X198925621Y-67153380D01*
X198925451Y-66962088D01*
X198924837Y-66806438D01*
X198923624Y-66682632D01*
X198921657Y-66586874D01*
X198918780Y-66515365D01*
X198914838Y-66464309D01*
X198909676Y-66429907D01*
X198903138Y-66408362D01*
X198895070Y-66395877D01*
X198894632Y-66395430D01*
X198881523Y-66386616D01*
X198859001Y-66379613D01*
X198822912Y-66374222D01*
X198769102Y-66370243D01*
X198693417Y-66367476D01*
X198591703Y-66365722D01*
X198459807Y-66364780D01*
X198293575Y-66364451D01*
X198250339Y-66364441D01*
X198076408Y-66364634D01*
X197937670Y-66365355D01*
X197829877Y-66366818D01*
X197748780Y-66369237D01*
X197690133Y-66372824D01*
X197649687Y-66377794D01*
X197623196Y-66384359D01*
X197606411Y-66392733D01*
X197600971Y-66397078D01*
X197591376Y-66407954D01*
X197583639Y-66424085D01*
X197577559Y-66449483D01*
X197572932Y-66488161D01*
X197569558Y-66544129D01*
X197567233Y-66621400D01*
X197565755Y-66723985D01*
X197564922Y-66855897D01*
X197564532Y-67021148D01*
X197564437Y-67121806D01*
X197563817Y-67286801D01*
X197562271Y-67442257D01*
X197559921Y-67583013D01*
X197556892Y-67703912D01*
X197553309Y-67799792D01*
X197549295Y-67865496D01*
X197545877Y-67892780D01*
X197507578Y-67981176D01*
X197441505Y-68043212D01*
X197351711Y-68075817D01*
X197298439Y-68080124D01*
X197235922Y-68075721D01*
X197188484Y-68064502D01*
X197174441Y-68056460D01*
X197155177Y-68046658D01*
X197150471Y-68066721D01*
X197073971Y-68066721D01*
X197062497Y-68014119D01*
X197048923Y-67905843D01*
X197039547Y-67771362D01*
X197034457Y-67656134D01*
X197029149Y-67526535D01*
X197023756Y-67429119D01*
X197017281Y-67356639D01*
X197008730Y-67301847D01*
X196997107Y-67257497D01*
X196981417Y-67216340D01*
X196970814Y-67192702D01*
X196887132Y-67054782D01*
X196779926Y-66944564D01*
X196654575Y-66863077D01*
X196516458Y-66811348D01*
X196370952Y-66790406D01*
X196223436Y-66801277D01*
X196079290Y-66844991D01*
X195943892Y-66922574D01*
X195872247Y-66982769D01*
X195811257Y-67045528D01*
X195763550Y-67107343D01*
X195727209Y-67174488D01*
X195700316Y-67253238D01*
X195680954Y-67349867D01*
X195667203Y-67470650D01*
X195657148Y-67621862D01*
X195653444Y-67698652D01*
X195637470Y-68056699D01*
X195557093Y-68222758D01*
X195453696Y-68394134D01*
X195324506Y-68537559D01*
X195172927Y-68650868D01*
X195002360Y-68731898D01*
X194816209Y-68778483D01*
X194665994Y-68789520D01*
X194502671Y-68775573D01*
X194344639Y-68731792D01*
X194184054Y-68655560D01*
X194089210Y-68597141D01*
X194042910Y-68569429D01*
X194011676Y-68556173D01*
X194005512Y-68556548D01*
X192968388Y-68556548D01*
X192935695Y-68424653D01*
X192896281Y-68172617D01*
G37*
D13*
%TO.C,J4*%
X243840000Y-30540000D02*
X243840000Y-27880000D01*
X261680000Y-30540000D02*
X261680000Y-27880000D01*
X243840000Y-30540000D02*
X261680000Y-30540000D01*
X242570000Y-30540000D02*
X241240000Y-30540000D01*
X243840000Y-27880000D02*
X261680000Y-27880000D01*
X241240000Y-30540000D02*
X241240000Y-29210000D01*
%TO.C,J3*%
X240090000Y-30540000D02*
X240090000Y-27880000D01*
X217170000Y-30540000D02*
X217170000Y-27880000D01*
X214570000Y-30540000D02*
X214570000Y-29210000D01*
X217170000Y-30540000D02*
X240090000Y-30540000D01*
X217170000Y-27880000D02*
X240090000Y-27880000D01*
X215900000Y-30540000D02*
X214570000Y-30540000D01*
%TO.C,J2*%
X248920000Y-78800000D02*
X261680000Y-78800000D01*
X247650000Y-78800000D02*
X246320000Y-78800000D01*
X246320000Y-78800000D02*
X246320000Y-77470000D01*
X248920000Y-78800000D02*
X248920000Y-76140000D01*
X261680000Y-78800000D02*
X261680000Y-76140000D01*
X248920000Y-76140000D02*
X261680000Y-76140000D01*
%TO.C,J1*%
X226060000Y-78800000D02*
X226060000Y-76140000D01*
X243900000Y-78800000D02*
X243900000Y-76140000D01*
X226060000Y-78800000D02*
X243900000Y-78800000D01*
X224790000Y-78800000D02*
X223460000Y-78800000D01*
X226060000Y-76140000D02*
X243900000Y-76140000D01*
X223460000Y-78800000D02*
X223460000Y-77470000D01*
%TO.C,SW2*%
X262640000Y-53340000D02*
X261640000Y-53340000D01*
X258640000Y-53340000D02*
X259640000Y-53340000D01*
X261640000Y-53340000D02*
X259640000Y-54340000D01*
X263140000Y-55340000D02*
X262640000Y-55340000D01*
X262640000Y-55340000D02*
X262640000Y-51340000D01*
X262640000Y-51340000D02*
X263140000Y-51340000D01*
X263140000Y-51340000D02*
X263140000Y-55340000D01*
X258140000Y-55340000D02*
X258640000Y-55340000D01*
X258640000Y-55340000D02*
X258640000Y-51340000D01*
X258640000Y-51340000D02*
X258140000Y-51340000D01*
X258140000Y-51340000D02*
X258140000Y-55340000D01*
%TO.C,SW1*%
X205490000Y-53340000D02*
X204490000Y-53340000D01*
X201490000Y-53340000D02*
X202490000Y-53340000D01*
X204490000Y-53340000D02*
X202490000Y-54340000D01*
X205990000Y-55340000D02*
X205490000Y-55340000D01*
X205490000Y-55340000D02*
X205490000Y-51340000D01*
X205490000Y-51340000D02*
X205990000Y-51340000D01*
X205990000Y-51340000D02*
X205990000Y-55340000D01*
X200990000Y-55340000D02*
X201490000Y-55340000D01*
X201490000Y-55340000D02*
X201490000Y-51340000D01*
X201490000Y-51340000D02*
X200990000Y-51340000D01*
X200990000Y-51340000D02*
X200990000Y-55340000D01*
%TO.C,R9*%
X261520000Y-69310000D02*
X261850000Y-69310000D01*
X264260000Y-62770000D02*
X264260000Y-69310000D01*
X261520000Y-62770000D02*
X261520000Y-69310000D01*
X261850000Y-62770000D02*
X261520000Y-62770000D01*
X263930000Y-62770000D02*
X264260000Y-62770000D01*
X264260000Y-69310000D02*
X263930000Y-69310000D01*
%TO.C,R8*%
X213460000Y-33560000D02*
X213130000Y-33560000D01*
X210720000Y-40100000D02*
X210720000Y-33560000D01*
X213460000Y-40100000D02*
X213460000Y-33560000D01*
X213130000Y-40100000D02*
X213460000Y-40100000D01*
X211050000Y-40100000D02*
X210720000Y-40100000D01*
X210720000Y-33560000D02*
X211050000Y-33560000D01*
%TO.C,R7*%
X225520000Y-34390000D02*
X225520000Y-34060000D01*
X218980000Y-31650000D02*
X225520000Y-31650000D01*
X218980000Y-34390000D02*
X225520000Y-34390000D01*
X218980000Y-34060000D02*
X218980000Y-34390000D01*
X218980000Y-31980000D02*
X218980000Y-31650000D01*
X225520000Y-31650000D02*
X225520000Y-31980000D01*
%TO.C,R6*%
X236950000Y-34390000D02*
X236950000Y-34060000D01*
X230410000Y-31650000D02*
X236950000Y-31650000D01*
X230410000Y-34390000D02*
X236950000Y-34390000D01*
X230410000Y-34060000D02*
X230410000Y-34390000D01*
X230410000Y-31980000D02*
X230410000Y-31650000D01*
X236950000Y-31650000D02*
X236950000Y-31980000D01*
%TO.C,R5*%
X248380000Y-34390000D02*
X248380000Y-34060000D01*
X241840000Y-31650000D02*
X248380000Y-31650000D01*
X241840000Y-34390000D02*
X248380000Y-34390000D01*
X241840000Y-34060000D02*
X241840000Y-34390000D01*
X241840000Y-31980000D02*
X241840000Y-31650000D01*
X248380000Y-31650000D02*
X248380000Y-31980000D01*
%TO.C,R4*%
X259810000Y-34390000D02*
X259810000Y-34060000D01*
X253270000Y-31650000D02*
X259810000Y-31650000D01*
X253270000Y-34390000D02*
X259810000Y-34390000D01*
X253270000Y-34060000D02*
X253270000Y-34390000D01*
X253270000Y-31980000D02*
X253270000Y-31650000D01*
X259810000Y-31650000D02*
X259810000Y-31980000D01*
%TO.C,R3*%
X224060000Y-72290000D02*
X224060000Y-72620000D01*
X230600000Y-75030000D02*
X224060000Y-75030000D01*
X230600000Y-72290000D02*
X224060000Y-72290000D01*
X230600000Y-72620000D02*
X230600000Y-72290000D01*
X230600000Y-74700000D02*
X230600000Y-75030000D01*
X224060000Y-75030000D02*
X224060000Y-74700000D01*
%TO.C,R2*%
X235490000Y-72290000D02*
X235490000Y-72620000D01*
X242030000Y-75030000D02*
X235490000Y-75030000D01*
X242030000Y-72290000D02*
X235490000Y-72290000D01*
X242030000Y-72620000D02*
X242030000Y-72290000D01*
X242030000Y-74700000D02*
X242030000Y-75030000D01*
X235490000Y-75030000D02*
X235490000Y-74700000D01*
%TO.C,R1*%
X246920000Y-72290000D02*
X246920000Y-72620000D01*
X253460000Y-75030000D02*
X246920000Y-75030000D01*
X253460000Y-72290000D02*
X246920000Y-72290000D01*
X253460000Y-72620000D02*
X253460000Y-72290000D01*
X253460000Y-74700000D02*
X253460000Y-75030000D01*
X246920000Y-75030000D02*
X246920000Y-74700000D01*
%TO.C,D7*%
X223480000Y-41910000D02*
G75*
G03*
X223480000Y-41910000I-2500000J0D01*
G01*
X223970000Y-41910462D02*
G75*
G03*
X218420000Y-40365170I-2990000J462D01*
G01*
X218420000Y-43454830D02*
G75*
G03*
X223970000Y-41909538I2560000J1544830D01*
G01*
X218420000Y-40365000D02*
X218420000Y-43455000D01*
%TO.C,D6*%
X229850000Y-40365000D02*
X229850000Y-43455000D01*
X229850000Y-43454830D02*
G75*
G03*
X235400000Y-41909538I2560000J1544830D01*
G01*
X235400000Y-41910462D02*
G75*
G03*
X229850000Y-40365170I-2990000J462D01*
G01*
X234910000Y-41910000D02*
G75*
G03*
X234910000Y-41910000I-2500000J0D01*
G01*
%TO.C,D5*%
X241280000Y-40365000D02*
X241280000Y-43455000D01*
X241280000Y-43454830D02*
G75*
G03*
X246830000Y-41909538I2560000J1544830D01*
G01*
X246830000Y-41910462D02*
G75*
G03*
X241280000Y-40365170I-2990000J462D01*
G01*
X246340000Y-41910000D02*
G75*
G03*
X246340000Y-41910000I-2500000J0D01*
G01*
%TO.C,D4*%
X218420000Y-63225000D02*
X218420000Y-66315000D01*
X218420000Y-66314830D02*
G75*
G03*
X223970000Y-64769538I2560000J1544830D01*
G01*
X223970000Y-64770462D02*
G75*
G03*
X218420000Y-63225170I-2990000J462D01*
G01*
X223480000Y-64770000D02*
G75*
G03*
X223480000Y-64770000I-2500000J0D01*
G01*
%TO.C,D3*%
X229850000Y-63225000D02*
X229850000Y-66315000D01*
X229850000Y-66314830D02*
G75*
G03*
X235400000Y-64769538I2560000J1544830D01*
G01*
X235400000Y-64770462D02*
G75*
G03*
X229850000Y-63225170I-2990000J462D01*
G01*
X234910000Y-64770000D02*
G75*
G03*
X234910000Y-64770000I-2500000J0D01*
G01*
%TO.C,D2*%
X241280000Y-63225000D02*
X241280000Y-66315000D01*
X241280000Y-66314830D02*
G75*
G03*
X246830000Y-64769538I2560000J1544830D01*
G01*
X246830000Y-64770462D02*
G75*
G03*
X241280000Y-63225170I-2990000J462D01*
G01*
X246340000Y-64770000D02*
G75*
G03*
X246340000Y-64770000I-2500000J0D01*
G01*
%TO.C,D1*%
X229850000Y-51795000D02*
X229850000Y-54885000D01*
X229850000Y-54884830D02*
G75*
G03*
X235400000Y-53339538I2560000J1544830D01*
G01*
X235400000Y-53340462D02*
G75*
G03*
X229850000Y-51795170I-2990000J462D01*
G01*
X234910000Y-53340000D02*
G75*
G03*
X234910000Y-53340000I-2500000J0D01*
G01*
%TD*%
M02*
