%TF.GenerationSoftware,KiCad,Pcbnew,(6.0.7)*%
%TF.CreationDate,2022-08-31T11:28:36+09:00*%
%TF.ProjectId,LED_Dice,4c45445f-4469-4636-952e-6b696361645f,rev?*%
%TF.SameCoordinates,Original*%
%TF.FileFunction,Copper,L2,Bot*%
%TF.FilePolarity,Positive*%
%FSLAX46Y46*%
G04 Gerber Fmt 4.6, Leading zero omitted, Abs format (unit mm)*
G04 Created by KiCad (PCBNEW (6.0.7)) date 2022-08-31 11:28:36*
%MOMM*%
%LPD*%
G01*
G04 APERTURE LIST*
%TA.AperFunction,ComponentPad*%
%ADD10R,1.700000X1.700000*%
%TD*%
%TA.AperFunction,ComponentPad*%
%ADD11O,1.700000X1.700000*%
%TD*%
%TA.AperFunction,ComponentPad*%
%ADD12C,2.000000*%
%TD*%
%TA.AperFunction,ComponentPad*%
%ADD13C,1.600000*%
%TD*%
%TA.AperFunction,ComponentPad*%
%ADD14O,1.600000X1.600000*%
%TD*%
%TA.AperFunction,ComponentPad*%
%ADD15C,1.800000*%
%TD*%
%TA.AperFunction,ComponentPad*%
%ADD16R,1.800000X1.800000*%
%TD*%
%TA.AperFunction,ViaPad*%
%ADD17C,0.800000*%
%TD*%
%TA.AperFunction,Conductor*%
%ADD18C,0.600000*%
%TD*%
%TA.AperFunction,Conductor*%
%ADD19C,0.400000*%
%TD*%
%TA.AperFunction,Conductor*%
%ADD20C,0.250000*%
%TD*%
G04 APERTURE END LIST*
D10*
%TO.P,J4,1,Pin_1*%
%TO.N,D07*%
X242570000Y-29210000D03*
D11*
%TO.P,J4,2,Pin_2*%
%TO.N,D06*%
X245110000Y-29210000D03*
%TO.P,J4,3,Pin_3*%
%TO.N,D05*%
X247650000Y-29210000D03*
%TO.P,J4,4,Pin_4*%
%TO.N,D04*%
X250190000Y-29210000D03*
%TO.P,J4,5,Pin_5*%
%TO.N,unconnected-(J4-Pad5)*%
X252730000Y-29210000D03*
%TO.P,J4,6,Pin_6*%
%TO.N,unconnected-(J4-Pad6)*%
X255270000Y-29210000D03*
%TO.P,J4,7,Pin_7*%
%TO.N,unconnected-(J4-Pad7)*%
X257810000Y-29210000D03*
%TO.P,J4,8,Pin_8*%
%TO.N,unconnected-(J4-Pad8)*%
X260350000Y-29210000D03*
%TD*%
D10*
%TO.P,J3,1,Pin_1*%
%TO.N,unconnected-(J3-Pad1)*%
X215900000Y-29210000D03*
D11*
%TO.P,J3,2,Pin_2*%
%TO.N,unconnected-(J3-Pad2)*%
X218440000Y-29210000D03*
%TO.P,J3,3,Pin_3*%
%TO.N,unconnected-(J3-Pad3)*%
X220980000Y-29210000D03*
%TO.P,J3,4,Pin_4*%
%TO.N,unconnected-(J3-Pad4)*%
X223520000Y-29210000D03*
%TO.P,J3,5,Pin_5*%
%TO.N,unconnected-(J3-Pad5)*%
X226060000Y-29210000D03*
%TO.P,J3,6,Pin_6*%
%TO.N,D12_SW2*%
X228600000Y-29210000D03*
%TO.P,J3,7,Pin_7*%
%TO.N,D11_SW1*%
X231140000Y-29210000D03*
%TO.P,J3,8,Pin_8*%
%TO.N,D10*%
X233680000Y-29210000D03*
%TO.P,J3,9,Pin_9*%
%TO.N,D09*%
X236220000Y-29210000D03*
%TO.P,J3,10,Pin_10*%
%TO.N,D08*%
X238760000Y-29210000D03*
%TD*%
D10*
%TO.P,J2,1,Pin_1*%
%TO.N,unconnected-(J2-Pad1)*%
X247650000Y-77470000D03*
D11*
%TO.P,J2,2,Pin_2*%
%TO.N,unconnected-(J2-Pad2)*%
X250190000Y-77470000D03*
%TO.P,J2,3,Pin_3*%
%TO.N,unconnected-(J2-Pad3)*%
X252730000Y-77470000D03*
%TO.P,J2,4,Pin_4*%
%TO.N,unconnected-(J2-Pad4)*%
X255270000Y-77470000D03*
%TO.P,J2,5,Pin_5*%
%TO.N,unconnected-(J2-Pad5)*%
X257810000Y-77470000D03*
%TO.P,J2,6,Pin_6*%
%TO.N,unconnected-(J2-Pad6)*%
X260350000Y-77470000D03*
%TD*%
D10*
%TO.P,J1,1,Pin_1*%
%TO.N,unconnected-(J1-Pad1)*%
X224790000Y-77470000D03*
D11*
%TO.P,J1,2,Pin_2*%
%TO.N,unconnected-(J1-Pad2)*%
X227330000Y-77470000D03*
%TO.P,J1,3,Pin_3*%
%TO.N,unconnected-(J1-Pad3)*%
X229870000Y-77470000D03*
%TO.P,J1,4,Pin_4*%
%TO.N,unconnected-(J1-Pad4)*%
X232410000Y-77470000D03*
%TO.P,J1,5,Pin_5*%
%TO.N,+5V*%
X234950000Y-77470000D03*
%TO.P,J1,6,Pin_6*%
%TO.N,GND*%
X237490000Y-77470000D03*
%TO.P,J1,7,Pin_7*%
X240030000Y-77470000D03*
%TO.P,J1,8,Pin_8*%
%TO.N,unconnected-(J1-Pad8)*%
X242570000Y-77470000D03*
%TD*%
D12*
%TO.P,SW2,1,1*%
%TO.N,GND*%
X258390000Y-56590000D03*
%TO.P,SW2,2,2*%
X258390000Y-50090000D03*
%TO.P,SW2,3,K*%
%TO.N,D12_SW2*%
X262890000Y-50090000D03*
%TO.P,SW2,4,A*%
X262890000Y-56590000D03*
%TD*%
%TO.P,SW1,1,1*%
%TO.N,GND*%
X201240000Y-56590000D03*
%TO.P,SW1,2,2*%
X201240000Y-50090000D03*
%TO.P,SW1,3,K*%
%TO.N,D11_SW1*%
X205740000Y-50090000D03*
%TO.P,SW1,4,A*%
X205740000Y-56590000D03*
%TD*%
D13*
%TO.P,R9,1*%
%TO.N,D12_SW2*%
X262890000Y-62230000D03*
D14*
%TO.P,R9,2*%
%TO.N,+5V*%
X262890000Y-69850000D03*
%TD*%
D13*
%TO.P,R8,1*%
%TO.N,D11_SW1*%
X212090000Y-40640000D03*
D14*
%TO.P,R8,2*%
%TO.N,+5V*%
X212090000Y-33020000D03*
%TD*%
D13*
%TO.P,R7,1*%
%TO.N,Net-(R7-Pad1)*%
X218440000Y-33020000D03*
D14*
%TO.P,R7,2*%
%TO.N,D10*%
X226060000Y-33020000D03*
%TD*%
D13*
%TO.P,R6,1*%
%TO.N,Net-(D6-Pad2)*%
X229870000Y-33020000D03*
D14*
%TO.P,R6,2*%
%TO.N,D09*%
X237490000Y-33020000D03*
%TD*%
D13*
%TO.P,R5,1*%
%TO.N,Net-(D5-Pad2)*%
X241300000Y-33020000D03*
D14*
%TO.P,R5,2*%
%TO.N,D08*%
X248920000Y-33020000D03*
%TD*%
D13*
%TO.P,R4,1*%
%TO.N,Net-(D4-Pad2)*%
X252730000Y-33020000D03*
D14*
%TO.P,R4,2*%
%TO.N,D07*%
X260350000Y-33020000D03*
%TD*%
D13*
%TO.P,R3,1*%
%TO.N,Net-(D3-Pad2)*%
X231140000Y-73660000D03*
D14*
%TO.P,R3,2*%
%TO.N,D06*%
X223520000Y-73660000D03*
%TD*%
D13*
%TO.P,R2,1*%
%TO.N,Net-(D2-Pad2)*%
X242570000Y-73660000D03*
D14*
%TO.P,R2,2*%
%TO.N,D05*%
X234950000Y-73660000D03*
%TD*%
D13*
%TO.P,R1,1*%
%TO.N,Net-(D1-Pad2)*%
X254000000Y-73660000D03*
D14*
%TO.P,R1,2*%
%TO.N,D04*%
X246380000Y-73660000D03*
%TD*%
D15*
%TO.P,D7,2,A*%
%TO.N,Net-(R7-Pad1)*%
X222250000Y-41910000D03*
D16*
%TO.P,D7,1,K*%
%TO.N,GND*%
X219710000Y-41910000D03*
%TD*%
%TO.P,D6,1,K*%
%TO.N,GND*%
X231140000Y-41910000D03*
D15*
%TO.P,D6,2,A*%
%TO.N,Net-(D6-Pad2)*%
X233680000Y-41910000D03*
%TD*%
D16*
%TO.P,D5,1,K*%
%TO.N,GND*%
X242570000Y-41910000D03*
D15*
%TO.P,D5,2,A*%
%TO.N,Net-(D5-Pad2)*%
X245110000Y-41910000D03*
%TD*%
D16*
%TO.P,D4,1,K*%
%TO.N,GND*%
X219710000Y-64770000D03*
D15*
%TO.P,D4,2,A*%
%TO.N,Net-(D4-Pad2)*%
X222250000Y-64770000D03*
%TD*%
D16*
%TO.P,D3,1,K*%
%TO.N,GND*%
X231140000Y-64770000D03*
D15*
%TO.P,D3,2,A*%
%TO.N,Net-(D3-Pad2)*%
X233680000Y-64770000D03*
%TD*%
D16*
%TO.P,D2,1,K*%
%TO.N,GND*%
X242570000Y-64770000D03*
D15*
%TO.P,D2,2,A*%
%TO.N,Net-(D2-Pad2)*%
X245110000Y-64770000D03*
%TD*%
D16*
%TO.P,D1,1,K*%
%TO.N,GND*%
X231140000Y-53340000D03*
D15*
%TO.P,D1,2,A*%
%TO.N,Net-(D1-Pad2)*%
X233680000Y-53340000D03*
%TD*%
D17*
%TO.N,D04*%
X250737700Y-38762300D03*
X251500000Y-36000000D03*
%TO.N,Net-(D4-Pad2)*%
X257000000Y-68500000D03*
%TD*%
D18*
%TO.N,+5V*%
X235950000Y-76050000D02*
X236500000Y-75500000D01*
X234950000Y-76050000D02*
X235950000Y-76050000D01*
X234950000Y-76050000D02*
X234050000Y-76050000D01*
X233500000Y-75500000D02*
X234050000Y-76050000D01*
X234950000Y-76050000D02*
X234950000Y-75550000D01*
X234950000Y-77470000D02*
X234950000Y-76050000D01*
D19*
X234950000Y-75550000D02*
X235000000Y-75500000D01*
D20*
%TO.N,D04*%
X250737700Y-36762300D02*
X251500000Y-36000000D01*
X250737700Y-38762300D02*
X250737700Y-36762300D01*
%TO.N,Net-(D4-Pad2)*%
X223500000Y-68500000D02*
X257000000Y-68500000D01*
X222250000Y-67250000D02*
X223500000Y-68500000D01*
X222250000Y-64770000D02*
X222250000Y-67250000D01*
%TO.N,Net-(D1-Pad2)*%
X233680000Y-52180000D02*
X233680000Y-53340000D01*
X232500000Y-51000000D02*
X233680000Y-52180000D01*
X217500000Y-51000000D02*
X232500000Y-51000000D01*
X216000000Y-52500000D02*
X217500000Y-51000000D01*
X216000000Y-68000000D02*
X216000000Y-52500000D01*
X217500000Y-69500000D02*
X216000000Y-68000000D01*
X249840000Y-69500000D02*
X217500000Y-69500000D01*
X254000000Y-73660000D02*
X249840000Y-69500000D01*
D19*
%TO.N,+5V*%
X238000000Y-74420000D02*
X238000000Y-73500000D01*
D20*
%TO.N,D12_SW2*%
X260500000Y-47700000D02*
X262890000Y-50090000D01*
X260500000Y-37500000D02*
X260500000Y-47700000D01*
X230956399Y-31566399D02*
X254566399Y-31566399D01*
X254566399Y-31566399D02*
X260500000Y-37500000D01*
X228600000Y-29210000D02*
X230956399Y-31566399D01*
%TD*%
%TA.AperFunction,Conductor*%
%TO.N,+5V*%
G36*
X214015931Y-30020002D02*
G01*
X214036905Y-30036905D01*
X214963095Y-30963095D01*
X214997121Y-31025407D01*
X215000000Y-31052190D01*
X215000000Y-70500000D01*
X216000000Y-71500000D01*
X250891906Y-71500000D01*
X250960027Y-71520002D01*
X250981001Y-71536905D01*
X252690848Y-73246752D01*
X252724874Y-73309064D01*
X252723459Y-73368459D01*
X252707882Y-73426591D01*
X252707881Y-73426598D01*
X252706457Y-73431913D01*
X252686502Y-73660000D01*
X252706457Y-73888087D01*
X252765716Y-74109243D01*
X252768039Y-74114224D01*
X252768039Y-74114225D01*
X252860151Y-74311762D01*
X252860154Y-74311767D01*
X252862477Y-74316749D01*
X252993802Y-74504300D01*
X253155700Y-74666198D01*
X253160208Y-74669355D01*
X253160211Y-74669357D01*
X253238389Y-74724098D01*
X253343251Y-74797523D01*
X253348233Y-74799846D01*
X253348238Y-74799849D01*
X253545775Y-74891961D01*
X253550757Y-74894284D01*
X253556065Y-74895706D01*
X253556067Y-74895707D01*
X253766598Y-74952119D01*
X253766600Y-74952119D01*
X253771913Y-74953543D01*
X254000000Y-74973498D01*
X254228087Y-74953543D01*
X254233400Y-74952119D01*
X254233402Y-74952119D01*
X254443933Y-74895707D01*
X254443935Y-74895706D01*
X254449243Y-74894284D01*
X254454225Y-74891961D01*
X254651762Y-74799849D01*
X254651767Y-74799846D01*
X254656749Y-74797523D01*
X254761611Y-74724098D01*
X254839789Y-74669357D01*
X254839792Y-74669355D01*
X254844300Y-74666198D01*
X255006198Y-74504300D01*
X255137523Y-74316749D01*
X255139846Y-74311767D01*
X255139849Y-74311762D01*
X255231961Y-74114225D01*
X255231961Y-74114224D01*
X255234284Y-74109243D01*
X255293543Y-73888087D01*
X255313498Y-73660000D01*
X255293543Y-73431913D01*
X255292117Y-73426591D01*
X255235707Y-73216067D01*
X255235706Y-73216065D01*
X255234284Y-73210757D01*
X255231961Y-73205775D01*
X255139849Y-73008238D01*
X255139846Y-73008233D01*
X255137523Y-73003251D01*
X255006198Y-72815700D01*
X254844300Y-72653802D01*
X254839792Y-72650645D01*
X254839789Y-72650643D01*
X254761611Y-72595902D01*
X254656749Y-72522477D01*
X254651767Y-72520154D01*
X254651762Y-72520151D01*
X254454225Y-72428039D01*
X254454224Y-72428039D01*
X254449243Y-72425716D01*
X254443935Y-72424294D01*
X254443933Y-72424293D01*
X254233402Y-72367881D01*
X254233400Y-72367881D01*
X254228087Y-72366457D01*
X254000000Y-72346502D01*
X253771913Y-72366457D01*
X253708458Y-72383460D01*
X253637482Y-72381770D01*
X253586753Y-72350848D01*
X252951000Y-71715095D01*
X252916974Y-71652783D01*
X252922039Y-71581968D01*
X252964586Y-71525132D01*
X253031106Y-71500321D01*
X253040095Y-71500000D01*
X259000000Y-71500000D01*
X260383478Y-70116522D01*
X261607273Y-70116522D01*
X261654764Y-70293761D01*
X261658510Y-70304053D01*
X261750586Y-70501511D01*
X261756069Y-70511007D01*
X261881028Y-70689467D01*
X261888084Y-70697875D01*
X262042125Y-70851916D01*
X262050533Y-70858972D01*
X262228993Y-70983931D01*
X262238489Y-70989414D01*
X262435947Y-71081490D01*
X262446239Y-71085236D01*
X262618503Y-71131394D01*
X262632599Y-71131058D01*
X262636000Y-71123116D01*
X262636000Y-71117967D01*
X263144000Y-71117967D01*
X263147973Y-71131498D01*
X263156522Y-71132727D01*
X263333761Y-71085236D01*
X263344053Y-71081490D01*
X263541511Y-70989414D01*
X263551007Y-70983931D01*
X263729467Y-70858972D01*
X263737875Y-70851916D01*
X263891916Y-70697875D01*
X263898972Y-70689467D01*
X264023931Y-70511007D01*
X264029414Y-70501511D01*
X264121490Y-70304053D01*
X264125236Y-70293761D01*
X264171394Y-70121497D01*
X264171058Y-70107401D01*
X264163116Y-70104000D01*
X263162115Y-70104000D01*
X263146876Y-70108475D01*
X263145671Y-70109865D01*
X263144000Y-70117548D01*
X263144000Y-71117967D01*
X262636000Y-71117967D01*
X262636000Y-70122115D01*
X262631525Y-70106876D01*
X262630135Y-70105671D01*
X262622452Y-70104000D01*
X261622033Y-70104000D01*
X261608502Y-70107973D01*
X261607273Y-70116522D01*
X260383478Y-70116522D01*
X260500000Y-70000000D01*
X260500000Y-69578503D01*
X261608606Y-69578503D01*
X261608942Y-69592599D01*
X261616884Y-69596000D01*
X262617885Y-69596000D01*
X262633124Y-69591525D01*
X262634329Y-69590135D01*
X262636000Y-69582452D01*
X262636000Y-69577885D01*
X263144000Y-69577885D01*
X263148475Y-69593124D01*
X263149865Y-69594329D01*
X263157548Y-69596000D01*
X264157967Y-69596000D01*
X264171498Y-69592027D01*
X264172727Y-69583478D01*
X264125236Y-69406239D01*
X264121490Y-69395947D01*
X264029414Y-69198489D01*
X264023931Y-69188993D01*
X263898972Y-69010533D01*
X263891916Y-69002125D01*
X263737875Y-68848084D01*
X263729467Y-68841028D01*
X263551007Y-68716069D01*
X263541511Y-68710586D01*
X263344053Y-68618510D01*
X263333761Y-68614764D01*
X263161497Y-68568606D01*
X263147401Y-68568942D01*
X263144000Y-68576884D01*
X263144000Y-69577885D01*
X262636000Y-69577885D01*
X262636000Y-68582033D01*
X262632027Y-68568502D01*
X262623478Y-68567273D01*
X262446239Y-68614764D01*
X262435947Y-68618510D01*
X262238489Y-68710586D01*
X262228993Y-68716069D01*
X262050533Y-68841028D01*
X262042125Y-68848084D01*
X261888084Y-69002125D01*
X261881028Y-69010533D01*
X261756069Y-69188993D01*
X261750586Y-69198489D01*
X261658510Y-69395947D01*
X261654764Y-69406239D01*
X261608606Y-69578503D01*
X260500000Y-69578503D01*
X260500000Y-65052190D01*
X260520002Y-64984069D01*
X260536905Y-64963095D01*
X261463095Y-64036905D01*
X261525407Y-64002879D01*
X261552190Y-64000000D01*
X264447810Y-64000000D01*
X264515931Y-64020002D01*
X264536905Y-64036905D01*
X265324595Y-64824595D01*
X265358621Y-64886907D01*
X265361500Y-64913690D01*
X265361500Y-74586310D01*
X265341498Y-74654431D01*
X265324595Y-74675405D01*
X264536905Y-75463095D01*
X264474593Y-75497121D01*
X264447810Y-75500000D01*
X209626000Y-75500000D01*
X209557879Y-75479998D01*
X209511386Y-75426342D01*
X209500000Y-75374000D01*
X209500000Y-73660000D01*
X222206502Y-73660000D01*
X222226457Y-73888087D01*
X222285716Y-74109243D01*
X222288039Y-74114224D01*
X222288039Y-74114225D01*
X222380151Y-74311762D01*
X222380154Y-74311767D01*
X222382477Y-74316749D01*
X222513802Y-74504300D01*
X222675700Y-74666198D01*
X222680208Y-74669355D01*
X222680211Y-74669357D01*
X222758389Y-74724098D01*
X222863251Y-74797523D01*
X222868233Y-74799846D01*
X222868238Y-74799849D01*
X223065775Y-74891961D01*
X223070757Y-74894284D01*
X223076065Y-74895706D01*
X223076067Y-74895707D01*
X223286598Y-74952119D01*
X223286600Y-74952119D01*
X223291913Y-74953543D01*
X223520000Y-74973498D01*
X223748087Y-74953543D01*
X223753400Y-74952119D01*
X223753402Y-74952119D01*
X223963933Y-74895707D01*
X223963935Y-74895706D01*
X223969243Y-74894284D01*
X223974225Y-74891961D01*
X224171762Y-74799849D01*
X224171767Y-74799846D01*
X224176749Y-74797523D01*
X224281611Y-74724098D01*
X224359789Y-74669357D01*
X224359792Y-74669355D01*
X224364300Y-74666198D01*
X224526198Y-74504300D01*
X224657523Y-74316749D01*
X224659846Y-74311767D01*
X224659849Y-74311762D01*
X224751961Y-74114225D01*
X224751961Y-74114224D01*
X224754284Y-74109243D01*
X224813543Y-73888087D01*
X224833498Y-73660000D01*
X229826502Y-73660000D01*
X229846457Y-73888087D01*
X229905716Y-74109243D01*
X229908039Y-74114224D01*
X229908039Y-74114225D01*
X230000151Y-74311762D01*
X230000154Y-74311767D01*
X230002477Y-74316749D01*
X230133802Y-74504300D01*
X230295700Y-74666198D01*
X230300208Y-74669355D01*
X230300211Y-74669357D01*
X230378389Y-74724098D01*
X230483251Y-74797523D01*
X230488233Y-74799846D01*
X230488238Y-74799849D01*
X230685775Y-74891961D01*
X230690757Y-74894284D01*
X230696065Y-74895706D01*
X230696067Y-74895707D01*
X230906598Y-74952119D01*
X230906600Y-74952119D01*
X230911913Y-74953543D01*
X231140000Y-74973498D01*
X231368087Y-74953543D01*
X231373400Y-74952119D01*
X231373402Y-74952119D01*
X231583933Y-74895707D01*
X231583935Y-74895706D01*
X231589243Y-74894284D01*
X231594225Y-74891961D01*
X231791762Y-74799849D01*
X231791767Y-74799846D01*
X231796749Y-74797523D01*
X231901611Y-74724098D01*
X231979789Y-74669357D01*
X231979792Y-74669355D01*
X231984300Y-74666198D01*
X232146198Y-74504300D01*
X232277523Y-74316749D01*
X232279846Y-74311767D01*
X232279849Y-74311762D01*
X232371961Y-74114225D01*
X232371961Y-74114224D01*
X232374284Y-74109243D01*
X232433543Y-73888087D01*
X232453498Y-73660000D01*
X233636502Y-73660000D01*
X233656457Y-73888087D01*
X233715716Y-74109243D01*
X233718039Y-74114224D01*
X233718039Y-74114225D01*
X233810151Y-74311762D01*
X233810154Y-74311767D01*
X233812477Y-74316749D01*
X233943802Y-74504300D01*
X234105700Y-74666198D01*
X234110208Y-74669355D01*
X234110211Y-74669357D01*
X234188389Y-74724098D01*
X234293251Y-74797523D01*
X234298233Y-74799846D01*
X234298238Y-74799849D01*
X234495775Y-74891961D01*
X234500757Y-74894284D01*
X234506065Y-74895706D01*
X234506067Y-74895707D01*
X234716598Y-74952119D01*
X234716600Y-74952119D01*
X234721913Y-74953543D01*
X234950000Y-74973498D01*
X235178087Y-74953543D01*
X235183400Y-74952119D01*
X235183402Y-74952119D01*
X235393933Y-74895707D01*
X235393935Y-74895706D01*
X235399243Y-74894284D01*
X235404225Y-74891961D01*
X235601762Y-74799849D01*
X235601767Y-74799846D01*
X235606749Y-74797523D01*
X235711611Y-74724098D01*
X235789789Y-74669357D01*
X235789792Y-74669355D01*
X235794300Y-74666198D01*
X235956198Y-74504300D01*
X236087523Y-74316749D01*
X236089846Y-74311767D01*
X236089849Y-74311762D01*
X236181961Y-74114225D01*
X236181961Y-74114224D01*
X236184284Y-74109243D01*
X236243543Y-73888087D01*
X236263498Y-73660000D01*
X241256502Y-73660000D01*
X241276457Y-73888087D01*
X241335716Y-74109243D01*
X241338039Y-74114224D01*
X241338039Y-74114225D01*
X241430151Y-74311762D01*
X241430154Y-74311767D01*
X241432477Y-74316749D01*
X241563802Y-74504300D01*
X241725700Y-74666198D01*
X241730208Y-74669355D01*
X241730211Y-74669357D01*
X241808389Y-74724098D01*
X241913251Y-74797523D01*
X241918233Y-74799846D01*
X241918238Y-74799849D01*
X242115775Y-74891961D01*
X242120757Y-74894284D01*
X242126065Y-74895706D01*
X242126067Y-74895707D01*
X242336598Y-74952119D01*
X242336600Y-74952119D01*
X242341913Y-74953543D01*
X242570000Y-74973498D01*
X242798087Y-74953543D01*
X242803400Y-74952119D01*
X242803402Y-74952119D01*
X243013933Y-74895707D01*
X243013935Y-74895706D01*
X243019243Y-74894284D01*
X243024225Y-74891961D01*
X243221762Y-74799849D01*
X243221767Y-74799846D01*
X243226749Y-74797523D01*
X243331611Y-74724098D01*
X243409789Y-74669357D01*
X243409792Y-74669355D01*
X243414300Y-74666198D01*
X243576198Y-74504300D01*
X243707523Y-74316749D01*
X243709846Y-74311767D01*
X243709849Y-74311762D01*
X243801961Y-74114225D01*
X243801961Y-74114224D01*
X243804284Y-74109243D01*
X243863543Y-73888087D01*
X243883498Y-73660000D01*
X245066502Y-73660000D01*
X245086457Y-73888087D01*
X245145716Y-74109243D01*
X245148039Y-74114224D01*
X245148039Y-74114225D01*
X245240151Y-74311762D01*
X245240154Y-74311767D01*
X245242477Y-74316749D01*
X245373802Y-74504300D01*
X245535700Y-74666198D01*
X245540208Y-74669355D01*
X245540211Y-74669357D01*
X245618389Y-74724098D01*
X245723251Y-74797523D01*
X245728233Y-74799846D01*
X245728238Y-74799849D01*
X245925775Y-74891961D01*
X245930757Y-74894284D01*
X245936065Y-74895706D01*
X245936067Y-74895707D01*
X246146598Y-74952119D01*
X246146600Y-74952119D01*
X246151913Y-74953543D01*
X246380000Y-74973498D01*
X246608087Y-74953543D01*
X246613400Y-74952119D01*
X246613402Y-74952119D01*
X246823933Y-74895707D01*
X246823935Y-74895706D01*
X246829243Y-74894284D01*
X246834225Y-74891961D01*
X247031762Y-74799849D01*
X247031767Y-74799846D01*
X247036749Y-74797523D01*
X247141611Y-74724098D01*
X247219789Y-74669357D01*
X247219792Y-74669355D01*
X247224300Y-74666198D01*
X247386198Y-74504300D01*
X247517523Y-74316749D01*
X247519846Y-74311767D01*
X247519849Y-74311762D01*
X247611961Y-74114225D01*
X247611961Y-74114224D01*
X247614284Y-74109243D01*
X247673543Y-73888087D01*
X247693498Y-73660000D01*
X247673543Y-73431913D01*
X247672117Y-73426591D01*
X247615707Y-73216067D01*
X247615706Y-73216065D01*
X247614284Y-73210757D01*
X247611961Y-73205775D01*
X247519849Y-73008238D01*
X247519846Y-73008233D01*
X247517523Y-73003251D01*
X247386198Y-72815700D01*
X247224300Y-72653802D01*
X247219792Y-72650645D01*
X247219789Y-72650643D01*
X247141611Y-72595902D01*
X247036749Y-72522477D01*
X247031767Y-72520154D01*
X247031762Y-72520151D01*
X246834225Y-72428039D01*
X246834224Y-72428039D01*
X246829243Y-72425716D01*
X246823935Y-72424294D01*
X246823933Y-72424293D01*
X246613402Y-72367881D01*
X246613400Y-72367881D01*
X246608087Y-72366457D01*
X246380000Y-72346502D01*
X246151913Y-72366457D01*
X246146600Y-72367881D01*
X246146598Y-72367881D01*
X245936067Y-72424293D01*
X245936065Y-72424294D01*
X245930757Y-72425716D01*
X245925776Y-72428039D01*
X245925775Y-72428039D01*
X245728238Y-72520151D01*
X245728233Y-72520154D01*
X245723251Y-72522477D01*
X245618389Y-72595902D01*
X245540211Y-72650643D01*
X245540208Y-72650645D01*
X245535700Y-72653802D01*
X245373802Y-72815700D01*
X245242477Y-73003251D01*
X245240154Y-73008233D01*
X245240151Y-73008238D01*
X245148039Y-73205775D01*
X245145716Y-73210757D01*
X245144294Y-73216065D01*
X245144293Y-73216067D01*
X245087883Y-73426591D01*
X245086457Y-73431913D01*
X245066502Y-73660000D01*
X243883498Y-73660000D01*
X243863543Y-73431913D01*
X243862117Y-73426591D01*
X243805707Y-73216067D01*
X243805706Y-73216065D01*
X243804284Y-73210757D01*
X243801961Y-73205775D01*
X243709849Y-73008238D01*
X243709846Y-73008233D01*
X243707523Y-73003251D01*
X243576198Y-72815700D01*
X243414300Y-72653802D01*
X243409792Y-72650645D01*
X243409789Y-72650643D01*
X243331611Y-72595902D01*
X243226749Y-72522477D01*
X243221767Y-72520154D01*
X243221762Y-72520151D01*
X243024225Y-72428039D01*
X243024224Y-72428039D01*
X243019243Y-72425716D01*
X243013935Y-72424294D01*
X243013933Y-72424293D01*
X242803402Y-72367881D01*
X242803400Y-72367881D01*
X242798087Y-72366457D01*
X242570000Y-72346502D01*
X242341913Y-72366457D01*
X242336600Y-72367881D01*
X242336598Y-72367881D01*
X242126067Y-72424293D01*
X242126065Y-72424294D01*
X242120757Y-72425716D01*
X242115776Y-72428039D01*
X242115775Y-72428039D01*
X241918238Y-72520151D01*
X241918233Y-72520154D01*
X241913251Y-72522477D01*
X241808389Y-72595902D01*
X241730211Y-72650643D01*
X241730208Y-72650645D01*
X241725700Y-72653802D01*
X241563802Y-72815700D01*
X241432477Y-73003251D01*
X241430154Y-73008233D01*
X241430151Y-73008238D01*
X241338039Y-73205775D01*
X241335716Y-73210757D01*
X241334294Y-73216065D01*
X241334293Y-73216067D01*
X241277883Y-73426591D01*
X241276457Y-73431913D01*
X241256502Y-73660000D01*
X236263498Y-73660000D01*
X236243543Y-73431913D01*
X236242117Y-73426591D01*
X236185707Y-73216067D01*
X236185706Y-73216065D01*
X236184284Y-73210757D01*
X236181961Y-73205775D01*
X236089849Y-73008238D01*
X236089846Y-73008233D01*
X236087523Y-73003251D01*
X235956198Y-72815700D01*
X235794300Y-72653802D01*
X235789792Y-72650645D01*
X235789789Y-72650643D01*
X235711611Y-72595902D01*
X235606749Y-72522477D01*
X235601767Y-72520154D01*
X235601762Y-72520151D01*
X235404225Y-72428039D01*
X235404224Y-72428039D01*
X235399243Y-72425716D01*
X235393935Y-72424294D01*
X235393933Y-72424293D01*
X235183402Y-72367881D01*
X235183400Y-72367881D01*
X235178087Y-72366457D01*
X234950000Y-72346502D01*
X234721913Y-72366457D01*
X234716600Y-72367881D01*
X234716598Y-72367881D01*
X234506067Y-72424293D01*
X234506065Y-72424294D01*
X234500757Y-72425716D01*
X234495776Y-72428039D01*
X234495775Y-72428039D01*
X234298238Y-72520151D01*
X234298233Y-72520154D01*
X234293251Y-72522477D01*
X234188389Y-72595902D01*
X234110211Y-72650643D01*
X234110208Y-72650645D01*
X234105700Y-72653802D01*
X233943802Y-72815700D01*
X233812477Y-73003251D01*
X233810154Y-73008233D01*
X233810151Y-73008238D01*
X233718039Y-73205775D01*
X233715716Y-73210757D01*
X233714294Y-73216065D01*
X233714293Y-73216067D01*
X233657883Y-73426591D01*
X233656457Y-73431913D01*
X233636502Y-73660000D01*
X232453498Y-73660000D01*
X232433543Y-73431913D01*
X232432117Y-73426591D01*
X232375707Y-73216067D01*
X232375706Y-73216065D01*
X232374284Y-73210757D01*
X232371961Y-73205775D01*
X232279849Y-73008238D01*
X232279846Y-73008233D01*
X232277523Y-73003251D01*
X232146198Y-72815700D01*
X231984300Y-72653802D01*
X231979792Y-72650645D01*
X231979789Y-72650643D01*
X231901611Y-72595902D01*
X231796749Y-72522477D01*
X231791767Y-72520154D01*
X231791762Y-72520151D01*
X231594225Y-72428039D01*
X231594224Y-72428039D01*
X231589243Y-72425716D01*
X231583935Y-72424294D01*
X231583933Y-72424293D01*
X231373402Y-72367881D01*
X231373400Y-72367881D01*
X231368087Y-72366457D01*
X231140000Y-72346502D01*
X230911913Y-72366457D01*
X230906600Y-72367881D01*
X230906598Y-72367881D01*
X230696067Y-72424293D01*
X230696065Y-72424294D01*
X230690757Y-72425716D01*
X230685776Y-72428039D01*
X230685775Y-72428039D01*
X230488238Y-72520151D01*
X230488233Y-72520154D01*
X230483251Y-72522477D01*
X230378389Y-72595902D01*
X230300211Y-72650643D01*
X230300208Y-72650645D01*
X230295700Y-72653802D01*
X230133802Y-72815700D01*
X230002477Y-73003251D01*
X230000154Y-73008233D01*
X230000151Y-73008238D01*
X229908039Y-73205775D01*
X229905716Y-73210757D01*
X229904294Y-73216065D01*
X229904293Y-73216067D01*
X229847883Y-73426591D01*
X229846457Y-73431913D01*
X229826502Y-73660000D01*
X224833498Y-73660000D01*
X224813543Y-73431913D01*
X224812117Y-73426591D01*
X224755707Y-73216067D01*
X224755706Y-73216065D01*
X224754284Y-73210757D01*
X224751961Y-73205775D01*
X224659849Y-73008238D01*
X224659846Y-73008233D01*
X224657523Y-73003251D01*
X224526198Y-72815700D01*
X224364300Y-72653802D01*
X224359792Y-72650645D01*
X224359789Y-72650643D01*
X224281611Y-72595902D01*
X224176749Y-72522477D01*
X224171767Y-72520154D01*
X224171762Y-72520151D01*
X223974225Y-72428039D01*
X223974224Y-72428039D01*
X223969243Y-72425716D01*
X223963935Y-72424294D01*
X223963933Y-72424293D01*
X223753402Y-72367881D01*
X223753400Y-72367881D01*
X223748087Y-72366457D01*
X223520000Y-72346502D01*
X223291913Y-72366457D01*
X223286600Y-72367881D01*
X223286598Y-72367881D01*
X223076067Y-72424293D01*
X223076065Y-72424294D01*
X223070757Y-72425716D01*
X223065776Y-72428039D01*
X223065775Y-72428039D01*
X222868238Y-72520151D01*
X222868233Y-72520154D01*
X222863251Y-72522477D01*
X222758389Y-72595902D01*
X222680211Y-72650643D01*
X222680208Y-72650645D01*
X222675700Y-72653802D01*
X222513802Y-72815700D01*
X222382477Y-73003251D01*
X222380154Y-73008233D01*
X222380151Y-73008238D01*
X222288039Y-73205775D01*
X222285716Y-73210757D01*
X222284294Y-73216065D01*
X222284293Y-73216067D01*
X222227883Y-73426591D01*
X222226457Y-73431913D01*
X222206502Y-73660000D01*
X209500000Y-73660000D01*
X209500000Y-41000000D01*
X209140000Y-40640000D01*
X210776502Y-40640000D01*
X210796457Y-40868087D01*
X210855716Y-41089243D01*
X210858039Y-41094224D01*
X210858039Y-41094225D01*
X210950151Y-41291762D01*
X210950154Y-41291767D01*
X210952477Y-41296749D01*
X211083802Y-41484300D01*
X211245700Y-41646198D01*
X211250208Y-41649355D01*
X211250211Y-41649357D01*
X211277476Y-41668448D01*
X211433251Y-41777523D01*
X211438233Y-41779846D01*
X211438238Y-41779849D01*
X211635775Y-41871961D01*
X211640757Y-41874284D01*
X211646065Y-41875706D01*
X211646067Y-41875707D01*
X211856598Y-41932119D01*
X211856600Y-41932119D01*
X211861913Y-41933543D01*
X212090000Y-41953498D01*
X212318087Y-41933543D01*
X212323400Y-41932119D01*
X212323402Y-41932119D01*
X212533933Y-41875707D01*
X212533935Y-41875706D01*
X212539243Y-41874284D01*
X212544225Y-41871961D01*
X212741762Y-41779849D01*
X212741767Y-41779846D01*
X212746749Y-41777523D01*
X212902524Y-41668448D01*
X212929789Y-41649357D01*
X212929792Y-41649355D01*
X212934300Y-41646198D01*
X213096198Y-41484300D01*
X213227523Y-41296749D01*
X213229846Y-41291767D01*
X213229849Y-41291762D01*
X213321961Y-41094225D01*
X213321961Y-41094224D01*
X213324284Y-41089243D01*
X213383543Y-40868087D01*
X213403498Y-40640000D01*
X213383543Y-40411913D01*
X213324284Y-40190757D01*
X213321961Y-40185775D01*
X213229849Y-39988238D01*
X213229846Y-39988233D01*
X213227523Y-39983251D01*
X213096198Y-39795700D01*
X212934300Y-39633802D01*
X212929792Y-39630645D01*
X212929789Y-39630643D01*
X212795357Y-39536513D01*
X212746749Y-39502477D01*
X212741767Y-39500154D01*
X212741762Y-39500151D01*
X212544225Y-39408039D01*
X212544224Y-39408039D01*
X212539243Y-39405716D01*
X212533935Y-39404294D01*
X212533933Y-39404293D01*
X212323402Y-39347881D01*
X212323400Y-39347881D01*
X212318087Y-39346457D01*
X212090000Y-39326502D01*
X211861913Y-39346457D01*
X211856600Y-39347881D01*
X211856598Y-39347881D01*
X211646067Y-39404293D01*
X211646065Y-39404294D01*
X211640757Y-39405716D01*
X211635776Y-39408039D01*
X211635775Y-39408039D01*
X211438238Y-39500151D01*
X211438233Y-39500154D01*
X211433251Y-39502477D01*
X211384643Y-39536513D01*
X211250211Y-39630643D01*
X211250208Y-39630645D01*
X211245700Y-39633802D01*
X211083802Y-39795700D01*
X210952477Y-39983251D01*
X210950154Y-39988233D01*
X210950151Y-39988238D01*
X210858039Y-40185775D01*
X210855716Y-40190757D01*
X210796457Y-40411913D01*
X210776502Y-40640000D01*
X209140000Y-40640000D01*
X208036905Y-39536905D01*
X208002879Y-39474593D01*
X208000000Y-39447810D01*
X208000000Y-33286522D01*
X210807273Y-33286522D01*
X210854764Y-33463761D01*
X210858510Y-33474053D01*
X210950586Y-33671511D01*
X210956069Y-33681007D01*
X211081028Y-33859467D01*
X211088084Y-33867875D01*
X211242125Y-34021916D01*
X211250533Y-34028972D01*
X211428993Y-34153931D01*
X211438489Y-34159414D01*
X211635947Y-34251490D01*
X211646239Y-34255236D01*
X211818503Y-34301394D01*
X211832599Y-34301058D01*
X211836000Y-34293116D01*
X211836000Y-34287967D01*
X212344000Y-34287967D01*
X212347973Y-34301498D01*
X212356522Y-34302727D01*
X212533761Y-34255236D01*
X212544053Y-34251490D01*
X212741511Y-34159414D01*
X212751007Y-34153931D01*
X212929467Y-34028972D01*
X212937875Y-34021916D01*
X213091916Y-33867875D01*
X213098972Y-33859467D01*
X213223931Y-33681007D01*
X213229414Y-33671511D01*
X213321490Y-33474053D01*
X213325236Y-33463761D01*
X213371394Y-33291497D01*
X213371058Y-33277401D01*
X213363116Y-33274000D01*
X212362115Y-33274000D01*
X212346876Y-33278475D01*
X212345671Y-33279865D01*
X212344000Y-33287548D01*
X212344000Y-34287967D01*
X211836000Y-34287967D01*
X211836000Y-33292115D01*
X211831525Y-33276876D01*
X211830135Y-33275671D01*
X211822452Y-33274000D01*
X210822033Y-33274000D01*
X210808502Y-33277973D01*
X210807273Y-33286522D01*
X208000000Y-33286522D01*
X208000000Y-32748503D01*
X210808606Y-32748503D01*
X210808942Y-32762599D01*
X210816884Y-32766000D01*
X211817885Y-32766000D01*
X211833124Y-32761525D01*
X211834329Y-32760135D01*
X211836000Y-32752452D01*
X211836000Y-32747885D01*
X212344000Y-32747885D01*
X212348475Y-32763124D01*
X212349865Y-32764329D01*
X212357548Y-32766000D01*
X213357967Y-32766000D01*
X213371498Y-32762027D01*
X213372727Y-32753478D01*
X213325236Y-32576239D01*
X213321490Y-32565947D01*
X213229414Y-32368489D01*
X213223931Y-32358993D01*
X213098972Y-32180533D01*
X213091916Y-32172125D01*
X212937875Y-32018084D01*
X212929467Y-32011028D01*
X212751007Y-31886069D01*
X212741511Y-31880586D01*
X212544053Y-31788510D01*
X212533761Y-31784764D01*
X212361497Y-31738606D01*
X212347401Y-31738942D01*
X212344000Y-31746884D01*
X212344000Y-32747885D01*
X211836000Y-32747885D01*
X211836000Y-31752033D01*
X211832027Y-31738502D01*
X211823478Y-31737273D01*
X211646239Y-31784764D01*
X211635947Y-31788510D01*
X211438489Y-31880586D01*
X211428993Y-31886069D01*
X211250533Y-32011028D01*
X211242125Y-32018084D01*
X211088084Y-32172125D01*
X211081028Y-32180533D01*
X210956069Y-32358993D01*
X210950586Y-32368489D01*
X210858510Y-32565947D01*
X210854764Y-32576239D01*
X210808606Y-32748503D01*
X208000000Y-32748503D01*
X208000000Y-31052190D01*
X208020002Y-30984069D01*
X208036905Y-30963095D01*
X208963095Y-30036905D01*
X209025407Y-30002879D01*
X209052190Y-30000000D01*
X213947810Y-30000000D01*
X214015931Y-30020002D01*
G37*
%TD.AperFunction*%
%TD*%
M02*
