M48
; DRILL file {KiCad (6.0.7)} date Wed Aug 31 11:28:40 2022
; FORMAT={-:-/ absolute / metric / decimal}
; #@! TF.CreationDate,2022-08-31T11:28:40+09:00
; #@! TF.GenerationSoftware,Kicad,Pcbnew,(6.0.7)
; #@! TF.FileFunction,Plated,1,2,PTH
FMAT,2
METRIC
; #@! TA.AperFunction,Plated,PTH,ViaDrill
T1C0.400
; #@! TA.AperFunction,Plated,PTH,ComponentDrill
T2C0.800
; #@! TA.AperFunction,Plated,PTH,ComponentDrill
T3C0.900
; #@! TA.AperFunction,Plated,PTH,ComponentDrill
T4C1.000
%
G90
G05
T1
X250.738Y-38.762
X251.5Y-36.0
X257.0Y-68.5
T2
X212.09Y-33.02
X212.09Y-40.64
X218.44Y-33.02
X223.52Y-73.66
X226.06Y-33.02
X229.87Y-33.02
X231.14Y-73.66
X234.95Y-73.66
X237.49Y-33.02
X241.3Y-33.02
X242.57Y-73.66
X246.38Y-73.66
X248.92Y-33.02
X252.73Y-33.02
X254.0Y-73.66
X260.35Y-33.02
X262.89Y-62.23
X262.89Y-69.85
T3
X219.71Y-41.91
X219.71Y-64.77
X222.25Y-41.91
X222.25Y-64.77
X231.14Y-41.91
X231.14Y-53.34
X231.14Y-64.77
X233.68Y-41.91
X233.68Y-53.34
X233.68Y-64.77
X242.57Y-41.91
X242.57Y-64.77
X245.11Y-41.91
X245.11Y-64.77
T4
X201.24Y-50.09
X201.24Y-56.59
X205.74Y-50.09
X205.74Y-56.59
X215.9Y-29.21
X218.44Y-29.21
X220.98Y-29.21
X223.52Y-29.21
X224.79Y-77.47
X226.06Y-29.21
X227.33Y-77.47
X228.6Y-29.21
X229.87Y-77.47
X231.14Y-29.21
X232.41Y-77.47
X233.68Y-29.21
X234.95Y-77.47
X236.22Y-29.21
X237.49Y-77.47
X238.76Y-29.21
X240.03Y-77.47
X242.57Y-29.21
X242.57Y-77.47
X245.11Y-29.21
X247.65Y-29.21
X247.65Y-77.47
X250.19Y-29.21
X250.19Y-77.47
X252.73Y-29.21
X252.73Y-77.47
X255.27Y-29.21
X255.27Y-77.47
X257.81Y-29.21
X257.81Y-77.47
X258.39Y-50.09
X258.39Y-56.59
X260.35Y-29.21
X260.35Y-77.47
X262.89Y-50.09
X262.89Y-56.59
T0
M30
