%TF.GenerationSoftware,KiCad,Pcbnew,(6.0.7)*%
%TF.CreationDate,2022-08-16T17:28:00+09:00*%
%TF.ProjectId,uno_shield_1,756e6f5f-7368-4696-956c-645f312e6b69,rev?*%
%TF.SameCoordinates,Original*%
%TF.FileFunction,Soldermask,Bot*%
%TF.FilePolarity,Negative*%
%FSLAX46Y46*%
G04 Gerber Fmt 4.6, Leading zero omitted, Abs format (unit mm)*
G04 Created by KiCad (PCBNEW (6.0.7)) date 2022-08-16 17:28:00*
%MOMM*%
%LPD*%
G01*
G04 APERTURE LIST*
%ADD10R,1.524000X1.524000*%
%ADD11C,1.524000*%
%ADD12R,1.600000X1.600000*%
%ADD13O,1.600000X1.600000*%
G04 APERTURE END LIST*
D10*
%TO.C,D2*%
X139700000Y-76200000D03*
D11*
X142240000Y-76200000D03*
%TD*%
%TO.C,R2*%
X142240000Y-90110000D03*
X142240000Y-82490000D03*
%TD*%
%TO.C,R1*%
X134620000Y-90110000D03*
X134620000Y-82490000D03*
%TD*%
D10*
%TO.C,D1*%
X132080000Y-76200000D03*
D11*
X134620000Y-76200000D03*
%TD*%
D12*
%TO.C,A1*%
X142240000Y-57150000D03*
D13*
X144780000Y-57150000D03*
X147320000Y-57150000D03*
X149860000Y-57150000D03*
X152400000Y-57150000D03*
X154940000Y-57150000D03*
X157480000Y-57150000D03*
X160020000Y-57150000D03*
X165100000Y-57150000D03*
X167640000Y-57150000D03*
X170180000Y-57150000D03*
X172720000Y-57150000D03*
X175260000Y-57150000D03*
X177800000Y-57150000D03*
X177800000Y-105410000D03*
X175260000Y-105410000D03*
X172720000Y-105410000D03*
X170180000Y-105410000D03*
X167640000Y-105410000D03*
X165100000Y-105410000D03*
X162560000Y-105410000D03*
X160020000Y-105410000D03*
X155960000Y-105410000D03*
X153420000Y-105410000D03*
X150880000Y-105410000D03*
X148340000Y-105410000D03*
X145800000Y-105410000D03*
X143260000Y-105410000D03*
X140720000Y-105410000D03*
X138180000Y-105410000D03*
X135640000Y-105410000D03*
X133100000Y-105410000D03*
%TD*%
D11*
%TO.C,R3*%
X149860000Y-90010000D03*
X149860000Y-82390000D03*
%TD*%
D10*
%TO.C,D3*%
X147320000Y-76200000D03*
D11*
X149860000Y-76200000D03*
%TD*%
M02*
