M48
; DRILL file {KiCad (6.0.7)} date Tue Aug 16 17:28:03 2022
; FORMAT={-:-/ absolute / inch / decimal}
; #@! TF.CreationDate,2022-08-16T17:28:03+09:00
; #@! TF.GenerationSoftware,Kicad,Pcbnew,(6.0.7)
; #@! TF.FileFunction,Plated,1,2,PTH
FMAT,2
INCH
; #@! TA.AperFunction,Plated,PTH,ViaDrill
T1C0.0157
; #@! TA.AperFunction,Plated,PTH,ComponentDrill
T2C0.0300
; #@! TA.AperFunction,Plated,PTH,ComponentDrill
T3C0.0394
%
G90
G05
T1
X5.2Y-3.95
X5.55Y-3.85
X5.85Y-3.85
T2
X5.2Y-3.0
X5.3Y-3.0
X5.3Y-3.2476
X5.3Y-3.5476
X5.5Y-3.0
X5.6Y-3.0
X5.6Y-3.2476
X5.6Y-3.5476
X5.8Y-3.0
X5.9Y-3.0
X5.9Y-3.2437
X5.9Y-3.5437
T3
X5.2402Y-4.15
X5.3402Y-4.15
X5.4402Y-4.15
X5.5402Y-4.15
X5.6Y-2.25
X5.6402Y-4.15
X5.7Y-2.25
X5.7402Y-4.15
X5.8Y-2.25
X5.8402Y-4.15
X5.9Y-2.25
X5.9402Y-4.15
X6.0Y-2.25
X6.0402Y-4.15
X6.1Y-2.25
X6.1402Y-4.15
X6.2Y-2.25
X6.3Y-2.25
X6.3Y-4.15
X6.4Y-4.15
X6.5Y-2.25
X6.5Y-4.15
X6.6Y-2.25
X6.6Y-4.15
X6.7Y-2.25
X6.7Y-4.15
X6.8Y-2.25
X6.8Y-4.15
X6.9Y-2.25
X6.9Y-4.15
X7.0Y-2.25
X7.0Y-4.15
T0
M30
