%TF.GenerationSoftware,KiCad,Pcbnew,(6.0.7)*%
%TF.CreationDate,2022-08-16T17:28:00+09:00*%
%TF.ProjectId,uno_shield_1,756e6f5f-7368-4696-956c-645f312e6b69,rev?*%
%TF.SameCoordinates,Original*%
%TF.FileFunction,Copper,L2,Bot*%
%TF.FilePolarity,Positive*%
%FSLAX46Y46*%
G04 Gerber Fmt 4.6, Leading zero omitted, Abs format (unit mm)*
G04 Created by KiCad (PCBNEW (6.0.7)) date 2022-08-16 17:28:00*
%MOMM*%
%LPD*%
G01*
G04 APERTURE LIST*
%TA.AperFunction,ComponentPad*%
%ADD10R,1.524000X1.524000*%
%TD*%
%TA.AperFunction,ComponentPad*%
%ADD11C,1.524000*%
%TD*%
%TA.AperFunction,ComponentPad*%
%ADD12R,1.600000X1.600000*%
%TD*%
%TA.AperFunction,ComponentPad*%
%ADD13O,1.600000X1.600000*%
%TD*%
%TA.AperFunction,ViaPad*%
%ADD14C,0.800000*%
%TD*%
%TA.AperFunction,Conductor*%
%ADD15C,0.250000*%
%TD*%
G04 APERTURE END LIST*
D10*
%TO.P,D2,1*%
%TO.N,GND*%
X139700000Y-76200000D03*
D11*
%TO.P,D2,2*%
%TO.N,Net-(D2-Pad2)*%
X142240000Y-76200000D03*
%TD*%
%TO.P,R2,1*%
%TO.N,Net-(D2-Pad2)*%
X142240000Y-90110000D03*
%TO.P,R2,2*%
%TO.N,Net-(A1-Pad26)*%
X142240000Y-82490000D03*
%TD*%
%TO.P,R1,1*%
%TO.N,Net-(D1-Pad2)*%
X134620000Y-90110000D03*
%TO.P,R1,2*%
%TO.N,Net-(A1-Pad25)*%
X134620000Y-82490000D03*
%TD*%
D10*
%TO.P,D1,1*%
%TO.N,GND*%
X132080000Y-76200000D03*
D11*
%TO.P,D1,2*%
%TO.N,Net-(D1-Pad2)*%
X134620000Y-76200000D03*
%TD*%
D12*
%TO.P,A1,1,NC*%
%TO.N,unconnected-(A1-Pad1)*%
X142240000Y-57150000D03*
D13*
%TO.P,A1,2,IOREF*%
%TO.N,unconnected-(A1-Pad2)*%
X144780000Y-57150000D03*
%TO.P,A1,3,~{RESET}*%
%TO.N,unconnected-(A1-Pad3)*%
X147320000Y-57150000D03*
%TO.P,A1,4,3V3*%
%TO.N,unconnected-(A1-Pad4)*%
X149860000Y-57150000D03*
%TO.P,A1,5,+5V*%
%TO.N,unconnected-(A1-Pad5)*%
X152400000Y-57150000D03*
%TO.P,A1,6,GND*%
%TO.N,GND*%
X154940000Y-57150000D03*
%TO.P,A1,7,GND*%
X157480000Y-57150000D03*
%TO.P,A1,8,VIN*%
%TO.N,unconnected-(A1-Pad8)*%
X160020000Y-57150000D03*
%TO.P,A1,9,A0*%
%TO.N,unconnected-(A1-Pad9)*%
X165100000Y-57150000D03*
%TO.P,A1,10,A1*%
%TO.N,unconnected-(A1-Pad10)*%
X167640000Y-57150000D03*
%TO.P,A1,11,A2*%
%TO.N,unconnected-(A1-Pad11)*%
X170180000Y-57150000D03*
%TO.P,A1,12,A3*%
%TO.N,unconnected-(A1-Pad12)*%
X172720000Y-57150000D03*
%TO.P,A1,13,SDA/A4*%
%TO.N,unconnected-(A1-Pad13)*%
X175260000Y-57150000D03*
%TO.P,A1,14,SCL/A5*%
%TO.N,unconnected-(A1-Pad14)*%
X177800000Y-57150000D03*
%TO.P,A1,15,D0/RX*%
%TO.N,unconnected-(A1-Pad15)*%
X177800000Y-105410000D03*
%TO.P,A1,16,D1/TX*%
%TO.N,unconnected-(A1-Pad16)*%
X175260000Y-105410000D03*
%TO.P,A1,17,D2*%
%TO.N,unconnected-(A1-Pad17)*%
X172720000Y-105410000D03*
%TO.P,A1,18,D3*%
%TO.N,unconnected-(A1-Pad18)*%
X170180000Y-105410000D03*
%TO.P,A1,19,D4*%
%TO.N,unconnected-(A1-Pad19)*%
X167640000Y-105410000D03*
%TO.P,A1,20,D5*%
%TO.N,unconnected-(A1-Pad20)*%
X165100000Y-105410000D03*
%TO.P,A1,21,D6*%
%TO.N,unconnected-(A1-Pad21)*%
X162560000Y-105410000D03*
%TO.P,A1,22,D7*%
%TO.N,unconnected-(A1-Pad22)*%
X160020000Y-105410000D03*
%TO.P,A1,23,D8*%
%TO.N,unconnected-(A1-Pad23)*%
X155960000Y-105410000D03*
%TO.P,A1,24,D9*%
%TO.N,unconnected-(A1-Pad24)*%
X153420000Y-105410000D03*
%TO.P,A1,25,D10*%
%TO.N,Net-(A1-Pad25)*%
X150880000Y-105410000D03*
%TO.P,A1,26,D11*%
%TO.N,Net-(A1-Pad26)*%
X148340000Y-105410000D03*
%TO.P,A1,27,D12*%
%TO.N,Net-(A1-Pad27)*%
X145800000Y-105410000D03*
%TO.P,A1,28,D13*%
%TO.N,unconnected-(A1-Pad28)*%
X143260000Y-105410000D03*
%TO.P,A1,29,GND*%
%TO.N,GND*%
X140720000Y-105410000D03*
%TO.P,A1,30,AREF*%
%TO.N,unconnected-(A1-Pad30)*%
X138180000Y-105410000D03*
%TO.P,A1,31,SDA/A4*%
%TO.N,unconnected-(A1-Pad31)*%
X135640000Y-105410000D03*
%TO.P,A1,32,SCL/A5*%
%TO.N,unconnected-(A1-Pad32)*%
X133100000Y-105410000D03*
%TD*%
D11*
%TO.P,R3,1*%
%TO.N,Net-(D3-Pad2)*%
X149860000Y-90010000D03*
%TO.P,R3,2*%
%TO.N,Net-(A1-Pad27)*%
X149860000Y-82390000D03*
%TD*%
D10*
%TO.P,D3,1*%
%TO.N,GND*%
X147320000Y-76200000D03*
D11*
%TO.P,D3,2*%
%TO.N,Net-(D3-Pad2)*%
X149860000Y-76200000D03*
%TD*%
D14*
%TO.N,Net-(A1-Pad25)*%
X132080000Y-100330000D03*
%TO.N,Net-(A1-Pad26)*%
X140970000Y-97790000D03*
X148590000Y-97790000D03*
%TD*%
D15*
%TO.N,Net-(A1-Pad25)*%
X150880000Y-105410000D02*
X150880000Y-101850000D01*
X149360000Y-100330000D02*
X132080000Y-100330000D01*
X150880000Y-101850000D02*
X149360000Y-100330000D01*
%TO.N,Net-(A1-Pad26)*%
X140970000Y-97790000D02*
X148590000Y-97790000D01*
%TD*%
M02*
