%TF.GenerationSoftware,KiCad,Pcbnew,(6.0.7)*%
%TF.CreationDate,2022-08-16T17:28:00+09:00*%
%TF.ProjectId,uno_shield_1,756e6f5f-7368-4696-956c-645f312e6b69,rev?*%
%TF.SameCoordinates,Original*%
%TF.FileFunction,Soldermask,Top*%
%TF.FilePolarity,Negative*%
%FSLAX46Y46*%
G04 Gerber Fmt 4.6, Leading zero omitted, Abs format (unit mm)*
G04 Created by KiCad (PCBNEW (6.0.7)) date 2022-08-16 17:28:00*
%MOMM*%
%LPD*%
G01*
G04 APERTURE LIST*
%ADD10R,1.524000X1.524000*%
%ADD11C,1.524000*%
%ADD12R,1.600000X1.600000*%
%ADD13O,1.600000X1.600000*%
G04 APERTURE END LIST*
%TO.C,G\u002A\u002A\u002A*%
G36*
X167647642Y-86382184D02*
G01*
X167647530Y-83775451D01*
X167886737Y-83597748D01*
X168198762Y-83394619D01*
X168574769Y-83196997D01*
X168995360Y-83012845D01*
X169441138Y-82850124D01*
X169892704Y-82716796D01*
X170212843Y-82643004D01*
X170459229Y-82606696D01*
X170766487Y-82581420D01*
X171112806Y-82567178D01*
X171476375Y-82563969D01*
X171835383Y-82571792D01*
X172168019Y-82590649D01*
X172452473Y-82620538D01*
X172587156Y-82643004D01*
X173030784Y-82750030D01*
X173482692Y-82892225D01*
X173923484Y-83061625D01*
X174333762Y-83250270D01*
X174694129Y-83450197D01*
X174913262Y-83597748D01*
X175152469Y-83775451D01*
X175152358Y-86382184D01*
X175152191Y-86949135D01*
X175151386Y-87439514D01*
X175149407Y-87860163D01*
X175145720Y-88217923D01*
X175139789Y-88519639D01*
X175131078Y-88772152D01*
X175119053Y-88982305D01*
X175103178Y-89156941D01*
X175082917Y-89302901D01*
X175057737Y-89427029D01*
X175027101Y-89536168D01*
X174990474Y-89637158D01*
X174947321Y-89736845D01*
X174897106Y-89842069D01*
X174878786Y-89879393D01*
X174728784Y-90125130D01*
X174515332Y-90390240D01*
X174251540Y-90660976D01*
X173950516Y-90923590D01*
X173708173Y-91106972D01*
X173602761Y-91178761D01*
X173446425Y-91281369D01*
X173249851Y-91408113D01*
X173023722Y-91552311D01*
X172778721Y-91707280D01*
X172525533Y-91866338D01*
X172274842Y-92022802D01*
X172037331Y-92169990D01*
X171823684Y-92301218D01*
X171644585Y-92409805D01*
X171510717Y-92489068D01*
X171432766Y-92532324D01*
X171420853Y-92537657D01*
X171375779Y-92520359D01*
X171269585Y-92464231D01*
X171111802Y-92374788D01*
X170911964Y-92257546D01*
X170679601Y-92118019D01*
X170424246Y-91961723D01*
X170405784Y-91950314D01*
X170012098Y-91705471D01*
X169681418Y-91496209D01*
X169404702Y-91316068D01*
X169172908Y-91158589D01*
X168976995Y-91017313D01*
X168807920Y-90885781D01*
X168656643Y-90757534D01*
X168514122Y-90626112D01*
X168411819Y-90525863D01*
X168210429Y-90311452D01*
X168060469Y-90118777D01*
X167943663Y-89923758D01*
X167921213Y-89879393D01*
X167868536Y-89770819D01*
X167823099Y-89670053D01*
X167784365Y-89570254D01*
X167751800Y-89464579D01*
X167724868Y-89346184D01*
X167703034Y-89208229D01*
X167685762Y-89043870D01*
X167672519Y-88846264D01*
X167662767Y-88608569D01*
X167655973Y-88323943D01*
X167651600Y-87985543D01*
X167649114Y-87586526D01*
X167647979Y-87120050D01*
X167647953Y-87076002D01*
X168487273Y-87076002D01*
X168487418Y-87603415D01*
X168489929Y-88048228D01*
X168494810Y-88410835D01*
X168502067Y-88691625D01*
X168511704Y-88890992D01*
X168523728Y-89009326D01*
X168523768Y-89009560D01*
X168608444Y-89315941D01*
X168758031Y-89608277D01*
X168976809Y-89891908D01*
X169269056Y-90172171D01*
X169639049Y-90454407D01*
X169732763Y-90518268D01*
X169863547Y-90604159D01*
X170033688Y-90713568D01*
X170231349Y-90839128D01*
X170444692Y-90973472D01*
X170661878Y-91109235D01*
X170871069Y-91239050D01*
X171060427Y-91355550D01*
X171218113Y-91451370D01*
X171332290Y-91519143D01*
X171391119Y-91551502D01*
X171395979Y-91553212D01*
X171435601Y-91532912D01*
X171533384Y-91476546D01*
X171676421Y-91391724D01*
X171851808Y-91286055D01*
X171938179Y-91233527D01*
X172414813Y-90938454D01*
X172822386Y-90675483D01*
X173166420Y-90439360D01*
X173452438Y-90224832D01*
X173685963Y-90026646D01*
X173872517Y-89839549D01*
X174017624Y-89658287D01*
X174126805Y-89477608D01*
X174205584Y-89292259D01*
X174259482Y-89096985D01*
X174276231Y-89009560D01*
X174288262Y-88891470D01*
X174297907Y-88692349D01*
X174305171Y-88411805D01*
X174310059Y-88049446D01*
X174312577Y-87604881D01*
X174312730Y-87077718D01*
X174310522Y-86467566D01*
X174310512Y-86465599D01*
X174298686Y-84192528D01*
X173923317Y-83996581D01*
X173330534Y-83733392D01*
X172709744Y-83544934D01*
X172070138Y-83431273D01*
X171420908Y-83392479D01*
X170771247Y-83428620D01*
X170130345Y-83539764D01*
X169507396Y-83725980D01*
X168965893Y-83959717D01*
X168501313Y-84192528D01*
X168489487Y-86465599D01*
X168487273Y-87076002D01*
X167647953Y-87076002D01*
X167647659Y-86579273D01*
X167647642Y-86382184D01*
G37*
G36*
X171880402Y-84231090D02*
G01*
X172204788Y-84280136D01*
X172548757Y-84354399D01*
X172884834Y-84447760D01*
X173185545Y-84554100D01*
X173245566Y-84579208D01*
X173485385Y-84683071D01*
X173484470Y-86794285D01*
X173484364Y-87289423D01*
X173483831Y-87708498D01*
X173481848Y-88058862D01*
X173477395Y-88347866D01*
X173469450Y-88582862D01*
X173456991Y-88771200D01*
X173438997Y-88920232D01*
X173414446Y-89037308D01*
X173382317Y-89129781D01*
X173341588Y-89205000D01*
X173291237Y-89270318D01*
X173230244Y-89333085D01*
X173157586Y-89400653D01*
X173117087Y-89438047D01*
X173011025Y-89526220D01*
X172847888Y-89648709D01*
X172641568Y-89795994D01*
X172405961Y-89958556D01*
X172154960Y-90126876D01*
X171902459Y-90291435D01*
X171662352Y-90442713D01*
X171556404Y-90507321D01*
X171400000Y-90601466D01*
X171400000Y-84213382D01*
X171603075Y-84213382D01*
X171880402Y-84231090D01*
G37*
%TD*%
D10*
%TO.C,D2*%
X139700000Y-76200000D03*
D11*
X142240000Y-76200000D03*
%TD*%
%TO.C,R2*%
X142240000Y-90110000D03*
X142240000Y-82490000D03*
%TD*%
%TO.C,R1*%
X134620000Y-90110000D03*
X134620000Y-82490000D03*
%TD*%
D10*
%TO.C,D1*%
X132080000Y-76200000D03*
D11*
X134620000Y-76200000D03*
%TD*%
D12*
%TO.C,A1*%
X142240000Y-57150000D03*
D13*
X144780000Y-57150000D03*
X147320000Y-57150000D03*
X149860000Y-57150000D03*
X152400000Y-57150000D03*
X154940000Y-57150000D03*
X157480000Y-57150000D03*
X160020000Y-57150000D03*
X165100000Y-57150000D03*
X167640000Y-57150000D03*
X170180000Y-57150000D03*
X172720000Y-57150000D03*
X175260000Y-57150000D03*
X177800000Y-57150000D03*
X177800000Y-105410000D03*
X175260000Y-105410000D03*
X172720000Y-105410000D03*
X170180000Y-105410000D03*
X167640000Y-105410000D03*
X165100000Y-105410000D03*
X162560000Y-105410000D03*
X160020000Y-105410000D03*
X155960000Y-105410000D03*
X153420000Y-105410000D03*
X150880000Y-105410000D03*
X148340000Y-105410000D03*
X145800000Y-105410000D03*
X143260000Y-105410000D03*
X140720000Y-105410000D03*
X138180000Y-105410000D03*
X135640000Y-105410000D03*
X133100000Y-105410000D03*
%TD*%
D11*
%TO.C,R3*%
X149860000Y-90010000D03*
X149860000Y-82390000D03*
%TD*%
D10*
%TO.C,D3*%
X147320000Y-76200000D03*
D11*
X149860000Y-76200000D03*
%TD*%
M02*
